<?xml version="1.0" encoding="UTF-8"?>
<svg id="Layer_1" xmlns="http://www.w3.org/2000/svg" xmlns:xlink="http://www.w3.org/1999/xlink" version="1.1" viewBox="0 0 616.9 467.1">
  <!-- Generator: Adobe Illustrator 29.2.1, SVG Export Plug-In . SVG Version: 2.1.0 Build 116)  -->
  <defs>
    <style>
      .st0 {
        fill: url(#linear-gradient2);
      }

      .st1 {
        fill: url(#linear-gradient1);
      }

      .st2 {
        fill: url(#linear-gradient3);
      }

      .st3 {
        fill: url(#linear-gradient4);
      }

      .st4 {
        fill: url(#linear-gradient);
      }

      .st5 {
        fill: #4c35ff;
      }

      .st6 {
        fill: #fff;
      }

      .st7 {
        fill: #efc2a6;
      }

      .st8 {
        fill: #efc2a6;
      }

      .st9 {
        fill: #c08355;
      }

      .st10 {
        fill: #21d789;
      }

      .st11 {
        fill: #6b57ff;
      }
    </style>
    <linearGradient id="linear-gradient" x1="-3331.9" y1="403.2" x2="-3353.6" y2="414" gradientTransform="translate(-3048.1) rotate(-180) scale(1 -1)" gradientUnits="userSpaceOnUse">
      <stop offset=".1" stop-color="#bfbfbf"/>
      <stop offset=".2" stop-color="#cacaca"/>
      <stop offset=".3" stop-color="#e7e7e7"/>
      <stop offset=".5" stop-color="#f8f8f8"/>
      <stop offset=".6" stop-color="#fff"/>
      <stop offset=".9" stop-color="#fff"/>
    </linearGradient>
    <linearGradient id="linear-gradient1" x1="-3382.4" y1="404.5" x2="-3407.8" y2="417" xlink:href="#linear-gradient"/>
    <linearGradient id="linear-gradient2" x1="304.7" y1="394.6" x2="418.1" y2="303.1" gradientUnits="userSpaceOnUse">
      <stop offset=".2" stop-color="#00aa69"/>
      <stop offset=".4" stop-color="#03ae6c"/>
      <stop offset=".6" stop-color="#0cbb75"/>
      <stop offset=".8" stop-color="#1cd084"/>
      <stop offset=".8" stop-color="#21d789"/>
    </linearGradient>
    <linearGradient id="linear-gradient3" x1="-2704.8" y1="403.3" x2="-2690.9" y2="426.2" gradientTransform="translate(-2304.8 396.2) rotate(165.6) scale(1 -1)" gradientUnits="userSpaceOnUse">
      <stop offset="0" stop-color="#b78a6d"/>
      <stop offset=".1" stop-color="#c4977a"/>
      <stop offset=".4" stop-color="#dbae92"/>
      <stop offset=".6" stop-color="#eabda0"/>
      <stop offset=".8" stop-color="#efc2a6"/>
    </linearGradient>
    <linearGradient id="linear-gradient4" x1="-2756.2" y1="626.3" x2="-2622.5" y2="610.2" gradientTransform="translate(-2360.8 380.8) rotate(161.3) scale(1 -1)" gradientUnits="userSpaceOnUse">
      <stop offset="0" stop-color="#21d789"/>
      <stop offset="1" stop-color="#00aa69"/>
    </linearGradient>
  </defs>
  <path class="st11" d="M124.3,132.3v170.5c0,4,4.1,6.7,7.7,5.1l193.7-83.4c3.9-1.7,6.4-5.5,6.4-9.7V50.6c0-3.8-3.8-6.4-7.3-5l-193.9,76.9c-4,1.6-6.6,5.4-6.6,9.7Z"/>
  <g>
    <path class="st5" d="M141.1,287.1v-148.4h.2c0,0,176.9-74.8,176.9-74.8v146.1h-.2c0,0-176.9,77.1-176.9,77.1ZM141.6,139v147.3l176-76.7V64.6l-176,74.4Z"/>
    <polygon class="st5" points="141.2 266.4 141 265.9 317.6 190.5 317.8 191 141.2 266.4"/>
    <polygon class="st5" points="141.2 245.1 141 244.7 317.6 169.2 317.8 169.7 141.2 245.1"/>
    <polygon class="st5" points="141.2 223.8 141 223.4 317.6 148 317.8 148.4 141.2 223.8"/>
    <polygon class="st5" points="141.2 202.6 141 202.1 317.6 126.7 317.8 127.1 141.2 202.6"/>
    <polygon class="st5" points="141.2 181.3 141 180.8 317.6 105.4 317.8 105.9 141.2 181.3"/>
    <polygon class="st5" points="141.2 160 141 159.5 317.6 84.1 317.8 84.6 141.2 160"/>
    <g>
      <rect class="st5" x="163.1" y="129.7" width=".5" height="147.3"/>
      <rect class="st5" x="185.2" y="120.1" width=".5" height="147.3"/>
      <rect class="st5" x="207.3" y="110.8" width=".5" height="147"/>
      <rect class="st5" x="229.3" y="101.4" width=".5" height="146.8"/>
      <rect class="st5" x="251.4" y="92.1" width=".5" height="146.6"/>
      <rect class="st5" x="273.5" y="82.8" width=".5" height="146.2"/>
      <rect class="st5" x="295.5" y="73.5" width=".5" height="145.9"/>
    </g>
  </g>
  <path d="M309.2,172.8s-5.6,2-4.5,9c.7,5,2.6,12.1-.1,26.2-1.4,7.3,9.5,24.5,26.2,11.4,16.7-13.1,14.1-18.6,14.1-18.6,0,0-20.4-32.6-35.7-28Z"/>
  <path class="st4" d="M295.9,426l-19.3-.8,17.6-31.2h22.8l-18.7,30.2c-.5,2.2-.2,1.8-2.4,1.7Z"/>
  <path class="st9" d="M380.5,114.7c-.6,4.7-4.7,11.3-8.2,16.2-3.5,4.9-2.5,11.7,2.3,15.4s4.2,2.7,5.4,2.4l29.4,2.1h0s-4.5-26.7-9.3-31.2l17.9,4.4c-1.3-1.2-3.7,9.6-4.4,7.9l-6.9-17.2-8.9-6.5-11-11-6.3,17.5Z"/>
  <g>
    <path class="st7" d="M419.8,219.2l2.7-1.9-6.2,22s8.1,7.2,9.1,4.2c.7-2.3,4.3-11.2,5.2-18.9.6-5.1-1.6-10.2-1.6-10.2l-6.5,2.9-2.7,1.9Z"/>
    <path class="st7" d="M422.4,242.3s-2.2,5.4,9.8,6.2c0,0,3.5,1,5.4,1.8,1.9.8,6.2-1.3,6.2-4.6,0-3.3-1.4-4.8-3.9-6.1-2.5-1.3-7.9-.9-7.9-.9l-5-8-2.4,1.2-2.4,10.3h0c0,0,0,0,0,0Z"/>
    <path class="st7" d="M429.3,225.7s-4.4,5.6-2.2,11.6c2.2,5.9,12.1,3.7,12.1,3.7,0,0,3.1-.5,5.5,0,2.5.5,5.5-2.6,5.1-5.1-.4-3.4-2.9-5.3-6.7-5.5-3.8-.2-5.7.5-5.7.5,0,0,1.7-2.1,1.3-9.4,0,0,.4-6-5.5-7.2-5.9-1.3-5.9,0-5.9,0l1.9,11.5Z"/>
    <path class="st7" d="M416.3,239.3s-1.9,7.1,3.3,9.5c5.1,2.3,4.7,2.4,6.4,3.6,1.6,1.2,4.1,2.2,6-.5,1.9-2.7,1.1-4.6-.4-6.1-1.5-1.5-15.2-6.6-15.2-6.6h0Z"/>
  </g>
  <polygon class="st1" points="359.4 421.4 348.7 433.4 330.9 429.2 343.9 394 366.6 394 359.4 421.4"/>
  <path d="M330.9,429.2s-3.6,7.9-3.5,16.2l64.8-.2s10.6,1.6,16.3-5.4c0,0-1.3-10.2-24.9-10.1-3.3,0-6.5-.9-9.2-2.7l-8-5.2c-1.7-1.4-4.1-2-6.3-2.3-3.9-.4-7.6,1.8-9,5.5s-.5,1.4-.6,1.9c-.4,2.3-2.4,3.9-4.8,3.9l-14.9-1.6Z"/>
  <path class="st6" d="M325,447.4c0-1.3,1.1-2.4,2.4-2.4h70.2s7,0,10.4-4.7,2.3-1.4,3.4-.5l.2.2c.7.6,1,1.6.7,2.5-1,2.6-4.2,7.2-14.6,7.2h-70.2c-1.3,0-2.4-1.1-2.4-2.4h0Z"/>
  <path class="st6" d="M359.9,429.6c-.1,0-.2,0-.3-.2-.1-.2,0-.4,0-.6,7.4-5.4,13.5-3.7,13.8-3.6.2,0,.3.3.3.5,0,.2-.3.3-.5.3,0,0-6.1-1.6-13.1,3.5,0,0-.2,0-.2,0Z"/>
  <path class="st6" d="M365.4,431.8c-.1,0-.2,0-.3-.2-.1-.2,0-.4,0-.6,7.4-5.4,14.9-2.4,15-2.3.2,0,.3.3.2.5,0,.2-.3.3-.5.2,0,0-7.2-2.9-14.2,2.2,0,0-.2,0-.2,0Z"/>
  <path class="st6" d="M323.7,457.7c-.2,0-.3,0-.4-.2,0-.2,0-.4.2-.5,1.8-.8,3.1-2.2,4.6-3.7,1-1.1,2.1-2.2,3.3-3.1,3-2.1,6.7-2.6,10.2-3.2,1.4-.2,2.8-.4,4.2-.7,3-.6,6.2-2.3,6.4-5.2.1-1.2-.3-2.4-.8-3.6-.3-.8-.7-1.7-.8-2.6-.4-1.9.2-3.8,1.4-5,1.4-1.3,3.7-1.4,5.1-.2.2.2.2.4,0,.6-.1.2-.4.2-.6,0-1-.9-2.9-.8-4,.2-1,1-1.5,2.6-1.2,4.2.1.8.5,1.6.8,2.4.5,1.3,1,2.6.9,4-.3,3.3-3.8,5.2-7.1,5.9-1.4.3-2.8.5-4.2.7-3.5.5-7.1,1-9.9,3-1.2.8-2.2,1.9-3.2,3-1.4,1.5-2.9,3-4.8,3.9,0,0-.1,0-.2,0Z"/>
  <path class="st0" d="M421.9,236.3l-12,58.2c-1.8,8.5-4.3,16.8-7.6,24.8s-7.4,19-9.3,28.5c-2.4,12-6.7,48.3-7.2,59-.2,4.5-3.5,8.2-7.9,9-3.9.7-8.9,1.2-14.2.8-11.5-.8-14.6-2.3-20.8.1-3.1,1.2-6.5.9-9.1.2s-3.6-3.1-2.7-5.3l51.5-124.7,8.4-43.5,31-7.1Z"/>
  <path class="st10" d="M370,248.2s-15.9,9.9-27.1,31.4c-15.4,29.6-33.5,64.8-46.3,84.4-7.7,11.8-24.7,36.2-27.4,42-1.2,2.5.7,5.3,3.4,5.2s8.6.3,12,3.1c5.2,4.3,15.3-2.1,25.7,1.9s2.6,1.3,4.4,2.3c3.9,2.2,8.9.5,10.5-3.6l25.7-64.8,18.1-40.8,13.4-22.3,14.7-40.5-27.2,1.8Z"/>
  <path class="st7" d="M368.9,261.6s2.2,5.4-9.8,6.2c0,0-3.5,1-5.4,1.8-1.9.8-6.2-1.3-6.2-4.6,0-3.3,1.4-4.8,3.9-6.1,2.5-1.3,7.9-.9,7.9-.9l5-8,2.4,1.2,2.4,10.3h0c0,0,0,0,0,0Z"/>
  <path class="st7" d="M362,245s4.4,5.6,2.2,11.6c-2.2,5.9-12.1,3.7-12.1,3.7,0,0-3.1-.5-5.5,0-2.5.5-5.5-2.6-5.1-5.1.4-3.4,2.9-5.3,6.7-5.5,3.8-.2,5.7.5,5.7.5,0,0-1.7-2.1-1.3-9.4,0,0-.4-6,5.5-7.2,5.9-1.3,5.9,0,5.9,0l-1.9,11.5Z"/>
  <path class="st7" d="M375,258.6s1.9,7.1-3.3,9.5c-5.1,2.3-4.7,2.4-6.4,3.6-1.6,1.2-4.1,2.2-6-.5-1.9-2.7-1.1-4.6.4-6.1,1.5-1.5,15.2-6.6,15.2-6.6h0Z"/>
  <path class="st7" d="M447.1,191.5l-31.6,24.4s5.5,22.9,15.3,18.4c6.5-3,45.8-33.5,45.8-33.5,0,0,17.7-18.4,7-33.5-10.6-15.1-24.5-10.3-24.5-10.3l-12,34.4Z"/>
  <polygon class="st7" points="309.2 178.1 338.3 167.3 356.1 194.9 340.1 203 309.2 178.1"/>
  <path class="st6" d="M388.8,144.7l-14.1,2.1c-9.3,1.4-18.1,4.8-25.9,10l-9.9,6.6c-2.6,1-5.2,1.9-7.8,2.6-16.3,4.1-21.9,6.9-21.9,6.9,12.5-1.3,18.6,8.6,21.4,12.3,5.1,6.7,7.3,29.6,14.4,31.5s27.5-20.2,27.5-20.2c0,0,2.9,17.3-9.3,31.9s1.4,18.7,6.8,19.9l48.7-1.6s5.2-1,7.2-11.8l10.7-44.9s18.9,5.1,20.7,5.2c3.4.2,8.7,1.7,9.8-7.7,1.1-9,12-21-.4-34-1.6-1.6-14.2-3.6-22.6-4.8-13.4-2-26.7-5.6-33.3-5.3s-22.1,1.4-22.1,1.4Z"/>
  <path class="st7" d="M370.8,242.4l4.1,16.2s-8.1,7.2-9.1,4.2c-.7-2.3-4.3-11.2-5.2-18.9-.6-5.1,1-17.3,1-17.3l2.6,3.1c3.1,3.7,5.3,8,6.5,12.7Z"/>
  <path class="st7" d="M424.9,250.1c1.9,0,1.9-3,0-3s-1.9,3,0,3h0Z"/>
  <path class="st2" d="M408.7,117.4l18.4,12.3h0c-3,.6-6.2,3.5-7,6.4l-4.3,15.8c-2,3.2-8.6.9-12-.9,0,0-9.9-5.6-11.8-9l16.7-24.6Z"/>
  <path class="st8" d="M391.4,113.5l-2.4-6.6c-1.4-3.8-.6-8,1.9-11.1l5.1-6-.3-.4.8-.2.5-.6.3.4,2-1c1.3-.4,3.1-1.4,4.5-1.1s6.3,2.3,12.1,6.5c2.1,1.5,2,4.2,3.7,4.6,0,0,10,1,11.5,2.6,1.3,1.4.3,3.2-.7,4.2l-3.2,3.5c.3.7,2.4,3.2,3.3,4.1s3.6,9.3,3.8,10.9c.3,2.5-3.5,5.9-7.1,6.5-4.9.7-11.8-6.4-11.8-6.4-3.3-.2-4.7,1.8-6.2,0l-14.8-5c-1.3-1.4-2.3-3-3-4.8Z"/>
  <rect x="398.5" y="105.9" width="14.1" height="1.9" transform="translate(32.4 298.2) rotate(-41.9)"/>
  <path class="st9" d="M408.2,83l-2.9,15.2c-.5,2.5,0,5.1,1.3,7.3,3.6,6,6.4,5.6,7.9,10.7,1.5,5.3,1.5,18,1.5,18l-19.8-10.8s-10.2-15.5-9.9-18,11.3-16.7,21.9-22.3Z"/>
  <path d="M419.4,108c-1.4,0-3-.4-4.5-1.3-3.6-2.1-5.6-4.7-6.6-6.5-.9-1.7-.7-3.6.5-4.7l2.3-2.1c1.6-1.5,4.5-1.4,6.2.2l5.7,5.3c.9.8,1.5,1.9,1.8,3,.4,1.7,0,3.3-1.1,4.3l-.9.9c-.6.4-1.3.7-2,.9-.4,0-.9.1-1.3.1ZM412.3,94.7l-2.3,2.1c-.6.5-.6,1.5,0,2.5.9,1.6,2.6,3.9,5.8,5.8,1.6.9,3.2,1.2,4.5.9.5-.1.9-.3,1.3-.5l.8-.8c.6-.6.8-1.5.6-2.5-.2-.7-.6-1.4-1.2-2l-5.7-5.3c-1.1-1-2.9-.9-3.7-.2Z"/>
  <path class="st9" d="M424.5,111l4.4-4.6c.2-.2,3.5,0,4.9,1.1s1.3,1.9.5,2.7-1,.5-1.6.5-1.4.5-1.5,1.3c0,0,0,1.3-.5,1.6-1.2.8-1.6-.8-2.6-.7s-1,2-2.8,1.7c-1.3-.2-1.6-2.7-.8-3.6Z"/>
  <path class="st3" d="M385.9,85l9.2,2.4c3.7-3.1,7.2-5.3,11.1-8,8.6-5.9,11.8-5.3,10-.9,0,0-15.8,25-29.5,43.5s-5.6,3.2-8.3,1.4l-5.5-3.8c-2.5-1.7-3.4-4.9-2.3-7.6l9.6-24.1c.9-2.2,3.3-3.4,5.6-2.8Z"/>
  <path class="st9" d="M415.4,123.3s3,23.1-4.7,26.7c-7.6,3.5-14.9,10.2-20.6,3.5-3.8-4.4-11.1-7.9-13.2-7.1l-.4-1.5c4.4-9.7,22.8-27.8,22.8-27.8l7.5-2.8,8.6,9Z"/>
  <path class="st7" d="M343.3,204.7l19.8,23.6s-4.4,28.1-13,21.7c-5.7-4.3-11.1-8.8-16.4-13.6l-23.8-22.1s-20.9-19.2-7.3-31.8c13.6-12.5,23.1-.5,23.1-.5l17.5,22.7Z"/>
  <path d="M418,102.3l-1.3-1.3c1.2-1.2,2.4-3,2.2-3.6l1.7-.7c.9,2.1-2,5.1-2.6,5.6Z"/>
  <g>
    <path d="M271.4,429.2c-4.9,5.2-6.7,10.5-6.6,16.1,0,0,34-.3,39.9-.3,0,0,3.2-9.9-5.8-18.9l-22.2-.9c-.5,0-4,2.5-5.3,3.9Z"/>
    <path class="st6" d="M307.1,447.4c0,1.3-1.1,2.4-2.4,2.4h-39.9c-1.3,0-2.4-1.1-2.4-2.4h0c0-1.3,1.1-2.4,2.4-2.4h39.9c1.3,0,2.4,1.1,2.4,2.4h0Z"/>
  </g>
  <path d="M289.8,428.3l-13.1-3.1s10.8-6,15.4-4.9c8.6,2,6.7,7.9,6.7,7.9h-9Z"/>
  <g>
    <path class="st6" d="M316.5,444.7c-1.2,0-2.5-.2-4-.5-7.7-1.8-10.2-4.6-12.9-7.5-.9-1-1.9-2.1-3.1-3.1-1.7-1.5-2.7-2.8-3.6-3.8-1.4-1.8-2.1-2.6-4.4-2.2-.2,0-.5,0-.5-.3,0-.2,0-.5.2-.6.2-.2,5.6-3.8,11.8-2.1,3.5.9,5.1,2.6,6.4,3.9,1,1.1,1.9,1.9,3.3,2.2l.9.2c4.1.8,10.4,2.1,11.4,5.4.3,1.1,1.3,4.7-.8,7-1,1.1-2.6,1.6-4.6,1.6ZM290.5,426.5c1.4.3,2.2,1.3,3.3,2.6.8,1,1.8,2.3,3.4,3.7,1.2,1.1,2.2,2.1,3.1,3.2,2.6,2.8,5,5.5,12.4,7.2,3.8.9,6.4.6,7.7-.8,1.7-1.8.9-5,.6-6-.9-2.7-7.2-4-10.6-4.7l-.9-.2c-1.8-.4-2.8-1.4-3.8-2.5-1.3-1.3-2.7-2.8-6-3.7-3.8-1-7.3.1-9.3,1.1Z"/>
    <path class="st6" d="M263.1,434c-5.3,0-6.8-1.9-7.3-3.1-.6-1.6,0-3.6,1.6-5,3.1-2.8,13.8-4.7,15.9-5,2.9-.5,3.7.1,5.7,1.6.3.2.7.5,1.1.8,2.7,1.9,9.3,2.9,9.4,2.9.2,0,.4.2.4.4s0,.4-.3.5c-.2,0-5.7,2.3-8.4,2.3-.9,0-2.2.6-3.9,1.3-3.2,1.3-7.6,3.2-13.5,3.3-.2,0-.5,0-.7,0ZM275,421.6c-.4,0-.9,0-1.6.2-5.7,1-13.1,2.8-15.4,4.8-1.3,1.1-1.8,2.7-1.3,3.9.4,1,1.8,2.6,7,2.5,5.6-.2,10-1.9,13.1-3.2,1.8-.7,3.2-1.3,4.2-1.3,1.7,0,4.5-1,6.4-1.6-2.3-.4-6-1.3-8-2.8-.4-.3-.8-.6-1.1-.8-1.4-1-2-1.5-3.3-1.5Z"/>
  </g>
  <g>
    <rect class="st6" x="221.4" y="106.3" width="6.9" height="6.9" rx="1.5" ry="1.5"/>
    <rect class="st6" x="229.3" y="102.8" width="6.9" height="6.9" rx="1.5" ry="1.5"/>
    <rect class="st6" x="237.3" y="100.9" width="6.9" height="6.9" rx="1.5" ry="1.5"/>
    <rect class="st6" x="245.1" y="99.8" width="6.9" height="6.9" rx="1.5" ry="1.5"/>
    <rect class="st6" x="252.6" y="100.4" width="6.9" height="6.9" rx="1.5" ry="1.5"/>
    <rect class="st6" x="241.6" y="151.1" width="6.9" height="6.9" rx="1.5" ry="1.5"/>
    <rect class="st6" x="211.6" y="163.4" width="6.9" height="6.9" rx="1.5" ry="1.5"/>
    <rect class="st6" x="188.2" y="186.7" width="6.9" height="6.9" rx="1.5" ry="1.5"/>
    <rect class="st6" x="189.1" y="194.8" width="6.9" height="6.9" rx="1.5" ry="1.5"/>
    <rect class="st6" x="192.6" y="203" width="6.9" height="6.9" rx="1.5" ry="1.5"/>
    <rect class="st6" x="197.9" y="210.1" width="6.9" height="6.9" rx="1.5" ry="1.5"/>
    <rect class="st6" x="206.1" y="211.5" width="6.9" height="6.9" rx="1.5" ry="1.5"/>
    <rect class="st6" x="214.3" y="213" width="6.9" height="6.9" rx="1.5" ry="1.5"/>
    <rect class="st6" x="222.3" y="211.5" width="6.9" height="6.9" rx="1.5" ry="1.5"/>
    <rect class="st6" x="230.4" y="209.5" width="6.9" height="6.9" rx="1.5" ry="1.5"/>
    <rect class="st6" x="238.2" y="204.6" width="6.9" height="6.9" rx="1.5" ry="1.5"/>
    <rect class="st6" x="245" y="197.6" width="6.9" height="6.9" rx="1.5" ry="1.5"/>
    <rect class="st6" x="251.9" y="190.1" width="6.9" height="6.9" rx="1.5" ry="1.5"/>
    <rect class="st6" x="255.4" y="181.9" width="6.9" height="6.9" rx="1.5" ry="1.5"/>
    <rect class="st6" x="258.8" y="174.4" width="6.9" height="6.9" rx="1.5" ry="1.5"/>
    <rect class="st6" x="262.3" y="166.3" width="6.9" height="6.9" rx="1.5" ry="1.5"/>
    <rect class="st6" x="264.4" y="158.2" width="6.9" height="6.9" rx="1.5" ry="1.5"/>
    <rect class="st6" x="213.6" y="111.3" width="6.9" height="6.9" rx="1.5" ry="1.5"/>
    <rect class="st6" x="206.1" y="116.6" width="6.9" height="6.9" rx="1.5" ry="1.5"/>
    <rect class="st6" x="199.5" y="123.5" width="6.9" height="6.9" rx="1.5" ry="1.5"/>
    <rect class="st6" x="192.6" y="130.5" width="6.9" height="6.9" rx="1.5" ry="1.5"/>
    <rect class="st6" x="186.7" y="138" width="6.9" height="6.9" rx="1.5" ry="1.5"/>
    <rect class="st6" x="181.3" y="145.9" width="6.9" height="6.9" rx="1.5" ry="1.5"/>
    <rect class="st6" x="176.9" y="153.8" width="6.9" height="6.9" rx="1.5" ry="1.5"/>
    <rect class="st6" x="173.4" y="161.6" width="6.9" height="6.9" rx="1.5" ry="1.5"/>
    <rect class="st6" x="170" y="169.5" width="6.9" height="6.9" rx="1.5" ry="1.5"/>
    <rect class="st6" x="168" y="177.3" width="6.9" height="6.9" rx="1.5" ry="1.5"/>
    <rect class="st6" x="166.5" y="185.1" width="6.9" height="6.9" rx="1.5" ry="1.5"/>
    <rect class="st6" x="165.4" y="193" width="6.9" height="6.9" rx="1.5" ry="1.5"/>
    <rect class="st6" x="165.4" y="201" width="6.9" height="6.9" rx="1.5" ry="1.5"/>
    <rect class="st6" x="166.5" y="209" width="6.9" height="6.9" rx="1.5" ry="1.5"/>
    <rect class="st6" x="168" y="217.1" width="6.9" height="6.9" rx="1.5" ry="1.5"/>
    <rect class="st6" x="171.5" y="225.1" width="6.9" height="6.9" rx="1.5" ry="1.5"/>
    <rect class="st6" x="176.9" y="232.3" width="6.9" height="6.9" rx="1.5" ry="1.5"/>
    <rect class="st6" x="184.8" y="237" width="6.9" height="6.9" rx="1.5" ry="1.5"/>
    <rect class="st6" x="192.6" y="240.5" width="6.9" height="6.9" rx="1.5" ry="1.5"/>
    <rect class="st6" x="200.6" y="242.9" width="6.9" height="6.9" rx="1.5" ry="1.5"/>
    <rect class="st6" x="208.4" y="242.9" width="6.9" height="6.9" rx="1.5" ry="1.5"/>
    <rect class="st6" x="216.1" y="241.7" width="6.9" height="6.9" rx="1.5" ry="1.5"/>
    <rect class="st6" x="223.9" y="239.2" width="6.9" height="6.9" rx="1.5" ry="1.5"/>
    <rect class="st6" x="231.4" y="236.7" width="6.9" height="6.9" rx="1.5" ry="1.5"/>
    <rect class="st6" x="238.9" y="232" width="6.9" height="6.9" rx="1.5" ry="1.5"/>
    <rect class="st6" x="246.1" y="226.3" width="6.9" height="6.9" rx="1.5" ry="1.5"/>
    <rect class="st6" x="253" y="220.6" width="6.9" height="6.9" rx="1.5" ry="1.5"/>
    <rect class="st6" x="259.5" y="213.7" width="6.9" height="6.9" rx="1.5" ry="1.5"/>
    <rect class="st6" x="264.7" y="206.5" width="6.9" height="6.9" rx="1.5" ry="1.5"/>
    <rect class="st6" x="269.7" y="199.3" width="6.9" height="6.9" rx="1.5" ry="1.5"/>
    <rect class="st6" x="273.7" y="192.1" width="6.9" height="6.9" rx="1.5" ry="1.5"/>
    <rect class="st6" x="277.9" y="184.9" width="6.9" height="6.9" rx="1.5" ry="1.5"/>
    <rect class="st6" x="280.6" y="177.4" width="6.9" height="6.9" rx="1.5" ry="1.5"/>
    <rect class="st6" x="282.7" y="169.8" width="6.9" height="6.9" rx="1.5" ry="1.5"/>
    <rect class="st6" x="284.3" y="162.2" width="6.9" height="6.9" rx="1.5" ry="1.5"/>
    <rect class="st6" x="285.8" y="154.7" width="6.9" height="6.9" rx="1.5" ry="1.5"/>
    <rect class="st6" x="286.1" y="147.2" width="6.9" height="6.9" rx="1.5" ry="1.5"/>
    <rect class="st6" x="285.8" y="139.7" width="6.9" height="6.9" rx="1.5" ry="1.5"/>
    <rect class="st6" x="285" y="132.2" width="6.9" height="6.9" rx="1.5" ry="1.5"/>
    <rect class="st6" x="283.1" y="124.9" width="6.9" height="6.9" rx="1.5" ry="1.5"/>
    <rect class="st6" x="279.2" y="117.6" width="6.9" height="6.9" rx="1.5" ry="1.5"/>
    <rect class="st6" x="273.8" y="110.5" width="6.9" height="6.9" rx="1.5" ry="1.5"/>
    <rect class="st6" x="267.4" y="104.3" width="6.9" height="6.9" rx="1.5" ry="1.5"/>
    <rect class="st6" x="260" y="102.2" width="6.9" height="6.9" rx="1.5" ry="1.5"/>
  </g>
</svg>