<?xml version="1.0" encoding="UTF-8"?>
<svg id="Layer_1" xmlns="http://www.w3.org/2000/svg" xmlns:xlink="http://www.w3.org/1999/xlink" version="1.1" viewBox="0 0 616.9 467.1">
  <!-- Generator: Adobe Illustrator 29.2.1, SVG Export Plug-In . SVG Version: 2.1.0 Build 116)  -->
  <defs>
    <style>
      .st0 {
        fill: url(#linear-gradient2);
      }

      .st1 {
        fill: url(#linear-gradient1);
      }

      .st2 {
        fill: url(#linear-gradient3);
      }

      .st3 {
        fill: url(#linear-gradient);
      }

      .st4 {
        fill: #fff;
      }

      .st5 {
        fill: #efc2a6;
      }

      .st6 {
        fill: #efc2a6;
      }

      .st7 {
        fill: #c08355;
      }

      .st8 {
        fill: none;
        stroke: #000;
        stroke-miterlimit: 10;
        stroke-width: 1.9px;
      }

      .st9 {
        fill: #21d789;
      }

      .st10 {
        fill: #6b57ff;
      }
    </style>
    <linearGradient id="linear-gradient" x1="-2061.2" y1="409.1" x2="-2087.3" y2="422" gradientTransform="translate(-1783.5) rotate(-180) scale(1 -1)" gradientUnits="userSpaceOnUse">
      <stop offset=".1" stop-color="#bfbfbf"/>
      <stop offset=".2" stop-color="#cacaca"/>
      <stop offset=".3" stop-color="#e7e7e7"/>
      <stop offset=".5" stop-color="#f8f8f8"/>
      <stop offset=".6" stop-color="#fff"/>
      <stop offset=".9" stop-color="#fff"/>
    </linearGradient>
    <linearGradient id="linear-gradient1" x1="209.7" y1="413" x2="231.7" y2="413" gradientTransform="matrix(1,0,0,1,0,0)" xlink:href="#linear-gradient"/>
    <linearGradient id="linear-gradient2" x1="317.5" y1="363.4" x2="266.8" y2="324.7" gradientUnits="userSpaceOnUse">
      <stop offset=".4" stop-color="#00aa69"/>
      <stop offset=".4" stop-color="#02ad6b"/>
      <stop offset=".8" stop-color="#18cb80"/>
      <stop offset="1" stop-color="#21d789"/>
    </linearGradient>
    <linearGradient id="linear-gradient3" x1="-1360.8" y1="773.2" x2="-1237.9" y2="758.4" gradientTransform="translate(-1182.6 -94.4) rotate(157) scale(1 -1)" gradientUnits="userSpaceOnUse">
      <stop offset="0" stop-color="#21d789"/>
      <stop offset="1" stop-color="#00aa69"/>
    </linearGradient>
  </defs>
  <rect class="st10" x="147.3" y="133" width="6.9" height="6.9" rx="1.5" ry="1.5"/>
  <rect class="st10" x="137.9" y="130.7" width="6.9" height="6.9" rx="1.5" ry="1.5" transform="translate(-33.2 47.4) rotate(-17.1)"/>
  <rect class="st10" x="144.2" y="125.2" width="6.9" height="6.9" rx="1.5" ry="1.5" transform="translate(-31.3 49) rotate(-17.1)"/>
  <rect class="st10" x="150.4" y="129.1" width="6.9" height="6.9" rx="1.5" ry="1.5" transform="translate(-32.1 51) rotate(-17.1)"/>
  <rect class="st10" x="144.2" y="113.7" width="6.9" height="6.9" rx="1.5" ry="1.5" transform="translate(27.7 -28.3) rotate(12.1)"/>
  <rect class="st10" x="153.3" y="116.7" width="6.9" height="6.9" rx="1.5" ry="1.5"/>
  <rect class="st10" x="192.7" y="97" width="6.9" height="6.9" rx="1.5" ry="1.5"/>
  <rect class="st10" x="162.7" y="122.1" width="6.9" height="6.9" rx="1.5" ry="1.5" transform="translate(-35.5 73.6) rotate(-22.6)"/>
  <rect class="st10" x="166.2" y="105.1" width="6.9" height="6.9" rx="1.5" ry="1.5" transform="translate(-28.7 73.6) rotate(-22.6)"/>
  <rect class="st10" x="213" y="67.1" width="6.9" height="6.9" rx="1.5" ry="1.5" transform="translate(-10.5 88.7) rotate(-22.6)"/>
  <rect class="st10" x="170.3" y="79.9" width="6.9" height="6.9" rx="1.5" ry="1.5" transform="translate(4.4 -8.6) rotate(2.9)"/>
  <path class="st4" d="M233.5,449.6c-1.3,0-2.8-.4-4.5-1.3-5.5-2.7-6.9-5.3-8.5-7.9-.5-.9-1.1-1.9-1.8-2.9-1-1.4-1.6-2.6-2-3.5-.8-1.6-1.1-2.3-2.9-2.4-.2,0-.3-.1-.4-.3,0-.2,0-.4.2-.4.2,0,4.9-1.9,9.3.4,2.5,1.3,3.4,2.8,4.2,4.1.6,1,1.1,1.7,2.1,2.2l.6.3c3,1.3,7.5,3.3,7.7,6,0,.9.1,3.8-1.8,5.1-.6.4-1.4.6-2.2.6ZM215.4,431.1c1,.5,1.5,1.4,2,2.5.4.9,1,2,2,3.4.7,1,1.3,2,1.8,2.9,1.5,2.6,2.8,5,8.1,7.6,2.7,1.3,4.7,1.6,6,.7,1.6-1.1,1.5-3.7,1.5-4.4-.2-2.2-4.8-4.3-7.2-5.4l-.6-.3c-1.3-.6-1.9-1.5-2.5-2.5-.7-1.2-1.6-2.6-3.9-3.8-2.7-1.4-5.5-1.2-7.2-.8Z"/>
  <path class="st4" d="M449.2,291.3c-.6,0-1.3-.2-1.8-.7L238.4,85.1c-1-1-1-2.6,0-3.5,1-1,2.6-1,3.5,0l209,205.4c1,1,1,2.6,0,3.5-.5.5-1.1.7-1.8.7Z"/>
  <polygon class="st5" points="263.9 93.7 258.7 98.9 264.4 104.2 263.9 93.7"/>
  <path class="st5" d="M432.1,268.4l-27.5-31.7c-2.9-3.7-5.1-8-6.2-12.6l-2.9-11.6-34.7-6.5,4.7,18.9c1.6,6.4,4.8,12.4,9.3,17.2l42.7,43.8,14.5-17.5Z"/>
  <path class="st5" d="M246.5,119.3l-13.5,77c-2.2,12.8,9.7,23.6,22.2,20.1l7.9-2.2,3.5-81.2-20-13.6Z"/>
  <g>
    <path d="M273.4,435.4c-1.5,4.1-3.9,11.5-3.8,17.1,0,0,54.6-.3,60.5-.3,0,0,1.4-13.6-17.1-15.2-2.2-.2-4.3-.7-6.3-1.5l-5.8-2.2-23.1-.9c-2,0-3.8,1.1-4.4,3Z"/>
    <path class="st4" d="M332.4,454.6c0,1.3-1.1,2.4-2.4,2.4h-60.4c-1.3,0-2.4-1.1-2.4-2.4h0c0-1.3,1.1-2.4,2.4-2.4h60.4c1.3,0,2.4,1.1,2.4,2.4h0Z"/>
  </g>
  <path d="M351.3,112.8c-.2,0-.5,0-.7,0-1.8-.2-3.6-1.3-5.1-2.9-2.8-3.1-3.8-6.2-4.1-8.3-.3-1.9.5-3.7,2-4.3l2.8-1.3c2-.9,4.7,0,5.9,2.2l3.7,6.9c.6,1.1.9,2.3.7,3.4-.2,1.7-1.1,3.1-2.4,3.7l-1.2.5c-.5.1-1,.2-1.5.2ZM347.7,97.4c-.3,0-.6,0-.8.2h0l-2.8,1.3c-.7.3-1.1,1.3-.9,2.3.3,1.8,1.2,4.5,3.7,7.3,1.2,1.3,2.6,2.2,4,2.3.5,0,1,0,1.4,0l1-.5c.8-.3,1.3-1.1,1.4-2.2,0-.7-.1-1.6-.5-2.3l-3.7-6.9c-.6-1-1.7-1.5-2.6-1.5Z"/>
  <path class="st4" d="M312.5,148.8l-27.3,14.3-40.9,20.6s-3.1,5.1,1.9,11.6-8.6,21.8,5.9,42.2l35.5-19.1s1,15-.6,19.6c-2.9,8.5-.5,16.1,4.9,17.2l57-11.9s7.1-1.3,6.5-11.7l-.7-14.8s3.8,17.1,8.4,17.4c9.5.6,12.4-4.8,30-6.8s11.8-5.5,13.4-13.2,0-3.6-1.1-5.1l-39-52.7c-3.5-4.8-9.3-7.5-15.3-7s-17.3,1.2-21.1,1.4c-6.6.3-17.7-2.1-17.7-2.1Z"/>
  <path class="st6" d="M314.5,111.9l-.2-7.1c0-4,2-7.8,5.4-9.9l6.7-4.1v-.5c-.1,0,.7,0,.7,0l.7-.4v.5c.1,0,2.3-.3,2.3-.3,1.4,0,3.4-.4,4.6.5s5.2,4.2,9.3,10c.8,1.2,1.6,2.2,2.6,3.1,2,1.8,2.8,8,3,10.7.7,7.9-.7,18.1-.9,19.3-.5,2.5-1.3,5.8-4.9,5.2s-11.7-8.4-11.7-8.4c-3.1-1.3-3.2-1.5-4.1-3.7l-12.4-9.4c-.8-1.7-1.2-3.6-1.2-5.5Z"/>
  <rect x="340.8" y="105.6" width="14.6" height="1.9" transform="translate(61.6 331) rotate(-55.1)"/>
  <path class="st4" d="M344.6,451.9s0,0,0,0c-2.1-.4-3.9-1.5-5.6-2.5-1.2-.8-2.5-1.5-3.9-2-3.2-1.2-6.8-.8-10.3-.4-1.4.2-2.8.3-4.3.4-3.3.2-7.2-.8-8.4-3.9-.5-1.3-.3-2.7-.2-4.1,0-.8.2-1.7.1-2.5-.1-1.7-1-3.1-2.2-3.8-1.3-.7-3.2-.3-3.9.8-.1.2-.4.2-.6.1s-.2-.4-.1-.6c1-1.5,3.2-2,4.9-1.1,1.5.8,2.5,2.5,2.7,4.4,0,.9,0,1.8-.1,2.7-.2,1.3-.3,2.6.1,3.7,1,2.7,4.5,3.5,7.6,3.3,1.4,0,2.8-.2,4.2-.4,3.6-.4,7.3-.9,10.7.4,1.4.5,2.7,1.3,4,2.1,1.8,1.1,3.4,2.1,5.4,2.4.2,0,.4.2.3.5,0,.2-.2.3-.4.3Z"/>
  <path class="st7" d="M334.4,91.4s-3.6,7.6-5.6,11.5c-.7,1.3-1.2,8.6-2.5,9.4h0l-13,15.5s-6.3-17.5-5.4-19.8c.9-2.3,14.9-13.5,26.5-16.5Z"/>
  <line class="st8" x1="334.4" y1="108.2" x2="323.5" y2="112.9"/>
  <path class="st7" d="M356.7,135c-.6-4.5-2.7-8.7-5.9-12-2.6-2.6-5.2-6.5-4.8-10.6,1.3-11.2-5.9-19.5-5.9-19.5l-18.2,23.8-2.1-1.6-11-11-6.3,17.5c-.6,4.7-4.7,11.3-8.2,16.2-3.5,4.9-1.2,22,27.8,22,32.6,0,35.6-16.7,34.6-25Z"/>
  <path d="M297,433.2l5.3-6.3s4.9,3.8,4.3,8.6-2.9,4.3-2.9,4.3l-6.8-6.6Z"/>
  <path class="st3" d="M297,433.2l-19.3-.8,8.3-31.2h22.8l-7,28.4c-.5,2.2-2.5,3.7-4.8,3.6Z"/>
  <polygon class="st1" points="209.7 414.2 217.9 402.2 231.7 412.8 223.2 423.8 209.7 414.2"/>
  <g>
    <path d="M200.7,452.3c14.4,0,29.5-.2,32.5-.2,0,0,1.4-13.6-17.1-15.2-2.2-.2-15.4,15.4-15.4,15.4Z"/>
    <path class="st4" d="M235.3,454.6c0,1.3-1.1,2.4-2.4,2.4h-27.2c-1.3,0-2.8-1.1-2.8-2.4h1.2c0-1.3.3-2.4,1.6-2.4h27.2c1.3,0,2.4,1.1,2.4,2.4h0Z"/>
  </g>
  <path class="st0" d="M292,255.3s-11.7,14.1-18.1,37.5-19.9,40.7-24.4,44.8c-4.6,4.1-18.1,13.9-30.9,33.5-7.7,11.8-12.7,21.3-15.4,27.1s.7,5.3,3.4,5.2,9.6,5,13,7.8c5.2,4.3,17.5,11,25.8,12,2.8.4,5.5-1.1,7-3.5l46-85.1,16.6-46.8,15.3-40.4-38.2,7.9Z"/>
  <path d="M185,438.9s3.5-12.3,18.3-20.6l6.4-4.1s12.3,4.8,13.5,9.7l-2,8.7s-3.8,14.9-8.7,19.6l-8.5,2.9-19.1-16.2Z"/>
  <path class="st4" d="M212.6,457h-6.5c-1.9,0-3.7-.6-5.2-1.6l-18.3-12.6c-1.1-.7-1.4-2.2-.6-3.3h0c.7-1,2.1-1.2,3.1-.5l18.4,12.3c.9.6,2,1,3.1,1h6.1c1.3,0,2.4,1.1,2.4,2.4h0c0,1.3-1.1,2.4-2.4,2.4Z"/>
  <path class="st5" d="M248.2,123.2l16.2,13.2s6.4.3,9.2-4.6c2.8-4.9-2.3-24.2-2.3-24.2l-10-1.6-13,17.2h0Z"/>
  <path class="st5" d="M246.7,122.7s-2.6-6.9,3.7-13.5c0,0,.2-5.9-1.2-8-1.4-2.1-1.9-3.1-1.9-3.1,0,0-1.5-1.7.5-3.5s4.2-3.1,8.4,1.4c4.3,4.5,7.4,10.6,3.7,17.1-3.7,6.6-5.8,12-5.8,12l-7.6-2.6h0c0,0,0,.2,0,.2Z"/>
  <path class="st4" d="M244.3,183.7s-5,1.6-7,14.3,5.5,11.3,2.8,26c-1.3,7.2,6.1,19.2,16.2,11.3s12.9-29.5,12.9-29.5l-13.4-21.3-11.5-.7Z"/>
  <path class="st2" d="M312.1,87.2l5.3-1.4c3.4-3.3,3.1-4.1,6.1-7.7,4.2-5.1,9.1-5.7,12.4-4.5,5.5,2,6.9,10.6,3.9,20.7,0,0-3.3,9.8-11.5,25.3-4.1,7.8-13.9,10.5-21.4,6.1h0c-5.5-3.2-8.1-9.9-6.2-16l5.4-17.2c.7-2.3,2.9-4.6,6-5.2Z"/>
  <g>
    <path class="st5" d="M263,97.7s.9,9,.9,10.6c0,2.4,1.9,4.9,4.2,4.8,2.3,0,4.6-1.5,5.4-4.8.8-3.3,0-10.3-1.6-13-1.5-2.7-3.9-4.1-6-3.1-2.1,1-3,1.9-3,5.5Z"/>
    <path class="st5" d="M269.4,112.9s.3,4.6,3.8,5.1c3.4.5,5.4-3.3,6-5.3.6-2-.1-6.1-1.8-7.7-1.7-1.6-3.4-2.4-6.2-.2-2.9,2.2-1.7,8.1-1.7,8.1Z"/>
    <path class="st5" d="M273.7,117.4s-1.3,6.5,4.2,7.8c5.5,1.3,5.9-6.6,5.3-8.4-.6-1.9-2.7-5.3-6.3-4.1-3.6,1.2-3.2,4.7-3.2,4.7h0Z"/>
  </g>
  <g>
    <path class="st5" d="M412.5,277.3l1.8,3.2,4.6-24.8s11.6-3.2,11,.3c-.4,2.7-1.2,13.2-4.1,21.2-1.9,5.3-6.5,9.3-6.5,9.3l-5-6.1-1.8-3.2Z"/>
    <path class="st5" d="M426.3,255.7s.5-6.4,12.7-1.4c0,0,3.9.7,6.3.8,2.3.1,5.5,4.3,3.9,7.5-1.6,3.3-3.7,4.1-6.8,4.2-3.1,0-8.3-3-8.3-3l-8.8,5.5-1.8-2.4,2.7-11.3h0c0,0,0,0,0,0Z"/>
    <path class="st5" d="M425.1,275.5s-1.6-7.7,3.5-12.5c5.1-4.8,13.8,2.2,13.8,2.2,0,0,2.8,1.9,5.5,2.7,2.7.7,4.2,5.2,2.6,7.5-2.1,3.1-5.5,3.8-9.3,2.2-3.8-1.7-5.4-3.2-5.4-3.2,0,0,.6,2.9-3.3,9.9,0,0-2.5,6.1-9,4.5-6.5-1.6-5.9-2.8-5.9-2.8l7.5-10.4Z"/>
    <path class="st5" d="M418.8,255.8s1.6-8,7.8-7.8c6.2.2,5.8,0,8-.5,2.2-.4,5.2-.2,5.7,3.4.6,3.6-1.1,5.1-3.3,5.8-2.2.7-18.2-.9-18.2-.9h0Z"/>
  </g>
  <path class="st9" d="M349,243.4s-12,102-13.9,111.4c-2.4,12-3.7,46.7-4.2,57.4-.2,4.5-3.5,8.2-7.9,9s-8.9,1.2-14.2.8c-11.5-.8-14.6-2.3-20.8.1s-8.4.2-12.7-1-6.4-5.5-5.1-9.6l37.2-119.4-.9-2.8c-2.8-8.9-1.2-18.6,4.2-26.2l10-13.7,28.4-5.9Z"/>
  <path class="st4" d="M361.5,233.6s-8.4-7-9.3-14.9c-.9-7.9,9.3-10,9.3-10v24.9Z"/>
  <path class="st4" d="M218.5,93.3c-20.9,0-37.9-17-37.9-37.9s17-37.9,37.9-37.9,37.9,17,37.9,37.9-17,37.9-37.9,37.9ZM218.5,22.4c-18.2,0-32.9,14.8-32.9,32.9s14.8,32.9,32.9,32.9,32.9-14.8,32.9-32.9-14.8-32.9-32.9-32.9Z"/>
  <path class="st4" d="M148.6,142.7c-3.7,0-7.1-1.6-9.4-3.8-3.9-3.8-6.1-10.4-2.2-16.9l47.6-78.6.9.5-47.6,78.6c-3.9,6.4-1.3,12.4,2.1,15.6,3.4,3.2,9.5,5.5,15.7,1.3l84.3-56.6.6.8-84.3,56.6c-2.5,1.7-5.1,2.4-7.5,2.4Z"/>
  <rect class="st4" x="116.4" y="83.8" width="150.1" height="1" transform="translate(-1.8 164.3) rotate(-46.3)"/>
  <rect class="st4" x="108.6" y="76" width="144.1" height="1" transform="translate(8.7 171) rotate(-51.7)"/>
  <rect class="st4" x="128.1" y="94.8" width="143" height="1" transform="translate(-14 152.7) rotate(-40.6)"/>
  <rect class="st9" x="214.8" y="125.4" width="6.9" height="6.9" rx="1.5" ry="1.5"/>
  <rect class="st9" x="202.8" y="129.6" width="6.9" height="6.9" rx="1.5" ry="1.5"/>
  <rect class="st9" x="213" y="141.8" width="6.9" height="6.9" rx="1.5" ry="1.5"/>
  <rect class="st9" x="192.7" y="138.8" width="6.9" height="6.9" rx="1.5" ry="1.5"/>
  <rect class="st9" x="192.7" y="148.7" width="6.9" height="6.9" rx="1.5" ry="1.5"/>
  <rect class="st9" x="192.7" y="158.7" width="6.9" height="6.9" rx="1.5" ry="1.5"/>
  <rect class="st9" x="192.7" y="168.6" width="6.9" height="6.9" rx="1.5" ry="1.5"/>
  <rect class="st9" x="382.4" y="63.7" width="6.9" height="6.9" rx="1.5" ry="1.5"/>
  <rect class="st9" x="382.4" y="73.6" width="6.9" height="6.9" rx="1.5" ry="1.5"/>
  <rect class="st9" x="382.4" y="83.6" width="6.9" height="6.9" rx="1.5" ry="1.5"/>
  <rect class="st9" x="382.4" y="113.4" width="6.9" height="6.9" rx="1.5" ry="1.5"/>
  <rect class="st9" x="382.4" y="123.3" width="6.9" height="6.9" rx="1.5" ry="1.5"/>
  <rect class="st9" x="382.4" y="133.3" width="6.9" height="6.9" rx="1.5" ry="1.5"/>
  <rect class="st9" x="392.5" y="73.6" width="6.9" height="6.9" rx="1.5" ry="1.5"/>
  <rect class="st9" x="392.5" y="83.6" width="6.9" height="6.9" rx="1.5" ry="1.5"/>
  <rect class="st9" x="392.5" y="93.5" width="6.9" height="6.9" rx="1.5" ry="1.5"/>
  <rect class="st9" x="392.5" y="103.4" width="6.9" height="6.9" rx="1.5" ry="1.5"/>
  <rect class="st9" x="392.5" y="113.4" width="6.9" height="6.9" rx="1.5" ry="1.5"/>
  <rect class="st9" x="392.5" y="123.3" width="6.9" height="6.9" rx="1.5" ry="1.5"/>
  <rect class="st9" x="392.5" y="133.3" width="6.9" height="6.9" rx="1.5" ry="1.5"/>
  <rect class="st9" x="402.5" y="73.6" width="6.9" height="6.9" rx="1.5" ry="1.5"/>
  <rect class="st9" x="402.5" y="83.6" width="6.9" height="6.9" rx="1.5" ry="1.5"/>
  <rect class="st9" x="402.5" y="93.5" width="6.9" height="6.9" rx="1.5" ry="1.5"/>
  <rect class="st9" x="402.5" y="103.4" width="6.9" height="6.9" rx="1.5" ry="1.5"/>
  <rect class="st9" x="402.5" y="113.4" width="6.9" height="6.9" rx="1.5" ry="1.5"/>
  <rect class="st9" x="412.5" y="63.7" width="6.9" height="6.9" rx="1.5" ry="1.5"/>
  <rect class="st9" x="412.5" y="73.6" width="6.9" height="6.9" rx="1.5" ry="1.5"/>
  <rect class="st9" x="412.5" y="83.6" width="6.9" height="6.9" rx="1.5" ry="1.5"/>
  <rect class="st10" x="305" y="22" width="6.9" height="6.9" rx="1.5" ry="1.5"/>
  <rect class="st10" x="244.7" y="38.4" width="6.9" height="6.9" rx="1.5" ry="1.5"/>
  <rect class="st10" x="239.9" y="70.2" width="6.9" height="6.9" rx="1.5" ry="1.5"/>
  <rect class="st10" x="263" y="57.2" width="6.9" height="6.9" rx="1.5" ry="1.5"/>
  <rect class="st10" x="325.1" y="22" width="6.9" height="6.9" rx="1.5" ry="1.5"/>
  <rect class="st10" x="325.1" y="31.9" width="6.9" height="6.9" rx="1.5" ry="1.5"/>
  <rect class="st10" x="325.1" y="41.8" width="6.9" height="6.9" rx="1.5" ry="1.5"/>
  <rect class="st10" x="335.1" y="31.9" width="6.9" height="6.9" rx="1.5" ry="1.5"/>
  <rect class="st9" x="412.5" y="93.5" width="6.9" height="6.9" rx="1.5" ry="1.5"/>
  <rect class="st9" x="412.5" y="103.4" width="6.9" height="6.9" rx="1.5" ry="1.5"/>
  <rect class="st9" x="412.5" y="113.4" width="6.9" height="6.9" rx="1.5" ry="1.5"/>
  <rect class="st9" x="412.5" y="123.3" width="6.9" height="6.9" rx="1.5" ry="1.5"/>
  <rect class="st9" x="412.5" y="133.3" width="6.9" height="6.9" rx="1.5" ry="1.5"/>
  <rect class="st9" x="422.5" y="63.7" width="6.9" height="6.9" rx="1.5" ry="1.5"/>
  <rect class="st9" x="422.5" y="73.6" width="6.9" height="6.9" rx="1.5" ry="1.5"/>
  <rect class="st9" x="422.5" y="83.6" width="6.9" height="6.9" rx="1.5" ry="1.5"/>
  <rect class="st9" x="422.5" y="53.7" width="6.9" height="6.9" rx="1.5" ry="1.5"/>
  <rect class="st9" x="432.6" y="33.9" width="6.9" height="6.9" rx="1.5" ry="1.5"/>
  <rect class="st9" x="432.6" y="43.8" width="6.9" height="6.9" rx="1.5" ry="1.5"/>
  <rect class="st9" x="432.6" y="53.7" width="6.9" height="6.9" rx="1.5" ry="1.5"/>
  <rect class="st9" x="442.6" y="33.9" width="6.9" height="6.9" rx="1.5" ry="1.5"/>
  <rect class="st9" x="442.6" y="53.7" width="6.9" height="6.9" rx="1.5" ry="1.5"/>
  <rect class="st9" x="422.5" y="93.5" width="6.9" height="6.9" rx="1.5" ry="1.5"/>
  <rect class="st9" x="422.5" y="103.4" width="6.9" height="6.9" rx="1.5" ry="1.5"/>
  <rect class="st9" x="422.5" y="113.4" width="6.9" height="6.9" rx="1.5" ry="1.5"/>
  <rect class="st9" x="422.5" y="123.3" width="6.9" height="6.9" rx="1.5" ry="1.5"/>
  <rect class="st9" x="422.5" y="133.3" width="6.9" height="6.9" rx="1.5" ry="1.5"/>
  <rect class="st9" x="432.6" y="63.7" width="6.9" height="6.9" rx="1.5" ry="1.5"/>
  <rect class="st9" x="432.6" y="73.6" width="6.9" height="6.9" rx="1.5" ry="1.5"/>
  <rect class="st9" x="432.6" y="83.6" width="6.9" height="6.9" rx="1.5" ry="1.5"/>
  <rect class="st9" x="432.6" y="93.5" width="6.9" height="6.9" rx="1.5" ry="1.5"/>
  <rect class="st9" x="432.6" y="103.4" width="6.9" height="6.9" rx="1.5" ry="1.5"/>
  <rect class="st9" x="432.6" y="123.3" width="6.9" height="6.9" rx="1.5" ry="1.5"/>
  <rect class="st9" x="432.6" y="133.3" width="6.9" height="6.9" rx="1.5" ry="1.5"/>
  <rect class="st9" x="442.6" y="63.7" width="6.9" height="6.9" rx="1.5" ry="1.5"/>
  <rect class="st9" x="442.6" y="73.6" width="6.9" height="6.9" rx="1.5" ry="1.5"/>
  <rect class="st9" x="442.6" y="83.6" width="6.9" height="6.9" rx="1.5" ry="1.5"/>
  <rect class="st9" x="442.6" y="93.5" width="6.9" height="6.9" rx="1.5" ry="1.5"/>
  <rect class="st9" x="442.6" y="103.4" width="6.9" height="6.9" rx="1.5" ry="1.5"/>
  <rect class="st9" x="442.6" y="113.4" width="6.9" height="6.9" rx="1.5" ry="1.5"/>
  <rect class="st9" x="452.6" y="63.7" width="6.9" height="6.9" rx="1.5" ry="1.5"/>
  <rect class="st9" x="452.6" y="73.6" width="6.9" height="6.9" rx="1.5" ry="1.5"/>
  <rect class="st9" x="452.6" y="83.6" width="6.9" height="6.9" rx="1.5" ry="1.5"/>
  <rect class="st9" x="452.6" y="93.5" width="6.9" height="6.9" rx="1.5" ry="1.5"/>
  <rect class="st9" x="452.6" y="123.3" width="6.9" height="6.9" rx="1.5" ry="1.5"/>
  <rect class="st9" x="192.7" y="178.6" width="6.9" height="6.9" rx="1.5" ry="1.5"/>
  <rect class="st9" x="192.7" y="188.5" width="6.9" height="6.9" rx="1.5" ry="1.5"/>
  <rect class="st9" x="183" y="148.7" width="6.9" height="6.9" rx="1.5" ry="1.5"/>
  <rect class="st9" x="183" y="158.7" width="6.9" height="6.9" rx="1.5" ry="1.5"/>
  <rect class="st9" x="183" y="168.6" width="6.9" height="6.9" rx="1.5" ry="1.5"/>
  <rect class="st9" x="183" y="178.6" width="6.9" height="6.9" rx="1.5" ry="1.5"/>
  <rect class="st9" x="173.7" y="158.7" width="6.9" height="6.9" rx="1.5" ry="1.5"/>
  <rect class="st9" x="173.7" y="148.7" width="6.9" height="6.9" rx="1.5" ry="1.5"/>
  <rect class="st9" x="173.7" y="138.8" width="6.9" height="6.9" rx="1.5" ry="1.5"/>
  <rect class="st9" x="173.7" y="168.6" width="6.9" height="6.9" rx="1.5" ry="1.5"/>
  <rect class="st9" x="173.7" y="178.6" width="6.9" height="6.9" rx="1.5" ry="1.5"/>
  <rect class="st9" x="163.8" y="168.6" width="6.9" height="6.9" rx="1.5" ry="1.5"/>
  <rect class="st9" x="163.8" y="178.6" width="6.9" height="6.9" rx="1.5" ry="1.5"/>
  <rect class="st9" x="183" y="188.5" width="6.9" height="6.9" rx="1.5" ry="1.5"/>
</svg>