<?xml version="1.0" encoding="UTF-8"?>
<svg id="Layer_1" xmlns="http://www.w3.org/2000/svg" xmlns:xlink="http://www.w3.org/1999/xlink" version="1.1" viewBox="0 0 616.9 467.1">
  <!-- Generator: Adobe Illustrator 29.2.1, SVG Export Plug-In . SVG Version: 2.1.0 Build 116)  -->
  <defs>
    <style>
      .st0 {
        fill: url(#linear-gradient2);
      }

      .st1 {
        fill: url(#linear-gradient1);
      }

      .st2 {
        fill: url(#linear-gradient3);
      }

      .st3 {
        fill: url(#linear-gradient6);
      }

      .st4 {
        fill: url(#linear-gradient5);
      }

      .st5 {
        fill: url(#linear-gradient4);
      }

      .st6 {
        fill: url(#linear-gradient);
      }

      .st7 {
        fill: #4c35ff;
      }

      .st8 {
        fill: #060c0d;
      }

      .st9 {
        fill: #fff;
      }

      .st10 {
        fill: #efc2a6;
      }

      .st11 {
        fill: #efc2a6;
      }

      .st12 {
        fill: #c08355;
      }

      .st13 {
        fill: #21d789;
      }

      .st14 {
        fill: #6b57ff;
      }
    </style>
    <linearGradient id="linear-gradient" x1="-2710.3" y1="379.5" x2="-2697.4" y2="400.8" gradientTransform="translate(-2452.9 414.8) rotate(165.6) scale(1 -1)" gradientUnits="userSpaceOnUse">
      <stop offset="0" stop-color="#b78a6d"/>
      <stop offset=".1" stop-color="#c4977a"/>
      <stop offset=".4" stop-color="#dbae92"/>
      <stop offset=".6" stop-color="#eabda0"/>
      <stop offset=".8" stop-color="#efc2a6"/>
    </linearGradient>
    <linearGradient id="linear-gradient1" x1="-2741.2" y1="94.4" x2="-2607.5" y2="78.4" gradientTransform="translate(-2430.1) rotate(-180) scale(1 -1)" gradientUnits="userSpaceOnUse">
      <stop offset="0" stop-color="#21d789"/>
      <stop offset="1" stop-color="#00aa69"/>
    </linearGradient>
    <linearGradient id="linear-gradient2" x1="345" y1="73.4" x2="410.9" y2="73.4" gradientTransform="matrix(1,0,0,1,0,0)" xlink:href="#linear-gradient1"/>
    <linearGradient id="linear-gradient3" x1="-3243.6" y1="397.3" x2="-3269" y2="409.8" gradientTransform="translate(-3054.4) rotate(-180) scale(1 -1)" gradientUnits="userSpaceOnUse">
      <stop offset=".1" stop-color="#bfbfbf"/>
      <stop offset=".2" stop-color="#cacaca"/>
      <stop offset=".3" stop-color="#e7e7e7"/>
      <stop offset=".5" stop-color="#f8f8f8"/>
      <stop offset=".6" stop-color="#fff"/>
      <stop offset=".9" stop-color="#fff"/>
    </linearGradient>
    <linearGradient id="linear-gradient4" x1="142.6" y1="398.7" x2="164.6" y2="398.7" gradientTransform="matrix(1,0,0,1,0,0)" xlink:href="#linear-gradient3"/>
    <linearGradient id="linear-gradient5" x1="182.4" y1="315.8" x2="276.8" y2="315.8" gradientUnits="userSpaceOnUse">
      <stop offset=".2" stop-color="#00aa69"/>
      <stop offset=".4" stop-color="#03ae6c"/>
      <stop offset=".6" stop-color="#0cbb75"/>
      <stop offset=".8" stop-color="#1cd084"/>
      <stop offset=".8" stop-color="#21d789"/>
    </linearGradient>
    <linearGradient id="linear-gradient6" x1="348.5" y1="413.3" x2="409.7" y2="413.5" gradientUnits="userSpaceOnUse">
      <stop offset=".2" stop-color="#4c35ff"/>
      <stop offset=".4" stop-color="#4f39ff"/>
      <stop offset=".6" stop-color="#5b46ff"/>
      <stop offset=".9" stop-color="#6b57ff"/>
    </linearGradient>
  </defs>
  <g>
    <path class="st10" d="M352.4,91.7l-23.8,34.6c-2.9,3.8-6.5,6.9-10.6,9.2l-10.5,5.7,2.5,35.2,17.1-9.3c5.8-3.2,10.7-7.8,14.3-13.4l33.4-52.7-22.4-9.3Z"/>
    <path d="M168,175.1s-5,1.6-7,14.3c-2,12.7-.8,30.6,1,34.4,1.8,3.7,7,20.6,17.1,12.7s13.8-39.3,13.8-39.3l-13.4-21.3-11.5-.7Z"/>
    <path class="st10" d="M374.7,101s10.8-2.9,11.5-11.3c.4-5.8-19-14.4-19-14.4l-6.4.9-8.4,18.5,22.4,6.3Z"/>
    <path class="st10" d="M169.4,218.3l-32.3,23.5.2,2.8c.2,2.2,0,4.4-.5,6.6s-.3,4.7,1.4,9,1.9,6.9-2.5,8.1c-1.1.3-3,.4-6.1-2.6s-3.3-6.6-3.5-8.1l-7.3,5.3s4.4,1.9,5.8,4.1.2,5.5-1.8,6.2-5.7-.5-8-1.3-3.4-1.5-4.7-2.9l-5.2-5.3c-1.5-1.7-2.2-6.1,2.3-9,0,0-4.6-4.8-1.9-9.9s11.5-14.8,18.5-22.9,9.6-10.5,14.8-15.3l23.7-22.2s20.7-19.5,32.2-5c11.5,14.5-1.2,23.1-1.2,23.1l-23.8,15.8Z"/>
    <g>
      <path d="M282.1,100c-.2,0-.5,0-.7,0-1.8-.2-3.6-1.3-5.1-2.9-2.8-3.1-3.8-6.2-4.1-8.3-.3-1.9.5-3.7,2-4.3l2.8-1.3c2-.9,4.7,0,5.9,2.2l3.7,6.9c.6,1.1.9,2.3.7,3.4-.2,1.7-1.1,3.1-2.4,3.7l-1.2.5c-.5.1-1,.2-1.5.2ZM278.5,84.6c-.3,0-.6,0-.8.2h0l-2.8,1.3c-.7.3-1.1,1.3-.9,2.3.3,1.8,1.2,4.5,3.7,7.3,1.2,1.3,2.6,2.2,4,2.3.5,0,1,0,1.4,0l1-.5c.8-.3,1.3-1.1,1.4-2.2,0-.7-.1-1.5-.5-2.3l-3.7-6.9c-.6-1-1.7-1.5-2.6-1.5Z"/>
      <path class="st12" d="M235.4,107.5c-.6,4.7-4.7,11.3-8.2,16.2-3.5,4.9-2.5,11.7,2.3,15.4,2.2,1.6,4.2,2.7,5.4,2.4l29.4,2.1h0c16.9,7.6,13.4-22.3,8.6-26.8h0c-1.3-1.2-3.7,9.6-4.4,7.9l-6.9-17.2-8.9-6.5-11-11-6.3,17.5Z"/>
      <path class="st9" d="M245.4,134.5l-27.3,14.3-50,26.2s6.1-.6,11.1,5.9c5.1,6.7,13.7,30.6,0,55.4l41.4-32.4s1,15-.6,19.6c-2.9,8.5-.5,16.1,4.9,17.2l51.9-11.9s7.1-1.3,6.5-11.7v-26.5s10.5-3.2,14.6-5.3,10.9,2.1,14.3,2.3,8.7,1.7,9.8-7.7c1.1-9,5.4-28.6-7-41.6-1.6-1.6-4-2.1-6.1-1.3s-.4.2-.6.3c-3.2,1.5-6.2,3.4-9.2,3.8s-29.4-5.1-36-4.8-17.7-2.1-17.7-2.1Z"/>
      <path class="st6" d="M258,110.8l18.8,13.9-3,.6c-2,.4-3.6,1.9-4.1,3.8l-3.3,12.2c-2,3.2-5.8,4.1-9.2,2.3,0,0-9.9-5.6-11.8-9l12.6-23.7Z"/>
      <path class="st11" d="M247.3,97.6l-.2-7.1c0-4,2-7.8,5.4-9.9l6.7-4.1v-.5c-.1,0,.7,0,.7,0l.7-.4v.5c.1,0,2.3-.3,2.3-.3,1.4,0,3.4-.4,4.6.5s5.2,4.2,9.3,10c1.5,2.1.6,4.6,2,5.5,0,0,10.6,3.5,11.4,5.5s-2.2,3.8-3.4,4.4l-4.2,2.3c0,.8,1.2,3.8,1.8,5,.4.9.5,9.9.1,11.6-.5,2.5-4.4,4.8-8,4.1s-11.7-8.4-11.7-8.4c-3.1-1.3-3.2-1.5-4.1-3.7l-12.4-9.4c-.8-1.7-1.2-3.6-1.2-5.5Z"/>
      <rect class="st8" x="272.2" y="91" width="3.5" height="6.3" rx="1.7" ry="1.7" transform="translate(-13.5 129.6) rotate(-26)"/>
      <path class="st12" d="M267.3,77.1s-3.6,7.6-5.6,11.5c-.7,1.3-1.2,8.6-2.5,9.4h0l-13,15.5s-6.3-17.5-5.4-19.8c.9-2.3,14.9-13.5,26.5-16.5Z"/>
      <path d="M275.4,102.7c-.2,0-.5,0-.7,0-1.8-.2-3.6-1.3-5.1-2.9-2.8-3.1-3.8-6.2-4.1-8.3-.3-1.9.5-3.7,2-4.3l2.8-1.3c2-.9,4.7,0,5.9,2.2l3.7,6.9c.6,1.1.9,2.3.7,3.4-.2,1.7-1.1,3.1-2.4,3.7l-1.2.5c-.5.1-1,.2-1.5.2ZM271.8,87.4c-.3,0-.6,0-.8.2h0s-2.8,1.3-2.8,1.3c-.7.3-1.1,1.3-.9,2.3.3,1.8,1.2,4.5,3.7,7.3,1.2,1.3,2.6,2.2,4,2.3.5,0,1,0,1.4,0l1-.5c.8-.3,1.3-1.1,1.4-2.2,0-.7-.1-1.5-.5-2.3l-3.7-6.9c-.6-1-1.7-1.5-2.6-1.5Z"/>
      <path class="st12" d="M276.3,104.8l6.9-1.2c.3,0,.5,0,.8,0,.3,0,.5.1.8.3h0c.5.3,1.8.9,2.8,1.5s.8,1.6,0,2.1h-1.4c-.3.1-.6.4-.7.7-.2,1.2-.2,2.2-1.4,2.4s-1.1-.3-1.5-.7-1.4-.5-2,0c0,0-.9,1-1.4.9-1.4-.2-.7-1.6-1.6-2.2s-2,.8-3.2-.5.5-3.1,1.8-3.3Z"/>
      <rect x="255.9" y="95.3" width="11.9" height="1.9" transform="translate(-16.7 110.7) rotate(-23.2)"/>
      <path class="st1" d="M251.2,68.8l8,5.3c4.5-1.7,8.6-2.7,13.1-4,10-2.8,12.8-1.2,9.8,2.4,0,0-27.2,22-46.7,35l-7.5-10c-1.8-2.4-1.7-5.7.3-8l16.9-19.8c1.5-1.8,4.2-2.2,6.2-.9Z"/>
      <path class="st12" d="M261.9,117.5s.3,23.7-7.9,25.3c-8.2,1.6-17.7,1.9-24.4-3.7s21-30.9,21-30.9l8-1,3.3,10.3Z"/>
      <ellipse class="st10" cx="259.8" cy="107.1" rx="7.3" ry="10.5" transform="translate(-18.8 144.3) rotate(-30)"/>
    </g>
    <path class="st10" d="M363.4,69.5l2.6-.6s9.3-11.3,10.5-13.7c.8-1.7,1.4-7-2-9.3-3.4-2.3-6.3,2.4-6.3,2.4l-8.6,11c-.4.9,2.4,1.2,2.4,2.1l.3,7.5,1.1.7Z"/>
    <g>
      <path class="st0" d="M401.1,68.8l9.8,13.2-15.3,7.1-42.4-10.1c-5.9-1.4-9.5-7.6-7.7-13.5,1.7-5.6,7.3-8.7,12.9-7.3,17.8,4.4,42.9,10.8,42.9,10.8h0Z"/>
      <path class="st9" d="M395.6,89.1l15.3-7.1-9.8-13.2-5.6,20.2Z"/>
    </g>
    <path class="st10" d="M358.3,91.6s5.2-12.2,6.4-14.7c1.6-3.3,1.1-8.9-3.8-8.9s-4.3,4.5-4.3,4.5l-6.3,8.7c-2.4,7.2,2.1,12.5,2,13.4l6-3.1Z"/>
    <path class="st10" d="M370.7,61.5s5.1,6.5,5.9,7.8c1.2,1.9,3.9,2.9,5.6,1.7,1.8-1.2,2.8-3.4,1.9-6.3-1-3-5.1-7.9-7.6-9.3-2.5-1.4-5-1.3-6.2.5-1.2,1.8-1.4,2.9.4,5.7Z"/>
    <path class="st10" d="M383.1,70.2s2.5,3.4,5.4,2.1c2.9-1.3,2.6-5.1,2.1-7-.5-1.9-3-4.7-5.2-5.1-2.1-.4-3.8-.3-4.9,2.8-1.1,3.1,2.6,7.1,2.6,7.1Z"/>
    <path class="st10" d="M388.5,71.6s2.2,5.7,7.1,4c4.9-1.7,1.4-8,0-9.1-1.4-1.2-4.7-2.8-6.9,0-2.2,2.7-.1,5.2-.1,5.2h0Z"/>
    <polygon class="st2" points="214.3 414.2 203.6 426.2 185.8 422 198.8 386.8 221.5 386.8 214.3 414.2"/>
    <path d="M185.8,422s-3.6,7.9-3.5,16.2l64.8-.2s10.6,1.6,16.3-5.4c0,0-1.3-10.2-24.9-10.1-3.3,0-6.5-.9-9.2-2.7l-8-5.2c-1.7-1.4-4.1-2-6.3-2.3-3.9-.4-7.6,1.8-9,5.5s-.5,1.4-.6,1.9c-.4,2.3-2.4,3.9-4.8,3.9l-14.9-1.6Z"/>
    <path class="st9" d="M179.9,440.2c0-1.3,1.1-2.4,2.4-2.4h70.2s7,0,10.4-4.7c.8-1.1,2.3-1.4,3.4-.5l.2.2c.7.6,1,1.6.7,2.5-1,2.6-4.2,7.2-14.6,7.2h-70.2c-1.3,0-2.4-1.1-2.4-2.4h0Z"/>
    <polygon class="st5" points="142.6 399.8 150.8 387.9 164.6 398.4 156.1 409.5 142.6 399.8"/>
    <path class="st9" d="M214.8,422.4c-.1,0-.2,0-.3-.2-.1-.2,0-.4,0-.6,7.4-5.4,13.5-3.7,13.8-3.6.2,0,.3.3.3.5,0,.2-.3.3-.5.3,0,0-6.1-1.6-13.1,3.5,0,0-.2,0-.2,0Z"/>
    <path class="st9" d="M220.3,424.6c-.1,0-.2,0-.3-.2-.1-.2,0-.4,0-.6,7.4-5.4,14.9-2.4,15-2.3.2,0,.3.3.2.5,0,.2-.3.3-.5.2,0,0-7.2-2.9-14.2,2.2,0,0-.2,0-.2,0Z"/>
    <path class="st9" d="M178.6,450.5c-.2,0-.3,0-.4-.2,0-.2,0-.4.2-.5,1.8-.8,3.1-2.2,4.6-3.7,1-1.1,2.1-2.2,3.3-3.1,3-2.1,6.7-2.6,10.2-3.2,1.4-.2,2.8-.4,4.2-.7,3-.6,6.2-2.3,6.4-5.2.1-1.2-.3-2.4-.8-3.6-.3-.8-.7-1.7-.8-2.6-.4-1.9.2-3.8,1.4-5,1.4-1.3,3.7-1.4,5.1-.2.2.1.2.4,0,.6-.2.2-.4.2-.6,0-1-.9-2.9-.8-4,.2-1,1-1.5,2.6-1.2,4.2.1.8.5,1.6.8,2.4.5,1.3,1,2.6.9,4-.3,3.3-3.8,5.2-7.1,5.9-1.4.3-2.8.5-4.2.7-3.5.5-7.1,1-9.9,3-1.2.8-2.2,1.9-3.2,3-1.4,1.5-2.9,3-4.8,3.9,0,0-.1,0-.2,0Z"/>
    <path class="st4" d="M276.8,229.1l-12,58.2c-1.8,8.5-4.3,16.8-7.6,24.8-3.3,8-7.4,19-9.3,28.5-2.4,12-3.7,40.7-4.2,51.4-.2,4.5-3.5,8.2-7.9,9s-8.9,1.2-14.2.8c-11.5-.8-14.6-2.3-20.8.1s-18.3-3.2-18.3-3.2l63.4-162.4,31-7.1Z"/>
    <path class="st13" d="M224.9,241s-11.7,14.1-18.1,37.5c-6.4,23.3-19.9,40.7-24.4,44.8-4.6,4.1-18.1,13.9-30.9,33.5s-12.7,21.3-15.4,27.1c-1.2,2.5.7,5.3,3.4,5.2s8.6.3,12,3.1c5.2,4.3,17.5,11,25.8,12,2.8.4,5.5-1.1,7-3.5l47-80.4,16.6-46.8,14.1-40.9-37,8.5Z"/>
    <path d="M117.9,424.6s3.5-12.3,18.3-20.6l6.4-4.1s12.3,4.8,13.5,9.7l-2,8.7s-3.8,14.9-8.7,19.6l-8.5,2.9-19.1-16.2Z"/>
    <path class="st9" d="M145.5,442.6h-6.5c-1.9,0-3.7-.6-5.2-1.6l-18.3-12.6c-1.1-.7-1.4-2.2-.6-3.3h0c.7-1,2.1-1.2,3.1-.5l18.4,12.3c.9.6,2,1,3.1,1h6.1c1.3,0,2.4,1.1,2.4,2.4h0c0,1.3-1.1,2.4-2.4,2.4Z"/>
    <g>
      <path class="st9" d="M167.2,437c-1.9,0-4.1-1.1-6.7-3.3-6-5.1-7-8.8-8-12.6-.4-1.3-.7-2.7-1.3-4.1-.8-2.1-1.2-3.7-1.4-5-.4-2.2-.6-3.2-2.9-4-.2,0-.4-.3-.3-.5,0-.2.2-.4.4-.4.3,0,6.7-.8,11.4,3.5,2.7,2.4,3.3,4.6,3.9,6.4.4,1.4.8,2.5,2,3.5l.7.5c3.3,2.6,8.3,6.6,7.7,10-.2,1.1-1,4.8-3.9,5.8-.5.2-1,.3-1.5.3ZM149,408c1.1.9,1.4,2.2,1.7,3.8.3,1.3.6,2.8,1.4,4.8.6,1.5,1,2.9,1.3,4.3,1,3.7,1.9,7.2,7.7,12.1,3,2.5,5.4,3.5,7.2,2.8,2.4-.8,3.1-4.1,3.3-5,.5-2.8-4.6-6.9-7.3-9l-.7-.6c-1.4-1.1-1.8-2.5-2.3-3.9-.5-1.7-1.2-3.7-3.6-6-2.9-2.6-6.5-3.2-8.7-3.3Z"/>
      <path class="st9" d="M175,430.5c-1.4,0-3.2-.5-5.7-1.8-5.1-2.8-8.2-6.5-10.4-9.1-1.2-1.4-2.1-2.5-2.9-2.9-2.4-1.3-6.3-5.8-6.4-5.9-.1-.2-.2-.4,0-.6.1-.2.4-.3.6-.2,0,0,6.4,2.2,9.7,1.7.5,0,1-.2,1.4-.2,2.4-.4,3.4-.6,5.8,1.2,1.7,1.3,10.3,7.9,11.8,11.7.8,2,.4,4.1-.9,5.2-.5.4-1.4.9-2.8.9ZM151.5,411.4c1.3,1.4,3.5,3.6,4.9,4.4.9.5,1.9,1.7,3.2,3.1,2.2,2.6,5.2,6.2,10.2,8.9,4.6,2.5,6.6,1.7,7.4,1,1-.8,1.2-2.5.6-4.1-1.1-2.8-6.8-7.8-11.4-11.3-2-1.5-2.7-1.4-5-1-.4,0-.9.1-1.4.2-2.4.4-6.2-.6-8.4-1.2Z"/>
    </g>
    <path class="st9" d="M156.2,356.1c-3.7,0-7.4-1.1-10.6-3.2-4.5-3-7.5-7.7-8.3-13l-33.5-218.7c-1.7-11.2,5.3-21.6,16.3-24.2L429.6,22.3c5.3-1.3,11-.3,15.6,2.7,4.6,3,7.7,7.9,8.6,13.3l35.4,211.8c2.1,12.5-5.9,24.7-18.2,27.8l-310.1,77.6c-1.5.4-3.1.6-4.6.6ZM108.8,120.4l33.5,218.7c.6,4,2.8,7.4,6.1,9.6,3.3,2.2,7.3,2.9,11.2,1.9l310.1-77.6c9.8-2.5,16.2-12.2,14.5-22.2l-35.4-211.8c-.7-4.1-3-7.6-6.4-9.9-3.5-2.3-7.6-3-11.6-2L121.3,101.8c-8.4,2-13.8,10-12.5,18.6h0Z"/>
    <g>
      <rect class="st9" x="125.6" y="238.3" width="357.4" height="1" transform="translate(-50 83.6) rotate(-14.5)"/>
      <rect class="st9" x="111.9" y="154.2" width="357.4" height="1" transform="translate(-29.4 77.5) rotate(-14.5)"/>
      <rect class="st9" x="357.1" y="44.4" width="1" height="255.2" transform="translate(-22.9 59.4) rotate(-9.2)"/>
      <rect class="st9" x="229.1" y="75.4" width="1" height="255.2" transform="translate(-29.5 39.3) rotate(-9.2)"/>
    </g>
    <path class="st14" d="M400.9,86.7l10.1-4.7-6.5-8.7-3.7,13.4Z"/>
    <path class="st10" d="M169.4,218.3l-32.3,23.5.2,2.8c.2,2.2,0,4.4-.5,6.6s-.3,4.7,1.4,9,1.9,6.9-2.5,8.1c-1.1.3-3,.4-6.1-2.6s-3.3-6.6-3.5-8.1l-7.3,5.3s4.4,1.9,5.8,4.1.2,5.5-1.8,6.2-5.7-.5-8-1.3-3.4-1.5-4.7-2.9l-5.2-5.3c-1.5-1.7-2.2-6.1,2.3-9,0,0-4.6-4.8-1.9-9.9s11.5-14.8,18.5-22.9,9.6-10.5,14.8-15.3l30.9,11.7Z"/>
    <path class="st7" d="M310.7,409.4l11.4,3.6c1.5.5,2.9.6,4,.3,1.1-.3,2.3-1,3.4-2.1l2.2-2.1-16.9-59.6,10.5-12.9,23.5,7.3,2.1,43.7,14.5-22.3,10.5-12.9,22.8,7.1-50.1,62.8c-4.1,5.2-8.8,8.9-14,11.1-5.3,2.3-11,2.4-17.2.5l-17.3-11.5,10.5-12.9Z"/>
    <path class="st7" d="M377.2,403.7h56.3v19.4h-56.3v-19.4ZM366.6,423.2h56.3v19.4h-56.3v-19.4Z"/>
    <path class="st7" d="M464.2,398.7l6-4.3,15.1-24.1h26.5l-25.5,38.4-6.2,4.5-17.8,29.7h-26.5l28.3-44.1ZM467.5,412.7l-4.2-3.3-27.3-39.1h27l18.7,27.2,3.6,2.8,28.2,42.5h-26.9l-19.1-30.1Z"/>
    <path class="st14" d="M478.6,362.9l15.9-12.8c.9-.7,1.6-1.6,2.2-2.5.6-.9.8-1.9.8-2.8,0-1.4-.4-2.6-1.3-3.5-.9-.9-2-1.4-3.5-1.4s-2,.2-2.8.7c-.8.5-1.4,1.1-1.9,1.9s-.6,1.7-.6,2.7h-10.1c0-2.8.6-5.3,1.9-7.4,1.3-2.1,3.1-3.8,5.5-5,2.4-1.2,5.1-1.8,8.1-1.8s5.5.5,7.8,1.6c2.3,1.1,4.1,2.6,5.3,4.5s1.9,4.1,1.9,6.6c0,2.3-.7,4.5-1.9,6.5-1.2,2-3,3.9-5.3,5.7l-7.1,5.4h15.1v8.8h-30v-7.4Z"/>
    <path class="st7" d="M487.3,362.9l15.9-12.8c.9-.7,1.6-1.6,2.2-2.5.6-.9.8-1.9.8-2.8,0-1.4-.4-2.6-1.3-3.5-.9-.9-2-1.4-3.5-1.4s-2,.2-2.8.7c-.8.5-1.4,1.1-1.9,1.9s-.6,1.7-.6,2.7h-10.1c0-2.8.6-5.3,1.9-7.4,1.3-2.1,3.1-3.8,5.5-5,2.4-1.2,5.1-1.8,8.1-1.8s5.5.5,7.8,1.6c2.3,1.1,4.1,2.6,5.3,4.5s1.9,4.1,1.9,6.6c0,2.3-.7,4.5-1.9,6.5-1.2,2-3,3.9-5.3,5.7l-7.1,5.4h15.1v8.8h-30v-7.4Z"/>
    <path class="st14" d="M449.1,398.7l6-4.3,15.1-24.1h26.5l-25.5,38.4-6.2,4.5-17.8,29.7h-26.5l28.3-44.1ZM452.4,412.7l-4.2-3.3-27.3-39.1h27l18.7,27.2,3.6,2.8,28.2,42.5h-26.9l-19.1-30.1Z"/>
    <path class="st14" d="M352.5,423.2h56.3v19.4h-56.3v-19.4Z"/>
    <path class="st14" d="M300.2,422.3l11.4,3.6c1.5.5,2.9.6,4,.3,1.1-.3,2.3-1,3.4-2.1l2.2-2.1-6.4-72.5,23.5,7.3,2.1,43.7,25.1-35.2,22.8,7.1-50.1,62.8c-4.1,5.2-8.8,8.9-14,11.1-5.3,2.3-11,2.4-17.2.5l-13.1-4.1,6.3-20.3Z"/>
    <rect class="st3" x="363.1" y="403.7" width="56.3" height="19.4"/>
  </g>
  <path class="st14" d="M160,326.7c-1.2,0-2.3-.9-2.5-2.1-.2-1.4.7-2.6,2.1-2.9.6,0,63.3-10.3,125-43.9,36.1-19.6,64.9-43.3,85.4-70.3,25.6-33.7,38.6-72.8,38.5-116.2,0-1.4,1.1-2.5,2.5-2.5h0c1.4,0,2.5,1.1,2.5,2.5.1,44.6-13.2,84.7-39.5,119.3-21,27.6-50.3,51.7-87.1,71.7-62.5,33.9-125.8,44.2-126.5,44.3-.1,0-.3,0-.4,0Z"/>
</svg>