<?xml version="1.0" encoding="UTF-8"?>
<svg id="Layer_1" xmlns="http://www.w3.org/2000/svg" xmlns:xlink="http://www.w3.org/1999/xlink" version="1.1" viewBox="0 0 616.9 467.1">
  <!-- Generator: Adobe Illustrator 29.2.1, SVG Export Plug-In . SVG Version: 2.1.0 Build 116)  -->
  <defs>
    <style>
      .st0 {
        fill: none;
      }

      .st1 {
        fill: url(#linear-gradient2);
      }

      .st2 {
        fill: url(#linear-gradient1);
      }

      .st3 {
        fill: url(#linear-gradient3);
      }

      .st4 {
        fill: url(#linear-gradient6);
      }

      .st5 {
        fill: url(#linear-gradient8);
      }

      .st6 {
        fill: url(#linear-gradient7);
      }

      .st7 {
        fill: url(#linear-gradient5);
      }

      .st8 {
        fill: url(#linear-gradient4);
      }

      .st9 {
        fill: url(#linear-gradient);
      }

      .st10 {
        fill: #060c0d;
      }

      .st11 {
        fill: #fff;
      }

      .st12 {
        fill: #efc2a6;
      }

      .st13 {
        fill: #efc2a6;
      }

      .st14 {
        fill: #3bea62;
      }

      .st15 {
        fill: #c08355;
      }

      .st16 {
        fill: #21d789;
      }

      .st17 {
        fill: #6b57ff;
      }

      .st18 {
        opacity: .7;
      }

      .st19 {
        clip-path: url(#clippath);
      }

      .st20 {
        fill: #bfbfbf;
      }
    </style>
    <clipPath id="clippath">
      <polygon class="st0" points="156.7 112.2 156.7 298.2 364.5 208.7 364.5 29.7 156.7 112.2"/>
    </clipPath>
    <linearGradient id="linear-gradient" x1="301.4" y1="376" x2="266.4" y2="393.3" gradientUnits="userSpaceOnUse">
      <stop offset=".1" stop-color="#bfbfbf"/>
      <stop offset=".2" stop-color="#cacaca"/>
      <stop offset=".3" stop-color="#e7e7e7"/>
      <stop offset=".5" stop-color="#f8f8f8"/>
      <stop offset=".6" stop-color="#fff"/>
      <stop offset=".9" stop-color="#fff"/>
    </linearGradient>
    <linearGradient id="linear-gradient1" x1="389.8" y1="294.4" x2="267.2" y2="348.8" gradientUnits="userSpaceOnUse">
      <stop offset=".1" stop-color="#00aa69"/>
      <stop offset=".3" stop-color="#0fbf78"/>
      <stop offset=".5" stop-color="#1cd084"/>
      <stop offset=".6" stop-color="#21d789"/>
    </linearGradient>
    <linearGradient id="linear-gradient2" x1="368.7" y1="-208.4" x2="384.2" y2="-182.9" gradientTransform="translate(42.6 257.3) rotate(14.4)" gradientUnits="userSpaceOnUse">
      <stop offset="0" stop-color="#b78a6d"/>
      <stop offset=".1" stop-color="#c4977a"/>
      <stop offset=".4" stop-color="#dbae92"/>
      <stop offset=".6" stop-color="#eabda0"/>
      <stop offset=".8" stop-color="#efc2a6"/>
    </linearGradient>
    <linearGradient id="linear-gradient3" x1="370.8" y1="324.2" x2="181.4" y2="324.2" gradientUnits="userSpaceOnUse">
      <stop offset=".1" stop-color="#00aa69"/>
      <stop offset=".2" stop-color="#04b06d" stop-opacity=".9"/>
      <stop offset=".4" stop-color="#0ebe77" stop-opacity=".5"/>
      <stop offset=".6" stop-color="#16c87f" stop-opacity=".3"/>
      <stop offset=".8" stop-color="#1cd084" stop-opacity=".1"/>
      <stop offset=".9" stop-color="#1fd587" stop-opacity="0"/>
      <stop offset="1" stop-color="#21d789" stop-opacity="0"/>
    </linearGradient>
    <linearGradient id="linear-gradient4" x1="392.9" y1="241.4" x2="351.1" y2="291.3" xlink:href="#linear-gradient1"/>
    <linearGradient id="linear-gradient5" x1="405.5" y1="260" x2="401.6" y2="287.9" gradientUnits="userSpaceOnUse">
      <stop offset=".2" stop-color="#b78a6d"/>
      <stop offset=".3" stop-color="#c4977a"/>
      <stop offset=".5" stop-color="#dbae92"/>
      <stop offset=".7" stop-color="#eabda0"/>
      <stop offset=".8" stop-color="#efc2a6"/>
    </linearGradient>
    <linearGradient id="linear-gradient6" x1="274.9" y1="344.4" x2="247.4" y2="350.4" gradientUnits="userSpaceOnUse">
      <stop offset=".1" stop-color="#bfbfbf"/>
      <stop offset=".2" stop-color="#cacaca"/>
      <stop offset=".3" stop-color="#e7e7e7"/>
      <stop offset=".5" stop-color="#f8f8f8"/>
      <stop offset=".6" stop-color="#fff"/>
    </linearGradient>
    <linearGradient id="linear-gradient7" x1="307.6" y1="326.6" x2="275" y2="290.2" gradientUnits="userSpaceOnUse">
      <stop offset=".2" stop-color="#00aa69"/>
      <stop offset=".4" stop-color="#03ae6c"/>
      <stop offset=".6" stop-color="#0cbb75"/>
      <stop offset=".8" stop-color="#1cd084"/>
      <stop offset=".8" stop-color="#21d789"/>
    </linearGradient>
    <linearGradient id="linear-gradient8" x1="414.7" y1="210" x2="403.4" y2="206.6" gradientTransform="matrix(1,0,0,1,0,0)" xlink:href="#linear-gradient2"/>
  </defs>
  <path class="st17" d="M110.4,210.9l-14.7,7c-.9.4-1.9-.2-1.9-1.2v-15.4c0-1,.6-1.8,1.4-2.2l14.6-6.9c1-.5,2.1.2,2.1,1.3v15.2c0,1-.6,1.9-1.4,2.3Z"/>
  <path class="st16" d="M139.3,225.8l-17.3,7.7c-1.6.7-3.5-.5-3.5-2.3v-30.9c0-1.6.9-3.1,2.4-3.7l17.2-7.7c1.7-.7,3.6.5,3.6,2.3v30.8c0,1.6-1,3.1-2.4,3.8Z"/>
  <path class="st16" d="M405.6,99.2l-23.5,10.4c-2.1.9-4.4-.6-4.4-2.9v-41.3c0-2.3,1.4-4.5,3.5-5.4l24.1-10.7c1.6-.7,3.4.5,3.4,2.2v42.8c0,2.1-1.2,4-3.2,4.9Z"/>
  <path class="st17" d="M355.8,29.8c-2.1-1.1-4.6-1.2-6.8-.4l-189.9,75.1c-5.5,2.2-9.2,7.5-9.2,13.5v167.5c0,2.6,1.5,5,3.8,6.2l6.4,3.2-3.5-5.1,2.8-175.9,5.5-5s192.5-76.4,192.5-76.4l4.2.4s-5.9-3.1-5.9-3.1Z"/>
  <path class="st11" d="M156.7,119.3v170.5c0,4,4.1,6.7,7.7,5.1l193.7-83.4c3.9-1.7,6.4-5.5,6.4-9.7V37.6c0-3.8-3.8-6.4-7.3-5l-193.9,76.9c-4,1.6-6.6,5.4-6.6,9.7Z"/>
  <g class="st19">
    <g class="st18">
      <rect class="st20" x="186.7" y="92.4" width=".5" height="201.8"/>
      <rect class="st20" x="225.8" y="78.2" width=".5" height="197.6"/>
      <rect class="st20" x="264.8" y="57.4" width=".5" height="197.2"/>
      <rect class="st20" x="303.9" y="41.4" width=".5" height="199.3"/>
      <rect class="st20" x="343" y="24.6" width=".5" height="202.1"/>
      <polygon class="st20" points="155.8 139.8 155.6 139.3 365.4 54.9 365.6 55.3 155.8 139.8"/>
      <polygon class="st20" points="155.8 165.1 155.6 164.7 365.4 80.2 365.6 80.7 155.8 165.1"/>
      <polygon class="st20" points="155.8 190.5 155.6 190 365.4 105.5 365.6 106 155.8 190.5"/>
      <polygon class="st20" points="155.8 215.8 155.6 215.3 365.4 130.9 365.6 131.3 155.8 215.8"/>
      <polygon class="st20" points="155.8 241.1 155.6 240.7 365.4 156.2 365.6 156.7 155.8 241.1"/>
      <polygon class="st20" points="155.8 266.4 155.6 266 365.4 181.5 365.6 182 155.8 266.4"/>
    </g>
  </g>
  <path class="st14" d="M165.4,272.2c-1,0-1.9-.6-2.3-1.6-.5-1.3.1-2.7,1.4-3.2l22.4-9c2.1-.9,3.5-2.9,3.5-5.2v-.4s13.3-84.5,13.3-84.5c.6-3.7,3.1-6.9,6.5-8.3l3.1-1.3c1.7-.7,3.7-.5,5.2.5,1.5,1,2.5,2.8,2.5,4.6v20.3c0,.7.5,1.2.7,1.3.2.1.8.4,1.5.2l9.1-3.7c1.8-.7,3.8-.5,5.4.6,1.6,1.1,2.5,2.9,2.5,4.8v20.8c0,.9.5,1.8,1.2,2.3.8.5,1.7.6,2.6.3l13.5-5.6c3.1-1.3,5.3-4.2,5.8-7.5l12.8-84.9c.6-4.1,3.4-7.6,7.3-9.1l3.5-1.3c1.8-.7,3.9-.5,5.5.7,1.6,1.1,2.6,3,2.6,4.9v31.2c0,.4.2.6.3.7.1,0,.4.2.7,0,1.8-.7,3.8-.4,5.3.7,1.6,1.1,2.5,2.9,2.5,4.8v28.3c0,.7.3,1.3.9,1.7.6.4,1.3.5,2,.2l7.6-2.9c1.6-.6,2.7-2.2,2.7-4v-4.4c0-4.1,2.6-7.9,6.5-9.3l13.8-5.2c2.2-.8,3.8-2.8,4.1-5.1l13.2-95.8c.2-1.4,1.5-2.3,2.8-2.1,1.4.2,2.3,1.4,2.1,2.8l-13.2,95.8c-.6,4.2-3.4,7.6-7.3,9.1l-13.8,5.2c-1.9.7-3.2,2.6-3.2,4.7v4.4c0,3.8-2.4,7.3-5.9,8.7l-7.6,2.9c-2.2.8-4.6.6-6.6-.8-1.9-1.3-3.1-3.5-3.1-5.9v-28.3c0-.4-.2-.6-.3-.6-.1,0-.4-.2-.7,0-1.8.7-3.8.4-5.3-.7-1.6-1.1-2.5-2.9-2.5-4.8v-31.2c0-.5-.3-.7-.4-.8-.2-.1-.5-.3-.9-.1l-3.5,1.3c-2.2.8-3.8,2.8-4.1,5.1l-12.8,84.9c-.8,5-4.1,9.4-8.8,11.3l-13.5,5.6c-2.4,1-5.1.7-7.3-.7-2.2-1.4-3.5-3.9-3.5-6.5v-20.8c0-.4-.2-.5-.3-.6-.1,0-.4-.2-.7,0l-9.1,3.7c-2,.8-4.3.6-6.1-.6-1.8-1.2-2.9-3.3-2.9-5.4v-20.3c0-.3-.1-.4-.3-.5-.1,0-.3-.2-.5,0l-3.1,1.3c-1.9.8-3.2,2.5-3.5,4.4l-13.3,84.3c-.1,4.2-2.7,8-6.7,9.6l-22.4,9c-.3.1-.6.2-.9.2Z"/>
  <g>
    <polygon class="st9" points="261.1 387.7 274.5 402.8 296.7 397.5 302.5 390.4 269.5 372.7 261.1 387.7"/>
    <path class="st2" d="M275.4,357.5s-13.6,27.8-12.9,27.8c8.3-.3,16.5,1.8,23.6,6l13.2,7.8c4,2.3,9.1,1.7,12.1-1.8,5.2-6.1,6.1-17.5,6.1-24.1s.9-8.2,2.5-11.9,1.4-3.2,2.2-4.8c2.9-6.4,5.1-13.1,6.5-20l4.3-38.4,34.7,13h33.7l-62.8-62.9-6.2,4.9c-9.3,7.2-37.8,11.1-43.8,21.2l-13.1,83.3Z"/>
    <path class="st1" d="M471.2,164.2v-4.4c-3.6,0-4.7-11.3-7.8-13l-23.8,12.4,14.8,24.8,12.2,1.6,4.7-21.3Z"/>
    <path class="st13" d="M471.1,133.3l.2-7.6c0-4.3-2.1-8.3-5.8-10.6l-7.2-4.4v-.5c.1,0-.8,0-.8,0l-.8-.5v.5c-.1,0-2.5-.3-2.5-.3-1.5,0-3.6-.4-5,.5s-5.6,4.5-10,10.7-.6,4.9-2.1,5.9c0,0-11.4,3.8-12.3,5.9s2.4,4,3.7,4.7l4.5,2.4c0,.8-1.3,4.1-1.9,5.3s-.5,10.7-.1,12.4c.6,2.6,3.7,5.3,6.3,5,5.3-.6,14.8-9.6,14.8-9.6,3.3-1.4,3.4-1.6,4.4-4l13.3-10.1c.8-1.9,1.3-3.9,1.3-5.9Z"/>
    <rect class="st10" x="439.3" y="125" width="3.7" height="6.7" rx="1.9" ry="1.9" transform="translate(781.4 437.2) rotate(-154)"/>
    <path class="st15" d="M449.8,111.3s3.8,8.1,6.1,12.3,1.3,9.2,2.7,10h0l14,16.6s6.7-18.7,5.7-21.2-16-14.5-28.4-17.7Z"/>
    <path d="M439.6,137.6c-.6,0-1.1,0-1.6-.2h-.1s-1.1-.6-1.1-.6c-1.5-.7-2.4-2.1-2.6-4-.1-1.2.2-2.5.8-3.6l4-7.4c1.3-2.2,4.1-3.3,6.3-2.3l3,1.4c1.6.7,2.4,2.6,2.1,4.7-.4,2.2-1.4,5.5-4.4,8.9-1.6,1.8-3.6,2.9-5.5,3.2-.3,0-.5,0-.8,0ZM438.6,135.5c.5.1,1,.2,1.5,0,1.5-.2,3-1.1,4.2-2.5,2.7-3,3.6-5.9,3.9-7.9.2-1.1-.2-2.2-1-2.5l-3-1.4c-1.1-.5-2.9,0-3.7,1.5l-4,7.3c-.4.8-.6,1.7-.6,2.5.1,1.1.6,2,1.5,2.4l1.1.5Z"/>
    <path class="st3" d="M275.4,357.5s-13.6,27.8-12.9,27.8c8.3-.3,16.5,1.8,23.6,6l13.2,7.8c4,2.3,9.1,1.7,12.1-1.8,5.2-6.1,6.1-17.5,6.1-24.1s.9-8.2,2.5-11.9,1.4-3.2,2.2-4.8c2.9-6.4,5.1-13.1,6.5-20l4.3-38.4,34.7,13h33.7l-62.8-62.9-6.2,4.9c-9.3,7.2-37.8,11.1-43.8,21.2l-13.1,83.3Z"/>
    <path class="st15" d="M439.6,144.8l-6.2-4.4c-.3-.2-.5-.3-.8-.3-.3,0-.6-.1-.9,0h0c-.6,0-2.2,0-3.4.2s-1.4,1.2-.9,2l1.3.7c.3.2.5.6.4.9-.4,1.3-.8,2.3.2,2.9s1.2.2,1.8,0,1.6.2,1.9.9c0,0,.5,1.3,1,1.5,1.5.5,1.4-1.2,2.5-1.4s1.6,1.7,3.4.9.9-3.2-.2-4Z"/>
    <rect x="453.8" y="124.4" width="2" height="14.2" transform="translate(155 498) rotate(-66.8)"/>
    <path class="st8" d="M431.5,276.1l-83.7-37c-6.8-3-27.1-2.7-40.2,2.3s-11.3,9-14.5,12.5c-7.3,8.1-20.3,29.9-32.6,43.7-7.9,8.8-17.9,12.5-18.3,13,0,0-9.7,6.6-.6,16.8l25.5,22.7,38.5-83.3c1.7-2.9,15.1-.8,17.5,1.5l20.3,19.3c15.7,14.9,36.5,23.3,58.1,23.3h26.3l3.7-34.9Z"/>
    <g>
      <g>
        <path class="st11" d="M346.9,229.5l-22.6,25.4,23.7,7.5c1.4.5,2.9.8,4.4,1.1,2.5.4,6.4,1.2,7.9,1.7,3.1,1,11.6,6.4,11.6,6.4l22.7-26.9-14.3-5.5c-1.6-.6-3.3-1.1-5.1-1.4l-4.1-.8c-1-.2-2-.4-2.9-.7l-21.1-6.7Z"/>
        <path class="st11" d="M354.7,232s-5.6-1.9-4.8-5.9l-4.3,4.8,9.1,1.1Z"/>
      </g>
      <g>
        <path d="M337.6,254.5c-.2,0-.5,0-.7-.3-.4-.4-.5-1,0-1.4l14.4-16.2c.4-.4,1-.5,1.4,0,.4.4.5,1,0,1.4l-14.4,16.2c-.2.2-.5.3-.7.3Z"/>
        <path d="M342.7,256.1c-.2,0-.5,0-.7-.3-.4-.4-.5-1,0-1.4l14.4-16.2c.4-.4,1-.5,1.4,0,.4.4.5,1,0,1.4l-14.4,16.2c-.2.2-.5.3-.7.3Z"/>
        <path d="M347.8,257.7c-.2,0-.5,0-.7-.3-.4-.4-.5-1,0-1.4l14.4-16.2c.4-.4,1-.5,1.4,0,.4.4.5,1,0,1.4l-14.4,16.2c-.2.2-.5.3-.7.3Z"/>
      </g>
    </g>
    <path class="st7" d="M408.7,285.6l-.3,14.6c-.2,2.6,0,6.2-2,7.8s-1.7,1.1-2.6,1.1c-3.1,0-4.8-2.9-4.8-6.1s.8-11.5.8-11.5l-3.9,9.5s-1.7,5.6-6.4,4.4-2.3-4.5-1.6-6.6,3.5-9.5,3.5-9.5c0,0-3.7,6.1-5,8s-3.5,2.8-5.6,2.1-1.8-1.5-1.8-2.3c0-2.8,3.4-7.4,6.8-11.1,0,0,3.3-4.3,7.1-9.2s7.3-9.4,9.4-12.2l20,16.5c.7.6,1.6,1.2,1.6,1.2l-2.5,7.8c-2.1,2.1-6.2.7-7.5-1.6-1.8-3.4-5.1-3-5.1-3Z"/>
    <polygon class="st4" points="261.1 334.2 253.3 355.7 275.4 357.5 261.1 334.2"/>
    <path class="st12" d="M409.2,230l4.7-39.7,2.5-1.2c2-.9,3.8-2.2,5.5-3.7s4-2.6,8.6-3.2,7-1.7,5.9-6.2-1.1-2.8-5.3-4.1-7.4.3-8.8.9l1.1-8.9s3.8,2.9,6.4,3,4.9-2.5,4.5-4.6-3.2-4.7-5-6.4-3-2.2-4.8-2.7l-7.2-1.9c-2.3-.5-6.4,1.1-6.8,6.4,0,0-6.4-1.7-9.6,3.2-2,3.1-7.3,17.2-10.9,27.3-2.4,6.7-4.5,13.5-6.2,20.4l-7.8,31.5s-6.9,27.5,11.4,30.6c18.3,3,19.6-12.3,19.6-12.3l2.2-28.5Z"/>
    <path class="st11" d="M453.8,182.4c-4.4-.2-18.7,5.4-25.6,12.9-12.3,13.6-23.9,25-23.9,25,0,0-27,21.6-12.9,43,4.8,7.3,12.2,10,18.4,10.8s2.9.3,4.2.3l9.9,7.9-3.3,12,7.3,16.5h0c9.5,0,18.1-5.5,22.1-14.1l38.6-82.1s9-17.2-4.1-34.5l-30.6,2.1Z"/>
    <path d="M296.7,397.5s4.5,9.9,4.3,20.2l-80.8-.2s-13.3,2-20.3-6.8c0,0,1.6-12.7,31-12.6,4.1,0,8.1-1.2,11.5-3.4l10-6.5c2.1-1.7,5.1-2.5,7.9-2.8,4.8-.5,9.5,2.3,11.2,6.8s.6,1.7.7,2.4c.5,2.8,3.1,4.9,5.9,4.9l18.6-2Z"/>
    <path class="st15" d="M483.9,143.9c.6,5.1,5,12.1,8.7,17.4,3.7,5.2,2.7,12.6-2.5,16.5s-4.5,2.9-5.8,2.6l-31.4,2.2h0c-10.2,0-12.8-10.6-7.8-15.4h0c1.4-1.3,2.5-2.9,3.2-4.7l7.4-18.4,9.5-7,11.8-11.7,6.8,18.7Z"/>
    <path class="st11" d="M304,420.2c0-1.6-1.3-3-3-3h-87.6s-8.7,0-12.9-5.9c-1-1.4-2.9-1.7-4.2-.6l-.2.2c-.9.8-1.3,2-.8,3.2,1.2,3.2,5.2,9,18.2,9h87.6c1.6,0,3-1.3,3-3h0Z"/>
    <path d="M253.3,355.7l-31.6,16c-1.7.9-3.5,1.5-5.4,1.8s-6.1,1.2-8,2c-6.1,2.4-7.9,5.6-6.6,9s11.1,9.6,25.7,4.3c14.6-5.3,42-18.8,42-18.8l6.1-12.5-22.2-1.8Z"/>
    <path class="st11" d="M269.4,370l-42,18.8s-19.6,7.5-25.8-5.6c-.7-1.4-2.3-2.1-3.8-1.4h0c-1.4.7-2,2.4-1.2,3.8,1.5,2.8,4.7,7.2,10.3,8.8,7.4,2.1,15.4,1.6,22.3-.9s36.8-16.4,36.8-16.4l3.4-7.2Z"/>
    <path d="M445.5,215.7l-31,95.3h-46.8l-36.5,112.2h13.7s32.3-99.2,32.3-99.2h33.1l-32.3,99.2h13.7s32.3-99.2,32.3-99.2h47.3l-32.3,99.2h13.7s65.5-201.4,65.5-201.4c5.2-16-6.7-32.4-23.5-32.4h-13c-16.5,0-31,10.6-36.1,26.2ZM428.2,311l29.1-89.4c3.7-11.4,14.4-19.2,26.4-19.2h9.4c8.8,0,15,8.5,12.3,16.9l-29.8,91.7h-47.3Z"/>
    <path class="st6" d="M319.3,266.7s-.8-.2-1.4.2c-29.7,17.5-42.5,90.6-42.5,90.6l-33.8-30.1,67.2-70.7s13,8.4,10.5,10Z"/>
    <path class="st16" d="M466.9,102.5l-8.5,5.6c-4.8-1.9-9.2-2.9-14-4.3-10.7-3-13.8-1.3-10.5,2.5,0,0,29.1,23.6,50,37.5l8-10.7c1.9-2.6,1.8-6.1-.3-8.5l-18.1-21.2c-1.7-1.9-4.5-2.3-6.6-.9Z"/>
    <ellipse class="st12" cx="457.7" cy="143.5" rx="11.3" ry="7.9" transform="translate(104.5 468.1) rotate(-60)"/>
    <polygon class="st5" points="413.9 190.3 411.2 213.4 399.4 225 393.2 211.2 413.9 190.3"/>
    <path class="st11" d="M260.6,398c-.1,0-.2,0-.3,0-8.8-6.4-16.3-4.4-16.4-4.3-.3,0-.5,0-.6-.3,0-.3,0-.5.3-.6.3,0,8-2.2,17.2,4.5.2.2.3.5.1.7,0,.1-.2.2-.4.2Z"/>
    <path class="st11" d="M253.7,400.8c-.1,0-.2,0-.3,0-8.8-6.4-17.7-2.8-17.8-2.8-.3.1-.5,0-.7-.3-.1-.3,0-.5.3-.7,0,0,9.5-3.8,18.7,2.9.2.2.3.5.1.7,0,.1-.2.2-.4.2Z"/>
    <path class="st11" d="M305.7,433.1c0,0-.1,0-.2,0-2.4-1.1-4.2-3-6-4.9-1.2-1.3-2.5-2.7-4-3.7-3.5-2.5-8-3.1-12.3-3.8-1.7-.2-3.5-.5-5.3-.9-4-.9-8.5-3.3-8.8-7.4-.2-1.8.5-3.4,1.1-5,.4-1,.8-2,1-3,.4-2-.2-4.1-1.5-5.3-1.4-1.3-3.7-1.4-5-.3-.2.2-.5.2-.7,0-.2-.2-.2-.5,0-.7,1.7-1.5,4.5-1.4,6.3.3,1.5,1.4,2.2,3.8,1.8,6.2-.2,1.1-.6,2.2-1,3.2-.6,1.5-1.2,3-1,4.5.3,3.6,4.4,5.7,8,6.5,1.7.4,3.5.6,5.2.9,4.4.6,9,1.3,12.8,3.9,1.5,1.1,2.9,2.5,4.1,3.8,1.8,1.9,3.5,3.6,5.7,4.7.3.1.4.4.2.7,0,.2-.3.3-.5.3Z"/>
    <g>
      <path class="st11" d="M219.7,373.8c-3,0-5.1-.8-6.2-2.3-1.8-2.5-.4-6,0-7,1.4-3.1,7.8-3.6,12-3.9h.9c1.5-.2,2.4-.9,3.6-1.8,1.5-1.1,3.3-2.6,6.8-3.1,6.4-.9,11.2,3.4,11.4,3.6.2.2.2.4.1.6s-.3.3-.6.2c-2.2-.6-3,0-4.6,1.7-1,.9-2.1,2.1-4,3.3-1.3.9-2.4,1.8-3.4,2.7-3,2.6-5.9,5-13.7,5.9-.8,0-1.6.1-2.3.1ZM238.6,356.6c-.5,0-1.1,0-1.6.1-3.3.5-4.9,1.8-6.4,2.9-1.2.9-2.3,1.8-4.1,2h-.9c-3.5.3-9.9.8-11.1,3.4-.4.9-1.6,4-.2,6,1.1,1.6,3.7,2.2,7.5,1.8,7.6-.8,10.3-3.2,13.2-5.7,1.1-.9,2.2-1.9,3.5-2.8,1.8-1.2,2.9-2.3,3.9-3.2,1.2-1.2,2.1-2.1,3.6-2.2-1.6-1-4.3-2.3-7.5-2.3Z"/>
      <path class="st11" d="M220.5,364.6c-.9,0-1.9,0-2.8-.1-5.8-.6-7.2-2.8-7.5-4.1-.4-1.7.4-3.6,2.2-4.8,3.4-2.4,14.2-2.9,16.4-3,3-.1,3.7.6,5.4,2.2.3.3.6.6,1,.9,2.4,2.2,8.9,4,9,4,.2,0,.4.3.4.5,0,.2-.2.4-.4.5-.2,0-5.9,1.6-8.7,1.3-.9,0-2.3.3-4,.8-2.8.8-6.4,1.8-10.9,1.8ZM229.4,353.6c-.2,0-.4,0-.6,0-5.8.3-13.4,1.1-15.8,2.9-1.4,1-2.1,2.5-1.8,3.7.3,1,1.5,2.8,6.7,3.3,5.6.5,10.1-.7,13.4-1.6,1.9-.5,3.3-.9,4.4-.8,1.7.2,4.6-.4,6.5-.8-2.2-.7-5.8-2.1-7.6-3.7-.4-.4-.7-.7-1-1-1.5-1.5-2.1-2-4.1-2Z"/>
    </g>
  </g>
  <g>
    <rect class="st17" x="293.7" y="96.8" width="81.6" height="2" transform="translate(191.2 415.5) rotate(-82)"/>
    <path class="st17" d="M346.6,70c-.4.2-.9,0-1.1-.4l-5.4-11.8-8.4,9.9c-.3.4-.8.4-1.2,0-.4-.3-.4-.8,0-1.2l9.3-10.9c.2-.2.5-.3.8-.3.3,0,.5.2.7.5l6,13c0,.2,0,.3,0,.5,0,.3-.2.5-.5.7Z"/>
  </g>
  <g>
    <rect class="st17" x="217.8" y="154.8" width="81.6" height="2" transform="translate(68.4 390.3) rotate(-82)"/>
    <path class="st17" d="M270.7,128.1c-.4.2-.9,0-1.1-.4l-5.4-11.8-8.4,9.9c-.3.4-.8.4-1.2,0-.4-.3-.4-.8,0-1.2l9.3-10.9c.2-.2.5-.3.8-.3.3,0,.5.2.7.5l6,13c0,.2,0,.3,0,.5,0,.3-.2.5-.5.7Z"/>
  </g>
  <path class="st17" d="M386.3,118.4l-12.9,6.1c-1.3.6-2.8-.3-2.8-1.8v-13.7c0-1.5.8-2.8,2.1-3.4l13.4-6.3c1.2-.6,2.5.3,2.5,1.6v13.7c0,1.6-.9,3.1-2.4,3.8Z"/>
  <g>
    <rect class="st17" x="141.4" y="211.3" width="81.6" height="2" transform="translate(-53.3 363.3) rotate(-82)"/>
    <path class="st17" d="M194.3,184.5c-.4.2-.9,0-1.1-.4l-5.4-11.8-8.4,9.9c-.3.4-.8.4-1.2,0-.4-.3-.4-.8,0-1.2l9.3-10.9c.2-.2.5-.3.8-.3s.5.2.7.5l6,13c0,.2,0,.3,0,.5,0,.3-.2.5-.5.7Z"/>
  </g>
</svg>