<?xml version="1.0" encoding="utf-8" standalone="no"?>
<!DOCTYPE svg PUBLIC "-//W3C//DTD SVG 1.1//EN"
  "http://www.w3.org/Graphics/SVG/1.1/DTD/svg11.dtd">
<svg xmlns:xlink="http://www.w3.org/1999/xlink" width="720pt" height="360pt" viewBox="0 0 720 360" xmlns="http://www.w3.org/2000/svg" version="1.1">
 <metadata>
  <rdf:RDF xmlns:dc="http://purl.org/dc/elements/1.1/" xmlns:cc="http://creativecommons.org/ns#" xmlns:rdf="http://www.w3.org/1999/02/22-rdf-syntax-ns#">
   <cc:Work>
    <dc:type rdf:resource="http://purl.org/dc/dcmitype/StillImage"/>
    <dc:date>2025-04-02T15:00:15.820347</dc:date>
    <dc:format>image/svg+xml</dc:format>
    <dc:creator>
     <cc:Agent>
      <dc:title>Matplotlib v3.9.0, https://matplotlib.org/</dc:title>
     </cc:Agent>
    </dc:creator>
   </cc:Work>
  </rdf:RDF>
 </metadata>
 <defs>
  <style type="text/css">*{stroke-linejoin: round; stroke-linecap: butt}</style>
 </defs>
 <g id="figure_1">
  <g id="patch_1">
   <path d="M 0 360 
L 720 360 
L 720 0 
L 0 0 
z
" style="fill: #ffffff"/>
  </g>
  <g id="axes_1">
   <g id="patch_2">
    <path d="M 53.57 318.04 
L 709.2 318.04 
L 709.2 25.44 
L 53.57 25.44 
z
" style="fill: #ffffff"/>
   </g>
   <g id="matplotlib.axis_1">
    <g id="xtick_1">
     <g id="line2d_1">
      <defs>
       <path id="m8e2bf76489" d="M 0 0 
L 0 3.5 
" style="stroke: #262626; stroke-width: 0.8"/>
      </defs>
      <g>
       <use xlink:href="#m8e2bf76489" x="53.57" y="318.04" style="fill: #262626; stroke: #262626; stroke-width: 0.8"/>
      </g>
     </g>
     <g id="text_1">
      <!-- Jan 20 -->
      <g style="fill: #262626" transform="translate(38.559062 332.197812) scale(0.1 -0.1)">
       <defs>
        <path id="ArialMT-4a" d="M 184 1300 
L 731 1375 
Q 753 850 928 656 
Q 1103 463 1413 463 
Q 1641 463 1806 567 
Q 1972 672 2034 851 
Q 2097 1031 2097 1425 
L 2097 4581 
L 2703 4581 
L 2703 1459 
Q 2703 884 2564 568 
Q 2425 253 2123 87 
Q 1822 -78 1416 -78 
Q 813 -78 492 269 
Q 172 616 184 1300 
z
" transform="scale(0.015625)"/>
        <path id="ArialMT-61" d="M 2588 409 
Q 2275 144 1986 34 
Q 1697 -75 1366 -75 
Q 819 -75 525 192 
Q 231 459 231 875 
Q 231 1119 342 1320 
Q 453 1522 633 1644 
Q 813 1766 1038 1828 
Q 1203 1872 1538 1913 
Q 2219 1994 2541 2106 
Q 2544 2222 2544 2253 
Q 2544 2597 2384 2738 
Q 2169 2928 1744 2928 
Q 1347 2928 1158 2789 
Q 969 2650 878 2297 
L 328 2372 
Q 403 2725 575 2942 
Q 747 3159 1072 3276 
Q 1397 3394 1825 3394 
Q 2250 3394 2515 3294 
Q 2781 3194 2906 3042 
Q 3031 2891 3081 2659 
Q 3109 2516 3109 2141 
L 3109 1391 
Q 3109 606 3145 398 
Q 3181 191 3288 0 
L 2700 0 
Q 2613 175 2588 409 
z
M 2541 1666 
Q 2234 1541 1622 1453 
Q 1275 1403 1131 1340 
Q 988 1278 909 1158 
Q 831 1038 831 891 
Q 831 666 1001 516 
Q 1172 366 1500 366 
Q 1825 366 2078 508 
Q 2331 650 2450 897 
Q 2541 1088 2541 1459 
L 2541 1666 
z
" transform="scale(0.015625)"/>
        <path id="ArialMT-6e" d="M 422 0 
L 422 3319 
L 928 3319 
L 928 2847 
Q 1294 3394 1984 3394 
Q 2284 3394 2536 3286 
Q 2788 3178 2913 3003 
Q 3038 2828 3088 2588 
Q 3119 2431 3119 2041 
L 3119 0 
L 2556 0 
L 2556 2019 
Q 2556 2363 2490 2533 
Q 2425 2703 2258 2804 
Q 2091 2906 1866 2906 
Q 1506 2906 1245 2678 
Q 984 2450 984 1813 
L 984 0 
L 422 0 
z
" transform="scale(0.015625)"/>
        <path id="ArialMT-20" transform="scale(0.015625)"/>
        <path id="ArialMT-32" d="M 3222 541 
L 3222 0 
L 194 0 
Q 188 203 259 391 
Q 375 700 629 1000 
Q 884 1300 1366 1694 
Q 2113 2306 2375 2664 
Q 2638 3022 2638 3341 
Q 2638 3675 2398 3904 
Q 2159 4134 1775 4134 
Q 1369 4134 1125 3890 
Q 881 3647 878 3216 
L 300 3275 
Q 359 3922 746 4261 
Q 1134 4600 1788 4600 
Q 2447 4600 2831 4234 
Q 3216 3869 3216 3328 
Q 3216 3053 3103 2787 
Q 2991 2522 2730 2228 
Q 2469 1934 1863 1422 
Q 1356 997 1212 845 
Q 1069 694 975 541 
L 3222 541 
z
" transform="scale(0.015625)"/>
        <path id="ArialMT-30" d="M 266 2259 
Q 266 3072 433 3567 
Q 600 4063 929 4331 
Q 1259 4600 1759 4600 
Q 2128 4600 2406 4451 
Q 2684 4303 2865 4023 
Q 3047 3744 3150 3342 
Q 3253 2941 3253 2259 
Q 3253 1453 3087 958 
Q 2922 463 2592 192 
Q 2263 -78 1759 -78 
Q 1097 -78 719 397 
Q 266 969 266 2259 
z
M 844 2259 
Q 844 1131 1108 757 
Q 1372 384 1759 384 
Q 2147 384 2411 759 
Q 2675 1134 2675 2259 
Q 2675 3391 2411 3762 
Q 2147 4134 1753 4134 
Q 1366 4134 1134 3806 
Q 844 3388 844 2259 
z
" transform="scale(0.015625)"/>
       </defs>
       <use xlink:href="#ArialMT-4a"/>
       <use xlink:href="#ArialMT-61" x="50"/>
       <use xlink:href="#ArialMT-6e" x="105.615234"/>
       <use xlink:href="#ArialMT-20" x="161.230469"/>
       <use xlink:href="#ArialMT-32" x="189.013672"/>
       <use xlink:href="#ArialMT-30" x="244.628906"/>
      </g>
     </g>
    </g>
    <g id="xtick_2">
     <g id="line2d_2">
      <g>
       <use xlink:href="#m8e2bf76489" x="272.712082" y="318.04" style="fill: #262626; stroke: #262626; stroke-width: 0.8"/>
      </g>
     </g>
     <g id="text_2">
      <!-- Jan 21 -->
      <g style="fill: #262626" transform="translate(257.701145 332.197812) scale(0.1 -0.1)">
       <defs>
        <path id="ArialMT-31" d="M 2384 0 
L 1822 0 
L 1822 3584 
Q 1619 3391 1289 3197 
Q 959 3003 697 2906 
L 697 3450 
Q 1169 3672 1522 3987 
Q 1875 4303 2022 4600 
L 2384 4600 
L 2384 0 
z
" transform="scale(0.015625)"/>
       </defs>
       <use xlink:href="#ArialMT-4a"/>
       <use xlink:href="#ArialMT-61" x="50"/>
       <use xlink:href="#ArialMT-6e" x="105.615234"/>
       <use xlink:href="#ArialMT-20" x="161.230469"/>
       <use xlink:href="#ArialMT-32" x="189.013672"/>
       <use xlink:href="#ArialMT-31" x="244.628906"/>
      </g>
     </g>
    </g>
    <g id="xtick_3">
     <g id="line2d_3">
      <g>
       <use xlink:href="#m8e2bf76489" x="491.255416" y="318.04" style="fill: #262626; stroke: #262626; stroke-width: 0.8"/>
      </g>
     </g>
     <g id="text_3">
      <!-- Jan 22 -->
      <g style="fill: #262626" transform="translate(476.244478 332.197812) scale(0.1 -0.1)">
       <use xlink:href="#ArialMT-4a"/>
       <use xlink:href="#ArialMT-61" x="50"/>
       <use xlink:href="#ArialMT-6e" x="105.615234"/>
       <use xlink:href="#ArialMT-20" x="161.230469"/>
       <use xlink:href="#ArialMT-32" x="189.013672"/>
       <use xlink:href="#ArialMT-32" x="244.628906"/>
      </g>
     </g>
    </g>
    <g id="xtick_4">
     <g id="line2d_4"/>
     <g id="text_4">
      <!-- Apr -->
      <g style="fill: #262626" transform="translate(101.831771 327.16625) scale(0.08 -0.08)">
       <defs>
        <path id="ArialMT-41" d="M -9 0 
L 1750 4581 
L 2403 4581 
L 4278 0 
L 3588 0 
L 3053 1388 
L 1138 1388 
L 634 0 
L -9 0 
z
M 1313 1881 
L 2866 1881 
L 2388 3150 
Q 2169 3728 2063 4100 
Q 1975 3659 1816 3225 
L 1313 1881 
z
" transform="scale(0.015625)"/>
        <path id="ArialMT-70" d="M 422 -1272 
L 422 3319 
L 934 3319 
L 934 2888 
Q 1116 3141 1344 3267 
Q 1572 3394 1897 3394 
Q 2322 3394 2647 3175 
Q 2972 2956 3137 2557 
Q 3303 2159 3303 1684 
Q 3303 1175 3120 767 
Q 2938 359 2589 142 
Q 2241 -75 1856 -75 
Q 1575 -75 1351 44 
Q 1128 163 984 344 
L 984 -1272 
L 422 -1272 
z
M 931 1641 
Q 931 1000 1190 694 
Q 1450 388 1819 388 
Q 2194 388 2461 705 
Q 2728 1022 2728 1688 
Q 2728 2322 2467 2637 
Q 2206 2953 1844 2953 
Q 1484 2953 1207 2617 
Q 931 2281 931 1641 
z
" transform="scale(0.015625)"/>
        <path id="ArialMT-72" d="M 416 0 
L 416 3319 
L 922 3319 
L 922 2816 
Q 1116 3169 1280 3281 
Q 1444 3394 1641 3394 
Q 1925 3394 2219 3213 
L 2025 2691 
Q 1819 2813 1613 2813 
Q 1428 2813 1281 2702 
Q 1134 2591 1072 2394 
Q 978 2094 978 1738 
L 978 0 
L 416 0 
z
" transform="scale(0.015625)"/>
       </defs>
       <use xlink:href="#ArialMT-41"/>
       <use xlink:href="#ArialMT-70" x="66.699219"/>
       <use xlink:href="#ArialMT-72" x="122.314453"/>
      </g>
     </g>
    </g>
    <g id="xtick_5">
     <g id="line2d_5"/>
     <g id="text_5">
      <!-- Jul -->
      <g style="fill: #262626" transform="translate(157.429167 327.16625) scale(0.08 -0.08)">
       <defs>
        <path id="ArialMT-75" d="M 2597 0 
L 2597 488 
Q 2209 -75 1544 -75 
Q 1250 -75 995 37 
Q 741 150 617 320 
Q 494 491 444 738 
Q 409 903 409 1263 
L 409 3319 
L 972 3319 
L 972 1478 
Q 972 1038 1006 884 
Q 1059 663 1231 536 
Q 1403 409 1656 409 
Q 1909 409 2131 539 
Q 2353 669 2445 892 
Q 2538 1116 2538 1541 
L 2538 3319 
L 3100 3319 
L 3100 0 
L 2597 0 
z
" transform="scale(0.015625)"/>
        <path id="ArialMT-6c" d="M 409 0 
L 409 4581 
L 972 4581 
L 972 0 
L 409 0 
z
" transform="scale(0.015625)"/>
       </defs>
       <use xlink:href="#ArialMT-4a"/>
       <use xlink:href="#ArialMT-75" x="50"/>
       <use xlink:href="#ArialMT-6c" x="105.615234"/>
      </g>
     </g>
    </g>
    <g id="xtick_6">
     <g id="line2d_6"/>
     <g id="text_6">
      <!-- Oct -->
      <g style="fill: #262626" transform="translate(211.404687 327.16625) scale(0.08 -0.08)">
       <defs>
        <path id="ArialMT-4f" d="M 309 2231 
Q 309 3372 921 4017 
Q 1534 4663 2503 4663 
Q 3138 4663 3647 4359 
Q 4156 4056 4423 3514 
Q 4691 2972 4691 2284 
Q 4691 1588 4409 1038 
Q 4128 488 3612 205 
Q 3097 -78 2500 -78 
Q 1853 -78 1343 234 
Q 834 547 571 1087 
Q 309 1628 309 2231 
z
M 934 2222 
Q 934 1394 1379 917 
Q 1825 441 2497 441 
Q 3181 441 3623 922 
Q 4066 1403 4066 2288 
Q 4066 2847 3877 3264 
Q 3688 3681 3323 3911 
Q 2959 4141 2506 4141 
Q 1863 4141 1398 3698 
Q 934 3256 934 2222 
z
" transform="scale(0.015625)"/>
        <path id="ArialMT-63" d="M 2588 1216 
L 3141 1144 
Q 3050 572 2676 248 
Q 2303 -75 1759 -75 
Q 1078 -75 664 370 
Q 250 816 250 1647 
Q 250 2184 428 2587 
Q 606 2991 970 3192 
Q 1334 3394 1763 3394 
Q 2303 3394 2647 3120 
Q 2991 2847 3088 2344 
L 2541 2259 
Q 2463 2594 2264 2762 
Q 2066 2931 1784 2931 
Q 1359 2931 1093 2626 
Q 828 2322 828 1663 
Q 828 994 1084 691 
Q 1341 388 1753 388 
Q 2084 388 2306 591 
Q 2528 794 2588 1216 
z
" transform="scale(0.015625)"/>
        <path id="ArialMT-74" d="M 1650 503 
L 1731 6 
Q 1494 -44 1306 -44 
Q 1000 -44 831 53 
Q 663 150 594 308 
Q 525 466 525 972 
L 525 2881 
L 113 2881 
L 113 3319 
L 525 3319 
L 525 4141 
L 1084 4478 
L 1084 3319 
L 1650 3319 
L 1650 2881 
L 1084 2881 
L 1084 941 
Q 1084 700 1114 631 
Q 1144 563 1211 522 
Q 1278 481 1403 481 
Q 1497 481 1650 503 
z
" transform="scale(0.015625)"/>
       </defs>
       <use xlink:href="#ArialMT-4f"/>
       <use xlink:href="#ArialMT-63" x="77.783203"/>
       <use xlink:href="#ArialMT-74" x="127.783203"/>
      </g>
     </g>
    </g>
    <g id="xtick_7">
     <g id="line2d_7"/>
     <g id="text_7">
      <!-- Apr -->
      <g style="fill: #262626" transform="translate(320.375104 327.16625) scale(0.08 -0.08)">
       <use xlink:href="#ArialMT-41"/>
       <use xlink:href="#ArialMT-70" x="66.699219"/>
       <use xlink:href="#ArialMT-72" x="122.314453"/>
      </g>
     </g>
    </g>
    <g id="xtick_8">
     <g id="line2d_8"/>
     <g id="text_8">
      <!-- Jul -->
      <g style="fill: #262626" transform="translate(375.972501 327.16625) scale(0.08 -0.08)">
       <use xlink:href="#ArialMT-4a"/>
       <use xlink:href="#ArialMT-75" x="50"/>
       <use xlink:href="#ArialMT-6c" x="105.615234"/>
      </g>
     </g>
    </g>
    <g id="xtick_9">
     <g id="line2d_9"/>
     <g id="text_9">
      <!-- Oct -->
      <g style="fill: #262626" transform="translate(429.948021 327.16625) scale(0.08 -0.08)">
       <use xlink:href="#ArialMT-4f"/>
       <use xlink:href="#ArialMT-63" x="77.783203"/>
       <use xlink:href="#ArialMT-74" x="127.783203"/>
      </g>
     </g>
    </g>
    <g id="xtick_10">
     <g id="line2d_10"/>
     <g id="text_10">
      <!-- Apr -->
      <g style="fill: #262626" transform="translate(538.918438 327.16625) scale(0.08 -0.08)">
       <use xlink:href="#ArialMT-41"/>
       <use xlink:href="#ArialMT-70" x="66.699219"/>
       <use xlink:href="#ArialMT-72" x="122.314453"/>
      </g>
     </g>
    </g>
    <g id="xtick_11">
     <g id="line2d_11"/>
     <g id="text_11">
      <!-- Jul -->
      <g style="fill: #262626" transform="translate(594.515834 327.16625) scale(0.08 -0.08)">
       <use xlink:href="#ArialMT-4a"/>
       <use xlink:href="#ArialMT-75" x="50"/>
       <use xlink:href="#ArialMT-6c" x="105.615234"/>
      </g>
     </g>
    </g>
    <g id="xtick_12">
     <g id="line2d_12"/>
     <g id="text_12">
      <!-- Oct -->
      <g style="fill: #262626" transform="translate(648.491354 327.16625) scale(0.08 -0.08)">
       <use xlink:href="#ArialMT-4f"/>
       <use xlink:href="#ArialMT-63" x="77.783203"/>
       <use xlink:href="#ArialMT-74" x="127.783203"/>
      </g>
     </g>
    </g>
    <g id="text_13">
     <!-- Date -->
     <g style="fill: #262626" transform="translate(370.824062 345.343125) scale(0.1 -0.1)">
      <defs>
       <path id="ArialMT-44" d="M 494 0 
L 494 4581 
L 2072 4581 
Q 2606 4581 2888 4516 
Q 3281 4425 3559 4188 
Q 3922 3881 4101 3404 
Q 4281 2928 4281 2316 
Q 4281 1794 4159 1391 
Q 4038 988 3847 723 
Q 3656 459 3429 307 
Q 3203 156 2883 78 
Q 2563 0 2147 0 
L 494 0 
z
M 1100 541 
L 2078 541 
Q 2531 541 2789 625 
Q 3047 709 3200 863 
Q 3416 1078 3536 1442 
Q 3656 1806 3656 2325 
Q 3656 3044 3420 3430 
Q 3184 3816 2847 3947 
Q 2603 4041 2063 4041 
L 1100 4041 
L 1100 541 
z
" transform="scale(0.015625)"/>
       <path id="ArialMT-65" d="M 2694 1069 
L 3275 997 
Q 3138 488 2766 206 
Q 2394 -75 1816 -75 
Q 1088 -75 661 373 
Q 234 822 234 1631 
Q 234 2469 665 2931 
Q 1097 3394 1784 3394 
Q 2450 3394 2872 2941 
Q 3294 2488 3294 1666 
Q 3294 1616 3291 1516 
L 816 1516 
Q 847 969 1125 678 
Q 1403 388 1819 388 
Q 2128 388 2347 550 
Q 2566 713 2694 1069 
z
M 847 1978 
L 2700 1978 
Q 2663 2397 2488 2606 
Q 2219 2931 1791 2931 
Q 1403 2931 1139 2672 
Q 875 2413 847 1978 
z
" transform="scale(0.015625)"/>
      </defs>
      <use xlink:href="#ArialMT-44"/>
      <use xlink:href="#ArialMT-61" x="72.216797"/>
      <use xlink:href="#ArialMT-74" x="127.832031"/>
      <use xlink:href="#ArialMT-65" x="155.615234"/>
     </g>
    </g>
   </g>
   <g id="matplotlib.axis_2">
    <g id="ytick_1">
     <g id="line2d_13">
      <path d="M 53.57 286.923312 
L 709.2 286.923312 
" clip-path="url(#pb7a3c90756)" style="fill: none; stroke: #cccccc; stroke-width: 0.8; stroke-linecap: round"/>
     </g>
     <g id="line2d_14">
      <defs>
       <path id="m02759a9f28" d="M 0 0 
L -3.5 0 
" style="stroke: #262626; stroke-width: 0.8"/>
      </defs>
      <g>
       <use xlink:href="#m02759a9f28" x="53.57" y="286.923312" style="fill: #262626; stroke: #262626; stroke-width: 0.8"/>
      </g>
     </g>
     <g id="text_14">
      <!-- 100k -->
      <g style="fill: #262626" transform="translate(24.887188 290.502219) scale(0.1 -0.1)">
       <defs>
        <path id="ArialMT-6b" d="M 425 0 
L 425 4581 
L 988 4581 
L 988 1969 
L 2319 3319 
L 3047 3319 
L 1778 2088 
L 3175 0 
L 2481 0 
L 1384 1697 
L 988 1316 
L 988 0 
L 425 0 
z
" transform="scale(0.015625)"/>
       </defs>
       <use xlink:href="#ArialMT-31"/>
       <use xlink:href="#ArialMT-30" x="55.615234"/>
       <use xlink:href="#ArialMT-30" x="111.230469"/>
       <use xlink:href="#ArialMT-6b" x="166.845703"/>
      </g>
     </g>
    </g>
    <g id="ytick_2">
     <g id="line2d_15">
      <path d="M 53.57 255.806625 
L 709.2 255.806625 
" clip-path="url(#pb7a3c90756)" style="fill: none; stroke: #cccccc; stroke-width: 0.8; stroke-linecap: round"/>
     </g>
     <g id="line2d_16">
      <g>
       <use xlink:href="#m02759a9f28" x="53.57" y="255.806625" style="fill: #262626; stroke: #262626; stroke-width: 0.8"/>
      </g>
     </g>
     <g id="text_15">
      <!-- 200k -->
      <g style="fill: #262626" transform="translate(24.887188 259.385531) scale(0.1 -0.1)">
       <use xlink:href="#ArialMT-32"/>
       <use xlink:href="#ArialMT-30" x="55.615234"/>
       <use xlink:href="#ArialMT-30" x="111.230469"/>
       <use xlink:href="#ArialMT-6b" x="166.845703"/>
      </g>
     </g>
    </g>
    <g id="ytick_3">
     <g id="line2d_17">
      <path d="M 53.57 224.689937 
L 709.2 224.689937 
" clip-path="url(#pb7a3c90756)" style="fill: none; stroke: #cccccc; stroke-width: 0.8; stroke-linecap: round"/>
     </g>
     <g id="line2d_18">
      <g>
       <use xlink:href="#m02759a9f28" x="53.57" y="224.689937" style="fill: #262626; stroke: #262626; stroke-width: 0.8"/>
      </g>
     </g>
     <g id="text_16">
      <!-- 300k -->
      <g style="fill: #262626" transform="translate(24.887188 228.268843) scale(0.1 -0.1)">
       <defs>
        <path id="ArialMT-33" d="M 269 1209 
L 831 1284 
Q 928 806 1161 595 
Q 1394 384 1728 384 
Q 2125 384 2398 659 
Q 2672 934 2672 1341 
Q 2672 1728 2419 1979 
Q 2166 2231 1775 2231 
Q 1616 2231 1378 2169 
L 1441 2663 
Q 1497 2656 1531 2656 
Q 1891 2656 2178 2843 
Q 2466 3031 2466 3422 
Q 2466 3731 2256 3934 
Q 2047 4138 1716 4138 
Q 1388 4138 1169 3931 
Q 950 3725 888 3313 
L 325 3413 
Q 428 3978 793 4289 
Q 1159 4600 1703 4600 
Q 2078 4600 2393 4439 
Q 2709 4278 2876 4000 
Q 3044 3722 3044 3409 
Q 3044 3113 2884 2869 
Q 2725 2625 2413 2481 
Q 2819 2388 3044 2092 
Q 3269 1797 3269 1353 
Q 3269 753 2831 336 
Q 2394 -81 1725 -81 
Q 1122 -81 723 278 
Q 325 638 269 1209 
z
" transform="scale(0.015625)"/>
       </defs>
       <use xlink:href="#ArialMT-33"/>
       <use xlink:href="#ArialMT-30" x="55.615234"/>
       <use xlink:href="#ArialMT-30" x="111.230469"/>
       <use xlink:href="#ArialMT-6b" x="166.845703"/>
      </g>
     </g>
    </g>
    <g id="ytick_4">
     <g id="line2d_19">
      <path d="M 53.57 193.573249 
L 709.2 193.573249 
" clip-path="url(#pb7a3c90756)" style="fill: none; stroke: #cccccc; stroke-width: 0.8; stroke-linecap: round"/>
     </g>
     <g id="line2d_20">
      <g>
       <use xlink:href="#m02759a9f28" x="53.57" y="193.573249" style="fill: #262626; stroke: #262626; stroke-width: 0.8"/>
      </g>
     </g>
     <g id="text_17">
      <!-- 400k -->
      <g style="fill: #262626" transform="translate(24.887188 197.152156) scale(0.1 -0.1)">
       <defs>
        <path id="ArialMT-34" d="M 2069 0 
L 2069 1097 
L 81 1097 
L 81 1613 
L 2172 4581 
L 2631 4581 
L 2631 1613 
L 3250 1613 
L 3250 1097 
L 2631 1097 
L 2631 0 
L 2069 0 
z
M 2069 1613 
L 2069 3678 
L 634 1613 
L 2069 1613 
z
" transform="scale(0.015625)"/>
       </defs>
       <use xlink:href="#ArialMT-34"/>
       <use xlink:href="#ArialMT-30" x="55.615234"/>
       <use xlink:href="#ArialMT-30" x="111.230469"/>
       <use xlink:href="#ArialMT-6b" x="166.845703"/>
      </g>
     </g>
    </g>
    <g id="ytick_5">
     <g id="line2d_21">
      <path d="M 53.57 162.456562 
L 709.2 162.456562 
" clip-path="url(#pb7a3c90756)" style="fill: none; stroke: #cccccc; stroke-width: 0.8; stroke-linecap: round"/>
     </g>
     <g id="line2d_22">
      <g>
       <use xlink:href="#m02759a9f28" x="53.57" y="162.456562" style="fill: #262626; stroke: #262626; stroke-width: 0.8"/>
      </g>
     </g>
     <g id="text_18">
      <!-- 500k -->
      <g style="fill: #262626" transform="translate(24.887188 166.035468) scale(0.1 -0.1)">
       <defs>
        <path id="ArialMT-35" d="M 266 1200 
L 856 1250 
Q 922 819 1161 601 
Q 1400 384 1738 384 
Q 2144 384 2425 690 
Q 2706 997 2706 1503 
Q 2706 1984 2436 2262 
Q 2166 2541 1728 2541 
Q 1456 2541 1237 2417 
Q 1019 2294 894 2097 
L 366 2166 
L 809 4519 
L 3088 4519 
L 3088 3981 
L 1259 3981 
L 1013 2750 
Q 1425 3038 1878 3038 
Q 2478 3038 2890 2622 
Q 3303 2206 3303 1553 
Q 3303 931 2941 478 
Q 2500 -78 1738 -78 
Q 1113 -78 717 272 
Q 322 622 266 1200 
z
" transform="scale(0.015625)"/>
       </defs>
       <use xlink:href="#ArialMT-35"/>
       <use xlink:href="#ArialMT-30" x="55.615234"/>
       <use xlink:href="#ArialMT-30" x="111.230469"/>
       <use xlink:href="#ArialMT-6b" x="166.845703"/>
      </g>
     </g>
    </g>
    <g id="ytick_6">
     <g id="line2d_23">
      <path d="M 53.57 131.339874 
L 709.2 131.339874 
" clip-path="url(#pb7a3c90756)" style="fill: none; stroke: #cccccc; stroke-width: 0.8; stroke-linecap: round"/>
     </g>
     <g id="line2d_24">
      <g>
       <use xlink:href="#m02759a9f28" x="53.57" y="131.339874" style="fill: #262626; stroke: #262626; stroke-width: 0.8"/>
      </g>
     </g>
     <g id="text_19">
      <!-- 600k -->
      <g style="fill: #262626" transform="translate(24.887188 134.91878) scale(0.1 -0.1)">
       <defs>
        <path id="ArialMT-36" d="M 3184 3459 
L 2625 3416 
Q 2550 3747 2413 3897 
Q 2184 4138 1850 4138 
Q 1581 4138 1378 3988 
Q 1113 3794 959 3422 
Q 806 3050 800 2363 
Q 1003 2672 1297 2822 
Q 1591 2972 1913 2972 
Q 2475 2972 2870 2558 
Q 3266 2144 3266 1488 
Q 3266 1056 3080 686 
Q 2894 316 2569 119 
Q 2244 -78 1831 -78 
Q 1128 -78 684 439 
Q 241 956 241 2144 
Q 241 3472 731 4075 
Q 1159 4600 1884 4600 
Q 2425 4600 2770 4297 
Q 3116 3994 3184 3459 
z
M 888 1484 
Q 888 1194 1011 928 
Q 1134 663 1356 523 
Q 1578 384 1822 384 
Q 2178 384 2434 671 
Q 2691 959 2691 1453 
Q 2691 1928 2437 2201 
Q 2184 2475 1800 2475 
Q 1419 2475 1153 2201 
Q 888 1928 888 1484 
z
" transform="scale(0.015625)"/>
       </defs>
       <use xlink:href="#ArialMT-36"/>
       <use xlink:href="#ArialMT-30" x="55.615234"/>
       <use xlink:href="#ArialMT-30" x="111.230469"/>
       <use xlink:href="#ArialMT-6b" x="166.845703"/>
      </g>
     </g>
    </g>
    <g id="ytick_7">
     <g id="line2d_25">
      <path d="M 53.57 100.223187 
L 709.2 100.223187 
" clip-path="url(#pb7a3c90756)" style="fill: none; stroke: #cccccc; stroke-width: 0.8; stroke-linecap: round"/>
     </g>
     <g id="line2d_26">
      <g>
       <use xlink:href="#m02759a9f28" x="53.57" y="100.223187" style="fill: #262626; stroke: #262626; stroke-width: 0.8"/>
      </g>
     </g>
     <g id="text_20">
      <!-- 700k -->
      <g style="fill: #262626" transform="translate(24.887188 103.802093) scale(0.1 -0.1)">
       <defs>
        <path id="ArialMT-37" d="M 303 3981 
L 303 4522 
L 3269 4522 
L 3269 4084 
Q 2831 3619 2401 2847 
Q 1972 2075 1738 1259 
Q 1569 684 1522 0 
L 944 0 
Q 953 541 1156 1306 
Q 1359 2072 1739 2783 
Q 2119 3494 2547 3981 
L 303 3981 
z
" transform="scale(0.015625)"/>
       </defs>
       <use xlink:href="#ArialMT-37"/>
       <use xlink:href="#ArialMT-30" x="55.615234"/>
       <use xlink:href="#ArialMT-30" x="111.230469"/>
       <use xlink:href="#ArialMT-6b" x="166.845703"/>
      </g>
     </g>
    </g>
    <g id="ytick_8">
     <g id="line2d_27">
      <path d="M 53.57 69.106499 
L 709.2 69.106499 
" clip-path="url(#pb7a3c90756)" style="fill: none; stroke: #cccccc; stroke-width: 0.8; stroke-linecap: round"/>
     </g>
     <g id="line2d_28">
      <g>
       <use xlink:href="#m02759a9f28" x="53.57" y="69.106499" style="fill: #262626; stroke: #262626; stroke-width: 0.8"/>
      </g>
     </g>
     <g id="text_21">
      <!-- 800k -->
      <g style="fill: #262626" transform="translate(24.887188 72.685405) scale(0.1 -0.1)">
       <defs>
        <path id="ArialMT-38" d="M 1131 2484 
Q 781 2613 612 2850 
Q 444 3088 444 3419 
Q 444 3919 803 4259 
Q 1163 4600 1759 4600 
Q 2359 4600 2725 4251 
Q 3091 3903 3091 3403 
Q 3091 3084 2923 2848 
Q 2756 2613 2416 2484 
Q 2838 2347 3058 2040 
Q 3278 1734 3278 1309 
Q 3278 722 2862 322 
Q 2447 -78 1769 -78 
Q 1091 -78 675 323 
Q 259 725 259 1325 
Q 259 1772 486 2073 
Q 713 2375 1131 2484 
z
M 1019 3438 
Q 1019 3113 1228 2906 
Q 1438 2700 1772 2700 
Q 2097 2700 2305 2904 
Q 2513 3109 2513 3406 
Q 2513 3716 2298 3927 
Q 2084 4138 1766 4138 
Q 1444 4138 1231 3931 
Q 1019 3725 1019 3438 
z
M 838 1322 
Q 838 1081 952 856 
Q 1066 631 1291 507 
Q 1516 384 1775 384 
Q 2178 384 2440 643 
Q 2703 903 2703 1303 
Q 2703 1709 2433 1975 
Q 2163 2241 1756 2241 
Q 1359 2241 1098 1978 
Q 838 1716 838 1322 
z
" transform="scale(0.015625)"/>
       </defs>
       <use xlink:href="#ArialMT-38"/>
       <use xlink:href="#ArialMT-30" x="55.615234"/>
       <use xlink:href="#ArialMT-30" x="111.230469"/>
       <use xlink:href="#ArialMT-6b" x="166.845703"/>
      </g>
     </g>
    </g>
    <g id="ytick_9">
     <g id="line2d_29">
      <path d="M 53.57 37.989811 
L 709.2 37.989811 
" clip-path="url(#pb7a3c90756)" style="fill: none; stroke: #cccccc; stroke-width: 0.8; stroke-linecap: round"/>
     </g>
     <g id="line2d_30">
      <g>
       <use xlink:href="#m02759a9f28" x="53.57" y="37.989811" style="fill: #262626; stroke: #262626; stroke-width: 0.8"/>
      </g>
     </g>
     <g id="text_22">
      <!-- 900k -->
      <g style="fill: #262626" transform="translate(24.887188 41.568718) scale(0.1 -0.1)">
       <defs>
        <path id="ArialMT-39" d="M 350 1059 
L 891 1109 
Q 959 728 1153 556 
Q 1347 384 1650 384 
Q 1909 384 2104 503 
Q 2300 622 2425 820 
Q 2550 1019 2634 1356 
Q 2719 1694 2719 2044 
Q 2719 2081 2716 2156 
Q 2547 1888 2255 1720 
Q 1963 1553 1622 1553 
Q 1053 1553 659 1965 
Q 266 2378 266 3053 
Q 266 3750 677 4175 
Q 1088 4600 1706 4600 
Q 2153 4600 2523 4359 
Q 2894 4119 3086 3673 
Q 3278 3228 3278 2384 
Q 3278 1506 3087 986 
Q 2897 466 2520 194 
Q 2144 -78 1638 -78 
Q 1100 -78 759 220 
Q 419 519 350 1059 
z
M 2653 3081 
Q 2653 3566 2395 3850 
Q 2138 4134 1775 4134 
Q 1400 4134 1122 3828 
Q 844 3522 844 3034 
Q 844 2597 1108 2323 
Q 1372 2050 1759 2050 
Q 2150 2050 2401 2323 
Q 2653 2597 2653 3081 
z
" transform="scale(0.015625)"/>
       </defs>
       <use xlink:href="#ArialMT-39"/>
       <use xlink:href="#ArialMT-30" x="55.615234"/>
       <use xlink:href="#ArialMT-30" x="111.230469"/>
       <use xlink:href="#ArialMT-6b" x="166.845703"/>
      </g>
     </g>
    </g>
    <g id="text_23">
     <!-- Number of cases -->
     <g style="fill: #262626" transform="translate(18.899688 209.530625) rotate(-90) scale(0.1 -0.1)">
      <defs>
       <path id="ArialMT-4e" d="M 488 0 
L 488 4581 
L 1109 4581 
L 3516 984 
L 3516 4581 
L 4097 4581 
L 4097 0 
L 3475 0 
L 1069 3600 
L 1069 0 
L 488 0 
z
" transform="scale(0.015625)"/>
       <path id="ArialMT-6d" d="M 422 0 
L 422 3319 
L 925 3319 
L 925 2853 
Q 1081 3097 1340 3245 
Q 1600 3394 1931 3394 
Q 2300 3394 2536 3241 
Q 2772 3088 2869 2813 
Q 3263 3394 3894 3394 
Q 4388 3394 4653 3120 
Q 4919 2847 4919 2278 
L 4919 0 
L 4359 0 
L 4359 2091 
Q 4359 2428 4304 2576 
Q 4250 2725 4106 2815 
Q 3963 2906 3769 2906 
Q 3419 2906 3187 2673 
Q 2956 2441 2956 1928 
L 2956 0 
L 2394 0 
L 2394 2156 
Q 2394 2531 2256 2718 
Q 2119 2906 1806 2906 
Q 1569 2906 1367 2781 
Q 1166 2656 1075 2415 
Q 984 2175 984 1722 
L 984 0 
L 422 0 
z
" transform="scale(0.015625)"/>
       <path id="ArialMT-62" d="M 941 0 
L 419 0 
L 419 4581 
L 981 4581 
L 981 2947 
Q 1338 3394 1891 3394 
Q 2197 3394 2470 3270 
Q 2744 3147 2920 2923 
Q 3097 2700 3197 2384 
Q 3297 2069 3297 1709 
Q 3297 856 2875 390 
Q 2453 -75 1863 -75 
Q 1275 -75 941 416 
L 941 0 
z
M 934 1684 
Q 934 1088 1097 822 
Q 1363 388 1816 388 
Q 2184 388 2453 708 
Q 2722 1028 2722 1663 
Q 2722 2313 2464 2622 
Q 2206 2931 1841 2931 
Q 1472 2931 1203 2611 
Q 934 2291 934 1684 
z
" transform="scale(0.015625)"/>
       <path id="ArialMT-6f" d="M 213 1659 
Q 213 2581 725 3025 
Q 1153 3394 1769 3394 
Q 2453 3394 2887 2945 
Q 3322 2497 3322 1706 
Q 3322 1066 3130 698 
Q 2938 331 2570 128 
Q 2203 -75 1769 -75 
Q 1072 -75 642 372 
Q 213 819 213 1659 
z
M 791 1659 
Q 791 1022 1069 705 
Q 1347 388 1769 388 
Q 2188 388 2466 706 
Q 2744 1025 2744 1678 
Q 2744 2294 2464 2611 
Q 2184 2928 1769 2928 
Q 1347 2928 1069 2612 
Q 791 2297 791 1659 
z
" transform="scale(0.015625)"/>
       <path id="ArialMT-66" d="M 556 0 
L 556 2881 
L 59 2881 
L 59 3319 
L 556 3319 
L 556 3672 
Q 556 4006 616 4169 
Q 697 4388 901 4523 
Q 1106 4659 1475 4659 
Q 1713 4659 2000 4603 
L 1916 4113 
Q 1741 4144 1584 4144 
Q 1328 4144 1222 4034 
Q 1116 3925 1116 3625 
L 1116 3319 
L 1763 3319 
L 1763 2881 
L 1116 2881 
L 1116 0 
L 556 0 
z
" transform="scale(0.015625)"/>
       <path id="ArialMT-73" d="M 197 991 
L 753 1078 
Q 800 744 1014 566 
Q 1228 388 1613 388 
Q 2000 388 2187 545 
Q 2375 703 2375 916 
Q 2375 1106 2209 1216 
Q 2094 1291 1634 1406 
Q 1016 1563 777 1677 
Q 538 1791 414 1992 
Q 291 2194 291 2438 
Q 291 2659 392 2848 
Q 494 3038 669 3163 
Q 800 3259 1026 3326 
Q 1253 3394 1513 3394 
Q 1903 3394 2198 3281 
Q 2494 3169 2634 2976 
Q 2775 2784 2828 2463 
L 2278 2388 
Q 2241 2644 2061 2787 
Q 1881 2931 1553 2931 
Q 1166 2931 1000 2803 
Q 834 2675 834 2503 
Q 834 2394 903 2306 
Q 972 2216 1119 2156 
Q 1203 2125 1616 2013 
Q 2213 1853 2448 1751 
Q 2684 1650 2818 1456 
Q 2953 1263 2953 975 
Q 2953 694 2789 445 
Q 2625 197 2315 61 
Q 2006 -75 1616 -75 
Q 969 -75 630 194 
Q 291 463 197 991 
z
" transform="scale(0.015625)"/>
      </defs>
      <use xlink:href="#ArialMT-4e"/>
      <use xlink:href="#ArialMT-75" x="72.216797"/>
      <use xlink:href="#ArialMT-6d" x="127.832031"/>
      <use xlink:href="#ArialMT-62" x="211.132812"/>
      <use xlink:href="#ArialMT-65" x="266.748047"/>
      <use xlink:href="#ArialMT-72" x="322.363281"/>
      <use xlink:href="#ArialMT-20" x="355.664062"/>
      <use xlink:href="#ArialMT-6f" x="383.447266"/>
      <use xlink:href="#ArialMT-66" x="439.0625"/>
      <use xlink:href="#ArialMT-20" x="466.845703"/>
      <use xlink:href="#ArialMT-63" x="494.628906"/>
      <use xlink:href="#ArialMT-61" x="544.628906"/>
      <use xlink:href="#ArialMT-73" x="600.244141"/>
      <use xlink:href="#ArialMT-65" x="650.244141"/>
      <use xlink:href="#ArialMT-73" x="705.859375"/>
     </g>
    </g>
   </g>
   <g id="PolyCollection_1"/>
   <g id="PolyCollection_2"/>
   <g id="line2d_31">
    <path d="M 53.57 317.791378 
L 54.168749 317.963142 
L 58.359991 318.02133 
L 63.149982 318.016662 
L 88.896183 317.937626 
L 89.494932 317.664733 
L 90.09368 317.772708 
L 93.087425 317.582274 
L 93.686174 317.488301 
L 94.284922 317.10121 
L 96.081169 316.413531 
L 96.679918 315.799598 
L 97.278667 315.826359 
L 97.877416 315.021059 
L 98.476164 313.655348 
L 99.074913 313.437531 
L 99.673662 312.861561 
L 100.272411 312.923483 
L 100.87116 311.800171 
L 101.469909 313.28537 
L 102.068658 313.378409 
L 102.667406 311.028788 
L 103.266155 311.34929 
L 103.864904 310.69055 
L 104.463653 310.674058 
L 105.062402 310.150053 
L 105.661151 311.680683 
L 106.2599 312.025144 
L 106.858648 308.693481 
L 107.457397 309.849465 
L 108.056146 308.208683 
L 108.654895 309.520251 
L 109.253644 309.144673 
L 109.852393 310.90121 
L 110.451142 311.337777 
L 111.04989 307.872622 
L 111.648639 308.445792 
L 112.247388 308.72522 
L 112.846137 309.696683 
L 113.444886 309.147162 
L 114.043635 311.375117 
L 114.642384 312.048793 
L 115.241132 309.616401 
L 115.839881 309.361245 
L 116.43863 308.779363 
L 117.037379 309.818038 
L 117.636128 309.290921 
L 118.234877 311.689706 
L 118.833626 312.068396 
L 119.432374 307.976552 
L 120.031123 309.361245 
L 120.629872 309.115423 
L 121.228621 309.355332 
L 121.82737 309.109822 
L 122.426119 310.825596 
L 123.024868 311.94673 
L 123.623616 306.967127 
L 124.222365 308.345907 
L 124.821114 308.610088 
L 125.419863 309.292166 
L 126.018612 308.481887 
L 126.617361 312.081777 
L 127.21611 312.740828 
L 127.814858 309.395473 
L 128.413607 309.590263 
L 129.012356 309.577194 
L 129.611105 309.732467 
L 130.209854 310.303147 
L 130.808603 312.355292 
L 131.407352 313.242118 
L 132.0061 309.187925 
L 132.604849 309.523051 
L 133.203598 309.337285 
L 133.802347 310.19455 
L 134.401096 309.96802 
L 134.999845 312.326354 
L 135.598594 313.160281 
L 136.197342 309.148407 
L 136.796091 309.980467 
L 137.39484 309.34133 
L 138.592338 310.454374 
L 139.191087 313.308708 
L 139.789836 313.646635 
L 140.388584 312.484738 
L 140.987333 307.154449 
L 141.586082 309.267272 
L 142.184831 310.737225 
L 142.78358 310.747493 
L 143.382329 313.08529 
L 143.981078 313.894324 
L 144.579826 309.853199 
L 145.777324 310.562349 
L 146.376073 308.161074 
L 146.974822 309.937526 
L 147.573571 312.874941 
L 148.17232 313.669972 
L 148.771068 309.886183 
L 149.369817 309.407609 
L 149.968566 300.29322 
L 150.567315 310.548969 
L 151.166064 307.858309 
L 151.764813 311.506118 
L 152.363562 311.899744 
L 152.962311 306.613952 
L 153.561059 307.075724 
L 154.159808 306.649425 
L 154.758557 306.838615 
L 155.357306 306.330168 
L 155.956055 304.3359 
L 156.554804 303.733169 
L 157.153553 302.387373 
L 157.752301 303.06136 
L 158.35105 302.386128 
L 158.949799 303.705787 
L 159.548548 302.719077 
L 160.147297 306.05323 
L 160.746046 304.762198 
L 161.344795 298.929375 
L 161.943543 301.024151 
L 162.542292 298.100738 
L 163.141041 300.270504 
L 164.338539 306.202901 
L 164.937288 304.234148 
L 165.536037 296.215066 
L 166.134785 298.076156 
L 166.733534 296.533079 
L 167.332283 297.923373 
L 167.931032 297.740095 
L 168.529781 301.260326 
L 169.12853 303.999528 
L 169.727279 293.925812 
L 170.326027 297.179995 
L 170.924776 296.833044 
L 171.523525 299.350695 
L 172.721023 300.50139 
L 173.319772 302.877772 
L 173.918521 296.262053 
L 174.517269 299.330469 
L 175.116018 299.223117 
L 175.714767 300.21605 
L 176.313516 300.597541 
L 176.912265 304.668848 
L 177.511014 306.667784 
L 178.109763 298.797129 
L 178.708511 300.273927 
L 179.30726 300.012858 
L 179.906009 301.037531 
L 180.504758 301.411553 
L 181.103507 305.312652 
L 181.702256 307.664141 
L 182.301005 302.035132 
L 182.899753 298.377676 
L 183.498502 301.604788 
L 184.097251 302.385506 
L 184.696 302.86937 
L 185.294749 302.972055 
L 185.893498 305.00522 
L 186.492247 300.025927 
L 187.090995 301.942093 
L 187.689744 302.940316 
L 188.288493 302.942805 
L 188.887242 298.989119 
L 189.485991 305.609817 
L 190.08474 308.329104 
L 190.683489 301.977566 
L 191.282237 303.973701 
L 191.880986 300.840562 
L 192.479735 300.919598 
L 193.078484 300.528462 
L 193.677233 306.534294 
L 194.275982 309.445571 
L 194.874731 302.072472 
L 195.473479 303.004728 
L 196.670977 303.677782 
L 197.269726 305.328211 
L 197.868475 308.832883 
L 198.467224 310.057014 
L 199.065973 304.12275 
L 199.664721 305.30394 
L 200.26347 305.688542 
L 200.862219 306.261089 
L 201.460968 306.202279 
L 202.059717 308.898851 
L 202.658466 310.301591 
L 203.257215 309.161164 
L 203.855963 305.017355 
L 204.454712 304.149511 
L 205.053461 305.828878 
L 205.65221 306.47735 
L 206.250959 307.619955 
L 206.849708 306.97864 
L 207.448457 302.406665 
L 208.047205 303.283222 
L 208.645954 301.44547 
L 209.843452 304.994018 
L 210.442201 307.84524 
L 211.04095 306.439388 
L 211.639699 302.153997 
L 212.238447 300.957561 
L 212.837196 302.361235 
L 213.435945 303.206364 
L 214.034694 302.918846 
L 214.633443 307.238153 
L 215.232192 308.323814 
L 215.830941 300.208582 
L 216.429689 303.219433 
L 217.028438 299.892125 
L 217.627187 301.021972 
L 218.824685 305.323854 
L 219.423434 307.371021 
L 220.022183 300.143237 
L 220.620932 300.197069 
L 221.21968 301.121235 
L 221.818429 301.203071 
L 222.417178 300.377235 
L 223.015927 303.52531 
L 223.614676 305.080833 
L 224.213425 296.191107 
L 224.812174 297.841847 
L 225.410922 297.766233 
L 226.009671 296.94662 
L 226.60842 294.934615 
L 227.207169 302.55198 
L 227.805918 301.779041 
L 228.404667 293.852999 
L 229.003416 294.451061 
L 229.602164 291.636557 
L 230.200913 292.956838 
L 230.799662 289.672161 
L 231.398411 298.371764 
L 231.99716 299.209425 
L 232.595909 285.540487 
L 233.194658 287.112191 
L 233.793406 282.136321 
L 234.392155 289.536181 
L 234.990904 288.936251 
L 235.589653 292.402028 
L 236.188402 291.96546 
L 236.787151 278.484467 
L 237.3859 277.757892 
L 237.984648 276.751578 
L 238.583397 276.377556 
L 239.182146 276.21077 
L 239.780895 284.462916 
L 240.379644 284.215227 
L 240.978393 265.222846 
L 241.577142 268.174263 
L 242.17589 270.199026 
L 242.774639 270.088251 
L 243.373388 268.737164 
L 243.972137 282.057285 
L 244.570886 281.800261 
L 245.169635 263.205862 
L 245.768384 248.216953 
L 246.367132 264.603001 
L 246.965881 265.671548 
L 247.56463 264.855357 
L 248.163379 277.686635 
L 248.762128 282.909882 
L 249.360877 257.309872 
L 249.959626 253.542263 
L 250.558374 263.526986 
L 251.157123 288.588366 
L 251.755872 267.741741 
L 252.354621 271.258861 
L 252.95337 276.742555 
L 253.552119 246.32008 
L 254.150868 250.067463 
L 254.749616 255.225054 
L 255.348365 255.816582 
L 255.947114 256.697807 
L 256.545863 267.792462 
L 257.144612 275.890891 
L 257.743361 247.487889 
L 258.34211 251.700155 
L 258.940858 253.476918 
L 259.539607 254.606765 
L 260.138356 253.939623 
L 260.737105 270.271839 
L 261.335854 275.880622 
L 261.934603 244.631689 
L 263.1321 256.392552 
L 263.730849 258.195142 
L 264.329598 256.748216 
L 264.928347 273.162268 
L 265.527096 275.789762 
L 266.724594 219.754208 
L 267.323342 256.149531 
L 268.52084 284.169486 
L 269.119589 265.573842 
L 269.718338 272.710454 
L 270.317087 236.566554 
L 270.915836 236.472271 
L 271.514584 237.454314 
L 272.113333 247.622625 
L 272.712082 269.268637 
L 273.310831 251.88281 
L 273.90958 263.604467 
L 274.508329 223.233365 
L 275.107078 215.033495 
L 275.705826 239.804246 
L 276.304575 242.82941 
L 276.903324 243.667694 
L 277.502073 260.996266 
L 278.100822 271.134083 
L 278.699571 243.82141 
L 279.29832 244.786339 
L 279.897068 252.963182 
L 280.495817 256.203363 
L 281.094566 257.898288 
L 281.693315 273.198675 
L 282.292064 280.149832 
L 282.890813 265.178349 
L 283.489562 262.515383 
L 284.088311 264.296191 
L 284.687059 264.000582 
L 285.285808 267.513034 
L 285.884557 283.237852 
L 286.483306 284.850319 
L 287.082055 271.405731 
L 287.680804 247.627292 
L 288.279553 273.307895 
L 288.878301 275.208191 
L 289.47705 273.713967 
L 290.075799 291.001465 
L 290.674548 288.274399 
L 291.273297 281.154901 
L 291.872046 283.942645 
L 292.470795 279.333641 
L 293.668292 287.950163 
L 294.86579 299.289395 
L 295.464539 286.634861 
L 296.063288 288.331031 
L 296.662037 286.607167 
L 297.260785 288.169536 
L 297.859534 292.425987 
L 298.458283 298.436798 
L 299.057032 301.044376 
L 299.655781 290.184964 
L 300.25453 295.868427 
L 300.853279 297.224181 
L 301.452027 299.180798 
L 302.050776 298.209957 
L 302.649525 302.606745 
L 303.248274 303.58941 
L 303.847023 292.16523 
L 304.445772 295.001516 
L 305.044521 296.445952 
L 305.643269 296.987383 
L 306.242018 295.036678 
L 306.840767 302.339764 
L 307.439516 304.941119 
L 308.038265 298.194399 
L 308.637014 294.969465 
L 309.235763 298.98663 
L 309.834511 300.185245 
L 310.43326 297.940176 
L 311.032009 297.515744 
L 311.630758 304.689074 
L 312.229507 298.03197 
L 312.828256 299.661862 
L 313.427005 299.463026 
L 314.025753 301.121235 
L 314.624502 301.505526 
L 315.223251 304.409957 
L 315.822 305.116928 
L 316.420749 298.710936 
L 317.019498 298.396035 
L 317.618247 299.650349 
L 318.815744 300.692447 
L 319.414493 302.790645 
L 320.013242 304.457877 
L 320.611991 294.917501 
L 321.21074 297.047749 
L 321.809489 297.120562 
L 322.408237 295.966133 
L 323.006986 298.505877 
L 323.605735 302.014595 
L 324.204484 303.573852 
L 324.803233 294.68537 
L 325.401982 297.220135 
L 326.000731 294.621581 
L 326.599479 297.985295 
L 327.198228 299.934755 
L 327.796977 303.019664 
L 328.395726 304.413691 
L 328.994475 293.913365 
L 329.593224 295.675192 
L 330.191973 295.95462 
L 330.790721 297.40279 
L 331.38947 298.48534 
L 331.988219 301.640883 
L 332.586968 303.276999 
L 333.185717 293.720753 
L 333.784466 295.659011 
L 334.383215 298.416883 
L 334.981963 300.043041 
L 335.580712 300.105897 
L 336.179461 303.355724 
L 336.77821 305.410048 
L 337.376959 291.90136 
L 337.975708 299.194178 
L 338.574457 300.474941 
L 339.173205 302.080873 
L 339.771954 301.990324 
L 340.370703 305.389511 
L 340.969452 306.562299 
L 341.568201 300.73601 
L 342.16695 301.90413 
L 342.765699 301.615679 
L 343.364447 300.921154 
L 344.561945 307.169074 
L 345.160694 308.373601 
L 345.759443 304.189651 
L 346.358192 305.545094 
L 346.956941 305.412848 
L 347.555689 300.78922 
L 348.154438 302.347543 
L 348.753187 306.827724 
L 349.950685 301.28802 
L 350.549434 307.652627 
L 351.148183 305.143689 
L 351.746932 301.108166 
L 352.34568 308.100708 
L 352.944429 310.89343 
L 353.543178 311.866449 
L 354.740676 306.775137 
L 355.339425 309.872803 
L 355.938174 310.998916 
L 356.536922 311.665747 
L 357.135671 312.916637 
L 357.73442 313.708868 
L 358.333169 309.34662 
L 358.931918 312.055016 
L 359.530667 312.048482 
L 360.129416 310.848933 
L 360.728164 313.095247 
L 361.326913 314.615297 
L 361.925662 315.044708 
L 362.524411 314.666018 
L 363.12316 312.306128 
L 363.721909 310.53341 
L 364.320658 313.327066 
L 364.919406 313.537104 
L 366.116904 315.185044 
L 366.715653 313.666861 
L 367.314402 313.635433 
L 367.913151 312.782836 
L 368.5119 313.723804 
L 369.110648 313.737496 
L 369.709397 314.957581 
L 370.308146 315.335338 
L 370.906895 311.156055 
L 371.505644 313.105205 
L 372.104393 313.134143 
L 372.703142 313.693621 
L 373.30189 312.728381 
L 373.900639 314.260878 
L 374.499388 314.908728 
L 375.098137 310.281365 
L 375.696886 312.378008 
L 376.894384 313.145656 
L 377.493132 309.88276 
L 378.091881 314.156015 
L 378.69063 314.525681 
L 379.289379 310.172768 
L 379.888128 311.801415 
L 380.486877 312.069019 
L 381.085626 308.31199 
L 381.684374 307.926454 
L 382.283123 309.187925 
L 382.881872 312.224602 
L 383.480621 308.059011 
L 384.07937 308.910986 
L 385.276868 308.31479 
L 385.875616 306.636045 
L 386.474365 309.751137 
L 387.073114 310.196417 
L 387.671863 304.825054 
L 388.270612 293.318414 
L 388.869361 294.685992 
L 389.46811 303.30936 
L 390.066858 302.339453 
L 390.665607 305.665516 
L 391.264356 305.976371 
L 391.863105 295.412878 
L 392.461854 295.4079 
L 393.060603 295.910745 
L 393.659352 296.753385 
L 394.2581 295.870916 
L 394.856849 298.371764 
L 395.455598 300.165952 
L 396.054347 290.358906 
L 396.653096 287.062715 
L 397.251845 287.732657 
L 397.850594 286.82125 
L 398.449342 286.134193 
L 399.048091 286.591297 
L 399.64684 291.029159 
L 400.245589 276.816301 
L 400.844338 275.790384 
L 401.443087 278.160542 
L 402.041836 278.588396 
L 402.640584 262.30939 
L 403.239333 289.680873 
L 403.838082 288.069651 
L 404.436831 271.605812 
L 405.03558 270.596075 
L 405.634329 272.82123 
L 406.233078 272.774866 
L 406.831826 271.713164 
L 407.430575 284.442068 
L 408.029324 288.126906 
L 408.628073 261.098329 
L 409.825571 268.739342 
L 410.42432 268.414795 
L 411.023068 269.233787 
L 411.621817 282.828045 
L 412.220566 287.446384 
L 412.819315 259.159759 
L 413.418064 257.574364 
L 414.615562 266.605982 
L 415.214311 268.506901 
L 415.813059 281.438685 
L 416.411808 290.864241 
L 417.010557 268.406394 
L 417.609306 266.361405 
L 418.208055 259.771513 
L 418.806804 270.247568 
L 419.405553 271.827674 
L 420.004301 284.979764 
L 420.60305 288.474479 
L 421.201799 285.555112 
L 421.800548 264.233646 
L 422.399297 267.85345 
L 422.998046 266.984984 
L 423.596795 274.400401 
L 424.195543 289.095568 
L 424.794292 284.438334 
L 425.393041 268.216893 
L 425.99179 267.712492 
L 426.590539 277.556567 
L 427.189288 281.129385 
L 427.788037 280.459754 
L 428.386785 292.673676 
L 428.985534 294.532898 
L 429.584283 272.554871 
L 430.183032 282.572888 
L 430.781781 284.449847 
L 431.38053 281.473536 
L 431.979279 283.104361 
L 432.578027 294.530409 
L 433.176776 297.865807 
L 433.775525 274.503709 
L 434.374274 284.912241 
L 434.973023 286.829962 
L 435.571772 286.685581 
L 436.170521 289.155001 
L 436.769269 296.368472 
L 437.368018 300.423598 
L 437.966767 286.332406 
L 438.565516 288.513064 
L 439.164265 276.737265 
L 439.763014 292.323614 
L 440.361763 292.111709 
L 440.960511 298.864341 
L 441.55926 301.306379 
L 442.158009 291.969506 
L 442.756758 292.400472 
L 443.355507 293.406474 
L 443.954256 295.022675 
L 444.553005 296.146921 
L 445.151753 301.814514 
L 445.750502 303.404577 
L 446.349251 293.512893 
L 446.948 295.015829 
L 447.546749 295.339443 
L 448.145498 286.734745 
L 448.744247 296.884698 
L 449.342995 302.492547 
L 449.941744 303.56794 
L 450.540493 294.079528 
L 451.139242 293.789832 
L 451.737991 294.879538 
L 452.33674 296.668125 
L 452.935489 296.904923 
L 453.534237 301.709962 
L 454.132986 302.963654 
L 454.731735 292.445902 
L 455.330484 293.885982 
L 455.929233 293.506048 
L 456.527982 295.085842 
L 457.126731 294.71991 
L 457.725479 300.451603 
L 458.324228 300.950404 
L 458.922977 289.606193 
L 459.521726 285.128502 
L 460.120475 288.35997 
L 460.719224 295.033877 
L 461.317973 292.042941 
L 461.916721 298.528903 
L 462.51547 299.910795 
L 463.114219 288.120371 
L 463.712968 285.481054 
L 464.311717 289.280401 
L 464.910466 291.135578 
L 465.509215 291.848462 
L 466.107963 298.263167 
L 466.706712 299.834871 
L 467.305461 283.515102 
L 467.90421 289.010309 
L 468.502959 289.528713 
L 469.101708 302.106078 
L 469.700457 293.025606 
L 470.299205 294.595443 
L 470.897954 293.483332 
L 471.496703 277.591418 
L 472.095452 269.046464 
L 472.694201 280.387874 
L 473.29295 283.545285 
L 473.891699 282.646324 
L 474.490447 292.897405 
L 475.089196 294.383538 
L 475.687945 276.357641 
L 476.286694 281.05346 
L 477.484192 284.625034 
L 478.082941 283.633345 
L 478.681689 290.999287 
L 479.280438 289.682429 
L 479.879187 271.612969 
L 480.477936 264.809616 
L 481.076685 271.499081 
L 481.675434 270.783709 
L 482.274183 266.340557 
L 482.872932 273.423649 
L 483.47168 272.250238 
L 484.070429 235.417415 
L 484.669178 224.600321 
L 485.267927 224.664733 
L 485.866676 221.319378 
L 486.465425 244.051985 
L 487.064174 261.649405 
L 487.662922 226.258529 
L 488.261671 143.655548 
L 488.86042 136.602951 
L 489.459169 130.881525 
L 490.057918 135.454745 
L 491.255416 208.276196 
L 491.854164 171.997249 
L 492.452913 39.372637 
L 493.051662 41.537114 
L 493.650411 69.813781 
L 494.24916 82.149681 
L 494.847909 107.244356 
L 495.446658 170.944572 
L 496.045406 175.235252 
L 496.644155 63.347734 
L 497.242904 73.125219 
L 497.841653 50.716537 
L 498.440402 101.915934 
L 499.039151 114.380657 
L 499.6379 190.394057 
L 500.236648 207.574825 
L 500.835397 146.064602 
L 501.434146 101.584542 
L 502.032895 116.837942 
L 502.631644 84.16542 
L 503.230393 159.64019 
L 503.829142 218.227312 
L 504.42789 236.743608 
L 505.026639 162.190825 
L 505.625388 163.301069 
L 506.224137 182.015578 
L 506.822886 205.519879 
L 507.421635 218.990293 
L 508.020384 258.153445 
L 508.619132 264.855046 
L 509.217881 227.533069 
L 509.81663 218.153877 
L 510.415379 246.27216 
L 511.014128 250.399167 
L 511.612877 257.401044 
L 512.211626 282.482339 
L 512.810374 289.681184 
L 513.409123 260.254755 
L 514.007872 267.910394 
L 514.606621 277.538831 
L 515.20537 279.326795 
L 515.804119 277.215839 
L 516.402868 297.198665 
L 517.001616 302.743348 
L 517.600365 288.430916 
L 518.199114 285.203493 
L 518.797863 285.768261 
L 519.396612 288.054404 
L 519.995361 282.799418 
L 520.59411 298.249787 
L 521.192858 306.450901 
L 521.791607 300.667242 
L 522.390356 297.621541 
L 522.989105 271.595854 
L 523.587854 294.35211 
L 524.186603 302.434359 
L 524.785352 308.686946 
L 525.3841 311.379784 
L 526.581598 298.753255 
L 527.180347 301.790866 
L 527.779096 306.391779 
L 528.377845 307.616843 
L 528.976594 312.257586 
L 529.575342 312.680773 
L 530.174091 305.898891 
L 531.371589 308.557812 
L 531.970338 306.008733 
L 532.569087 306.39209 
L 533.167836 311.53879 
L 533.766584 313.850449 
L 534.365333 308.38667 
L 534.964082 301.684758 
L 535.562831 297.894123 
L 536.16158 289.34668 
L 536.760329 310.031498 
L 537.359078 313.08 
L 537.957826 312.807418 
L 538.556575 307.261179 
L 539.155324 305.155824 
L 539.754073 308.249757 
L 540.352822 309.780698 
L 540.951571 309.604577 
L 542.149068 313.232472 
L 542.747817 307.418941 
L 543.346566 307.301942 
L 543.945315 304.921204 
L 544.544064 308.7999 
L 545.142813 308.492156 
L 546.340311 311.973802 
L 546.939059 305.052828 
L 548.136557 305.775669 
L 548.735306 307.147292 
L 549.334055 307.042118 
L 549.932804 310.323373 
L 550.531553 310.203262 
L 551.130301 303.921425 
L 552.327799 304.332788 
L 552.926548 304.966635 
L 553.525297 306.43721 
L 554.124046 308.780918 
L 554.722795 309.647518 
L 555.321543 294.457907 
L 555.920292 301.570871 
L 556.519041 302.423779 
L 557.11779 303.002238 
L 557.716539 299.868166 
L 558.914037 306.240863 
L 559.512785 294.008582 
L 560.111534 297.424883 
L 560.710283 294.350243 
L 561.309032 292.575659 
L 561.907781 298.673596 
L 562.50653 302.417245 
L 563.105279 302.516818 
L 563.704027 291.362419 
L 564.302776 291.612286 
L 564.901525 284.515814 
L 565.500274 284.322268 
L 566.099023 286.348898 
L 566.697772 300.359187 
L 567.296521 295.043212 
L 567.895269 271.401064 
L 568.494018 277.094484 
L 569.092767 287.724256 
L 569.691516 288.640642 
L 570.290265 290.163493 
L 570.889014 290.223237 
L 571.487763 296.029922 
L 572.086511 276.112442 
L 572.68526 277.8668 
L 573.284009 274.62942 
L 573.882758 282.686153 
L 574.481507 277.986911 
L 575.080256 296.887187 
L 575.679005 298.219915 
L 576.277753 266.754098 
L 576.876502 280.166635 
L 577.475251 283.139834 
L 578.074 274.639378 
L 578.672749 283.972206 
L 579.271498 296.472713 
L 579.870247 299.182665 
L 580.468995 297.081355 
L 581.067744 251.655036 
L 581.666493 274.694143 
L 582.265242 283.423307 
L 582.863991 281.801506 
L 583.46274 296.495117 
L 584.061489 297.923373 
L 584.660237 282.441265 
L 585.258986 279.026831 
L 585.857735 287.286133 
L 586.456484 290.153225 
L 587.055233 290.034048 
L 587.653982 298.319488 
L 588.252731 296.814374 
L 588.851479 284.633435 
L 589.450228 287.806404 
L 590.048977 287.560893 
L 590.647726 289.713235 
L 591.246475 290.427363 
L 591.845224 297.763433 
L 592.443973 298.028547 
L 593.042721 281.823598 
L 593.64147 281.131252 
L 594.240219 284.759147 
L 594.838968 284.907885 
L 595.437717 287.065827 
L 596.036466 294.283342 
L 596.635215 295.945907 
L 597.233963 273.614083 
L 598.431461 282.80004 
L 599.03021 283.864853 
L 599.628959 285.656552 
L 600.227708 292.715373 
L 600.826457 296.532768 
L 601.425205 297.761877 
L 602.023954 270.49868 
L 602.622703 271.749882 
L 603.221452 279.23998 
L 603.820201 280.02412 
L 604.41895 290.753465 
L 605.017699 293.245601 
L 605.616447 270.884527 
L 606.215196 277.940547 
L 606.813945 279.334886 
L 607.412694 280.116848 
L 608.011443 281.227403 
L 608.610192 291.769114 
L 609.208941 292.58655 
L 609.807689 271.518063 
L 610.406438 277.57057 
L 611.005187 278.262916 
L 611.603936 281.409124 
L 612.202685 283.536572 
L 613.400183 295.518675 
L 613.998932 269.189912 
L 614.59768 278.26945 
L 615.795178 283.365741 
L 616.393927 287.378238 
L 616.992676 295.001827 
L 617.591425 297.18404 
L 618.190174 273.280512 
L 618.788922 282.423839 
L 619.98642 285.016171 
L 620.585169 285.626058 
L 621.183918 295.992893 
L 621.782667 295.574685 
L 622.381416 278.130981 
L 622.980164 284.859342 
L 623.578913 280.170369 
L 624.177662 283.393435 
L 624.776411 292.79472 
L 625.37516 299.796597 
L 625.973909 300.555844 
L 626.572658 281.285591 
L 627.171406 288.699142 
L 627.770155 290.961636 
L 628.967653 292.863799 
L 629.566402 298.277792 
L 630.165151 301.498058 
L 630.7639 281.738961 
L 631.362648 288.642198 
L 631.961397 290.886023 
L 632.560146 293.566103 
L 633.158895 295.431548 
L 633.757644 300.664442 
L 634.356393 304.536913 
L 634.955142 284.817646 
L 635.55389 290.299784 
L 636.152639 290.278002 
L 636.751388 290.495197 
L 637.350137 298.498098 
L 637.948886 304.971925 
L 638.547635 305.777847 
L 639.146384 306.012156 
L 639.745132 289.383709 
L 640.343881 296.497917 
L 640.94263 299.30931 
L 641.541379 301.233566 
L 642.140128 306.541139 
L 642.738877 307.590705 
L 643.337626 292.58655 
L 643.936374 299.33856 
L 644.535123 301.343408 
L 645.133872 302.614524 
L 645.732621 290.1386 
L 646.33137 307.574213 
L 646.930119 308.4934 
L 647.528868 293.558013 
L 648.127616 282.267945 
L 648.726365 302.731523 
L 649.325114 304.382886 
L 649.923863 304.242861 
L 650.522612 309.408231 
L 651.121361 309.696683 
L 651.72011 297.483694 
L 652.318858 303.8399 
L 652.917607 304.865506 
L 653.516356 305.271578 
L 654.115105 305.164848 
L 654.713854 309.731222 
L 655.312603 310.28541 
L 655.911352 301.219875 
L 656.5101 304.537847 
L 657.108849 297.616873 
L 657.707598 306.333591 
L 658.306347 306.270113 
L 658.905096 310.451885 
L 659.503845 310.494514 
L 660.102594 306.162138 
L 660.701342 302.899864 
L 661.300091 305.602971 
L 661.89884 306.374354 
L 662.497589 306.627332 
L 663.096338 310.151609 
L 663.695087 310.81595 
L 664.293836 302.612969 
L 664.892584 306.007488 
L 665.491333 306.681787 
L 666.090082 306.959659 
L 666.688831 306.616753 
L 667.28758 309.778831 
L 667.886329 310.486424 
L 668.485078 300.375368 
L 669.083826 304.422404 
L 669.682575 305.881777 
L 670.281324 306.508778 
L 670.880073 307.39996 
L 671.478822 310.220065 
L 672.077571 310.701129 
L 672.67632 301.941782 
L 673.275068 300.546198 
L 673.873817 296.157501 
L 674.472566 296.581932 
L 675.071315 298.110384 
L 675.670064 300.85861 
L 676.268813 309.35191 
L 676.867562 293.661009 
L 677.466311 304.629019 
L 678.065059 305.86404 
L 678.663808 290.446344 
L 679.262557 307.811322 
L 679.861306 309.385827 
L 680.460055 309.70135 
L 681.058804 286.401486 
L 681.657553 303.855458 
L 682.85505 304.836878 
L 683.453799 305.63191 
L 684.052548 308.673566 
L 684.651297 308.761937 
L 685.250046 299.368432 
L 685.848795 302.260417 
L 686.447543 302.509039 
L 687.046292 310.142896 
L 687.645041 304.686896 
L 688.24379 305.55194 
L 688.842539 304.568652 
L 689.441288 263.045611 
L 690.040037 294.645852 
L 690.638785 297.001074 
L 691.237534 298.646213 
L 691.836283 299.706359 
L 692.435032 305.235172 
L 693.033781 306.020557 
L 693.63253 291.981952 
L 694.231279 296.24525 
L 694.830027 297.347714 
L 695.428776 299.002188 
L 696.027525 297.872964 
L 696.626274 304.979082 
L 697.225023 306.232151 
L 697.823772 290.586991 
L 698.422521 296.476135 
L 699.021269 297.723915 
L 699.620018 299.494143 
L 700.218767 299.82927 
L 700.817516 304.247528 
L 701.416265 305.833857 
L 702.015014 291.792452 
L 702.613763 296.138208 
L 703.212511 296.160301 
L 703.81126 298.150836 
L 705.008758 306.461792 
L 705.607507 309.99478 
L 706.206256 301.672622 
L 706.805005 290.495508 
L 707.403753 294.236045 
L 708.601251 298.546951 
L 709.2 305.144 
L 709.2 305.144 
" clip-path="url(#pb7a3c90756)" style="fill: none; stroke: #1f77b4; stroke-width: 1.5; stroke-linecap: round"/>
   </g>
   <g id="line2d_32">
    <path d="M 62.551233 317.998158 
L 72.729963 318.011217 
L 85.303689 317.899716 
L 88.297434 317.661621 
L 90.09368 317.344739 
L 93.686174 316.334588 
L 99.074913 314.162518 
L 100.87116 313.283348 
L 102.667406 312.524111 
L 104.463653 311.704642 
L 105.661151 311.28352 
L 106.858648 310.951494 
L 108.654895 310.479651 
L 109.852393 310.319504 
L 110.451142 310.328445 
L 111.648639 310.017579 
L 114.043635 309.839695 
L 114.642384 309.899584 
L 115.839881 309.619824 
L 118.234877 309.692959 
L 118.833626 309.812831 
L 120.629872 309.761208 
L 122.426119 309.945315 
L 123.024868 310.081814 
L 124.821114 309.915412 
L 126.617361 310.066421 
L 127.21611 310.1954 
L 128.413607 310.041092 
L 130.808603 310.278658 
L 132.0061 310.48519 
L 132.604849 310.325447 
L 134.999845 310.679513 
L 135.598594 310.859928 
L 137.39484 310.738137 
L 138.592338 310.702509 
L 139.789836 310.919485 
L 140.987333 310.709365 
L 141.586082 310.412875 
L 143.981078 310.505882 
L 145.777324 310.029351 
L 147.573571 309.641077 
L 148.17232 309.417037 
L 149.968566 308.36353 
L 151.166064 308.030301 
L 152.363562 307.674658 
L 154.159808 306.38204 
L 155.357306 305.805717 
L 155.956055 305.740445 
L 156.554804 305.550332 
L 158.35105 304.030106 
L 158.949799 303.647298 
L 159.548548 303.562194 
L 160.147297 303.252572 
L 160.746046 303.123946 
L 161.943543 302.047278 
L 163.141041 301.463746 
L 165.536037 300.646736 
L 167.332283 300.299661 
L 168.529781 300.272143 
L 169.12853 300.403767 
L 170.326027 300.012288 
L 172.122274 300.15921 
L 173.319772 300.477721 
L 174.517269 300.143579 
L 177.511014 301.088552 
L 178.708511 300.978824 
L 179.906009 301.471401 
L 180.504758 301.54327 
L 182.301005 302.078664 
L 182.899753 302.115195 
L 184.097251 302.320783 
L 184.696 302.364294 
L 185.893498 302.869837 
L 187.090995 302.661189 
L 189.485991 303.363202 
L 190.08474 303.651384 
L 191.282237 303.533048 
L 191.880986 303.654828 
L 193.078484 304.070858 
L 194.874731 304.742014 
L 195.473479 304.742418 
L 197.868475 305.283237 
L 198.467224 305.549554 
L 200.862219 305.232859 
L 202.059717 305.602162 
L 202.658466 305.799193 
L 203.257215 305.653183 
L 203.855963 305.370249 
L 206.250959 305.491138 
L 206.849708 305.590991 
L 208.047205 305.075595 
L 209.843452 304.701666 
L 211.04095 304.709383 
L 212.837196 303.812714 
L 214.633443 303.483043 
L 215.232192 303.436492 
L 216.429689 302.750971 
L 217.627187 302.38507 
L 218.225936 302.168041 
L 219.423434 302.037476 
L 220.620932 301.171457 
L 222.417178 300.131216 
L 223.614676 299.846415 
L 225.410922 297.813697 
L 226.60842 296.992392 
L 227.805918 296.337801 
L 230.799662 292.051996 
L 231.99716 290.955257 
L 233.194658 288.448289 
L 234.990904 285.689131 
L 236.188402 284.755008 
L 236.787151 283.443471 
L 237.3859 281.658068 
L 239.182146 278.831044 
L 239.780895 278.322038 
L 240.379644 278.096628 
L 241.577142 275.20566 
L 242.17589 274.471876 
L 242.774639 274.521082 
L 244.570886 273.025562 
L 245.768384 270.092898 
L 247.56463 267.917748 
L 248.163379 267.631578 
L 248.762128 267.620915 
L 249.959626 265.304579 
L 251.157123 264.460798 
L 251.755872 263.918818 
L 252.354621 263.924937 
L 252.95337 264.163053 
L 254.150868 261.858271 
L 254.749616 261.63116 
L 255.348365 261.963767 
L 255.947114 261.701941 
L 257.144612 262.316111 
L 257.743361 261.382175 
L 258.34211 259.276986 
L 258.940858 259.238308 
L 259.539607 259.762271 
L 260.138356 260.450355 
L 260.737105 259.683204 
L 261.335854 259.848828 
L 262.533352 257.350075 
L 263.1321 257.054549 
L 263.730849 256.973055 
L 264.329598 257.441174 
L 264.928347 257.310048 
L 265.527096 257.54027 
L 266.125845 256.054967 
L 266.724594 254.026387 
L 268.52084 253.1476 
L 269.119589 253.360583 
L 269.718338 253.933732 
L 270.915836 252.015575 
L 272.113333 252.497324 
L 272.712082 252.547515 
L 273.310831 253.047633 
L 273.90958 253.827686 
L 274.508329 253.561556 
L 275.107078 253.119076 
L 275.705826 253.606665 
L 276.304575 255.081544 
L 277.502073 255.926217 
L 278.100822 255.948911 
L 278.699571 256.143307 
L 279.29832 255.307202 
L 281.094566 259.031766 
L 281.693315 260.477727 
L 282.292064 261.111252 
L 282.890813 262.086989 
L 283.489562 262.764928 
L 284.088311 264.634937 
L 284.687059 266.909837 
L 285.884557 270.213869 
L 286.483306 272.067926 
L 287.082055 272.922545 
L 287.680804 273.495777 
L 290.674548 280.529487 
L 291.872046 281.619649 
L 293.668292 285.040483 
L 294.86579 287.529901 
L 296.063288 288.165854 
L 296.662037 289.000528 
L 297.260785 290.645864 
L 297.859534 291.370157 
L 299.057032 293.315448 
L 300.25453 293.778381 
L 302.649525 296.008918 
L 303.248274 296.566882 
L 303.847023 296.707799 
L 304.445772 296.720215 
L 306.242018 298.070772 
L 307.439516 299.035151 
L 308.637014 298.956011 
L 309.235763 299.271524 
L 311.630758 299.859194 
L 312.828256 299.38483 
L 313.427005 299.550008 
L 314.624502 299.650826 
L 315.223251 299.8184 
L 315.822 300.102972 
L 317.019498 299.59046 
L 317.618247 299.471366 
L 320.013242 299.913762 
L 320.611991 299.793683 
L 321.21074 299.49322 
L 323.006986 299.316083 
L 324.204484 299.392454 
L 325.401982 298.720883 
L 327.198228 298.781166 
L 328.395726 299.044528 
L 328.994475 298.681551 
L 329.593224 298.506095 
L 331.988219 299.335552 
L 332.586968 299.604099 
L 333.784466 299.505822 
L 337.376959 300.809155 
L 337.975708 300.846868 
L 338.574457 301.230184 
L 339.771954 301.61375 
L 340.370703 301.927914 
L 340.969452 302.111036 
L 341.568201 302.099274 
L 342.16695 302.245128 
L 342.765699 302.625892 
L 343.364447 302.807531 
L 345.759443 304.077984 
L 346.358192 304.123487 
L 346.956941 304.722535 
L 349.351936 306.240863 
L 350.549434 306.555857 
L 353.543178 308.42846 
L 354.740676 308.809442 
L 356.536922 309.551108 
L 357.73442 310.431565 
L 358.931918 310.981418 
L 359.530667 311.364578 
L 360.728164 311.853411 
L 361.326913 312.315058 
L 361.925662 312.556213 
L 363.12316 312.606259 
L 366.116904 313.280879 
L 367.314402 313.148675 
L 368.5119 313.297153 
L 369.110648 313.224962 
L 370.308146 313.382879 
L 372.104393 313.040119 
L 373.900639 312.682111 
L 374.499388 312.638361 
L 377.493132 311.668495 
L 378.69063 311.418037 
L 379.289379 311.080286 
L 379.888128 310.346389 
L 380.486877 309.797387 
L 382.283123 308.843432 
L 382.881872 308.618365 
L 384.678119 306.86105 
L 386.474365 305.286452 
L 387.073114 304.962559 
L 389.46811 301.673214 
L 390.665607 300.084696 
L 391.264356 299.521453 
L 393.659352 295.220556 
L 394.2581 293.676909 
L 395.455598 292.436899 
L 397.251845 288.778583 
L 399.048091 286.699127 
L 399.64684 286.225375 
L 400.844338 283.367608 
L 402.640584 280.689489 
L 403.239333 280.225311 
L 403.838082 279.944493 
L 405.634329 276.275877 
L 406.831826 274.953127 
L 407.430575 274.773708 
L 408.029324 274.931377 
L 408.628073 274.325213 
L 409.226822 273.502955 
L 409.825571 272.934795 
L 411.023068 272.538939 
L 411.621817 272.751985 
L 412.220566 273.624154 
L 412.819315 273.486629 
L 413.418064 272.692095 
L 414.615562 272.446647 
L 415.214311 272.499286 
L 416.411808 273.467482 
L 417.609306 272.246162 
L 418.806804 273.338731 
L 419.405553 273.729412 
L 420.60305 275.381345 
L 421.201799 275.038905 
L 421.800548 274.876456 
L 424.794292 279.125553 
L 425.99179 278.695988 
L 427.189288 279.987579 
L 428.985534 282.790923 
L 430.183032 282.837297 
L 430.781781 282.543369 
L 433.176776 286.247821 
L 433.775525 286.343619 
L 434.374274 286.609023 
L 436.170521 288.978694 
L 437.368018 290.433026 
L 438.565516 290.477097 
L 439.164265 291.236583 
L 439.763014 291.375312 
L 440.361763 291.789807 
L 441.55926 293.17256 
L 442.158009 293.15753 
L 442.756758 293.021665 
L 443.355507 293.700859 
L 445.750502 295.389655 
L 446.948 295.040982 
L 448.145498 295.499196 
L 448.744247 296.098617 
L 449.941744 296.664174 
L 450.540493 296.355569 
L 451.139242 295.816306 
L 451.737991 295.695988 
L 452.33674 295.783768 
L 452.935489 295.738317 
L 454.132986 295.980654 
L 454.731735 295.524183 
L 455.330484 294.926732 
L 457.126731 294.539941 
L 457.725479 294.924222 
L 458.324228 295.022561 
L 459.521726 293.904725 
L 460.120475 293.753031 
L 460.719224 294.030239 
L 462.51547 293.785299 
L 463.114219 292.981348 
L 463.712968 291.850775 
L 465.509215 290.74216 
L 466.706712 290.657999 
L 467.90421 289.191636 
L 468.502959 288.961341 
L 469.101708 288.944559 
L 470.897954 288.573835 
L 471.496703 287.676637 
L 472.095452 286.506598 
L 473.891699 284.697982 
L 475.089196 283.45431 
L 475.687945 281.359452 
L 476.286694 278.851633 
L 478.082941 273.117699 
L 478.681689 271.769143 
L 479.280438 269.543574 
L 481.675434 249.939511 
L 482.274183 246.328388 
L 482.872932 243.819419 
L 483.47168 240.131116 
L 484.669178 223.252076 
L 485.866676 209.737155 
L 486.465425 203.888722 
L 487.662922 196.486103 
L 489.459169 174.31593 
L 490.656667 163.64886 
L 491.255416 160.969205 
L 491.854164 159.010347 
L 492.452913 154.765046 
L 493.051662 149.076189 
L 494.24916 140.442377 
L 494.847909 138.274892 
L 495.446658 138.171823 
L 496.045406 137.92821 
L 496.644155 134.612924 
L 497.242904 132.514342 
L 497.841653 133.79301 
L 498.440402 136.090241 
L 499.039151 139.0272 
L 499.6379 143.117157 
L 500.236648 146.210518 
L 500.835397 146.852414 
L 501.434146 148.390969 
L 503.829142 175.180352 
L 504.42789 181.261579 
L 505.625388 187.327757 
L 508.020384 215.400247 
L 508.619132 221.679003 
L 509.217881 224.946899 
L 509.81663 227.534521 
L 510.415379 232.19131 
L 512.810374 255.968857 
L 513.409123 258.716854 
L 514.007872 260.746119 
L 514.606621 264.392953 
L 515.804119 272.775281 
L 517.001616 279.293832 
L 517.600365 280.852301 
L 518.199114 281.982242 
L 520.59411 291.505535 
L 521.192858 293.348193 
L 521.791607 294.128744 
L 522.390356 294.717254 
L 522.989105 296.327356 
L 523.587854 297.597301 
L 524.785352 299.632809 
L 525.3841 300.853963 
L 525.982849 301.226896 
L 526.581598 301.19161 
L 527.180347 301.50705 
L 527.779096 301.645157 
L 528.976594 303.288118 
L 529.575342 304.288384 
L 530.174091 304.588764 
L 530.77284 304.545595 
L 531.371589 304.798345 
L 531.970338 305.203651 
L 532.569087 306.470608 
L 533.167836 307.036807 
L 533.766584 307.396744 
L 535.562831 307.219006 
L 536.760329 307.77727 
L 537.957826 308.051014 
L 539.155324 307.57022 
L 541.55032 307.653104 
L 542.149068 307.780144 
L 543.945315 307.067934 
L 544.544064 307.17733 
L 545.142813 307.4621 
L 545.741562 308.109908 
L 546.340311 308.097108 
L 546.939059 307.476372 
L 547.537808 307.10182 
L 550.531553 306.245375 
L 551.72905 305.140805 
L 552.926548 304.214306 
L 554.722795 303.594119 
L 556.519041 301.601344 
L 557.716539 300.249138 
L 558.315288 300.022867 
L 558.914037 299.622904 
L 560.111534 297.221868 
L 562.50653 295.201046 
L 563.105279 294.854137 
L 564.302776 292.70583 
L 566.099023 290.600828 
L 566.697772 290.396993 
L 567.296521 290.342051 
L 567.895269 289.139733 
L 568.494018 288.270592 
L 569.092767 287.908301 
L 569.691516 287.148784 
L 570.290265 286.802849 
L 571.487763 286.94972 
L 572.086511 286.771857 
L 572.68526 285.076464 
L 573.284009 284.520855 
L 573.882758 284.247889 
L 574.481507 284.157412 
L 575.679005 284.94899 
L 576.876502 283.817846 
L 578.074 284.78264 
L 578.672749 284.859633 
L 579.870247 285.403957 
L 581.067744 284.943513 
L 582.265242 285.720009 
L 584.061489 287.417238 
L 585.258986 286.345496 
L 585.857735 286.945665 
L 587.055233 287.234573 
L 587.653982 287.889371 
L 588.252731 288.288495 
L 589.450228 286.815089 
L 590.048977 286.339045 
L 590.647726 287.412705 
L 592.443973 288.578896 
L 593.042721 288.621122 
L 593.64147 287.706965 
L 594.240219 287.350586 
L 594.838968 287.357691 
L 595.437717 287.115624 
L 596.635215 287.242684 
L 597.233963 286.328185 
L 597.832712 285.699057 
L 599.628959 285.055004 
L 600.826457 285.195506 
L 602.023954 283.638728 
L 602.622703 283.520039 
L 603.820201 283.488549 
L 605.017699 283.944066 
L 605.616447 283.107618 
L 606.215196 282.518403 
L 607.412694 282.940242 
L 608.011443 283.092848 
L 609.208941 283.84833 
L 609.807689 283.200501 
L 611.005187 282.264491 
L 613.400183 284.287729 
L 613.998932 283.866979 
L 614.59768 283.587437 
L 615.196429 283.896966 
L 615.795178 284.078729 
L 616.393927 284.52739 
L 617.591425 285.827663 
L 618.190174 285.478212 
L 618.788922 285.348632 
L 619.387671 285.996751 
L 621.183918 287.526831 
L 621.782667 288.125547 
L 622.980164 287.616945 
L 623.578913 288.340149 
L 625.973909 290.488248 
L 627.171406 289.9193 
L 627.770155 290.485883 
L 628.368904 290.754928 
L 628.967653 291.245182 
L 630.165151 292.5821 
L 630.7639 292.916075 
L 631.362648 292.709709 
L 634.356393 295.770502 
L 634.955142 295.530167 
L 635.55389 295.489591 
L 636.152639 296.158185 
L 636.751388 296.622031 
L 637.350137 296.594597 
L 638.547635 297.63461 
L 639.146384 297.477284 
L 639.745132 296.83628 
L 640.343881 297.536032 
L 642.738877 299.509525 
L 643.936374 299.380266 
L 644.535123 300.048528 
L 646.930119 302.077928 
L 648.726365 301.631683 
L 649.325114 302.196679 
L 651.121361 303.202536 
L 651.72011 303.189903 
L 652.318858 303.033542 
L 652.917607 303.467422 
L 654.713854 304.129316 
L 655.312603 304.818561 
L 656.5101 304.570322 
L 657.108849 305.007781 
L 657.707598 305.830839 
L 658.905096 306.140211 
L 659.503845 306.34833 
L 660.102594 306.047234 
L 660.701342 305.871425 
L 661.300091 306.151361 
L 663.096338 306.489755 
L 663.695087 306.674298 
L 666.090082 305.656067 
L 666.688831 305.672517 
L 667.28758 305.490018 
L 667.886329 305.592744 
L 668.485078 305.033048 
L 669.083826 304.837532 
L 669.682575 304.827595 
L 670.281324 304.412478 
L 672.077571 304.688939 
L 672.67632 303.897268 
L 673.275068 303.665252 
L 674.472566 303.683071 
L 675.670064 303.705206 
L 676.268813 303.776712 
L 677.466311 303.155498 
L 678.065059 303.226621 
L 678.663808 303.417304 
L 680.460055 303.251203 
L 681.058804 301.678721 
L 681.657553 301.143545 
L 682.85505 300.915522 
L 683.453799 301.033817 
L 684.651297 301.585931 
L 685.250046 301.290043 
L 685.848795 300.853154 
L 686.447543 300.976044 
L 687.645041 300.522114 
L 688.24379 301.006538 
L 688.842539 300.953899 
L 689.441288 300.327272 
L 690.040037 299.886431 
L 690.638785 300.263845 
L 691.836283 299.968838 
L 693.033781 299.955925 
L 694.231279 298.97243 
L 696.626274 298.600938 
L 697.225023 298.777868 
L 697.823772 298.648557 
L 698.422521 298.179453 
L 699.021269 299.219134 
L 700.218767 299.32826 
L 700.817516 299.544853 
L 700.817516 299.544853 
" clip-path="url(#pb7a3c90756)" style="fill: none; stroke: #ff7f0e; stroke-width: 1.5; stroke-linecap: round"/>
   </g>
   <g id="patch_3">
    <path d="M 53.57 318.04 
L 53.57 25.44 
" style="fill: none; stroke: #262626; stroke-width: 0.8; stroke-linejoin: miter; stroke-linecap: square"/>
   </g>
   <g id="patch_4">
    <path d="M 53.57 318.04 
L 709.2 318.04 
" style="fill: none; stroke: #262626; stroke-width: 0.8; stroke-linejoin: miter; stroke-linecap: square"/>
   </g>
   <g id="patch_5">
    <path d="M 139.488155 272.124909 
Q 141.308082 286.312019 142.843497 298.281236 
" style="fill: none; stroke: #ff0000; stroke-width: 2; stroke-linecap: round"/>
    <path d="M 144.61325 293.214878 
L 142.843497 298.281236 
L 139.852263 293.825619 
" style="fill: none; stroke: #ff0000; stroke-width: 2; stroke-linecap: round"/>
   </g>
   <g id="text_24">
    <!-- First and Second -->
    <g style="fill: #ff0000" transform="translate(92.040465 252.562687) scale(0.12 -0.12)">
     <defs>
      <path id="ArialMT-46" d="M 525 0 
L 525 4581 
L 3616 4581 
L 3616 4041 
L 1131 4041 
L 1131 2622 
L 3281 2622 
L 3281 2081 
L 1131 2081 
L 1131 0 
L 525 0 
z
" transform="scale(0.015625)"/>
      <path id="ArialMT-69" d="M 425 3934 
L 425 4581 
L 988 4581 
L 988 3934 
L 425 3934 
z
M 425 0 
L 425 3319 
L 988 3319 
L 988 0 
L 425 0 
z
" transform="scale(0.015625)"/>
      <path id="ArialMT-64" d="M 2575 0 
L 2575 419 
Q 2259 -75 1647 -75 
Q 1250 -75 917 144 
Q 584 363 401 755 
Q 219 1147 219 1656 
Q 219 2153 384 2558 
Q 550 2963 881 3178 
Q 1213 3394 1622 3394 
Q 1922 3394 2156 3267 
Q 2391 3141 2538 2938 
L 2538 4581 
L 3097 4581 
L 3097 0 
L 2575 0 
z
M 797 1656 
Q 797 1019 1065 703 
Q 1334 388 1700 388 
Q 2069 388 2326 689 
Q 2584 991 2584 1609 
Q 2584 2291 2321 2609 
Q 2059 2928 1675 2928 
Q 1300 2928 1048 2622 
Q 797 2316 797 1656 
z
" transform="scale(0.015625)"/>
      <path id="ArialMT-53" d="M 288 1472 
L 859 1522 
Q 900 1178 1048 958 
Q 1197 738 1509 602 
Q 1822 466 2213 466 
Q 2559 466 2825 569 
Q 3091 672 3220 851 
Q 3350 1031 3350 1244 
Q 3350 1459 3225 1620 
Q 3100 1781 2813 1891 
Q 2628 1963 1997 2114 
Q 1366 2266 1113 2400 
Q 784 2572 623 2826 
Q 463 3081 463 3397 
Q 463 3744 659 4045 
Q 856 4347 1234 4503 
Q 1613 4659 2075 4659 
Q 2584 4659 2973 4495 
Q 3363 4331 3572 4012 
Q 3781 3694 3797 3291 
L 3216 3247 
Q 3169 3681 2898 3903 
Q 2628 4125 2100 4125 
Q 1550 4125 1298 3923 
Q 1047 3722 1047 3438 
Q 1047 3191 1225 3031 
Q 1400 2872 2139 2705 
Q 2878 2538 3153 2413 
Q 3553 2228 3743 1945 
Q 3934 1663 3934 1294 
Q 3934 928 3725 604 
Q 3516 281 3123 101 
Q 2731 -78 2241 -78 
Q 1619 -78 1198 103 
Q 778 284 539 648 
Q 300 1013 288 1472 
z
" transform="scale(0.015625)"/>
     </defs>
     <use xlink:href="#ArialMT-46"/>
     <use xlink:href="#ArialMT-69" x="61.083984"/>
     <use xlink:href="#ArialMT-72" x="83.300781"/>
     <use xlink:href="#ArialMT-73" x="116.601562"/>
     <use xlink:href="#ArialMT-74" x="166.601562"/>
     <use xlink:href="#ArialMT-20" x="194.384766"/>
     <use xlink:href="#ArialMT-61" x="222.167969"/>
     <use xlink:href="#ArialMT-6e" x="277.783203"/>
     <use xlink:href="#ArialMT-64" x="333.398438"/>
     <use xlink:href="#ArialMT-20" x="389.013672"/>
     <use xlink:href="#ArialMT-53" x="416.796875"/>
     <use xlink:href="#ArialMT-65" x="483.496094"/>
     <use xlink:href="#ArialMT-63" x="539.111328"/>
     <use xlink:href="#ArialMT-6f" x="589.111328"/>
     <use xlink:href="#ArialMT-6e" x="644.726562"/>
     <use xlink:href="#ArialMT-64" x="700.341797"/>
    </g>
    <!-- Waves -->
    <g style="fill: #ff0000" transform="translate(119.283278 265.254937) scale(0.12 -0.12)">
     <defs>
      <path id="ArialMT-57" d="M 1294 0 
L 78 4581 
L 700 4581 
L 1397 1578 
Q 1509 1106 1591 641 
Q 1766 1375 1797 1488 
L 2669 4581 
L 3400 4581 
L 4056 2263 
Q 4303 1400 4413 641 
Q 4500 1075 4641 1638 
L 5359 4581 
L 5969 4581 
L 4713 0 
L 4128 0 
L 3163 3491 
Q 3041 3928 3019 4028 
Q 2947 3713 2884 3491 
L 1913 0 
L 1294 0 
z
" transform="scale(0.015625)"/>
      <path id="ArialMT-76" d="M 1344 0 
L 81 3319 
L 675 3319 
L 1388 1331 
Q 1503 1009 1600 663 
Q 1675 925 1809 1294 
L 2547 3319 
L 3125 3319 
L 1869 0 
L 1344 0 
z
" transform="scale(0.015625)"/>
     </defs>
     <use xlink:href="#ArialMT-57"/>
     <use xlink:href="#ArialMT-61" x="90.634766"/>
     <use xlink:href="#ArialMT-76" x="146.25"/>
     <use xlink:href="#ArialMT-65" x="196.25"/>
     <use xlink:href="#ArialMT-73" x="251.865234"/>
    </g>
   </g>
   <g id="patch_6">
    <path d="M 272.712082 188.004722 
Q 272.712082 197.568809 272.712082 204.896828 
" style="fill: none; stroke: #ff0000; stroke-width: 2; stroke-linecap: round"/>
    <path d="M 275.112082 200.096828 
L 272.712082 204.896828 
L 270.312082 200.096828 
" style="fill: none; stroke: #ff0000; stroke-width: 2; stroke-linecap: round"/>
   </g>
   <g id="text_25">
    <!-- Third Wave -->
    <g style="fill: #ff0000" transform="translate(242.264895 181.117093) scale(0.12 -0.12)">
     <defs>
      <path id="ArialMT-54" d="M 1659 0 
L 1659 4041 
L 150 4041 
L 150 4581 
L 3781 4581 
L 3781 4041 
L 2266 4041 
L 2266 0 
L 1659 0 
z
" transform="scale(0.015625)"/>
      <path id="ArialMT-68" d="M 422 0 
L 422 4581 
L 984 4581 
L 984 2938 
Q 1378 3394 1978 3394 
Q 2347 3394 2619 3248 
Q 2891 3103 3008 2847 
Q 3125 2591 3125 2103 
L 3125 0 
L 2563 0 
L 2563 2103 
Q 2563 2525 2380 2717 
Q 2197 2909 1863 2909 
Q 1613 2909 1392 2779 
Q 1172 2650 1078 2428 
Q 984 2206 984 1816 
L 984 0 
L 422 0 
z
" transform="scale(0.015625)"/>
     </defs>
     <use xlink:href="#ArialMT-54"/>
     <use xlink:href="#ArialMT-68" x="61.083984"/>
     <use xlink:href="#ArialMT-69" x="116.699219"/>
     <use xlink:href="#ArialMT-72" x="138.916016"/>
     <use xlink:href="#ArialMT-64" x="172.216797"/>
     <use xlink:href="#ArialMT-20" x="227.832031"/>
     <use xlink:href="#ArialMT-57" x="255.615234"/>
     <use xlink:href="#ArialMT-61" x="346.25"/>
     <use xlink:href="#ArialMT-76" x="401.865234"/>
     <use xlink:href="#ArialMT-65" x="451.865234"/>
    </g>
   </g>
   <g id="patch_7">
    <path d="M 387.287301 218.800535 
Q 398.615538 236.462224 408.736543 252.241736 
" style="fill: none; stroke: #ff0000; stroke-width: 2; stroke-linecap: round"/>
    <path d="M 408.165234 246.90567 
L 408.736543 252.241736 
L 404.124904 249.497144 
" style="fill: none; stroke: #ff0000; stroke-width: 2; stroke-linecap: round"/>
   </g>
   <g id="text_26">
    <!-- Fourth Wave -->
    <g style="fill: #ff0000" transform="translate(346.968126 212.233781) scale(0.12 -0.12)">
     <use xlink:href="#ArialMT-46"/>
     <use xlink:href="#ArialMT-6f" x="61.083984"/>
     <use xlink:href="#ArialMT-75" x="116.699219"/>
     <use xlink:href="#ArialMT-72" x="172.314453"/>
     <use xlink:href="#ArialMT-74" x="205.615234"/>
     <use xlink:href="#ArialMT-68" x="233.398438"/>
     <use xlink:href="#ArialMT-20" x="289.013672"/>
     <use xlink:href="#ArialMT-57" x="316.796875"/>
     <use xlink:href="#ArialMT-61" x="407.431641"/>
     <use xlink:href="#ArialMT-76" x="463.046875"/>
     <use xlink:href="#ArialMT-65" x="513.046875"/>
    </g>
   </g>
   <g id="patch_8">
    <path d="M 567.69639 93.740086 
Q 539.595526 111.994939 513.369806 129.031664 
" style="fill: none; stroke: #ff0000; stroke-width: 2; stroke-linecap: round"/>
    <path d="M 518.702469 128.429413 
L 513.369806 129.031664 
L 516.087603 124.404183 
" style="fill: none; stroke: #ff0000; stroke-width: 2; stroke-linecap: round"/>
   </g>
   <g id="text_27">
    <!-- Fifth Wave -->
    <g style="fill: #ff0000" transform="translate(553.219931 87.76703) scale(0.12 -0.12)">
     <use xlink:href="#ArialMT-46"/>
     <use xlink:href="#ArialMT-69" x="61.083984"/>
     <use xlink:href="#ArialMT-66" x="83.300781"/>
     <use xlink:href="#ArialMT-74" x="111.083984"/>
     <use xlink:href="#ArialMT-68" x="138.867188"/>
     <use xlink:href="#ArialMT-20" x="194.482422"/>
     <use xlink:href="#ArialMT-57" x="222.265625"/>
     <use xlink:href="#ArialMT-61" x="312.900391"/>
     <use xlink:href="#ArialMT-76" x="368.515625"/>
     <use xlink:href="#ArialMT-65" x="418.515625"/>
    </g>
   </g>
   <g id="patch_9">
    <path d="M 630.06487 226.94123 
Q 624.508028 240.44898 619.801891 251.888809 
" style="fill: none; stroke: #ff0000; stroke-width: 2; stroke-linecap: round"/>
    <path d="M 623.847564 248.362828 
L 619.801891 251.888809 
L 619.40851 246.536683 
" style="fill: none; stroke: #ff0000; stroke-width: 2; stroke-linecap: round"/>
   </g>
   <g id="text_28">
    <!-- Subsequent -->
    <g style="fill: #ff0000" transform="translate(604.726388 207.516615) scale(0.12 -0.12)">
     <defs>
      <path id="ArialMT-71" d="M 2538 -1272 
L 2538 353 
Q 2406 169 2170 47 
Q 1934 -75 1669 -75 
Q 1078 -75 651 397 
Q 225 869 225 1691 
Q 225 2191 398 2587 
Q 572 2984 901 3189 
Q 1231 3394 1625 3394 
Q 2241 3394 2594 2875 
L 2594 3319 
L 3100 3319 
L 3100 -1272 
L 2538 -1272 
z
M 803 1669 
Q 803 1028 1072 708 
Q 1341 388 1716 388 
Q 2075 388 2334 692 
Q 2594 997 2594 1619 
Q 2594 2281 2320 2615 
Q 2047 2950 1678 2950 
Q 1313 2950 1058 2639 
Q 803 2328 803 1669 
z
" transform="scale(0.015625)"/>
     </defs>
     <use xlink:href="#ArialMT-53"/>
     <use xlink:href="#ArialMT-75" x="66.699219"/>
     <use xlink:href="#ArialMT-62" x="122.314453"/>
     <use xlink:href="#ArialMT-73" x="177.929688"/>
     <use xlink:href="#ArialMT-65" x="227.929688"/>
     <use xlink:href="#ArialMT-71" x="283.544922"/>
     <use xlink:href="#ArialMT-75" x="339.160156"/>
     <use xlink:href="#ArialMT-65" x="394.775391"/>
     <use xlink:href="#ArialMT-6e" x="450.390625"/>
     <use xlink:href="#ArialMT-74" x="506.005859"/>
    </g>
    <!-- Waves -->
    <g style="fill: #ff0000" transform="translate(618.639826 220.208865) scale(0.12 -0.12)">
     <use xlink:href="#ArialMT-57"/>
     <use xlink:href="#ArialMT-61" x="90.634766"/>
     <use xlink:href="#ArialMT-76" x="146.25"/>
     <use xlink:href="#ArialMT-65" x="196.25"/>
     <use xlink:href="#ArialMT-73" x="251.865234"/>
    </g>
   </g>
   <g id="text_29">
    <!-- Coronavirus cases in the USA -->
    <g style="fill: #262626" transform="translate(301.3525 19.44) scale(0.12 -0.12)">
     <defs>
      <path id="ArialMT-43" d="M 3763 1606 
L 4369 1453 
Q 4178 706 3683 314 
Q 3188 -78 2472 -78 
Q 1731 -78 1267 223 
Q 803 525 561 1097 
Q 319 1669 319 2325 
Q 319 3041 592 3573 
Q 866 4106 1370 4382 
Q 1875 4659 2481 4659 
Q 3169 4659 3637 4309 
Q 4106 3959 4291 3325 
L 3694 3184 
Q 3534 3684 3231 3912 
Q 2928 4141 2469 4141 
Q 1941 4141 1586 3887 
Q 1231 3634 1087 3207 
Q 944 2781 944 2328 
Q 944 1744 1114 1308 
Q 1284 872 1643 656 
Q 2003 441 2422 441 
Q 2931 441 3284 734 
Q 3638 1028 3763 1606 
z
" transform="scale(0.015625)"/>
      <path id="ArialMT-55" d="M 3500 4581 
L 4106 4581 
L 4106 1934 
Q 4106 1244 3950 837 
Q 3794 431 3386 176 
Q 2978 -78 2316 -78 
Q 1672 -78 1262 144 
Q 853 366 678 786 
Q 503 1206 503 1934 
L 503 4581 
L 1109 4581 
L 1109 1938 
Q 1109 1341 1220 1058 
Q 1331 775 1601 622 
Q 1872 469 2263 469 
Q 2931 469 3215 772 
Q 3500 1075 3500 1938 
L 3500 4581 
z
" transform="scale(0.015625)"/>
     </defs>
     <use xlink:href="#ArialMT-43"/>
     <use xlink:href="#ArialMT-6f" x="72.216797"/>
     <use xlink:href="#ArialMT-72" x="127.832031"/>
     <use xlink:href="#ArialMT-6f" x="161.132812"/>
     <use xlink:href="#ArialMT-6e" x="216.748047"/>
     <use xlink:href="#ArialMT-61" x="272.363281"/>
     <use xlink:href="#ArialMT-76" x="327.978516"/>
     <use xlink:href="#ArialMT-69" x="377.978516"/>
     <use xlink:href="#ArialMT-72" x="400.195312"/>
     <use xlink:href="#ArialMT-75" x="433.496094"/>
     <use xlink:href="#ArialMT-73" x="489.111328"/>
     <use xlink:href="#ArialMT-20" x="539.111328"/>
     <use xlink:href="#ArialMT-63" x="566.894531"/>
     <use xlink:href="#ArialMT-61" x="616.894531"/>
     <use xlink:href="#ArialMT-73" x="672.509766"/>
     <use xlink:href="#ArialMT-65" x="722.509766"/>
     <use xlink:href="#ArialMT-73" x="778.125"/>
     <use xlink:href="#ArialMT-20" x="828.125"/>
     <use xlink:href="#ArialMT-69" x="855.908203"/>
     <use xlink:href="#ArialMT-6e" x="878.125"/>
     <use xlink:href="#ArialMT-20" x="933.740234"/>
     <use xlink:href="#ArialMT-74" x="961.523438"/>
     <use xlink:href="#ArialMT-68" x="989.306641"/>
     <use xlink:href="#ArialMT-65" x="1044.921875"/>
     <use xlink:href="#ArialMT-20" x="1100.537109"/>
     <use xlink:href="#ArialMT-55" x="1128.320312"/>
     <use xlink:href="#ArialMT-53" x="1200.537109"/>
     <use xlink:href="#ArialMT-41" x="1267.236328"/>
    </g>
   </g>
   <g id="legend_1">
    <g id="patch_10">
     <path d="M 60.57 62.116562 
L 197.068438 62.116562 
Q 199.068438 62.116562 199.068438 60.116562 
L 199.068438 32.44 
Q 199.068438 30.44 197.068438 30.44 
L 60.57 30.44 
Q 58.57 30.44 58.57 32.44 
L 58.57 60.116562 
Q 58.57 62.116562 60.57 62.116562 
z
" style="fill: #ffffff; opacity: 0.8; stroke: #cccccc; stroke-linejoin: miter"/>
    </g>
    <g id="line2d_33">
     <path d="M 62.57 38.219687 
L 72.57 38.219687 
L 82.57 38.219687 
" style="fill: none; stroke: #1f77b4; stroke-width: 1.5; stroke-linecap: round"/>
    </g>
    <g id="text_30">
     <!-- Cases per day -->
     <g style="fill: #262626" transform="translate(90.57 41.719687) scale(0.1 -0.1)">
      <defs>
       <path id="ArialMT-79" d="M 397 -1278 
L 334 -750 
Q 519 -800 656 -800 
Q 844 -800 956 -737 
Q 1069 -675 1141 -563 
Q 1194 -478 1313 -144 
Q 1328 -97 1363 -6 
L 103 3319 
L 709 3319 
L 1400 1397 
Q 1534 1031 1641 628 
Q 1738 1016 1872 1384 
L 2581 3319 
L 3144 3319 
L 1881 -56 
Q 1678 -603 1566 -809 
Q 1416 -1088 1222 -1217 
Q 1028 -1347 759 -1347 
Q 597 -1347 397 -1278 
z
" transform="scale(0.015625)"/>
      </defs>
      <use xlink:href="#ArialMT-43"/>
      <use xlink:href="#ArialMT-61" x="72.216797"/>
      <use xlink:href="#ArialMT-73" x="127.832031"/>
      <use xlink:href="#ArialMT-65" x="177.832031"/>
      <use xlink:href="#ArialMT-73" x="233.447266"/>
      <use xlink:href="#ArialMT-20" x="283.447266"/>
      <use xlink:href="#ArialMT-70" x="311.230469"/>
      <use xlink:href="#ArialMT-65" x="366.845703"/>
      <use xlink:href="#ArialMT-72" x="422.460938"/>
      <use xlink:href="#ArialMT-20" x="455.761719"/>
      <use xlink:href="#ArialMT-64" x="483.544922"/>
      <use xlink:href="#ArialMT-61" x="539.160156"/>
      <use xlink:href="#ArialMT-79" x="594.775391"/>
     </g>
    </g>
    <g id="line2d_34">
     <path d="M 62.57 52.511875 
L 72.57 52.511875 
L 82.57 52.511875 
" style="fill: none; stroke: #ff7f0e; stroke-width: 1.5; stroke-linecap: round"/>
    </g>
    <g id="text_31">
     <!-- 30-day moving average -->
     <g style="fill: #262626" transform="translate(90.57 56.011875) scale(0.1 -0.1)">
      <defs>
       <path id="ArialMT-2d" d="M 203 1375 
L 203 1941 
L 1931 1941 
L 1931 1375 
L 203 1375 
z
" transform="scale(0.015625)"/>
       <path id="ArialMT-67" d="M 319 -275 
L 866 -356 
Q 900 -609 1056 -725 
Q 1266 -881 1628 -881 
Q 2019 -881 2231 -725 
Q 2444 -569 2519 -288 
Q 2563 -116 2559 434 
Q 2191 0 1641 0 
Q 956 0 581 494 
Q 206 988 206 1678 
Q 206 2153 378 2554 
Q 550 2956 876 3175 
Q 1203 3394 1644 3394 
Q 2231 3394 2613 2919 
L 2613 3319 
L 3131 3319 
L 3131 450 
Q 3131 -325 2973 -648 
Q 2816 -972 2473 -1159 
Q 2131 -1347 1631 -1347 
Q 1038 -1347 672 -1080 
Q 306 -813 319 -275 
z
M 784 1719 
Q 784 1066 1043 766 
Q 1303 466 1694 466 
Q 2081 466 2343 764 
Q 2606 1063 2606 1700 
Q 2606 2309 2336 2618 
Q 2066 2928 1684 2928 
Q 1309 2928 1046 2623 
Q 784 2319 784 1719 
z
" transform="scale(0.015625)"/>
      </defs>
      <use xlink:href="#ArialMT-33"/>
      <use xlink:href="#ArialMT-30" x="55.615234"/>
      <use xlink:href="#ArialMT-2d" x="111.230469"/>
      <use xlink:href="#ArialMT-64" x="144.53125"/>
      <use xlink:href="#ArialMT-61" x="200.146484"/>
      <use xlink:href="#ArialMT-79" x="255.761719"/>
      <use xlink:href="#ArialMT-20" x="305.761719"/>
      <use xlink:href="#ArialMT-6d" x="333.544922"/>
      <use xlink:href="#ArialMT-6f" x="416.845703"/>
      <use xlink:href="#ArialMT-76" x="472.460938"/>
      <use xlink:href="#ArialMT-69" x="522.460938"/>
      <use xlink:href="#ArialMT-6e" x="544.677734"/>
      <use xlink:href="#ArialMT-67" x="600.292969"/>
      <use xlink:href="#ArialMT-20" x="655.908203"/>
      <use xlink:href="#ArialMT-61" x="683.691406"/>
      <use xlink:href="#ArialMT-76" x="739.306641"/>
      <use xlink:href="#ArialMT-65" x="789.306641"/>
      <use xlink:href="#ArialMT-72" x="844.921875"/>
      <use xlink:href="#ArialMT-61" x="878.222656"/>
      <use xlink:href="#ArialMT-67" x="933.837891"/>
      <use xlink:href="#ArialMT-65" x="989.453125"/>
     </g>
    </g>
   </g>
  </g>
 </g>
 <defs>
  <clipPath id="pb7a3c90756">
   <rect x="53.57" y="25.44" width="655.63" height="292.6"/>
  </clipPath>
 </defs>
</svg>
