<?xml version="1.0" encoding="UTF-8"?>
<svg id="Layer_1" xmlns="http://www.w3.org/2000/svg" xmlns:xlink="http://www.w3.org/1999/xlink" version="1.1" viewBox="0 0 616.9 467.1">
  <!-- Generator: Adobe Illustrator 30.0.0, SVG Export Plug-In . SVG Version: 2.1.1 Build 123)  -->
  <defs>
    <style>
      .st0 {
        fill: #21d789;
      }

      .st1 {
        fill: url(#linear-gradient1);
      }

      .st2 {
        fill: url(#linear-gradient);
      }

      .st3 {
        fill: #fff;
      }

      .st4 {
        fill: #efc2a6;
      }

      .st5 {
        fill: #c08355;
      }

      .st6 {
        opacity: .5;
      }

      .st7 {
        opacity: .2;
      }

      .st8 {
        fill: none;
        stroke: #000;
        stroke-width: 2px;
      }

      .st8, .st9 {
        stroke-miterlimit: 10;
      }

      .st10 {
        fill: #6b57ff;
      }

      .st9 {
        stroke: #21d789;
      }
    </style>
    <linearGradient id="linear-gradient" x1="474.1" y1="323.8" x2="485.5" y2="305.1" gradientTransform="translate(0 470) scale(1 -1)" gradientUnits="userSpaceOnUse">
      <stop offset="0" stop-color="#b78a6d"/>
      <stop offset="0" stop-color="#c4977a"/>
      <stop offset=".4" stop-color="#dbae92"/>
      <stop offset=".6" stop-color="#eabda0"/>
      <stop offset=".8" stop-color="#efc2a6"/>
    </linearGradient>
    <linearGradient id="linear-gradient1" x1="-3657.6" y1="120.6" x2="-3575" y2="52.3" gradientTransform="translate(-3136.6 470) rotate(-180)" gradientUnits="userSpaceOnUse">
      <stop offset=".6" stop-color="#fff"/>
      <stop offset=".7" stop-color="#f8f8f8"/>
      <stop offset=".8" stop-color="#e5e5e5"/>
      <stop offset="1" stop-color="#c6c6c6"/>
      <stop offset="1" stop-color="#bfbfbf"/>
    </linearGradient>
  </defs>
  <g>
    <path d="M56.2,57h266c5.4,0,9.7,4.4,9.7,9.7v181.3c0,5.4-4.4,9.7-9.7,9.7H56.2c-5.4,0-9.7-4.4-9.7-9.7V66.7c0-5.4,4.4-9.7,9.7-9.7Z"/>
    <g>
      <g>
        <g class="st6">
          <rect class="st3" x="108.7" y="218.3" width=".5" height="6.4"/>
        </g>
        <g class="st6">
          <rect class="st3" x="168.8" y="218.3" width=".5" height="6.4"/>
        </g>
        <g class="st6">
          <rect class="st3" x="226.9" y="218.3" width=".5" height="6.4"/>
        </g>
        <g class="st6">
          <rect class="st3" x="287" y="218.3" width=".5" height="6.4"/>
        </g>
        <g class="st6">
          <g>
            <path class="st3" d="M105.6,234.3c-.3-.1-.5-.3-.7-.5s-.3-.5-.3-.8h.8c0,.1,0,.3.2.4s.2.2.4.3c.2,0,.3.1.5.1s.4,0,.6-.2c.2-.1.3-.3.4-.4,0-.2,0-.4,0-.6s0-.5,0-.6c0-.2-.2-.3-.4-.4-.2-.1-.4-.2-.6-.2h-.4c0,0-.3.1-.3.2,0,0-.2.2-.2.3h-.7l.2-3.1h3.1v.7h-2.5v1.6c0-.1,0-.2.2-.3,0,0,.3-.1.4-.2s.3,0,.5,0c.3,0,.6,0,.9.2s.5.4.6.7c.2.3.2.6.2,1s0,.7-.2,1-.4.5-.7.7-.6.3-1,.3-.6,0-.9-.2h0Z"/>
            <path class="st3" d="M110.2,234.1c-.3-.2-.6-.6-.7-1-.2-.4-.3-.9-.3-1.5s0-1.1.3-1.5.4-.8.7-1c.3-.2.7-.4,1.1-.4s.8.1,1.1.4c.3.2.6.6.7,1s.3.9.3,1.5,0,1.1-.3,1.5c-.2.4-.4.8-.7,1-.3.2-.7.4-1.1.4s-.8-.1-1.1-.4ZM112,233.5c.2-.2.3-.4.5-.7s.2-.7.2-1.2,0-.8-.2-1.2-.3-.6-.5-.8-.4-.3-.7-.3-.5,0-.7.3-.3.4-.5.8c0,.3-.2.7-.2,1.2s0,.8.2,1.2c0,.3.3.6.5.8s.4.3.7.3.5,0,.7-.3h0Z"/>
          </g>
        </g>
        <g class="st6">
          <g>
            <path class="st3" d="M165.6,234.1c-.3-.2-.6-.6-.7-1s-.3-.9-.3-1.5,0-1.1.3-1.6c.2-.5.4-.8.7-1s.7-.4,1.1-.4.6,0,.8.2c.2.1.5.3.6.5.2.2.3.5.4.7h-.8c-.1-.2-.3-.4-.4-.5-.2-.1-.4-.2-.6-.2s-.5,0-.7.2-.4.4-.5.7-.2.7-.2,1.2h0c0-.2.2-.4.3-.5.2-.2.3-.3.5-.4.2,0,.4-.1.7-.1s.6,0,.9.3c.3.2.5.4.6.7s.2.6.2,1,0,.7-.3,1c-.2.3-.4.5-.7.7s-.6.3-1,.3-.8-.1-1.1-.3h.2ZM167.3,233.6c.2-.1.3-.3.4-.4.1-.2.2-.4.2-.6s0-.5-.2-.7-.2-.3-.4-.5c-.2-.1-.4-.2-.6-.2s-.4,0-.6.2c-.2.1-.3.3-.4.5-.1.2-.2.4-.2.6s0,.5.2.6.2.3.4.5c.2.1.4.2.6.2s.4,0,.6-.2h0Z"/>
            <path class="st3" d="M170.4,234.1c-.3-.2-.6-.6-.7-1-.2-.4-.3-.9-.3-1.5s0-1.1.3-1.5.4-.8.7-1,.7-.4,1.1-.4.8.1,1.1.4c.3.2.6.6.7,1s.3.9.3,1.5,0,1.1-.3,1.5c-.2.4-.4.8-.7,1s-.7.4-1.1.4-.8-.1-1.1-.4ZM172.2,233.5c.2-.2.3-.4.5-.7s.2-.7.2-1.2,0-.8-.2-1.2-.3-.6-.5-.8-.4-.3-.7-.3-.5,0-.7.3-.3.4-.5.8c-.1.3-.2.7-.2,1.2s0,.8.2,1.2c.1.3.3.6.5.8s.4.3.7.3.5,0,.7-.3h0Z"/>
          </g>
        </g>
        <g class="st6">
          <g>
            <path class="st3" d="M222.9,229.5v-.7h3.5v.7l-2.2,4.9h-.8l2.2-4.9h-2.7Z"/>
            <path class="st3" d="M227.9,234.1c-.3-.2-.6-.6-.7-1-.2-.4-.3-.9-.3-1.5s0-1.1.3-1.5.4-.8.7-1,.7-.4,1.1-.4.8.1,1.1.4c.3.2.6.6.7,1s.3.9.3,1.5,0,1.1-.3,1.5c-.2.4-.4.8-.7,1s-.7.4-1.1.4-.8-.1-1.1-.4ZM229.7,233.5c.2-.2.3-.4.5-.7s.2-.7.2-1.2,0-.8-.2-1.2-.3-.6-.5-.8-.4-.3-.7-.3-.5,0-.7.3-.3.4-.5.8c-.1.3-.2.7-.2,1.2s0,.8.2,1.2c.1.3.3.6.5.8s.4.3.7.3.5,0,.7-.3h0Z"/>
          </g>
        </g>
        <g class="st6">
          <g>
            <path class="st3" d="M283.7,234.3c-.3-.1-.5-.3-.7-.6-.2-.2-.2-.5-.2-.8s0-.4.1-.6c0-.2.2-.4.4-.5s.4-.2.6-.3c-.2,0-.3-.1-.5-.3-.1-.1-.2-.3-.3-.4,0-.2-.1-.4-.1-.6s0-.6.2-.8c.1-.2.3-.4.6-.5.3-.1.6-.2.9-.2s.7,0,.9.2.5.3.6.5.2.5.2.8,0,.4-.1.6c0,.2-.2.3-.3.4-.1.1-.3.2-.5.2.2,0,.4.1.6.3.2.1.3.3.4.5,0,.2.1.4.1.6,0,.3,0,.6-.2.8s-.4.4-.7.6c-.3.1-.6.2-1,.2s-.7,0-1-.2h0ZM285.3,233.7c.2,0,.3-.2.4-.4,0-.2.1-.3.1-.5s0-.4-.1-.5-.2-.3-.4-.4c-.2,0-.4-.1-.6-.1s-.4,0-.6.1c-.2,0-.3.2-.4.4s-.2.3-.2.5,0,.4.1.5c0,.2.2.3.4.4.2,0,.4.1.6.1s.4,0,.6-.1h.1ZM285.3,231.1c.1,0,.3-.2.3-.3s.1-.3.1-.5,0-.3-.1-.5c0-.1-.2-.2-.3-.3-.1,0-.3-.1-.5-.1s-.4,0-.5.1c-.1,0-.3.2-.3.3s-.1.3-.1.5,0,.3.1.5c0,.1.2.2.4.3s.3.1.5.1.4,0,.5-.1h-.1Z"/>
            <path class="st3" d="M288.4,234.1c-.3-.2-.6-.6-.7-1-.2-.4-.3-.9-.3-1.5s0-1.1.3-1.5.4-.8.7-1c.3-.2.7-.4,1.1-.4s.8.1,1.1.4c.3.2.6.6.7,1s.3.9.3,1.5,0,1.1-.3,1.5c-.2.4-.4.8-.7,1-.3.2-.7.4-1.1.4s-.8-.1-1.1-.4ZM290.2,233.5c.2-.2.3-.4.5-.7s.2-.7.2-1.2,0-.8-.2-1.2-.3-.6-.5-.8-.4-.3-.7-.3-.5,0-.7.3-.3.4-.5.8c-.1.3-.2.7-.2,1.2s0,.8.2,1.2c.1.3.3.6.5.8s.4.3.7.3.5,0,.7-.3h0Z"/>
          </g>
        </g>
      </g>
      <g class="st6">
        <polygon class="st3" points="310.8 221.8 95.6 221.8 95.6 79.1 96.1 79.1 96.1 221.3 310.8 221.3 310.8 221.8"/>
        <polygon class="st3" points="93.8 80.7 94.2 81.1 95.9 79.3 97.6 81.1 97.9 80.7 95.9 78.5 93.8 80.7"/>
        <polygon class="st3" points="309.1 223.6 308.8 223.3 310.6 221.6 308.8 219.9 309.1 219.5 311.3 221.6 309.1 223.6"/>
      </g>
      <g>
        <g class="st7">
          <rect class="st3" x="91.4" y="204" width="220" height=".5"/>
        </g>
        <g class="st7">
          <rect class="st3" x="91.4" y="221.3" width="187.9" height=".5"/>
        </g>
        <g class="st7">
          <rect class="st3" x="308.6" y="186.6" width="2.7" height=".5"/>
        </g>
        <g class="st7">
          <rect class="st3" x="91.4" y="186.6" width="217.2" height=".5"/>
        </g>
        <g class="st7">
          <rect class="st3" x="91.4" y="169.3" width="220" height=".5"/>
        </g>
        <g class="st7">
          <rect class="st3" x="91.4" y="151.9" width="220" height=".5"/>
        </g>
        <g class="st7">
          <rect class="st3" x="91.4" y="134.5" width="220" height=".5"/>
        </g>
        <g class="st7">
          <rect class="st3" x="91.4" y="117.2" width="220" height=".5"/>
        </g>
        <g class="st7">
          <rect class="st3" x="91.4" y="99.8" width="220" height=".5"/>
        </g>
      </g>
      <g class="st6">
        <path class="st3" d="M83.8,222.7c-.3-.2-.6-.6-.7-1-.2-.4-.3-.9-.3-1.5s0-1.1.3-1.5.4-.8.7-1c.3-.2.7-.4,1.1-.4s.8.1,1.1.4c.3.2.6.6.7,1s.3.9.3,1.5,0,1.1-.3,1.5c-.2.4-.4.8-.7,1-.3.2-.7.4-1.1.4s-.8-.1-1.1-.4ZM85.6,222c.2-.2.3-.4.5-.7s.2-.7.2-1.2,0-.8-.2-1.2-.3-.6-.5-.8-.4-.3-.7-.3-.5,0-.7.3-.3.4-.5.8c0,.3-.2.7-.2,1.2s0,.8.2,1.2c0,.3.3.6.5.8s.4.3.7.3.5,0,.7-.3h0Z"/>
      </g>
      <g class="st6">
        <g>
          <path class="st3" d="M74.3,206.6c-.3-.1-.5-.3-.7-.5s-.3-.5-.3-.8h.8c0,.1,0,.3.2.4s.2.2.4.3c.2,0,.3.1.5.1s.4,0,.6-.2c.2-.1.3-.3.4-.4,0-.2,0-.4,0-.6s0-.5,0-.6c0-.2-.2-.3-.4-.4-.2-.1-.4-.2-.6-.2h-.4c0,0-.3.1-.3.2,0,0-.2.2-.2.3h-.7l.2-3.1h3.1v.7h-2.5v1.6c0-.1,0-.2.2-.3,0,0,.3-.1.4-.2s.3,0,.5,0c.3,0,.6,0,.9.2s.5.4.6.7c.2.3.2.6.2,1s0,.7-.2,1-.4.5-.7.7-.6.3-1,.3-.6,0-.9-.2h0Z"/>
          <path class="st3" d="M78.9,206.5c-.3-.2-.6-.6-.7-1-.2-.4-.3-.9-.3-1.5s0-1.1.3-1.5.4-.8.7-1c.3-.2.7-.4,1.1-.4s.8.1,1.1.4c.3.2.6.6.7,1s.3.9.3,1.5,0,1.1-.3,1.5c-.2.4-.4.8-.7,1-.3.2-.7.4-1.1.4s-.8-.1-1.1-.4ZM80.7,205.8c.2-.2.3-.4.5-.7s.2-.7.2-1.2,0-.8-.2-1.2-.3-.6-.5-.8-.4-.3-.7-.3-.5,0-.7.3-.3.4-.5.8c0,.3-.2.7-.2,1.2s0,.8.2,1.2c0,.3.3.6.5.8s.4.3.7.3.5,0,.7-.3h0Z"/>
          <path class="st3" d="M83.8,206.5c-.3-.2-.6-.6-.7-1-.2-.4-.3-.9-.3-1.5s0-1.1.3-1.5.4-.8.7-1c.3-.2.7-.4,1.1-.4s.8.1,1.1.4c.3.2.6.6.7,1s.3.9.3,1.5,0,1.1-.3,1.5c-.2.4-.4.8-.7,1-.3.2-.7.4-1.1.4s-.8-.1-1.1-.4ZM85.6,205.8c.2-.2.3-.4.5-.7s.2-.7.2-1.2,0-.8-.2-1.2-.3-.6-.5-.8-.4-.3-.7-.3-.5,0-.7.3-.3.4-.5.8c0,.3-.2.7-.2,1.2s0,.8.2,1.2c0,.3.3.6.5.8s.4.3.7.3.5,0,.7-.3h0Z"/>
        </g>
      </g>
      <g class="st6">
        <g>
          <path class="st3" d="M70.9,185.2h-1.3v-.7h.7c.2,0,.4,0,.6-.2s.2-.3.2-.6h.6v5.7h-.8v-4.2h0Z"/>
          <path class="st3" d="M73.9,189.1c-.3-.2-.6-.6-.7-1-.2-.4-.3-.9-.3-1.5s0-1.1.3-1.5.4-.8.7-1c.3-.2.7-.4,1.1-.4s.8.1,1.1.4c.3.2.6.6.7,1s.3.9.3,1.5,0,1.1-.3,1.5c-.2.4-.4.8-.7,1-.3.2-.7.4-1.1.4s-.8-.1-1.1-.4ZM75.7,188.5c.2-.2.3-.4.5-.7s.2-.7.2-1.2,0-.8-.2-1.2-.3-.6-.5-.8-.4-.3-.7-.3-.5,0-.7.3-.3.4-.5.8c0,.3-.2.7-.2,1.2s0,.8.2,1.2c0,.3.3.6.5.8s.4.3.7.3.5,0,.7-.3h0Z"/>
          <path class="st3" d="M78.9,189.1c-.3-.2-.6-.6-.7-1-.2-.4-.3-.9-.3-1.5s0-1.1.3-1.5.4-.8.7-1c.3-.2.7-.4,1.1-.4s.8.1,1.1.4c.3.2.6.6.7,1s.3.9.3,1.5,0,1.1-.3,1.5c-.2.4-.4.8-.7,1-.3.2-.7.4-1.1.4s-.8-.1-1.1-.4ZM80.7,188.5c.2-.2.3-.4.5-.7s.2-.7.2-1.2,0-.8-.2-1.2-.3-.6-.5-.8-.4-.3-.7-.3-.5,0-.7.3-.3.4-.5.8c0,.3-.2.7-.2,1.2s0,.8.2,1.2c0,.3.3.6.5.8s.4.3.7.3.5,0,.7-.3h0Z"/>
          <path class="st3" d="M83.8,189.1c-.3-.2-.6-.6-.7-1-.2-.4-.3-.9-.3-1.5s0-1.1.3-1.5.4-.8.7-1c.3-.2.7-.4,1.1-.4s.8.1,1.1.4c.3.2.6.6.7,1s.3.9.3,1.5,0,1.1-.3,1.5c-.2.4-.4.8-.7,1-.3.2-.7.4-1.1.4s-.8-.1-1.1-.4ZM85.6,188.5c.2-.2.3-.4.5-.7s.2-.7.2-1.2,0-.8-.2-1.2-.3-.6-.5-.8-.4-.3-.7-.3-.5,0-.7.3-.3.4-.5.8c0,.3-.2.7-.2,1.2s0,.8.2,1.2c0,.3.3.6.5.8s.4.3.7.3.5,0,.7-.3h0Z"/>
        </g>
      </g>
      <g class="st6">
        <g>
          <path class="st3" d="M71.3,167.9h-1.3v-.7h.7c.2,0,.4,0,.6-.2s.2-.3.2-.6h.6v5.7h-.8v-4.2h0Z"/>
          <path class="st3" d="M74.3,171.9c-.3-.1-.5-.3-.7-.5s-.3-.5-.3-.8h.8c0,.1,0,.3.2.4s.2.2.4.3c.2,0,.3.1.5.1s.4,0,.6-.2c.2-.1.3-.3.4-.4,0-.2,0-.4,0-.6s0-.5,0-.6c0-.2-.2-.3-.4-.4-.2-.1-.4-.2-.6-.2h-.4c0,0-.3.1-.3.2,0,0-.2.2-.2.3h-.7l.2-3.1h3.1v.7h-2.5v1.6c0-.1,0-.2.2-.3,0,0,.3-.1.4-.2s.3,0,.5,0c.3,0,.6,0,.9.2s.5.4.6.7c.2.3.2.6.2,1s0,.7-.2,1-.4.5-.7.7-.6.3-1,.3-.6,0-.9-.2h0Z"/>
          <path class="st3" d="M78.9,171.8c-.3-.2-.6-.6-.7-1-.2-.4-.3-.9-.3-1.5s0-1.1.3-1.5.4-.8.7-1c.3-.2.7-.4,1.1-.4s.8.1,1.1.4c.3.2.6.6.7,1s.3.9.3,1.5,0,1.1-.3,1.5c-.2.4-.4.8-.7,1-.3.2-.7.4-1.1.4s-.8-.1-1.1-.4ZM80.7,171.1c.2-.2.3-.4.5-.7s.2-.7.2-1.2,0-.8-.2-1.2-.3-.6-.5-.8-.4-.3-.7-.3-.5,0-.7.3-.3.4-.5.8c0,.3-.2.7-.2,1.2s0,.8.2,1.2c0,.3.3.6.5.8s.4.3.7.3.5,0,.7-.3h0Z"/>
          <path class="st3" d="M83.8,171.8c-.3-.2-.6-.6-.7-1-.2-.4-.3-.9-.3-1.5s0-1.1.3-1.5.4-.8.7-1c.3-.2.7-.4,1.1-.4s.8.1,1.1.4c.3.2.6.6.7,1s.3.9.3,1.5,0,1.1-.3,1.5c-.2.4-.4.8-.7,1-.3.2-.7.4-1.1.4s-.8-.1-1.1-.4ZM85.6,171.1c.2-.2.3-.4.5-.7s.2-.7.2-1.2,0-.8-.2-1.2-.3-.6-.5-.8-.4-.3-.7-.3-.5,0-.7.3-.3.4-.5.8c0,.3-.2.7-.2,1.2s0,.8.2,1.2c0,.3.3.6.5.8s.4.3.7.3.5,0,.7-.3h0Z"/>
        </g>
      </g>
      <g class="st6">
        <g>
          <path class="st3" d="M68.5,154l2.2-2.1c.2-.2.4-.4.4-.6s0-.4,0-.6,0-.4,0-.5c0-.2-.2-.3-.4-.4s-.3-.1-.5-.1-.4,0-.6.1-.3.2-.4.4c0,.2,0,.4,0,.6h-.8c0-.4,0-.7.2-1s.4-.5.7-.7c.3-.2.6-.2,1-.2s.6,0,.9.2c.3.1.5.3.6.6s.2.5.2.9,0,.6-.2.9c-.2.3-.4.6-.7.9l-1.5,1.5h2.6v.7h-3.7v-.7h.1Z"/>
          <path class="st3" d="M73.9,154.4c-.3-.2-.6-.6-.7-1-.2-.4-.3-.9-.3-1.5s0-1.1.3-1.5.4-.8.7-1c.3-.2.7-.4,1.1-.4s.8.1,1.1.4c.3.2.6.6.7,1s.3.9.3,1.5,0,1.1-.3,1.5c-.2.4-.4.8-.7,1-.3.2-.7.4-1.1.4s-.8-.1-1.1-.4ZM75.7,153.8c.2-.2.3-.4.5-.7s.2-.7.2-1.2,0-.8-.2-1.2-.3-.6-.5-.8-.4-.3-.7-.3-.5,0-.7.3-.3.4-.5.8c0,.3-.2.7-.2,1.2s0,.8.2,1.2c0,.3.3.6.5.8s.4.3.7.3.5,0,.7-.3h0Z"/>
          <path class="st3" d="M78.9,154.4c-.3-.2-.6-.6-.7-1-.2-.4-.3-.9-.3-1.5s0-1.1.3-1.5.4-.8.7-1c.3-.2.7-.4,1.1-.4s.8.1,1.1.4c.3.2.6.6.7,1s.3.9.3,1.5,0,1.1-.3,1.5c-.2.4-.4.8-.7,1-.3.2-.7.4-1.1.4s-.8-.1-1.1-.4ZM80.7,153.8c.2-.2.3-.4.5-.7s.2-.7.2-1.2,0-.8-.2-1.2-.3-.6-.5-.8-.4-.3-.7-.3-.5,0-.7.3-.3.4-.5.8c0,.3-.2.7-.2,1.2s0,.8.2,1.2c0,.3.3.6.5.8s.4.3.7.3.5,0,.7-.3h0Z"/>
          <path class="st3" d="M83.8,154.4c-.3-.2-.6-.6-.7-1-.2-.4-.3-.9-.3-1.5s0-1.1.3-1.5.4-.8.7-1c.3-.2.7-.4,1.1-.4s.8.1,1.1.4c.3.2.6.6.7,1s.3.9.3,1.5,0,1.1-.3,1.5c-.2.4-.4.8-.7,1-.3.2-.7.4-1.1.4s-.8-.1-1.1-.4ZM85.6,153.8c.2-.2.3-.4.5-.7s.2-.7.2-1.2,0-.8-.2-1.2-.3-.6-.5-.8-.4-.3-.7-.3-.5,0-.7.3-.3.4-.5.8c0,.3-.2.7-.2,1.2s0,.8.2,1.2c0,.3.3.6.5.8s.4.3.7.3.5,0,.7-.3h0Z"/>
        </g>
      </g>
      <g class="st6">
        <g>
          <path class="st3" d="M68.9,137l2.2-2.1c.2-.2.4-.4.4-.6s0-.4,0-.6,0-.4,0-.5c0-.2-.2-.3-.4-.4s-.3-.1-.5-.1-.4,0-.6.1-.3.2-.4.4c0,.2,0,.4,0,.6h-.8c0-.4,0-.7.2-1s.4-.5.7-.7c.3-.2.6-.2,1-.2s.6,0,.9.2c.3.1.5.3.6.6s.2.5.2.9,0,.6-.2.9c-.2.3-.4.6-.7.9l-1.5,1.5h2.6v.7h-3.7v-.7h.1Z"/>
          <path class="st3" d="M74.3,137.6c-.3-.1-.5-.3-.7-.5s-.3-.5-.3-.8h.8c0,.1,0,.3.2.4s.2.2.4.3c.2,0,.3.1.5.1s.4,0,.6-.2c.2-.1.3-.3.4-.4,0-.2,0-.4,0-.6s0-.5,0-.6c0-.2-.2-.3-.4-.4-.2-.1-.4-.2-.6-.2h-.4c0,0-.3.1-.3.2,0,0-.2.2-.2.3h-.7l.2-3.1h3.1v.7h-2.5v1.6c0-.1,0-.2.2-.3,0,0,.3-.1.4-.2s.3,0,.5,0c.3,0,.6,0,.9.2s.5.4.6.7c.2.3.2.6.2,1s0,.7-.2,1-.4.5-.7.7-.6.3-1,.3-.6,0-.9-.2h0Z"/>
          <path class="st3" d="M78.9,137.4c-.3-.2-.6-.6-.7-1-.2-.4-.3-.9-.3-1.5s0-1.1.3-1.5.4-.8.7-1c.3-.2.7-.4,1.1-.4s.8.1,1.1.4c.3.2.6.6.7,1s.3.9.3,1.5,0,1.1-.3,1.5c-.2.4-.4.8-.7,1-.3.2-.7.4-1.1.4s-.8-.1-1.1-.4ZM80.7,136.8c.2-.2.3-.4.5-.7s.2-.7.2-1.2,0-.8-.2-1.2-.3-.6-.5-.8-.4-.3-.7-.3-.5,0-.7.3-.3.4-.5.8c0,.3-.2.7-.2,1.2s0,.8.2,1.2c0,.3.3.6.5.8s.4.3.7.3.5,0,.7-.3h0Z"/>
          <path class="st3" d="M83.8,137.4c-.3-.2-.6-.6-.7-1-.2-.4-.3-.9-.3-1.5s0-1.1.3-1.5.4-.8.7-1c.3-.2.7-.4,1.1-.4s.8.1,1.1.4c.3.2.6.6.7,1s.3.9.3,1.5,0,1.1-.3,1.5c-.2.4-.4.8-.7,1-.3.2-.7.4-1.1.4s-.8-.1-1.1-.4ZM85.6,136.8c.2-.2.3-.4.5-.7s.2-.7.2-1.2,0-.8-.2-1.2-.3-.6-.5-.8-.4-.3-.7-.3-.5,0-.7.3-.3.4-.5.8c0,.3-.2.7-.2,1.2s0,.8.2,1.2c0,.3.3.6.5.8s.4.3.7.3.5,0,.7-.3h0Z"/>
        </g>
      </g>
      <g class="st6">
        <g>
          <path class="st3" d="M69.2,119.8c-.3,0-.5-.3-.7-.6-.2-.3-.3-.5-.3-.9h.8c0,.2,0,.4.2.5,0,0,.2.3.4.3s.4,0,.6,0,.4,0,.6,0c.2,0,.3-.2.4-.4,0-.2,0-.4,0-.6s0-.4,0-.6-.2-.3-.4-.4c-.2,0-.4,0-.6,0h-.7v-.6l1.5-1.4h-2.4v-.7h3.4v.7l-1.8,1.7v-.3c.4,0,.8,0,1,.2.3,0,.5.4.7.6s.2.6.2.9,0,.7-.2.9c-.2.3-.4.5-.7.6s-.6.2-1,.2-.7,0-1-.2v.2Z"/>
          <path class="st3" d="M73.9,119.7c-.3-.2-.6-.6-.7-1-.2-.4-.3-.9-.3-1.5s0-1.1.3-1.5.4-.8.7-1c.3-.2.7-.4,1.1-.4s.8,0,1.1.4c.3.2.6.6.7,1s.3.9.3,1.5,0,1.1-.3,1.5c-.2.4-.4.8-.7,1-.3.2-.7.4-1.1.4s-.8,0-1.1-.4ZM75.7,119.1c.2-.2.3-.4.5-.7s.2-.7.2-1.2,0-.8-.2-1.2-.3-.6-.5-.8c-.2-.2-.4-.3-.7-.3s-.5,0-.7.3-.3.4-.5.8c0,.3-.2.7-.2,1.2s0,.8.2,1.2c0,.3.3.6.5.8s.4.3.7.3.5,0,.7-.3h0Z"/>
          <path class="st3" d="M78.9,119.7c-.3-.2-.6-.6-.7-1-.2-.4-.3-.9-.3-1.5s0-1.1.3-1.5.4-.8.7-1c.3-.2.7-.4,1.1-.4s.8,0,1.1.4c.3.2.6.6.7,1s.3.9.3,1.5,0,1.1-.3,1.5c-.2.4-.4.8-.7,1-.3.2-.7.4-1.1.4s-.8,0-1.1-.4ZM80.7,119.1c.2-.2.3-.4.5-.7s.2-.7.2-1.2,0-.8-.2-1.2-.3-.6-.5-.8c-.2-.2-.4-.3-.7-.3s-.5,0-.7.3-.3.4-.5.8c0,.3-.2.7-.2,1.2s0,.8.2,1.2c0,.3.3.6.5.8s.4.3.7.3.5,0,.7-.3h0Z"/>
          <path class="st3" d="M83.8,119.7c-.3-.2-.6-.6-.7-1-.2-.4-.3-.9-.3-1.5s0-1.1.3-1.5.4-.8.7-1c.3-.2.7-.4,1.1-.4s.8,0,1.1.4c.3.2.6.6.7,1s.3.9.3,1.5,0,1.1-.3,1.5c-.2.4-.4.8-.7,1-.3.2-.7.4-1.1.4s-.8,0-1.1-.4ZM85.6,119.1c.2-.2.3-.4.5-.7s.2-.7.2-1.2,0-.8-.2-1.2-.3-.6-.5-.8c-.2-.2-.4-.3-.7-.3s-.5,0-.7.3-.3.4-.5.8c0,.3-.2.7-.2,1.2s0,.8.2,1.2c0,.3.3.6.5.8s.4.3.7.3.5,0,.7-.3h0Z"/>
        </g>
      </g>
      <g class="st6">
        <g>
          <path class="st3" d="M69.6,102.5c-.3,0-.5-.3-.7-.6-.2-.3-.3-.5-.3-.9h.8c0,.2,0,.4.2.5,0,0,.2.3.4.3s.4,0,.6,0,.4,0,.6,0c.2,0,.3-.2.4-.4,0-.2,0-.4,0-.6s0-.4,0-.6-.2-.3-.4-.4c-.2,0-.4,0-.6,0h-.7v-.6l1.5-1.4h-2.4v-.7h3.4v.7l-1.8,1.7v-.3c.4,0,.8,0,1,.2.3,0,.5.4.7.6s.2.6.2.9,0,.7-.2.9c-.2.3-.4.5-.7.6s-.6.2-1,.2-.7,0-1-.2v.2Z"/>
          <path class="st3" d="M74.3,102.5c-.3,0-.5-.3-.7-.5s-.3-.5-.3-.8h.8c0,0,0,.3.2.4s.2.2.4.3c.2,0,.3,0,.5,0s.4,0,.6-.2c.2,0,.3-.3.4-.4,0-.2,0-.4,0-.6s0-.5,0-.6c0-.2-.2-.3-.4-.4-.2,0-.4-.2-.6-.2h-.4c0,0-.3,0-.3.2,0,0-.2.2-.2.3h-.7l.2-3.1h3.1v.7h-2.5v1.6c0,0,0-.2.2-.3,0,0,.3,0,.4-.2s.3,0,.5,0c.3,0,.6,0,.9.2s.5.4.6.7c.2.3.2.6.2,1s0,.7-.2,1-.4.5-.7.7-.6.3-1,.3-.6,0-.9-.2h0Z"/>
          <path class="st3" d="M78.9,102.4c-.3-.2-.6-.6-.7-1-.2-.4-.3-.9-.3-1.5s0-1.1.3-1.5.4-.8.7-1c.3-.2.7-.4,1.1-.4s.8,0,1.1.4c.3.2.6.6.7,1s.3.9.3,1.5,0,1.1-.3,1.5c-.2.4-.4.8-.7,1-.3.2-.7.4-1.1.4s-.8,0-1.1-.4ZM80.7,101.7c.2-.2.3-.4.5-.7s.2-.7.2-1.2,0-.8-.2-1.2-.3-.6-.5-.8c-.2-.2-.4-.3-.7-.3s-.5,0-.7.3-.3.4-.5.8c0,.3-.2.7-.2,1.2s0,.8.2,1.2c0,.3.3.6.5.8s.4.3.7.3.5,0,.7-.3h0Z"/>
          <path class="st3" d="M83.8,102.4c-.3-.2-.6-.6-.7-1-.2-.4-.3-.9-.3-1.5s0-1.1.3-1.5.4-.8.7-1c.3-.2.7-.4,1.1-.4s.8,0,1.1.4c.3.2.6.6.7,1s.3.9.3,1.5,0,1.1-.3,1.5c-.2.4-.4.8-.7,1-.3.2-.7.4-1.1.4s-.8,0-1.1-.4ZM85.6,101.7c.2-.2.3-.4.5-.7s.2-.7.2-1.2,0-.8-.2-1.2-.3-.6-.5-.8c-.2-.2-.4-.3-.7-.3s-.5,0-.7.3-.3.4-.5.8c0,.3-.2.7-.2,1.2s0,.8.2,1.2c0,.3.3.6.5.8s.4.3.7.3.5,0,.7-.3h0Z"/>
        </g>
      </g>
      <g>
        <rect class="st10" x="228.8" y="112.7" width="56.9" height="98.9" rx="3" ry="3"/>
        <rect class="st10" x="170.7" y="106.2" width="55.1" height="105.4" rx="3" ry="3"/>
        <rect class="st10" x="110.5" y="102.9" width="57.2" height="108.7" rx="3" ry="3"/>
      </g>
    </g>
  </g>
  <polygon class="st0" points="289.4 117.5 510.6 363.2 509.8 363.9 289.4 117.5 289.4 117.5"/>
  <rect class="st9" x="210.7" y="157.7" width="280.4" height="198.8" rx="10.5" ry="10.5"/>
  <path class="st0" d="M289.5,117.6H106.2v-17.6h183.4v17.6h0ZM106.4,117.3h182.9v-17.1H106.4v17.1Z"/>
  <path class="st0" d="M212.4,352.6L106.3,117.5c-.7.6,109.4,235.6,106.1,235.1h0Z"/>
  <path class="st0" d="M484.5,158.2l-195.1-58.1c0,.9,197.5,56,195.1,58.1h0Z"/>
  <polygon class="st0" points="106.3 100.1 213.1 161.5 212.6 162.3 106.3 100.1 106.3 100.1"/>
  <g>
    <g>
      <rect class="st3" x="275.1" y="320.9" width=".5" height="6.4"/>
      <rect class="st3" x="335.2" y="320.9" width=".5" height="6.4"/>
      <rect class="st3" x="393.3" y="320.9" width=".5" height="6.4"/>
      <rect class="st3" x="453.3" y="320.9" width=".5" height="6.4"/>
      <g>
        <path class="st3" d="M272,336.9c-.3-.1-.5-.3-.7-.5s-.3-.5-.3-.8h.8c0,.1.1.3.2.4s.2.2.4.3c.2,0,.3.1.5.1s.4,0,.6-.2c.2-.1.3-.3.4-.4,0-.2.1-.4.1-.6s0-.5-.1-.6c0-.2-.2-.3-.4-.4-.2-.1-.4-.2-.6-.2h-.4c-.1,0-.3.1-.3.2,0,0-.2.2-.2.3h-.7l.2-3.1h3.1v.7h-2.5v1.6c0-.1,0-.2.2-.3.1,0,.3-.1.4-.2s.3,0,.5,0c.3,0,.6,0,.9.2s.5.4.6.7c.2.3.2.6.2,1s0,.7-.2,1-.4.5-.7.7-.6.3-1,.3-.6,0-.9-.2h-.1Z"/>
        <path class="st3" d="M276.5,336.7c-.3-.2-.6-.6-.7-1-.2-.4-.3-.9-.3-1.5s0-1.1.3-1.5.4-.8.7-1c.3-.2.7-.4,1.1-.4s.8.1,1.1.4c.3.2.6.6.7,1s.3.9.3,1.5,0,1.1-.3,1.5c-.2.4-.4.8-.7,1-.3.2-.7.4-1.1.4s-.8-.1-1.1-.4ZM278.3,336.1c.2-.2.3-.4.5-.7s.2-.7.2-1.2,0-.8-.2-1.2-.3-.6-.5-.8c-.2-.2-.4-.3-.7-.3s-.5,0-.7.3-.3.4-.5.8c-.1.3-.2.7-.2,1.2s0,.8.2,1.2c.1.3.3.6.5.8s.4.3.7.3.5,0,.7-.3h0Z"/>
      </g>
      <g>
        <path class="st3" d="M331.9,336.7c-.3-.2-.6-.6-.7-1s-.3-.9-.3-1.5,0-1.1.3-1.6c.2-.5.4-.8.7-1,.3-.2.7-.4,1.1-.4s.6,0,.8.2c.2.1.5.3.6.5.2.2.3.5.4.7h-.8c-.1-.2-.3-.4-.4-.5-.2-.1-.4-.2-.6-.2s-.5,0-.7.2-.4.4-.5.7c-.1.3-.2.7-.2,1.2h0c0-.2.2-.4.3-.5.2-.2.3-.3.5-.4.2,0,.4-.1.7-.1s.6,0,.9.3c.3.2.5.4.6.7s.2.6.2,1,0,.7-.3,1c-.2.3-.4.5-.7.7-.3.2-.6.3-1,.3s-.8-.1-1.1-.3h.2ZM333.7,336.2c.2-.1.3-.3.4-.4.1-.2.2-.4.2-.6s0-.5-.2-.7-.2-.3-.4-.5c-.2-.1-.4-.2-.6-.2s-.4,0-.6.2c-.2.1-.3.3-.4.5s-.2.4-.2.6,0,.5.2.6.2.3.4.5c.2.1.4.2.6.2s.4,0,.6-.2Z"/>
        <path class="st3" d="M336.7,336.7c-.3-.2-.6-.6-.7-1-.2-.4-.3-.9-.3-1.5s0-1.1.3-1.5.4-.8.7-1c.3-.2.7-.4,1.1-.4s.8.1,1.1.4c.3.2.6.6.7,1s.3.9.3,1.5,0,1.1-.3,1.5c-.2.4-.4.8-.7,1-.3.2-.7.4-1.1.4s-.8-.1-1.1-.4ZM338.5,336.1c.2-.2.3-.4.5-.7s.2-.7.2-1.2,0-.8-.2-1.2-.3-.6-.5-.8c-.2-.2-.4-.3-.7-.3s-.5,0-.7.3-.3.4-.5.8c-.1.3-.2.7-.2,1.2s0,.8.2,1.2c.1.3.3.6.5.8s.4.3.7.3.5,0,.7-.3h0Z"/>
      </g>
      <g>
        <path class="st3" d="M389.3,332.1v-.7h3.5v.7l-2.2,4.9h-.8l2.2-4.9h-2.7Z"/>
        <path class="st3" d="M394.3,336.7c-.3-.2-.6-.6-.7-1-.2-.4-.3-.9-.3-1.5s0-1.1.3-1.5.4-.8.7-1c.3-.2.7-.4,1.1-.4s.8.1,1.1.4.6.6.7,1c.2.4.3.9.3,1.5s0,1.1-.3,1.5c-.2.4-.4.8-.7,1s-.7.4-1.1.4-.8-.1-1.1-.4ZM396.1,336.1c.2-.2.3-.4.5-.7.1-.3.2-.7.2-1.2s0-.8-.2-1.2c-.1-.3-.3-.6-.5-.8-.2-.2-.4-.3-.7-.3s-.5,0-.7.3c-.2.2-.3.4-.5.8-.1.3-.2.7-.2,1.2s0,.8.2,1.2c.1.3.3.6.5.8.2.2.4.3.7.3s.5,0,.7-.3h0Z"/>
      </g>
      <g>
        <path class="st3" d="M450.1,336.9c-.3-.1-.5-.3-.7-.6-.2-.2-.2-.5-.2-.8s0-.4.1-.6c0-.2.2-.4.4-.5s.4-.2.6-.3c-.2,0-.3-.1-.5-.3s-.2-.3-.3-.4c0-.2-.1-.4-.1-.6s0-.6.2-.8c.1-.2.3-.4.6-.5.3-.1.6-.2.9-.2s.7,0,.9.2c.3.1.5.3.6.5s.2.5.2.8,0,.4-.1.6c0,.2-.2.3-.3.4-.1.1-.3.2-.5.2.2,0,.4.1.6.3s.3.3.4.5c0,.2.1.4.1.6,0,.3,0,.6-.2.8-.2.2-.4.4-.7.6-.3.1-.6.2-1,.2s-.7,0-1-.2h0ZM451.7,336.3c.2,0,.3-.2.4-.4,0-.2.1-.3.1-.5s0-.4-.1-.5c0-.2-.2-.3-.4-.4-.2,0-.4-.1-.6-.1s-.4,0-.6.1c-.2,0-.3.2-.4.4s-.2.3-.2.5,0,.4.1.5c0,.2.2.3.4.4.2,0,.4.1.6.1s.4,0,.6-.1h.1ZM451.6,333.7c.1,0,.3-.2.3-.3s.1-.3.1-.5,0-.3-.1-.5c0-.1-.2-.2-.3-.3-.1,0-.3-.1-.5-.1s-.4,0-.5.1c-.1,0-.3.2-.3.3s-.1.3-.1.5,0,.3.1.5c0,.1.2.2.4.3s.3.1.5.1.4,0,.5-.1h-.1Z"/>
        <path class="st3" d="M454.8,336.7c-.3-.2-.6-.6-.7-1-.2-.4-.3-.9-.3-1.5s0-1.1.3-1.5.4-.8.7-1,.7-.4,1.1-.4.8.1,1.1.4c.3.2.6.6.7,1,.2.4.3.9.3,1.5s0,1.1-.3,1.5c-.2.4-.4.8-.7,1-.3.2-.7.4-1.1.4s-.8-.1-1.1-.4ZM456.6,336.1c.2-.2.3-.4.5-.7.1-.3.2-.7.2-1.2s0-.8-.2-1.2c-.1-.3-.3-.6-.5-.8s-.4-.3-.7-.3-.5,0-.7.3c-.2.2-.3.4-.5.8-.1.3-.2.7-.2,1.2s0,.8.2,1.2c.1.3.3.6.5.8.2.2.4.3.7.3s.5,0,.7-.3h0Z"/>
      </g>
    </g>
    <g>
      <polygon class="st3" points="477.1 324.4 262 324.4 262 181.7 262.5 181.7 262.5 323.9 477.1 323.9 477.1 324.4"/>
      <polygon class="st3" points="260.2 183.3 260.6 183.7 262.2 181.9 263.9 183.7 264.3 183.3 262.2 181.1 260.2 183.3"/>
      <polygon class="st3" points="475.5 326.2 475.1 325.9 476.9 324.2 475.1 322.5 475.5 322.1 477.7 324.2 475.5 326.2"/>
    </g>
    <g>
      <g class="st7">
        <rect class="st3" x="257.7" y="298" width="220" height=".5"/>
      </g>
      <g class="st7">
        <rect class="st3" x="257.7" y="323.9" width="187.9" height=".5"/>
      </g>
      <g class="st7">
        <rect class="st3" x="475" y="289.2" width="2.7" height=".5"/>
      </g>
      <g class="st7">
        <rect class="st3" x="257.7" y="272.1" width="217.2" height=".5"/>
      </g>
      <g class="st7">
        <rect class="st3" x="257.7" y="246.2" width="220" height=".5"/>
      </g>
      <g class="st7">
        <rect class="st3" x="257.7" y="220.3" width="220" height=".5"/>
      </g>
      <g class="st7">
        <rect class="st3" x="257.7" y="195.6" width="220" height=".5"/>
      </g>
    </g>
    <g>
      <path class="st3" d="M235.6,325.4c-.3-.1-.5-.3-.7-.6-.2-.3-.3-.5-.3-.9h.8c0,.2,0,.4.2.5,0,.1.2.3.4.3s.4.1.6.1.4,0,.6-.1c.2,0,.3-.2.4-.4,0-.2.1-.4.1-.6s0-.4-.1-.6-.2-.3-.4-.4c-.2,0-.4-.1-.6-.1h-.7v-.6l1.5-1.4h-2.4v-.7h3.4v.7l-1.8,1.7v-.3c.4,0,.8,0,1,.2.3.1.5.4.7.6s.2.6.2.9,0,.7-.2.9c-.2.3-.4.5-.7.6s-.6.2-1,.2-.7,0-1-.2v.2Z"/>
      <path class="st3" d="M240.2,325.3c-.3-.2-.6-.6-.7-1-.2-.4-.3-.9-.3-1.5s0-1.1.3-1.5.4-.8.7-1,.7-.4,1.1-.4.8.1,1.1.4c.3.2.6.6.7,1s.3.9.3,1.5,0,1.1-.3,1.5c-.2.4-.4.8-.7,1s-.7.4-1.1.4-.8-.1-1.1-.4ZM242,324.6c.2-.2.3-.4.5-.7s.2-.7.2-1.2,0-.8-.2-1.2-.3-.6-.5-.8c-.2-.2-.4-.3-.7-.3s-.5,0-.7.3-.3.4-.5.8c-.1.3-.2.7-.2,1.2s0,.8.2,1.2c.1.3.3.6.5.8s.4.3.7.3.5,0,.7-.3h0Z"/>
      <path class="st3" d="M245.2,325.3c-.3-.2-.6-.6-.7-1-.2-.4-.3-.9-.3-1.5s0-1.1.3-1.5.4-.8.7-1,.7-.4,1.1-.4.8.1,1.1.4c.3.2.6.6.7,1s.3.9.3,1.5,0,1.1-.3,1.5c-.2.4-.4.8-.7,1s-.7.4-1.1.4-.8-.1-1.1-.4ZM247,324.6c.2-.2.3-.4.5-.7s.2-.7.2-1.2,0-.8-.2-1.2-.3-.6-.5-.8c-.2-.2-.4-.3-.7-.3s-.5,0-.7.3-.3.4-.5.8c-.1.3-.2.7-.2,1.2s0,.8.2,1.2c.1.3.3.6.5.8s.4.3.7.3.5,0,.7-.3h0Z"/>
      <path class="st3" d="M250.2,325.3c-.3-.2-.6-.6-.7-1-.2-.4-.3-.9-.3-1.5s0-1.1.3-1.5.4-.8.7-1,.7-.4,1.1-.4.8.1,1.1.4c.3.2.6.6.7,1s.3.9.3,1.5,0,1.1-.3,1.5c-.2.4-.4.8-.7,1s-.7.4-1.1.4-.8-.1-1.1-.4ZM252,324.6c.2-.2.3-.4.5-.7s.2-.7.2-1.2,0-.8-.2-1.2-.3-.6-.5-.8c-.2-.2-.4-.3-.7-.3s-.5,0-.7.3-.3.4-.5.8c-.1.3-.2.7-.2,1.2s0,.8.2,1.2c.1.3.3.6.5.8s.4.3.7.3.5,0,.7-.3h0Z"/>
    </g>
    <g>
      <path class="st3" d="M237.5,300.7c-.3-.1-.5-.3-.7-.6-.2-.3-.3-.5-.3-.9h.8c0,.2,0,.4.2.5,0,.1.2.3.4.3s.4.1.6.1.4,0,.6-.1c.2,0,.3-.2.4-.4,0-.2.1-.4.1-.6s0-.4-.1-.6-.2-.3-.4-.4c-.2,0-.4-.1-.6-.1h-.7v-.6l1.5-1.4h-2.4v-.7h3.4v.7l-1.8,1.7v-.3c.4,0,.8,0,1,.2.3.1.5.4.7.6s.2.6.2.9,0,.7-.2.9c-.2.3-.4.5-.7.6s-.6.2-1,.2-.7,0-1-.2v.2Z"/>
      <path class="st3" d="M242.3,296.6h-1.3v-.7h.7c.2,0,.4,0,.6-.2s.2-.3.2-.6h.6v5.7h-.8v-4.2h0Z"/>
      <path class="st3" d="M245.2,300.5c-.3-.2-.6-.6-.7-1-.2-.4-.3-.9-.3-1.5s0-1.1.3-1.5.4-.8.7-1,.7-.4,1.1-.4.8.1,1.1.4c.3.2.6.6.7,1s.3.9.3,1.5,0,1.1-.3,1.5c-.2.4-.4.8-.7,1s-.7.4-1.1.4-.8-.1-1.1-.4ZM247,299.9c.2-.2.3-.4.5-.7s.2-.7.2-1.2,0-.8-.2-1.2-.3-.6-.5-.8c-.2-.2-.4-.3-.7-.3s-.5,0-.7.3-.3.4-.5.8c-.1.3-.2.7-.2,1.2s0,.8.2,1.2c.1.3.3.6.5.8s.4.3.7.3.5,0,.7-.3h0Z"/>
      <path class="st3" d="M250.2,300.5c-.3-.2-.6-.6-.7-1-.2-.4-.3-.9-.3-1.5s0-1.1.3-1.5.4-.8.7-1,.7-.4,1.1-.4.8.1,1.1.4c.3.2.6.6.7,1s.3.9.3,1.5,0,1.1-.3,1.5c-.2.4-.4.8-.7,1s-.7.4-1.1.4-.8-.1-1.1-.4ZM252,299.9c.2-.2.3-.4.5-.7s.2-.7.2-1.2,0-.8-.2-1.2-.3-.6-.5-.8c-.2-.2-.4-.3-.7-.3s-.5,0-.7.3-.3.4-.5.8c-.1.3-.2.7-.2,1.2s0,.8.2,1.2c.1.3.3.6.5.8s.4.3.7.3.5,0,.7-.3h0Z"/>
    </g>
    <g>
      <path class="st3" d="M236.2,274.7c-.3-.1-.5-.3-.7-.6-.2-.3-.3-.5-.3-.9h.8c0,.2,0,.4.2.5,0,.1.2.3.4.3s.4.1.6.1.4,0,.6-.1c.2,0,.3-.2.4-.4,0-.2.1-.4.1-.6s0-.4-.1-.6-.2-.3-.4-.4c-.2,0-.4-.1-.6-.1h-.7v-.6l1.5-1.4h-2.4v-.7h3.4v.7l-1.8,1.7v-.3c.4,0,.8,0,1,.2.3.1.5.4.7.6s.2.6.2.9,0,.7-.2.9c-.2.3-.4.5-.7.6s-.6.2-1,.2-.7,0-1-.2v.2Z"/>
      <path class="st3" d="M239.8,274.2l2.2-2.1c.2-.2.4-.4.4-.6s.1-.4.1-.6,0-.4-.1-.5c0-.2-.2-.3-.4-.4s-.3-.1-.5-.1-.4,0-.6.1c-.2.1-.3.2-.4.4,0,.2-.1.4-.1.6h-.8c0-.4,0-.7.2-1s.4-.5.7-.7.6-.2,1-.2.6,0,.9.2c.3.1.5.3.6.6s.2.5.2.9,0,.6-.2.9-.4.6-.7.9l-1.5,1.5h2.6v.7h-3.7v-.7h.1Z"/>
      <path class="st3" d="M245.2,274.6c-.3-.2-.6-.6-.7-1-.2-.4-.3-.9-.3-1.5s0-1.1.3-1.5.4-.8.7-1,.7-.4,1.1-.4.8.1,1.1.4c.3.2.6.6.7,1s.3.9.3,1.5,0,1.1-.3,1.5c-.2.4-.4.8-.7,1s-.7.4-1.1.4-.8-.1-1.1-.4ZM247,274c.2-.2.3-.4.5-.7s.2-.7.2-1.2,0-.8-.2-1.2-.3-.6-.5-.8c-.2-.2-.4-.3-.7-.3s-.5,0-.7.3-.3.4-.5.8c-.1.3-.2.7-.2,1.2s0,.8.2,1.2c.1.3.3.6.5.8s.4.3.7.3.5,0,.7-.3h0Z"/>
      <path class="st3" d="M250.2,274.6c-.3-.2-.6-.6-.7-1-.2-.4-.3-.9-.3-1.5s0-1.1.3-1.5.4-.8.7-1,.7-.4,1.1-.4.8.1,1.1.4c.3.2.6.6.7,1s.3.9.3,1.5,0,1.1-.3,1.5c-.2.4-.4.8-.7,1s-.7.4-1.1.4-.8-.1-1.1-.4ZM252,274c.2-.2.3-.4.5-.7s.2-.7.2-1.2,0-.8-.2-1.2-.3-.6-.5-.8c-.2-.2-.4-.3-.7-.3s-.5,0-.7.3-.3.4-.5.8c-.1.3-.2.7-.2,1.2s0,.8.2,1.2c.1.3.3.6.5.8s.4.3.7.3.5,0,.7-.3h0Z"/>
    </g>
    <g>
      <path class="st3" d="M236.2,248.6c-.3-.1-.5-.3-.7-.6s-.3-.5-.3-.9h.8c0,.2,0,.4.2.5,0,.1.2.3.4.3s.4.1.6.1.4,0,.6-.1c.2,0,.3-.2.4-.4,0-.2.1-.4.1-.6s0-.4-.1-.6-.2-.3-.4-.4c-.2,0-.4-.1-.6-.1h-.7v-.6l1.5-1.4h-2.4v-.7h3.4v.7l-1.8,1.7v-.3c.4,0,.8,0,1,.2.3.1.5.4.7.6s.2.6.2.9,0,.7-.2.9c-.2.3-.4.5-.7.6s-.6.2-1,.2-.7,0-1-.2v.2Z"/>
      <path class="st3" d="M240.6,248.6c-.3-.1-.5-.3-.7-.6s-.3-.5-.3-.9h.8c0,.2,0,.4.2.5,0,.1.2.3.4.3s.4.1.6.1.4,0,.6-.1c.2,0,.3-.2.4-.4,0-.2.1-.4.1-.6s0-.4-.1-.6-.2-.3-.4-.4c-.2,0-.4-.1-.6-.1h-.7v-.6l1.5-1.4h-2.4v-.7h3.4v.7l-1.8,1.7v-.3c.4,0,.8,0,1,.2.3.1.5.4.7.6s.2.6.2.9,0,.7-.2.9c-.2.3-.4.5-.7.6s-.6.2-1,.2-.7,0-1-.2v.2Z"/>
      <path class="st3" d="M245.2,248.5c-.3-.2-.6-.6-.7-1-.2-.4-.3-.9-.3-1.5s0-1.1.3-1.5.4-.8.7-1,.7-.4,1.1-.4.8.1,1.1.4c.3.2.6.6.7,1s.3.9.3,1.5,0,1.1-.3,1.5c-.2.4-.4.8-.7,1s-.7.4-1.1.4-.8-.1-1.1-.4ZM247,247.8c.2-.2.3-.4.5-.7s.2-.7.2-1.2,0-.8-.2-1.2-.3-.6-.5-.8-.4-.3-.7-.3-.5,0-.7.3-.3.4-.5.8c-.1.3-.2.7-.2,1.2s0,.8.2,1.2c.1.3.3.6.5.8s.4.3.7.3.5,0,.7-.3h0Z"/>
      <path class="st3" d="M250.2,248.5c-.3-.2-.6-.6-.7-1-.2-.4-.3-.9-.3-1.5s0-1.1.3-1.5.4-.8.7-1,.7-.4,1.1-.4.8.1,1.1.4c.3.2.6.6.7,1s.3.9.3,1.5,0,1.1-.3,1.5c-.2.4-.4.8-.7,1s-.7.4-1.1.4-.8-.1-1.1-.4ZM252,247.8c.2-.2.3-.4.5-.7s.2-.7.2-1.2,0-.8-.2-1.2-.3-.6-.5-.8-.4-.3-.7-.3-.5,0-.7.3-.3.4-.5.8c-.1.3-.2.7-.2,1.2s0,.8.2,1.2c.1.3.3.6.5.8s.4.3.7.3.5,0,.7-.3h0Z"/>
    </g>
    <g>
      <path class="st3" d="M235.9,222.9c-.3-.1-.5-.3-.7-.6s-.3-.5-.3-.9h.8c0,.2,0,.4.2.5,0,.1.2.3.4.3s.4.1.6.1.4,0,.6-.1c.2,0,.3-.2.4-.4,0-.2.1-.4.1-.6s0-.4-.1-.6-.2-.3-.4-.4c-.2,0-.4-.1-.6-.1h-.7v-.6l1.5-1.4h-2.4v-.7h3.4v.7l-1.8,1.7v-.3c.4,0,.8,0,1,.2.3.1.5.4.7.6s.2.6.2.9,0,.7-.2.9c-.2.3-.4.5-.7.6s-.6.2-1,.2-.7,0-1-.2v.2Z"/>
      <path class="st3" d="M242,221.7h-2.7v-.7l2.4-3.6h.7c0,.1-2.2,3.5-2.2,3.5h1.9v-3.5h.7v3.5h.8v.7h-.8v1.3h-.8v-1.3h0Z"/>
      <path class="st3" d="M245.2,222.8c-.3-.2-.6-.6-.7-1-.2-.4-.3-.9-.3-1.5s0-1.1.3-1.5.4-.8.7-1,.7-.4,1.1-.4.8.1,1.1.4c.3.2.6.6.7,1s.3.9.3,1.5,0,1.1-.3,1.5c-.2.4-.4.8-.7,1s-.7.4-1.1.4-.8-.1-1.1-.4ZM247,222.2c.2-.2.3-.4.5-.7s.2-.7.2-1.2,0-.8-.2-1.2-.3-.6-.5-.8-.4-.3-.7-.3-.5,0-.7.3-.3.4-.5.8c-.1.3-.2.7-.2,1.2s0,.8.2,1.2c.1.3.3.6.5.8s.4.3.7.3.5,0,.7-.3h0Z"/>
      <path class="st3" d="M250.2,222.8c-.3-.2-.6-.6-.7-1-.2-.4-.3-.9-.3-1.5s0-1.1.3-1.5.4-.8.7-1,.7-.4,1.1-.4.8.1,1.1.4c.3.2.6.6.7,1s.3.9.3,1.5,0,1.1-.3,1.5c-.2.4-.4.8-.7,1s-.7.4-1.1.4-.8-.1-1.1-.4ZM252,222.2c.2-.2.3-.4.5-.7s.2-.7.2-1.2,0-.8-.2-1.2-.3-.6-.5-.8-.4-.3-.7-.3-.5,0-.7.3-.3.4-.5.8c-.1.3-.2.7-.2,1.2s0,.8.2,1.2c.1.3.3.6.5.8s.4.3.7.3.5,0,.7-.3h0Z"/>
    </g>
    <g>
      <path class="st3" d="M236,198.2c-.3-.1-.5-.3-.7-.6s-.3-.5-.3-.9h.8c0,.2,0,.4.2.5,0,.1.2.3.4.3s.4.1.6.1.4,0,.6-.1c.2,0,.3-.2.4-.4,0-.2.1-.4.1-.6s0-.4-.1-.6-.2-.3-.4-.4c-.2,0-.4-.1-.6-.1h-.7v-.6l1.5-1.4h-2.4v-.7h3.4v.7l-1.8,1.7v-.3c.4,0,.8,0,1,.2.3.1.5.4.7.6s.2.6.2.9,0,.7-.2.9c-.2.3-.4.5-.7.6s-.6.2-1,.2-.7,0-1-.2v.2Z"/>
      <path class="st3" d="M240.7,198.2c-.3-.1-.5-.3-.7-.5s-.3-.5-.3-.8h.8c0,.1.1.3.2.4s.2.2.4.3c.2,0,.3.1.5.1s.4,0,.6-.2c.2-.1.3-.3.4-.4,0-.2.1-.4.1-.6s0-.5-.1-.6c0-.2-.2-.3-.4-.4-.2-.1-.4-.2-.6-.2h-.4c-.1,0-.3.1-.3.2,0,0-.2.2-.2.3h-.7l.2-3.1h3.1v.7h-2.5v1.6c0-.1,0-.2.2-.3.1,0,.3-.1.4-.2s.3,0,.5,0c.3,0,.6,0,.9.2s.5.4.6.7c.2.3.2.6.2,1s0,.7-.2,1-.4.5-.7.7-.6.3-1,.3-.6,0-.9-.2h-.1Z"/>
      <path class="st3" d="M245.2,198.1c-.3-.2-.6-.6-.7-1-.2-.4-.3-.9-.3-1.5s0-1.1.3-1.5.4-.8.7-1,.7-.4,1.1-.4.8.1,1.1.4c.3.2.6.6.7,1s.3.9.3,1.5,0,1.1-.3,1.5c-.2.4-.4.8-.7,1s-.7.4-1.1.4-.8-.1-1.1-.4ZM247,197.5c.2-.2.3-.4.5-.7s.2-.7.2-1.2,0-.8-.2-1.2-.3-.6-.5-.8-.4-.3-.7-.3-.5,0-.7.3-.3.4-.5.8c-.1.3-.2.7-.2,1.2s0,.8.2,1.2c.1.3.3.6.5.8s.4.3.7.3.5,0,.7-.3h0Z"/>
      <path class="st3" d="M250.2,198.1c-.3-.2-.6-.6-.7-1-.2-.4-.3-.9-.3-1.5s0-1.1.3-1.5.4-.8.7-1,.7-.4,1.1-.4.8.1,1.1.4c.3.2.6.6.7,1s.3.9.3,1.5,0,1.1-.3,1.5c-.2.4-.4.8-.7,1s-.7.4-1.1.4-.8-.1-1.1-.4ZM252,197.5c.2-.2.3-.4.5-.7s.2-.7.2-1.2,0-.8-.2-1.2-.3-.6-.5-.8-.4-.3-.7-.3-.5,0-.7.3-.3.4-.5.8c-.1.3-.2.7-.2,1.2s0,.8.2,1.2c.1.3.3.6.5.8s.4.3.7.3.5,0,.7-.3h0Z"/>
    </g>
    <g>
      <rect class="st10" x="395.1" y="282.5" width="56.9" height="31.7" rx="3" ry="3"/>
      <rect class="st10" x="337" y="226.1" width="55.1" height="88.1" rx="3" ry="3"/>
      <rect class="st10" x="276.8" y="207.5" width="57.2" height="106.7" rx="3" ry="3"/>
    </g>
  </g>
  <path class="st4" d="M369.4,368.2l-55.2-8.6-1.8-3.9c-1.4-2.9-3.1-5.7-5.3-8.1-1.9-2-4.3-6-5.2-13.4-.5-4.2-2.6-10.7-9.4-9-1.6.4-5,2.2-6.2,8.1-1,4.8.9,9.4.9,12.3,0,5.5-6.1,8-13.9,9.3-12.3,2.1-20,2.2-20,2.2,1.6,5.2,7,7.3,11.1,7.6,0,0-2.6,9.8,4.9,14.7,4.7,3.1,26.4,11.1,41.8,16.7s20.6,6.8,31.1,9.4l27-37.2h.2Z"/>
  <path class="st2" d="M468.9,157.2l8.5.3c2.5,0,4.3,2.4,3.8,4.9l-3.7,17.3,13.6-9.6,6.9-12.6-5.7-8.6c-2-3.1-5.8-4.5-9.3-3.4-5.8,1.7-13.5,4.8-14.1,11.8h0Z"/>
  <path class="st4" d="M490.7,272.4l-.4-64.5-3.9-1.7c-3-1.3-5.8-2.9-8.3-5-2.1-1.8-6.1-4.1-13.6-4.7-4.2-.4-10.8-2.3-9.2-9.1.4-1.6,1.5-4.3,7.9-6.5,4.7-1.5,9.6-.3,12.3.5s1.5,0,1.7-.7c2.1-6.9,3.8-7.1,5.6-11.5s2.4-21.6,2.4-21.6c5.2,1.5,8.1,6.4,8.5,10.5,0,0,9.7-2.9,14.8,4.4,3.2,4.6,12,26,18,41.2,4,10.1,7.5,20.4,10.4,30.8l-46.3,37.8h0Z"/>
  <g>
    <path class="st1" d="M477,311.5c-9.3.6-30.1,16-42.6,41.1-7.2,14.4-8.9,47.4-9.3,62.8-.1,4.5,3.5,8.2,8,8.2h88.8c6.5,0,12.3-3.9,14.8-9.9l14.3-34.9s18.9-44.1-7.9-63.8l-66.2-3.4h.1Z"/>
    <path class="st4" d="M393.5,352.1l-24.1,16.1-52.9,29.6,43.9,13.4c14.2,4.3,29.5,2.9,42.6-4.1l15.3-8.1-24.8-46.9Z"/>
    <path class="st3" d="M475.4,311.7s-18.6-6.5-47.6,13.3l-52.2,31.1c-4.2,2.5-6.6,7.2-6.1,12,1.4,15.4,9.5,47.4,51.9,51.4,20.6,1.9,49.8-41.8,49.8-41.8l4.4-66.1h-.2Z"/>
    <path class="st4" d="M522.8,255.7l-.3-10.6c-.2-6-3.5-11.5-8.8-14.3l-10.4-5.6v-.7c.1,0-1.1.1-1.1.1l-1.1-.6v.7c-.1,0-3.5-.2-3.5-.2-2.1.2,5.2-1.1,3.3.2-2.3,1.7-9.9,4-15.5,13.1-.8,1.3-6.8,8.1-6.8,8.1-4,2.5-7.5,5.3-10.2,8.1-2.6,2.7,2.2,7,4.1,7.8l-1.9,5s-1.8,4.3-2.5,6.1-2.7,14.1-2.1,16.5c1,3.6,5.5,7.2,9.2,6.6,7.3-1.2,22.5-11,22.5-11,4.5-2.1,4.7-2.5,5.9-5.9l17.8-15c1-2.7,1.5-5.5,1.5-8.4h-.1Z"/>
    <path class="st5" d="M491.5,226.5s5.9,11.1,9.3,16.8,2.5,12.7,4.4,13.8h0l20.7,22.2s8.1-26.7,6.5-30.1c-1.6-3.4-23.3-19.1-40.9-22.8h0Z"/>
    <path class="st5" d="M470.6,266.7c-.4,0-3.2.4-6.2,1s-3,2.3-1.9,3.4l1.8.9c.5.2.7.8.6,1.3-.5,1.8-1,3.2.5,4.1.8.5,1.6.9,1.8,0,1.5-6.4,3.5-10.7,3.5-10.7h0Z"/>
    <line class="st8" x1="490.7" y1="250.9" x2="509.4" y2="257.8"/>
    <path class="st5" d="M541.5,269.6c1.2,7,7.8,16.6,13.5,23.7,5.6,7,4.4,17.5-2.5,23.3s-6,4.2-7.8,3.9l-43.8,5.3h0c-13.1.7-39.9-5.1-29-29.4,2.3-5.1,3.9-10.5,4.6-16,.8-6.5,2-14.5,3.5-17.9,6.6-15.2,15.1-23.2,15.1-23.2l17.8,12.2,17.7-7.5,10.8,25.7h0Z"/>
    <path class="st0" d="M514.8,213l-11.5,8.5c-6.8-2.3-13-3.4-19.9-5-15.2-3.4-19.3-.9-14.4,4.3,0,0,42.3,30.9,72.5,48.8l10.4-15.6c2.5-3.7,2.1-8.6-1-11.9l-26.7-28.3c-2.4-2.6-6.4-3-9.3-.8h-.1Z"/>
    <path d="M472.5,256.4c-.2,0-.4,0-.6-.2-.5-.3-.6-.9-.3-1.4l12.1-18.3c.3-.5.9-.6,1.4-.3s.6.9.3,1.4l-12.1,18.3c-.2.3-.5.4-.8.4h0Z"/>
    <path d="M486.6,251h-.4l-8.7-4.2c-.5-.2-.7-.8-.5-1.3s.8-.7,1.3-.5l8.7,4.2c.5.2.7.8.5,1.3-.2.4-.5.6-.9.6h0Z"/>
  </g>
</svg>