<?xml version="1.0" encoding="UTF-8"?>
<svg id="Layer_1" xmlns="http://www.w3.org/2000/svg" xmlns:xlink="http://www.w3.org/1999/xlink" version="1.1" viewBox="0 0 616.9 467.1">
  <!-- Generator: Adobe Illustrator 30.0.0, SVG Export Plug-In . SVG Version: 2.1.1 Build 123)  -->
  <defs>
    <style>
      .st0 {
        fill: #21d789;
      }

      .st1 {
        fill: url(#linear-gradient1);
      }

      .st2 {
        fill: url(#linear-gradient);
      }

      .st3 {
        fill: #fff;
      }

      .st4 {
        fill: #efc2a6;
      }

      .st5 {
        fill: #c08355;
      }

      .st6 {
        opacity: .4;
      }

      .st7 {
        opacity: .5;
      }

      .st8 {
        opacity: .2;
      }

      .st9 {
        fill: none;
        stroke: #000;
        stroke-miterlimit: 10;
        stroke-width: 2px;
      }

      .st10 {
        fill: #6b57ff;
      }
    </style>
    <linearGradient id="linear-gradient" x1="-1505.1" y1="164.6" x2="-1483.4" y2="129" gradientTransform="translate(-1140.4 709.2) rotate(168.5)" gradientUnits="userSpaceOnUse">
      <stop offset="0" stop-color="#b78a6d"/>
      <stop offset="0" stop-color="#c4977a"/>
      <stop offset=".4" stop-color="#dbae92"/>
      <stop offset=".6" stop-color="#eabda0"/>
      <stop offset=".8" stop-color="#efc2a6"/>
    </linearGradient>
    <linearGradient id="linear-gradient1" x1="282.4" y1="148.5" x2="365" y2="80.1" gradientTransform="translate(0 470) scale(1 -1)" gradientUnits="userSpaceOnUse">
      <stop offset=".6" stop-color="#fff"/>
      <stop offset=".7" stop-color="#f8f8f8"/>
      <stop offset=".8" stop-color="#e5e5e5"/>
      <stop offset="1" stop-color="#c6c6c6"/>
      <stop offset="1" stop-color="#bfbfbf"/>
    </linearGradient>
  </defs>
  <g>
    <polygon class="st4" points="351.9 286.6 300.4 333.8 342.9 350.8 389 291.2 351.9 286.6"/>
    <path class="st4" d="M389,291.2s11.9-17.9,7.3-29.9c-3.3-8.2-34.1-4.9-34.1-4.9l-8.5,10.1.7,30.8,34.6-6.1Z"/>
  </g>
  <path d="M537.1,325.4l-208.7-81.3c-11.1-4.3-18.5-15.1-18.5-27V54.7c0-7.1,7.1-11.9,13.7-9.3l218.6,85.2c10,3.9,16.6,13.5,16.6,24.2v155.7c0,11.2-11.3,18.9-21.7,14.9h0Z"/>
  <g class="st6">
    <path class="st3" d="M321.5,220.8c-.3-.4-.5-.8-.7-1.3s-.2-1.1-.2-1.6,0-1.1.2-1.4c.2-.4.4-.6.7-.7s.6,0,1,.1c.4.2.7.4,1,.8.3.4.5.8.7,1.3s.2,1.1.2,1.6,0,1-.2,1.4-.4.6-.7.7c-.3.1-.6,0-1-.1-.4-.2-.7-.4-1-.8ZM323.2,221c.2,0,.3-.3.4-.6,0-.3.1-.6.1-1.1s0-.9-.1-1.2c0-.4-.2-.7-.4-.9s-.4-.4-.6-.6c-.2-.1-.5-.1-.6,0-.2,0-.3.3-.4.6,0,.3-.1.6-.1,1.1s0,.9.1,1.2c0,.4.2.7.4.9.2.3.4.4.6.6.2.1.5.1.6,0Z"/>
  </g>
  <path class="st4" d="M366.8,278.1s-7.7-18.6-9.1-22.5c-1.9-5.1-8.5-10.7-13.7-5.3-1.3,1.3-.2,6.9.2,8.8s.2.9.2,1.3l1.2,13.1c3.9,22.1,17.3,21.1,18.3,22.1l2.8-17.6h.1Z"/>
  <path class="st2" d="M272.9,271l.3-6.2c5,.2,7.3-15.4,11.8-17.6l32.4,19-22.4,33.6-17.1,1.3-5.1-30.1h.1Z"/>
  <path class="st4" d="M275.2,227.8l.3-10.6c.2-6,3.5-11.5,8.8-14.3l10.4-5.6v-.7c-.1,0,1.1.1,1.1.1l1.1-.6v.7c.1,0,3.5-.2,3.5-.2,2.1.2-5.2-1.1-3.3.2,2.3,1.7,9.9,4,15.5,13.1.8,1.3,6.8,8.1,6.8,8.1,4,2.5,7.5,5.3,10.2,8.1s-2.2,7-4.1,7.8l1.9,5s1.8,4.3,2.5,6.1c.6,1.4,2.7,14.1,2.1,16.5-1,3.6-5.5,7.2-9.2,6.6-7.3-1.2-22.5-11-22.5-11-4.5-2.1-4.7-2.5-5.9-5.9l-17.8-15c-1-2.7-1.5-5.5-1.5-8.4h.1Z"/>
  <path class="st5" d="M306.5,198.6s-5.9,11.1-9.3,16.8c-1.1,1.9-2.5,12.7-4.4,13.8h0l-20.7,22.2s-8.1-26.7-6.5-30.1c1.6-3.4,23.3-19.1,40.9-22.8h0Z"/>
  <path class="st5" d="M327.4,238.9c.4,0,3.2.4,6.2,1,2.3.5,3,2.3,1.9,3.4l-1.8.9c-.5.2-.7.8-.6,1.3.5,1.8,1,3.2-.5,4.1-.8.5-1.6.9-1.8,0-1.5-6.4-3.5-10.7-3.5-10.7h0Z"/>
  <g>
    <path d="M296.6,266.2l-146.7,83.8c-8.3,4.7-18.2,5.3-27,1.6l-83.3-42.2c-8.8-3.7-9.5-15.8-1.2-20.5l140.8-82.5c12.3-7,27.2-7.9,40.3-2.5l75.7,38.9c10,4.1,10.8,18,1.4,23.3h0Z"/>
    <g class="st7">
      <path class="st3" d="M128.4,338.3s-.2,0-.2-.1v-.3l168.8-95.6h.3v.3l-168.8,95.6h-.1,0Z"/>
      <polygon class="st3" points="296.8 245.1 296.3 244.9 297.1 242.6 294.7 242 294.8 241.5 297.7 242.2 296.8 245.1"/>
    </g>
    <g class="st6">
      <path class="st3" d="M164.6,331.3h-1.6c-.6,0-1.1-.2-1.6-.5-.5-.2-.9-.5-1.2-.7-.3-.3-.4-.5-.3-.8s.3-.5.6-.7c.4-.2.8-.3,1.3-.4h1.6c.6,0,1.1.2,1.6.5.5.2.9.5,1.2.7.3.3.4.5.3.7,0,.2-.3.5-.6.7-.4.2-.8.3-1.3.4h0ZM165.6,330.2c0-.2,0-.3-.3-.5-.2-.2-.5-.3-.9-.5s-.8-.3-1.2-.4-.8,0-1.1,0-.6.1-.9.2c-.2.1-.4.3-.4.4,0,.2,0,.3.3.5.2.2.5.4.9.5s.8.3,1.2.4h1.1c.3,0,.6-.1.8-.2s.4-.3.4-.4h0Z"/>
    </g>
    <g class="st6">
      <path class="st3" d="M189.3,317.5c-.4,0-.8.1-1.1.1s-.7,0-1-.2l.7-.4c.2,0,.4.1.6.1h.7c.2,0,.4-.1.6-.2.2-.1.3-.2.4-.3v-.3c0-.1-.2-.2-.4-.3-.2,0-.4-.1-.7-.1h-.7c-.2,0-.4.1-.6.2l-.6.3-.6-.2v-1.3l-2.1,1.2-.7-.3,2.9-1.7.6.3v1.5h-.2c.3-.3.7-.4,1.1-.5.4,0,.8-.1,1.2,0,.4,0,.7.1,1.1.2.3.1.5.3.6.5s.1.4,0,.6-.3.4-.7.6c-.3.2-.7.3-1,.4v-.2Z"/>
    </g>
    <g class="st6">
      <path class="st3" d="M213.8,303.5h-1.5c-.5,0-1.1-.2-1.6-.4-.6-.2-1-.5-1.2-.7-.3-.3-.4-.5-.3-.8,0-.3.3-.5.6-.7.3-.1.5-.3.9-.3s.7-.1,1-.1h1l-.7.4h-.8c-.3,0-.5.1-.7.2s-.4.3-.4.4,0,.3.2.5.5.4,1,.6h0c-.1-.1-.2-.2-.2-.4s0-.3.1-.4.3-.3.5-.4c.3-.2.6-.3,1-.4h1.2c.4,0,.8.1,1.1.3.3.1.6.3.7.5.1.2.1.4,0,.6s-.3.4-.6.6c-.4.2-.8.3-1.3.4h0ZM214.8,302.4v-.4c0-.1-.2-.2-.5-.3-.2,0-.5-.1-.7-.2h-.8c-.3,0-.5.1-.7.2s-.3.2-.4.4v.4c0,.1.2.2.5.3.2,0,.5.1.7.2h.8c.3,0,.5-.1.7-.2s.3-.2.4-.4Z"/>
    </g>
    <g class="st6">
      <path class="st3" d="M235.5,286.6h1.5c.5,0,1.1.2,1.6.4.6.2,1,.5,1.2.7.3.3.4.5.3.8s-.3.5-.6.7c-.2.1-.5.2-.8.3-.3,0-.6.1-1,.2h-1.1l.7-.4h.9c.3,0,.5-.1.7-.3.2-.1.4-.3.4-.4s0-.3-.2-.5-.5-.4-1-.6h0c.1.1.2.2.2.4s0,.3-.2.4c-.1.1-.3.3-.5.4-.3.2-.6.3-1,.4s-.8,0-1.2,0-.8-.1-1.1-.3c-.3-.1-.6-.3-.7-.5-.1-.2-.1-.4,0-.6s.3-.4.7-.6.8-.3,1.3-.4h0ZM234.4,287.6v.4c0,.1.2.2.4.3.2,0,.5.1.7.2h.8c.3,0,.5-.1.7-.2s.3-.2.4-.4v-.4c0-.1-.2-.2-.5-.3-.2,0-.5-.1-.7-.2h-.8c-.3,0-.5.1-.7.2s-.3.2-.4.4h.1Z"/>
    </g>
    <g class="st6">
      <g>
        <path class="st3" d="M258.3,274.7l-1.1.6-.7-.3.6-.3c.2-.1.3-.2.3-.4s-.1-.2-.4-.3h0l.5-.3,5.2,2.2-.7.4-3.8-1.6h.1Z"/>
        <path class="st3" d="M263.2,275.1v-1.9c0-.2-.1-.3-.2-.4s-.2-.2-.4-.3c-.2,0-.4-.1-.6-.1h-.6c-.2,0-.4.1-.6.2s-.3.2-.4.3v.4c0,.1.2.2.4.3l-.7.4c-.3-.1-.5-.3-.7-.5-.1-.2-.1-.4,0-.6s.3-.4.6-.6c.3-.2.6-.3,1-.4.4,0,.7-.1,1.1,0,.4,0,.7,0,1,.2.3.1.5.3.6.5s.2.4.2.7v1.3l2.3-1.3.7.3-3.2,1.8-.6-.3h.1Z"/>
      </g>
    </g>
    <g class="st6">
      <g>
        <path class="st3" d="M282.8,260.9l-1.1.6-.7-.3.6-.3c.2-.1.3-.2.3-.4s-.1-.2-.4-.3h0l.5-.3,5.2,2.2-.7.4-3.8-1.6h.1Z"/>
        <path class="st3" d="M289.2,260.9c-.4,0-.7.1-1.1.1s-.7,0-1-.1l.7-.4h1.2c.2,0,.4-.1.5-.2.2-.1.3-.2.4-.3v-.4c0-.1-.2-.2-.5-.3-.2,0-.5-.1-.7-.2h-.8c-.2,0-.5.1-.7.2-.1,0-.2.2-.3.2v.2c-.1,0-.1.2-.1.2l-.6.4-2.6-1.3,2.7-1.5.7.3-2.2,1.2,1.4.7v-.2s0-.2.2-.3l.3-.3c.3-.2.6-.3,1-.3h1.2c.4,0,.8.1,1.1.3.3.1.6.3.7.5s.2.4,0,.6c0,.2-.3.4-.6.6-.3.2-.6.3-1,.4h0Z"/>
      </g>
    </g>
    <g class="st7">
      <path class="st3" d="M155.5,326.8h0l-7.7-3.2c-.1,0-.2-.2-.1-.3,0-.1.2-.2.3-.1l7.7,3.2c.1,0,.2.2.1.3,0,0-.1.2-.2.2h-.1Z"/>
    </g>
    <g class="st7">
      <path class="st3" d="M180,312.9h0l-7.7-3.2c-.1,0-.2-.2-.1-.3,0-.1.2-.2.3-.1l7.7,3.2c.1,0,.2.2.1.3,0,0-.1.2-.2.2h-.1Z"/>
    </g>
    <g class="st7">
      <path class="st3" d="M204.6,298.9h0l-7.7-3.2c-.1,0-.2-.2-.1-.3,0-.1.2-.2.3-.1l7.7,3.2c.1,0,.2.2.1.3,0,0-.1.2-.2.2h-.1Z"/>
    </g>
    <g class="st7">
      <path class="st3" d="M229.2,285h0l-7.7-3.2c-.1,0-.2-.2-.1-.3,0-.1.2-.2.3-.1l7.7,3.2c.1,0,.2.2.1.3,0,0-.1.2-.2.2h-.1Z"/>
    </g>
    <g class="st7">
      <path class="st3" d="M253.8,271.1h0l-7.7-3.2c-.1,0-.2-.2-.1-.3,0-.1.2-.2.3-.1l7.7,3.2c.1,0,.2.2.1.3,0,0-.1.2-.2.2h-.1Z"/>
    </g>
    <g class="st7">
      <path class="st3" d="M278.4,257.2h0l-7.7-3.2c-.1,0-.2-.2-.1-.3,0-.1.2-.2.3-.1l7.7,3.2c.1,0,.2.2.1.3,0,0-.1.2-.2.2h0Z"/>
    </g>
    <path class="st10" d="M80.5,291.3c2.8,1.1,2.8,3.3,0,4.8-2.7,1.5-7.1,1.8-9.9.7-2.8-1.1-2.8-3.3,0-4.8,2.7-1.5,7.1-1.8,9.9-.7Z"/>
    <path class="st10" d="M101.9,291.5c2.8,1.1,2.8,3.3,0,4.8-2.7,1.5-7.1,1.8-9.9.7s-2.8-3.3,0-4.8c2.7-1.5,7.1-1.8,9.9-.7Z"/>
    <path class="st10" d="M106.3,302.1c2.8,1.1,2.8,3.3,0,4.8-2.7,1.5-7.1,1.8-9.9.7-2.8-1.1-2.8-3.3,0-4.8s7.1-1.8,9.9-.7Z"/>
    <path class="st10" d="M133.1,301.1c2.8,1.1,2.8,3.3.1,4.8s-7.1,1.8-9.9.7c-2.8-1.1-2.8-3.3,0-4.8,2.7-1.5,7.1-1.8,9.9-.7Z"/>
    <path class="st10" d="M134.2,288.2c2.8,1.1,2.8,3.3.1,4.8s-7.1,1.8-9.9.7c-2.8-1.1-2.8-3.3,0-4.8,2.7-1.5,7.1-1.8,9.9-.7Z"/>
    <path class="st10" d="M123.9,276.6c2.8,1.1,2.8,3.3,0,4.8-2.7,1.5-7.1,1.8-9.9.7-2.8-1.1-2.8-3.3,0-4.8,2.7-1.5,7.1-1.8,9.9-.7Z"/>
    <path class="st10" d="M123.1,262.3c2.8,1.1,2.8,3.3,0,4.8s-7.1,1.8-9.9.7c-2.8-1.1-2.8-3.3,0-4.8,2.7-1.5,7.1-1.8,9.9-.7Z"/>
    <path class="st10" d="M140.5,264.7c2.8,1.1,2.8,3.3.1,4.8s-7.1,1.8-9.9.7c-2.8-1.1-2.8-3.3-.1-4.8s7.1-1.8,9.9-.7Z"/>
    <path class="st10" d="M145.4,262c2.8,1.1,2.8,3.3.1,4.8s-7.1,1.8-9.9.7c-2.8-1.1-2.8-3.3-.1-4.8s7.1-1.8,9.9-.7Z"/>
    <path class="st10" d="M162.3,270.4c2.8,1.1,2.8,3.3.1,4.8s-7.1,1.8-9.9.7c-2.8-1.1-2.8-3.3-.1-4.8s7.1-1.8,9.9-.7Z"/>
    <path class="st10" d="M170.6,279.8c2.8,1.1,2.8,3.3.1,4.8s-7.1,1.8-9.9.7-2.8-3.3-.1-4.8,7.1-1.8,9.9-.7Z"/>
    <path class="st10" d="M187.2,263.1c2.8,1.1,2.8,3.3.1,4.8s-7.1,1.8-9.9.7c-2.8-1.1-2.8-3.3-.1-4.8s7.1-1.8,9.9-.7Z"/>
    <path class="st10" d="M164.2,248.8c2.8,1.1,2.8,3.3.1,4.8s-7.1,1.8-9.9.7c-2.8-1.1-2.8-3.3-.1-4.8s7.1-1.8,9.9-.7Z"/>
    <path class="st10" d="M179.1,250.2c2.8,1.1,2.8,3.3.1,4.8s-7.1,1.8-9.9.7c-2.8-1.1-2.8-3.3-.1-4.8s7.1-1.8,9.9-.7Z"/>
    <path class="st10" d="M194.2,254.2c2.8,1.1,2.8,3.3.1,4.8s-7.1,1.8-9.9.7c-2.8-1.1-2.8-3.3-.1-4.8,2.7-1.5,7.1-1.8,9.9-.7h0Z"/>
    <path class="st10" d="M193.5,276.6c2.8,1.1,2.8,3.3.1,4.8s-7.1,1.8-9.9.7c-2.8-1.1-2.8-3.3-.1-4.8s7.1-1.8,9.9-.7Z"/>
    <path class="st10" d="M214.9,270.1c2.8,1.1,2.8,3.3.1,4.8s-7.1,1.8-9.9.7c-2.8-1.1-2.8-3.3-.1-4.8s7.1-1.8,9.9-.7Z"/>
    <path class="st10" d="M240.9,244.2c2.8,1.1,2.8,3.3.1,4.8s-7.1,1.8-9.9.7c-2.8-1.1-2.8-3.3-.1-4.8s7.1-1.8,9.9-.7Z"/>
  </g>
  <line class="st9" x1="307.3" y1="223" x2="288.7" y2="230"/>
  <path class="st1" d="M326.4,283.6c9.3.6,30.1,16,42.6,41.1,7.2,14.4,8.9,47.4,9.3,62.8.1,4.5-3.5,8.2-8,8.2h-88.8c-6.5,0-12.3-3.9-14.8-9.9l-14.3-34.9s-18.9-44.1,7.9-63.8l66.2-3.4h-.1Z"/>
  <g class="st6">
    <path class="st3" d="M320.9,200.4l2-1.2c.2-.1.3-.2.4-.4s.1-.3.1-.5,0-.4-.1-.6c0-.2-.2-.4-.3-.5-.1-.2-.3-.3-.5-.4-.2,0-.4-.1-.5,0-.2,0-.3.1-.4.2,0,.1-.1.3-.1.5l-.7-.3c0-.4,0-.6.2-.9.1-.2.4-.3.6-.4s.6,0,.9.2c.3.1.6.3.8.6.2.3.4.5.6.9.1.3.2.6.2,1s0,.6-.2.8c-.1.2-.4.4-.6.6l-1.4.9,2.4,1.1v.7l-3.4-1.5v-.7h0Z"/>
  </g>
  <path class="st5" d="M256.6,241.7c-1.2,7-7.8,16.6-13.5,23.7-5.6,7-4.4,17.5,2.5,23.3,3,2.5,6,4.2,7.8,3.9l43.8,5.3h0c13.1.7,39.9-5.1,29-29.4-2.3-5.1-3.9-10.5-4.6-16-.8-6.5-2-14.5-3.5-17.9-6.6-15.2-15.1-23.2-15.1-23.2l-17.8,12.2-17.7-7.5-10.8,25.7h-.1Z"/>
  <path class="st0" d="M283.2,185.1l11.5,8.5c6.8-2.3,13-3.4,19.9-5,15.2-3.4,19.3-.9,14.4,4.3,0,0-42.3,30.9-72.5,48.8l-10.4-15.6c-2.5-3.7-2.1-8.6,1-11.9l26.7-28.3c2.4-2.6,6.4-3,9.3-.8h.1Z"/>
  <g class="st8">
    <rect class="st3" x="429.8" y="131.4" width=".5" height="223.7" transform="translate(43.9 551.5) rotate(-68.1)"/>
    <rect class="st3" x="429.8" y="102.6" width=".5" height="223.7" transform="translate(70.6 533.4) rotate(-68.1)"/>
    <rect class="st3" x="429.7" y="73.7" width=".5" height="223.7" transform="translate(97.4 515.3) rotate(-68.1)"/>
    <rect class="st3" x="429.7" y="44.8" width=".5" height="223.7" transform="translate(124.2 497.2) rotate(-68.1)"/>
    <rect class="st3" x="429.7" y="16.1" width=".5" height="223.7" transform="translate(150.9 479.1) rotate(-68.1)"/>
  </g>
  <g>
    <path class="st3" d="M332.3,223.7c-.3,0-.5-.2-.5-.5V71c0-.3.2-.5.5-.5s.5.2.5.5v152.2c0,.3-.2.5-.5.5Z"/>
    <polygon class="st3" points="336.3 74.3 335.6 75 332.3 71.4 328.9 75 328.2 74.3 332.3 69.9 336.3 74.3"/>
  </g>
  <g>
    <path class="st3" d="M543.2,308.9h-.2l-210.9-85.2c-.3-.1-.4-.4-.3-.7s.4-.4.7-.3l210.9,85.2c.3.1.4.4.3.7,0,.2-.3.3-.5.3Z"/>
    <polygon class="st3" points="538.6 311 538.2 310 542.8 308.3 540.7 303.8 541.6 303.4 544.2 308.8 538.6 311"/>
  </g>
  <g>
    <path class="st10" d="M341.3,125.1v84.7c0,3.3,2,6.2,5,7.4l27.9,11.4c2,.8,4.1-.6,4.1-2.8v-84.7c0-3.3-2-6.2-5-7.4l-27.9-11.4c-2-.8-4.1.6-4.1,2.8h0Z"/>
    <path class="st10" d="M419.9,127.9v113.8c0,3.3,2,6.2,5,7.4l26.4,10.8c2,.8,4.1-.6,4.1-2.8v-113.8c0-3.3-2-6.2-5-7.4l-26.4-10.8c-2-.8-4.1.6-4.1,2.8Z"/>
    <path class="st10" d="M381.4,125.7v100.3c0,3.3,2,6.2,5,7.4l26.4,10.8c2,.8,4.1-.6,4.1-2.8v-100.3c0-3.3-2-6.2-5-7.4l-26.4-10.8c-2-.8-4.1.6-4.1,2.8Z"/>
    <path class="st10" d="M458.4,230.1v27.2c0,3.3,2,6.2,5,7.4l26.4,10.8c2,.8,4.1-.6,4.1-2.8v-27.2c0-3.3-2-6.2-5-7.4l-26.4-10.8c-2-.8-4.1.6-4.1,2.8h0Z"/>
    <path class="st10" d="M528.9,267.9l-27.9-11.4c-2-.8-4.1.6-4.1,2.8v13.6c0,3.3,2,6.2,5,7.4l27.9,11.4c2,.8,4.1-.6,4.1-2.8v-13.6c0-3.3-2-6.2-5-7.4Z"/>
  </g>
  <g class="st6">
    <path class="st3" d="M322.9,173.6l-2.4-1.1v-.7l2.1-2.6.4.2.2.2-2,2.5,1.7.8v-3.5l.7.3v3.5l.7.3v.7l-.7-.3v1.3l-.7-.3v-1.3h0Z"/>
  </g>
  <g class="st6">
    <path class="st3" d="M321.6,144c-.3-.4-.5-.8-.7-1.3s-.2-1-.2-1.6,0-1.1.2-1.5.4-.6.7-.7c.3-.1.6,0,1,0,.3.1.5.3.7.5s.4.5.6.8.3.6.4.9l-.7-.3c0-.3-.2-.5-.4-.7-.2-.2-.4-.3-.6-.4-.2-.1-.5-.1-.6,0-.2,0-.3.2-.5.5-.1.3-.2.7-.2,1.2h0c0-.1.2-.3.3-.4s.3-.1.5-.1.4,0,.6.1c.3.1.6.4.8.6.2.3.4.6.6,1,.1.4.2.7.2,1.1s0,.7-.2.9-.4.4-.6.4c-.3,0-.6,0-.9-.2-.4-.2-.7-.4-1-.8h0ZM323.2,144.2c.2,0,.3-.1.4-.3,0-.1.1-.3.1-.6s0-.5-.1-.7c0-.2-.2-.4-.4-.6-.2-.2-.4-.3-.6-.4-.2,0-.4-.1-.6,0s-.3.1-.4.3c0,.1-.1.3-.1.6s0,.5.1.7c0,.2.2.4.4.6.2.2.4.3.6.4.2,0,.4.1.5,0h.1Z"/>
  </g>
  <g class="st6">
    <path class="st3" d="M321.6,116c-.3-.3-.5-.5-.6-.9-.1-.3-.2-.6-.2-.9s0-.4.1-.6c0-.2.2-.3.3-.3h.5c-.2,0-.3-.3-.4-.4-.1-.2-.2-.4-.3-.6v-.6c0-.2,0-.5.2-.7.1-.2.3-.3.6-.3s.5,0,.8.2c.3,0,.6.3.8.6.2.2.4.5.6.8.1.3.2.6.2.9v.5c0,0-.2.3-.3.3h-.4c.2,0,.4.3.5.5s.3.4.3.7.1.5.1.7c0,.3,0,.6-.2.7-.1.2-.4.3-.6.3-.3,0-.6,0-.9-.2s-.7-.4-.9-.6h-.2ZM323.1,116.1c.2,0,.3,0,.4-.2,0,0,.1-.3.1-.5s0-.4-.1-.6c0-.2-.2-.4-.4-.5-.2-.2-.3-.3-.5-.4-.2,0-.4,0-.5,0-.2,0-.3,0-.4.2s-.1.3-.1.5,0,.4.1.6.2.4.4.5c.2.2.3.3.5.4.2,0,.4,0,.5,0ZM323,113.5c.1,0,.2,0,.3-.2,0,0,.1-.3.1-.4s0-.4-.1-.5c0-.2-.2-.3-.3-.5-.1,0-.3-.2-.5-.3-.2,0-.3,0-.5,0-.1,0-.2,0-.3.2,0,0-.1.2-.1.4s0,.4.1.5c0,.2.2.3.3.5s.3.2.4.3c.2,0,.3,0,.5,0h.1Z"/>
  </g>
  <g class="st6">
    <g>
      <path class="st3" d="M320.3,82.2l-1.2-.5v-.7l.6.3c.2,0,.4,0,.5,0,.1,0,.2-.3.2-.5h0l.5.2v5.7l-.7-.3v-4.2h.1Z"/>
      <path class="st3" d="M322.9,87.4c-.3-.4-.5-.8-.7-1.3s-.2-1.1-.2-1.6,0-1.1.2-1.4.4-.6.7-.7.6,0,1,0c.4.2.7.4,1,.8s.5.8.7,1.3.2,1.1.2,1.6,0,1-.2,1.4-.4.6-.7.7c-.3,0-.6,0-1,0-.4-.2-.7-.4-1-.8h0ZM324.6,87.5c.2,0,.3-.3.4-.6s.1-.6.1-1.1,0-.9-.1-1.2c0-.4-.2-.7-.4-.9-.2-.3-.4-.4-.6-.6-.2,0-.5,0-.6,0-.2,0-.3.3-.4.6,0,.3-.1.6-.1,1.1s0,.9.1,1.2c0,.4.2.7.4.9.2.3.4.4.6.6.2,0,.5,0,.6,0Z"/>
    </g>
  </g>
  <path d="M326.3,227l-5.5-8.3c.3-.3.4-.7.2-1.2-.2-.5-.8-.7-1.3-.5l-5.6-8.4c-.3-.5-.9-.6-1.4-.3s-.6.9-.3,1.4l5.4,8.2-6.9,3.3c-.5.2-.7.8-.5,1.3.2.4.5.6.9.6h.4l7.2-3.4,5.6,8.5c.2.3.5.4.8.4s.4,0,.6-.2c.5-.3.6-.9.3-1.4h0Z"/>
  <path class="st4" d="M517.7,331.1c-.2-3.2-10.7-13-9.9-16.2.4-1.4,45-7.4,51-13.4v-7.4c3,0,5.3.9,7,2,3.4,2.3,4.8,6.5,3.3,10.4-1,2.7-2.9,4.9-5,6.2,0,0,8.7,4.3,1.8,12.6-3.6,4.3-48.2,5.9-48.2,5.9h0Z"/>
  <path class="st4" d="M409.8,324.2l26.3,12.9,72.2-23,20.3,24.7-83.3,43.7c-13.8,6.7-30.3,4.6-42-5.3l-18.2-6.2,24.8-46.9h0Z"/>
  <path class="st3" d="M327.9,283.8s18.6-6.5,47.6,13.3l52.2,31.1c4.2,2.5,6.6,7.2,6.1,12-1.4,15.4-9.5,47.4-51.9,51.4-20.6,1.9-49.8-41.8-49.8-41.8l-4.4-66.1h.2Z"/>
  <path class="st4" d="M564.3,324.2s3.8,1.4,3.2,5.1-3.6,5.6-4.6,6.1c-2.1.9-43,4.2-43,4.2v-16.1l44.4.7h0Z"/>
  <path class="st4" d="M523,325.4s9.7-17.6,11.9-21.1c2.8-4.7,3.1-13.3-4.4-14-1.8-.2-5.5,4.2-6.8,5.7-.3.3-.6.7-.9,1l-9.5,9.1c-14.8,16.8-5.6,26.7-5.8,28.1l15.5-8.7h0Z"/>
</svg>