<?xml version="1.0" encoding="UTF-8"?>
<svg id="Layer_1" xmlns="http://www.w3.org/2000/svg" xmlns:xlink="http://www.w3.org/1999/xlink" version="1.1" viewBox="0 0 616.9 467.1">
  <!-- Generator: Adobe Illustrator 30.0.0, SVG Export Plug-In . SVG Version: 2.1.1 Build 123)  -->
  <defs>
    <style>
      .st0, .st1 {
        fill: none;
      }

      .st2 {
        fill: url(#linear-gradient2);
      }

      .st3 {
        fill: url(#linear-gradient1);
      }

      .st4 {
        fill: url(#linear-gradient3);
      }

      .st5 {
        filter: url(#outer-glow-1);
      }

      .st6 {
        fill: url(#linear-gradient);
      }

      .st7 {
        fill: #060c0d;
      }

      .st8 {
        fill: #fff;
      }

      .st9 {
        fill: #efc2a6;
      }

      .st10 {
        fill: #efc2a6;
      }

      .st11 {
        fill: #c08355;
      }

      .st12 {
        fill: #21d789;
      }

      .st13 {
        fill: #6b57ff;
      }

      .st1 {
        stroke: #000;
        stroke-miterlimit: 10;
        stroke-width: 2px;
      }

      .st14 {
        fill: #bfbfbf;
      }
    </style>
    <linearGradient id="linear-gradient" x1="-336.6" y1="372" x2="-361.5" y2="384.4" gradientTransform="translate(607.4)" gradientUnits="userSpaceOnUse">
      <stop offset=".1" stop-color="#bfbfbf"/>
      <stop offset=".2" stop-color="#cacaca"/>
      <stop offset=".3" stop-color="#e7e7e7"/>
      <stop offset=".5" stop-color="#f8f8f8"/>
      <stop offset=".6" stop-color="#fff"/>
      <stop offset=".9" stop-color="#fff"/>
    </linearGradient>
    <linearGradient id="linear-gradient1" x1="-394.4" y1="373.5" x2="-423.4" y2="387.9" xlink:href="#linear-gradient"/>
    <linearGradient id="linear-gradient2" x1="-2700.9" y1="362.2" x2="-2571.3" y2="257.5" gradientTransform="translate(-2447) rotate(-180) scale(1 -1)" gradientUnits="userSpaceOnUse">
      <stop offset=".2" stop-color="#00aa69"/>
      <stop offset=".4" stop-color="#03ae6c"/>
      <stop offset=".6" stop-color="#0cbb75"/>
      <stop offset=".8" stop-color="#1cd084"/>
      <stop offset=".8" stop-color="#21d789"/>
    </linearGradient>
    <linearGradient id="linear-gradient3" x1="-324.8" y1="154" x2="-317.8" y2="165.5" gradientTransform="translate(430.1 -128.4) rotate(-8.9)" gradientUnits="userSpaceOnUse">
      <stop offset="0" stop-color="#b78a6d"/>
      <stop offset=".1" stop-color="#c4977a"/>
      <stop offset=".4" stop-color="#dbae92"/>
      <stop offset=".6" stop-color="#eabda0"/>
      <stop offset=".8" stop-color="#efc2a6"/>
    </linearGradient>
    <filter id="outer-glow-1" x="262.6" y="107" width="332.2" height="243.8" filterUnits="userSpaceOnUse">
      <feOffset dx="0" dy="0"/>
      <feGaussianBlur result="blur" stdDeviation="5"/>
      <feFlood flood-color="#21d789" flood-opacity=".8"/>
      <feComposite in2="blur" operator="in"/>
      <feComposite in="SourceGraphic"/>
    </filter>
  </defs>
  <polygon class="st9" points="238.2 154.3 249.7 151.5 249.7 165.7 238.2 154.3"/>
  <g>
    <path class="st6" d="M256.9,398.1l22.1-.9-20.2-35.7h-26s21.4,34.6,21.4,34.6c.6,2.5.2,2.1,2.8,2Z"/>
    <polygon class="st3" points="184.3 392.8 196.5 406.6 216.9 401.8 202.1 361.5 176 361.5 184.3 392.8"/>
    <path d="M216.9,401.8s4.1,9.1,4,18.5l-74.2-.2s-15.1,7.9-21.6-.2c0,0,0-18.3,31.4-17.6,3.7,0,7.4-1.1,10.6-3.1l9.2-5.9c1.9-1.6,4.7-2.3,7.2-2.6,4.4-.5,8.7,2.1,10.3,6.3.3.8.6,1.6.7,2.2.5,2.6,2.8,4.5,5.4,4.5l17.1-1.8Z"/>
    <path class="st8" d="M223.6,422.6c0-1.5-1.2-2.7-2.7-2.7h-95.8c-.9-1.3.9,4.4-.3,5.4h96.1c1.5,0,2.7-1.2,2.7-2.7h0Z"/>
    <path class="st2" d="M119.9,181l13.8,66.6c2,9.7,4.9,19.2,8.7,28.3,3.8,9.1,8.5,21.8,10.7,32.6,2.7,13.7,7.6,55.3,8.2,67.6.3,5.1,4,9.4,9.1,10.3,4.4.8,10.2,1.3,16.2.9,13.2-1,16.7-2.6,23.9.2,3.6,1.4,7.4,1,10.4.3s4.1-3.5,3.1-6.1l-44.8-154.7-23.8-37.8-35.5-8.1Z"/>
    <path class="st12" d="M172.2,194.6s18.2,11.3,31,35.9c17.6,33.9,38.4,74.2,53,96.6,8.8,13.5,28.2,41.5,31.4,48.1,1.3,2.8-.8,6.1-3.9,5.9-4.4-.2-9.9.4-13.7,3.5-5.9,4.9-17.5-2.4-29.5,2.1-1,.4-3,1.4-5.1,2.6-4.4,2.6-10.1.6-12-4.2l-29.4-74.2-20.7-46.6-15.4-25.5-16.8-46.3,31.1,2Z"/>
    <g>
      <path d="M285,401.8c5.6,6,7.7,12,7.6,18.5,0,0-38.9-.4-45.7-.4,0,0-3.7-11.3,6.6-21.6l25.4-1c.6,0,4.6,2.9,6.1,4.5Z"/>
      <path class="st8" d="M244.1,422.6c0,1.5,1.2,2.7,2.7,2.7h45.7c1.5,0,2.7-1.2,2.7-2.7h0c0-1.5-1.2-2.7-2.7-2.7h-45.7c-1.5,0-2.7,1.2-2.7,2.7h0Z"/>
    </g>
    <path d="M263.9,400.8l15-3.5s-12.3-6.8-17.6-5.6c-9.8,2.3-7.6,9-7.6,9h10.3Z"/>
  </g>
  <g>
    <path class="st11" d="M153.2,39.9c2.9,5,16.7,17.2,23,21,6.2,3.8,8.4,11.8,4.8,18.1-1.6,2.8-3.4,5-4.9,5.3,0,0-34.7-14.3-34.7-16.5l1.3-8.1-2.6-12.7,3.9-16.5,9.2,9.4Z"/>
    <path class="st8" d="M223.8,97.6c-10-12.2-22.7-21.9-37.3-27.8-6.4-2.6-13.3-4.5-20.5-5.4-24.4-2.8-35,13.4-35,13.4l-10.7,3.6c-2.2-2.7-5.1-4.6-8.1-5.6-8.1-2.7-17,1.1-21.1,8.6l-34,61.7,68.4,17.7-13.6-23.2,16.1,36.9,137.3-28.9-41.6-50.9Z"/>
    <path class="st4" d="M143.5,67.4c-3.1,1.3-12.6,15.3-15.4,19.5h16.2c4.8,0,8-5.3,5.5-9.4,0,0,0,0,0,0l-6.2-10Z"/>
    <g>
      <path class="st10" d="M134.5,40.9l-5.6-6.4c-3.2-3.6-8.1-5.3-12.8-4.3l-9.3,1.9-.3-.5-.7.7-1,.2.3.5-2.2,1.6c-1.2,1.2-3.3,2.4-3.7,4.2-.6,2.3,2.1,9.3,2.6,17.9.6,10.2,5,14.3,5,14.3.6.7,3.6,9.2,4,10.7.4,1.2,7.7,9.2,9.3,10.4,2.5,1.8,8.4,1,10.8-.9,8.3-6.4,11.2-16.9,11.2-16.9,1.7-3.6,2.2-9.7,1.2-12.4l-5.2-14.9c-.7-2.2-1.9-4.2-3.4-5.9Z"/>
      <rect class="st7" x="118.2" y="60.7" width="4.2" height="7.6" rx="2.1" ry="2.1" transform="translate(254.1 91.8) rotate(163.4)"/>
      <path class="st11" d="M100.1,38.9s9.4,3.8,14.4,5.6c1.7.6,8.1,6.6,9.8,6.3h0l24.3,3.1s-8.7-20.7-11.4-22c-2.7-1.3-24.3.2-37.1,7Z"/>
      <path d="M120.8,71.2c-1.3,0-2.6-.5-3.7-1.5-1-.9-1.7-2.1-2.1-3.5l-2.3-9.2c-.7-3.1,1.2-5.9,3.3-6.6l3.6-1.2c1.8-.6,3.9.3,5.1,2.2,1.4,2.1,3,5.6,3.1,10.7,0,2.7-.7,5.1-2.1,6.7-.6.7-1.3,1.2-2.1,1.6h-.1c0,0-1.3.5-1.3.5-.5.1-.9.2-1.4.2ZM116.7,52.4h0c-1.3.4-2.5,2.3-2,4.2l2.3,9.1c.3,1,.8,1.9,1.5,2.5,1,.9,2.1,1.2,3.1.9l1.3-.4c.5-.2.9-.6,1.4-1.1,1.1-1.3,1.7-3.2,1.6-5.4,0-4.6-1.5-7.7-2.7-9.6-.7-1.1-1.9-1.7-2.9-1.4l-3.6,1.2Z"/>
      <g>
        <rect class="st7" x="105.1" y="61.9" width="4.2" height="7.6" rx="2.1" ry="2.1" transform="translate(-16.8 45.2) rotate(-22.1)"/>
        <path d="M107.1,72.6c-.4,0-.8,0-1.3-.1-2.1-.4-4.2-1.8-5.9-3.9-3.1-4-4-7.8-4.3-10.2-.2-2.3.8-4.3,2.6-4.9l3.5-1.3c2.4-.9,5.5.5,6.7,3l3.9,8.6c.6,1.3.8,2.8.6,4.1-.3,2-1.5,3.5-3.2,4.2l-1.5.5c-.4,0-.9.1-1.3.1ZM102.5,53.9l-3.5,1.3c-.9.4-1.5,1.5-1.3,2.9.2,2.2,1.1,5.6,3.9,9.2,1.4,1.7,3,2.9,4.7,3.2.6.1,1.2.1,1.7,0l1.3-.5c1-.4,1.7-1.3,1.9-2.6.2-.9,0-1.9-.5-2.9l-3.9-8.6c-.8-1.7-2.9-2.5-4.2-2Z"/>
      </g>
      <path class="st11" d="M122.8,74.8l-8.4,1.1c-.3,0-.6.2-.9.3-.3.1-.6.3-.8.6h0c-.5.5-1.8,1.7-2.7,2.7-.7.8-.3,2.1.7,2.4l1.6-.4c.4,0,.8.1,1,.5.6,1.4,1.1,2.5,2.4,2.2s1.2-.7,1.5-1.3,1.5-1.1,2.3-.7c0,0,1.4.8,2,.5,1.6-.7.2-2.1,1-3.1.9-1.2,2.7.2,3.5-1.8.6-1.4-1.7-3.4-3.2-3.1Z"/>
      <line class="st1" x1="112.2" y1="54.5" x2="127.3" y2="49.2"/>
      <path class="st12" d="M106,24.7l-1.3,5c-5.4,2.1-10.1,3.7-14.9,7.2-9.1,6.6-3.2,16.4,4.1,19,9.7,4.2,56.2-6.1,59.3-16l-3.4-11.2c-4.5-17.2-41.2-15.2-43.8-4.1Z"/>
      <ellipse class="st9" cx="146.6" cy="55.9" rx="8.9" ry="12.7" transform="translate(-1.8 5.1) rotate(-2)"/>
      <path class="st10" d="M111.2,61.6s-6.5,11.8-5.7,14.2c.8,2.2,5,1.6,6.6,1.1l6.3-1.6c.6.7-6.7-15.7-7.2-13.7Z"/>
    </g>
  </g>
  <g>
    <rect class="st14" x="49.8" y="148.7" width="222.8" height="172.2" rx="20.9" ry="20.9" transform="translate(-118.8 182.8) rotate(-45)"/>
    <path class="st13" d="M160.8,327.8l-1.3,1.3-.7-.7.7-.7c.2-.2.4-.5.4-.8,0-.3-.1-.5-.4-.8h0s.5-.6.5-.6l5.3,5.3-.8.8-3.9-3.9Z"/>
    <path class="st13" d="M218.9,277.4c-.4.2-.8.2-1.2.2-.4,0-.7-.2-1-.4l.8-.8c.2.1.4.2.6.2.2,0,.4,0,.7-.1.2,0,.4-.2.6-.4.2-.2.4-.5.4-.7,0-.3,0-.5,0-.8s-.2-.5-.5-.7c-.2-.2-.5-.4-.7-.5-.3,0-.5,0-.8,0-.3,0-.5.2-.7.4-.2.2-.3.3-.4.5,0,.2-.1.4-.2.5,0,.2,0,.3,0,.5l-.7.7-2.7-3.1,3.1-3.1.7.7-2.5,2.5,1.4,1.6c0-.2,0-.3,0-.5s.1-.4.2-.6c.1-.2.2-.4.4-.5.3-.3.7-.5,1.1-.7s.8,0,1.3,0c.4.1.8.4,1.1.7s.6.8.7,1.2c.1.4.1.9,0,1.3-.1.4-.4.9-.7,1.2-.3.3-.7.6-1.1.7Z"/>
    <path class="st13" d="M232.4,263.6c-.5.1-1.1,0-1.7-.2-.6-.2-1.1-.6-1.7-1.1s-1-1.1-1.2-1.8c-.2-.6-.3-1.2-.2-1.7,0-.5.3-1,.7-1.4.3-.3.6-.5,1-.6.4-.1.7-.2,1.1-.2.4,0,.7.1,1.1.3l-.8.8c-.3,0-.6-.1-.9,0s-.6.2-.8.4-.4.6-.5.9c0,.4,0,.7.2,1.2.2.4.5.9,1,1.4,0,0,0,0,0,0-.1-.3-.2-.5-.2-.8,0-.3,0-.6.2-.9.1-.3.3-.5.5-.8.3-.3.7-.6,1.2-.7.4-.1.9-.1,1.3,0,.4.1.8.4,1.2.7.3.3.6.7.7,1.2.1.4.1.9,0,1.3-.1.5-.4.9-.8,1.2-.4.4-.9.7-1.4.8ZM233.6,261.4c0-.3,0-.6,0-.8,0-.3-.2-.5-.5-.8-.2-.2-.5-.4-.8-.5s-.6,0-.9,0c-.3,0-.5.2-.8.5-.2.2-.4.5-.5.8,0,.3,0,.6,0,.8,0,.3.2.5.5.8.2.2.5.4.8.5.3,0,.6,0,.9,0s.5-.2.8-.5.4-.5.4-.8Z"/>
    <g>
      <path class="st13" d="M254.7,233.9l-1.3,1.3-.7-.7.7-.7c.2-.2.4-.5.4-.8,0-.3-.1-.5-.4-.8h0s.5-.6.5-.6l5.3,5.3-.8.8-3.9-3.9Z"/>
      <path class="st13" d="M261.3,234.6c-.5,0-1.1,0-1.7-.2-.6-.2-1.1-.6-1.7-1.2s-.9-1.1-1.2-1.7c-.2-.6-.3-1.1-.2-1.7,0-.5.3-1,.8-1.4.4-.4.9-.7,1.4-.8.5,0,1.1,0,1.7.2s1.2.6,1.7,1.2.9,1.1,1.2,1.7c.2.6.3,1.1.2,1.7,0,.5-.3,1-.8,1.4-.4.4-.9.7-1.4.8ZM262.5,232.2c0-.4,0-.7-.3-1.2-.2-.4-.5-.8-.9-1.2-.4-.4-.8-.7-1.3-.9-.4-.2-.8-.3-1.2-.3-.4,0-.7.2-.9.4-.3.3-.4.6-.4.9,0,.4,0,.7.3,1.2.2.4.5.8.9,1.2.4.4.8.7,1.2.9.4.2.8.3,1.2.3s.7-.2.9-.4c.3-.3.4-.6.5-.9Z"/>
      <path class="st13" d="M266.3,229.7c-.5,0-1.1,0-1.7-.2-.6-.2-1.1-.6-1.7-1.2s-.9-1.1-1.2-1.7c-.2-.6-.3-1.1-.2-1.7,0-.5.3-1,.8-1.4.4-.4.9-.7,1.4-.8.5,0,1.1,0,1.7.2.6.2,1.2.6,1.7,1.2s.9,1.1,1.2,1.7c.2.6.3,1.1.2,1.7,0,.5-.3,1-.8,1.4-.4.4-.9.7-1.4.8ZM267.5,227.3c0-.4,0-.7-.3-1.2s-.5-.8-.9-1.2c-.4-.4-.8-.7-1.3-.9s-.8-.3-1.2-.3c-.4,0-.7.2-.9.4-.3.3-.4.6-.4.9,0,.4,0,.7.3,1.2.2.4.5.8.9,1.2.4.4.8.7,1.2.9.4.2.8.3,1.2.3.4,0,.7-.2.9-.4.3-.3.4-.6.5-.9Z"/>
    </g>
    <path class="st13" d="M48.2,253.8l.6-.6,1.2,1.2-.6.6-1.2-1.2ZM53.8,261c-.4.1-.8.2-1.2,0-.4,0-.8-.3-1.1-.6l.8-.8c.2.2.4.3.6.3.2,0,.5,0,.7,0,.2,0,.5-.2.7-.5.2-.2.4-.4.5-.7,0-.2.1-.5,0-.7,0-.2-.1-.4-.3-.6-.2-.2-.4-.3-.7-.3-.3,0-.5,0-.8.2l-1.1.7c-.3.2-.6.3-.9.4-.3,0-.6,0-.9,0-.3,0-.6-.2-.8-.5-.3-.3-.5-.6-.5-1s0-.8,0-1.2c.1-.4.4-.8.7-1.1s.7-.6,1.1-.7c.4-.1.8-.2,1.1,0,.4,0,.7.3,1,.5l-.8.8c-.2-.2-.3-.3-.5-.3-.2,0-.4,0-.6,0-.2,0-.4.2-.6.4-.2.2-.3.4-.4.6,0,.2-.1.4,0,.6s.1.4.3.5c.2.2.4.3.6.3.2,0,.5,0,.7-.2l1.1-.7c.3-.2.6-.3,1-.4.3,0,.7,0,1,0,.3,0,.6.3.8.5.3.3.5.6.6,1,0,.4,0,.8,0,1.2-.1.4-.4.8-.8,1.2-.4.4-.8.6-1.2.8ZM54.6,260.3l.6-.6,1.2,1.2-.6.6-1.2-1.2Z"/>
    <path class="st13" d="M176.1,319l.2-4.1c0-.4,0-.7-.1-1,0-.3-.2-.5-.4-.7-.2-.2-.4-.3-.6-.4-.2,0-.5,0-.7,0-.2,0-.5.2-.7.4s-.4.5-.4.7c0,.3,0,.5,0,.8,0,.3.2.5.4.7l-.8.8c-.3-.3-.5-.7-.7-1.1-.1-.4,0-.9,0-1.3s.4-.8.7-1.2c.3-.3.7-.6,1.1-.7.4-.1.8-.2,1.2,0s.7.3,1,.6c.3.3.5.6.6,1.1.1.4.2.9.1,1.5v2.9c-.1,0,2.5-2.6,2.5-2.6l.7.7-3.7,3.7-.6-.6Z"/>
    <path class="st13" d="M191.1,305.1c-.4.1-.8.2-1.2,0-.4,0-.8-.3-1.1-.6l.8-.8c.2.2.4.3.6.3.2,0,.5,0,.7,0,.2,0,.5-.2.7-.4s.4-.5.5-.7c0-.3,0-.5,0-.8,0-.2-.2-.5-.4-.7-.2-.2-.4-.3-.7-.4-.3,0-.5,0-.8,0-.3,0-.5.2-.7.4l-.7.7-.6-.6.2-2.8-2.4,2.4-.7-.7,3.3-3.3.6.6-.2,3.4-.2-.3c.4-.4.8-.6,1.2-.8.4-.2.9-.2,1.3,0,.4,0,.8.3,1.1.6.3.3.5.7.6,1.1s0,.8,0,1.3c-.1.4-.4.8-.8,1.2-.4.4-.7.6-1.2.8Z"/>
    <path class="st13" d="M205.3,288.7l-2.6,2.6-.6-.6-1-5.7.4-.4.4-.2,1,5.4,1.9-1.9-3.3-3.3.7-.7,3.3,3.3.8-.8.7.7-.8.8,1.3,1.3-.8.8-1.2-1.2Z"/>
    <rect class="st13" x="153.4" y="317" width="1" height="7.8" transform="translate(-181.9 202.8) rotate(-45)"/>
    <rect class="st13" x="252.3" y="218.1" width="1" height="7.8" transform="translate(-83 243.8) rotate(-45)"/>
    <g>
      <polygon class="st13" points="142.1 333.4 56.2 247.5 56.9 246.8 142.1 332 233.6 240.4 234.3 241.1 142.1 333.4"/>
      <polygon class="st13" points="56 252.4 57 252.3 56.8 247.4 61.7 247.6 61.8 246.6 55.8 246.4 56 252.4"/>
      <rect class="st13" x="233.5" y="237.5" width="1" height="6.5" transform="translate(-101.7 236) rotate(-45)"/>
    </g>
    <g>
      <rect class="st13" x="240.6" y="219.9" width="26.7" height="1" transform="translate(-81.5 244.1) rotate(-45)"/>
      <rect class="st13" x="244" y="226.5" width="1" height="6.5" transform="translate(-90.9 240.2) rotate(-45)"/>
      <polygon class="st13" points="263.9 216.2 262.9 216.1 263 211.2 258.1 211.4 258.1 210.4 264.1 210.2 263.9 216.2"/>
    </g>
    <rect class="st13" x="117.2" y="260.1" width="17.5" height="65.8" transform="translate(-170.3 174.9) rotate(-45)"/>
    <rect class="st13" x="167.2" y="303.1" width="1" height="7.8" transform="translate(-168 208.5) rotate(-45)"/>
    <rect class="st13" x="137.2" y="261.4" width="17.5" height="48.1" transform="translate(-159.1 186.8) rotate(-45)"/>
    <rect class="st13" x="180.9" y="289.4" width="1" height="7.8" transform="translate(-154.3 214.2) rotate(-45)"/>
    <rect class="st13" x="137.5" y="215" width="17.5" height="86.3" transform="translate(-139.7 179) rotate(-45)"/>
    <rect class="st13" x="194.7" y="275.7" width="1" height="7.8" transform="translate(-140.5 219.9) rotate(-45)"/>
    <rect class="st13" x="160.6" y="223.9" width="17.5" height="59.8" transform="translate(-129.8 194.1) rotate(-45)"/>
    <rect class="st13" x="208.5" y="261.9" width="1" height="7.8" transform="translate(-126.7 225.6) rotate(-45)"/>
    <rect class="st13" x="182.7" y="230" width="17.5" height="36.4" transform="translate(-119.5 208.1) rotate(-45)"/>
    <rect class="st13" x="222.3" y="248.1" width="1" height="7.8" transform="translate(-113 231.3) rotate(-45)"/>
    <rect class="st13" x="200.8" y="226.8" width="17.5" height="24.1" transform="translate(-107.5 218.2) rotate(-45)"/>
    <rect class="st13" x="216.5" y="160.8" width="17.5" height="65.8" transform="translate(-71 216) rotate(-45)"/>
  </g>
  <g>
    <g>
      <polygon class="st0" points="310.9 451 531.1 451 425.7 68.3 310.9 451"/>
      <polygon class="st14" points="425.7 68.3 531.1 451 547.7 451 433.8 37.2 418.4 37.1 294.2 451 310.9 451 425.7 68.3"/>
    </g>
    <rect class="st5" x="277.8" y="122.1" width="301.8" height="213.6" rx="10.3" ry="10.3"/>
    <g>
      <path class="st8" d="M325.6,315.5c-.6-.4-1-1-1.4-1.8s-.5-1.7-.5-2.7.2-1.9.5-2.7.8-1.4,1.4-1.8c.6-.4,1.3-.6,2-.6s1.5.2,2,.6c.6.4,1,1,1.4,1.8s.5,1.7.5,2.7-.2,1.9-.5,2.7-.8,1.4-1.4,1.8-1.3.6-2,.6-1.5-.2-2-.6ZM328.9,314.4c.4-.3.6-.7.8-1.3s.3-1.2.3-2,0-1.5-.3-2-.5-1-.8-1.3c-.4-.3-.8-.5-1.3-.5s-.9.2-1.3.5-.6.7-.8,1.3c-.2.6-.3,1.2-.3,2s0,1.5.3,2c.2.6.5,1,.8,1.3s.8.5,1.3.5.9-.2,1.3-.5Z"/>
      <g>
        <path class="st8" d="M517.4,315.8c-.5-.2-.9-.5-1.2-.9-.3-.4-.5-.8-.6-1.3h1.4c0,.3.2.5.4.7.2.2.4.4.7.5.3.1.6.2.9.2s.8,0,1.1-.3c.3-.2.6-.4.7-.8s.3-.7.3-1.1,0-.8-.3-1.1c-.2-.3-.4-.6-.7-.8-.3-.2-.7-.3-1.1-.3s-.6,0-.8.1c-.2,0-.5.2-.6.4s-.3.3-.4.5h-1.4l.4-5.4h5.8v1.3h-4.6l-.2,2.8c.1-.2.3-.3.5-.5.2-.1.5-.3.8-.3.3,0,.6-.1.8-.1.6,0,1.2.1,1.7.4.5.3.9.7,1.2,1.2.3.5.4,1.1.4,1.7s-.2,1.2-.5,1.8-.7.9-1.3,1.2c-.5.3-1.1.4-1.8.4s-1.1-.1-1.7-.3Z"/>
        <path class="st8" d="M525.8,315.5c-.6-.4-1-1-1.4-1.8s-.5-1.7-.5-2.7.2-1.9.5-2.7.8-1.4,1.4-1.8c.6-.4,1.3-.6,2-.6s1.5.2,2,.6c.6.4,1,1,1.4,1.8s.5,1.7.5,2.7-.2,1.9-.5,2.7-.8,1.4-1.4,1.8-1.3.6-2,.6-1.5-.2-2-.6ZM529.2,314.4c.4-.3.6-.7.8-1.3s.3-1.2.3-2,0-1.5-.3-2-.5-1-.8-1.3c-.4-.3-.8-.5-1.3-.5s-.9.2-1.3.5-.6.7-.8,1.3c-.2.6-.3,1.2-.3,2s0,1.5.3,2c.2.6.5,1,.8,1.3s.8.5,1.3.5.9-.2,1.3-.5Z"/>
      </g>
      <path class="st8" d="M554.7,315.8c-.5-.3-.9-.6-1.2-1s-.4-1-.4-1.5h1.4c0,.3,0,.6.3.9.2.3.4.5.7.6.3.1.7.2,1.1.2s.8,0,1.1-.2c.3-.1.5-.3.7-.6.2-.2.2-.5.2-.8s-.1-.7-.3-1c-.2-.3-.6-.4-1-.5l-1.7-.4c-.5-.1-.9-.3-1.2-.5s-.6-.5-.8-.9c-.2-.4-.3-.7-.3-1.2s.1-1,.4-1.4.7-.8,1.2-1c.5-.2,1-.4,1.7-.4s1.2.1,1.7.4c.5.2.9.6,1.2,1,.3.4.4.9.4,1.4h-1.4c0-.3,0-.6-.2-.8-.1-.2-.4-.4-.6-.5-.3-.1-.6-.2-.9-.2s-.7,0-.9.2c-.3.1-.5.3-.6.5-.2.2-.2.5-.2.8s.1.6.3.8.5.4.9.5l1.7.4c.5.1.9.3,1.2.6.4.3.6.6.9,1,.2.4.3.8.3,1.2s-.1,1-.4,1.5c-.3.4-.7.8-1.2,1-.5.3-1.1.4-1.8.4s-1.3-.1-1.8-.4ZM556.2,303.9h1.1v2.3h-1.1v-2.3ZM556.2,315.9h1.1v2.3h-1.1v-2.3Z"/>
      <g>
        <path class="st8" d="M372.3,308.7h-2.4v-1.3h1.3c.5,0,.8-.1,1.1-.4.3-.2.4-.6.4-1h1v9.9h-1.4v-7.3Z"/>
        <path class="st8" d="M377.9,315.8c-.5-.2-.9-.5-1.2-.9-.3-.4-.5-.8-.6-1.3h1.4c0,.3.2.5.4.7.2.2.4.4.7.5.3.1.6.2.9.2s.8,0,1.1-.3c.3-.2.6-.4.7-.8s.3-.7.3-1.1,0-.8-.3-1.1c-.2-.3-.4-.6-.7-.8-.3-.2-.7-.3-1.1-.3s-.6,0-.8.1c-.2,0-.5.2-.6.4s-.3.3-.4.5h-1.4l.4-5.4h5.8v1.3h-4.6l-.2,2.8c.1-.2.3-.3.5-.5.2-.1.5-.3.8-.3.3,0,.6-.1.8-.1.6,0,1.2.1,1.7.4.5.3.9.7,1.2,1.2.3.5.4,1.1.4,1.7s-.2,1.2-.5,1.8-.7.9-1.3,1.2c-.5.3-1.1.4-1.8.4s-1.1-.1-1.7-.3Z"/>
      </g>
      <g>
        <path class="st8" d="M419,315.8c-.5-.3-.9-.6-1.2-1.1-.3-.5-.5-1-.5-1.5h1.4c0,.3.1.6.3.9.2.3.4.5.7.6.3.1.7.2,1,.2s.8,0,1.1-.2c.3-.2.6-.4.7-.7.2-.3.3-.6.3-1s0-.7-.3-1c-.2-.3-.4-.5-.8-.7-.3-.2-.7-.2-1.1-.2h-1.3v-1.1l2.7-2.4h-4.4v-1.3h6.2v1.2l-3.3,3v-.4c.8,0,1.4.1,1.9.4s1,.6,1.3,1.1c.3.5.5,1,.5,1.6s-.1,1.1-.4,1.6c-.3.5-.7.8-1.2,1.1s-1.1.4-1.8.4-1.2-.1-1.8-.4Z"/>
        <path class="st8" d="M427.6,315.5c-.6-.4-1-1-1.4-1.8s-.5-1.7-.5-2.7.2-1.9.5-2.7.8-1.4,1.4-1.8c.6-.4,1.3-.6,2-.6s1.5.2,2,.6c.6.4,1,1,1.4,1.8s.5,1.7.5,2.7-.2,1.9-.5,2.7-.8,1.4-1.4,1.8-1.3.6-2,.6-1.5-.2-2-.6ZM431,314.4c.4-.3.6-.7.8-1.3s.3-1.2.3-2,0-1.5-.3-2-.5-1-.8-1.3c-.4-.3-.8-.5-1.3-.5s-.9.2-1.3.5-.6.7-.8,1.3c-.2.6-.3,1.2-.3,2s0,1.5.3,2c.2.6.5,1,.8,1.3s.8.5,1.3.5.9-.2,1.3-.5Z"/>
      </g>
      <g>
        <path class="st8" d="M471.2,313.6h-4.9v-1.2l4.3-6.3h.8l.5.2-4.1,6h3.5v-6.2h1.4v6.2h1.5v1.3h-1.5v2.3h-1.4v-2.3Z"/>
        <path class="st8" d="M477.3,315.8c-.5-.2-.9-.5-1.2-.9-.3-.4-.5-.8-.6-1.3h1.4c0,.3.2.5.4.7.2.2.4.4.7.5.3.1.6.2.9.2s.8,0,1.1-.3c.3-.2.6-.4.7-.8s.3-.7.3-1.1,0-.8-.3-1.1c-.2-.3-.4-.6-.7-.8-.3-.2-.7-.3-1.1-.3s-.6,0-.8.1c-.2,0-.5.2-.6.4s-.3.3-.4.5h-1.4l.4-5.4h5.8v1.3h-4.6l-.2,2.8c.1-.2.3-.3.5-.5.2-.1.5-.3.8-.3.3,0,.6-.1.8-.1.6,0,1.2.1,1.7.4.5.3.9.7,1.2,1.2.3.5.4,1.1.4,1.7s-.2,1.2-.5,1.8-.7.9-1.3,1.2c-.5.3-1.1.4-1.8.4s-1.1-.1-1.7-.3Z"/>
      </g>
      <rect class="st8" x="327.1" y="290.7" width="1" height="10.3"/>
      <rect class="st8" x="523.1" y="290.7" width="1" height="10.3"/>
      <rect class="st8" x="376.1" y="290.7" width="1" height="10.3"/>
      <rect class="st8" x="425.1" y="290.7" width="1" height="10.3"/>
      <rect class="st8" x="474.1" y="290.7" width="1" height="10.3"/>
    </g>
    <g>
      <polygon class="st8" points="559.4 296.4 308.7 296.4 308.7 153.9 309.7 153.9 309.7 295.4 559.4 295.4 559.4 296.4"/>
      <polygon class="st8" points="305.1 157.2 305.8 157.9 309.2 154.3 312.5 157.9 313.3 157.2 309.2 152.8 305.1 157.2"/>
      <polygon class="st8" points="556.1 300 555.4 299.2 559 295.9 555.4 292.5 556.1 291.8 560.5 295.9 556.1 300"/>
    </g>
    <g>
      <rect class="st13" x="476.1" y="167" width="46.6" height="118.9" rx="3" ry="3"/>
      <rect class="st13" x="426.2" y="154.1" width="46.9" height="131.8" rx="3" ry="3"/>
      <rect class="st13" x="378.1" y="235.5" width="45.1" height="50.3" rx="3" ry="3"/>
      <rect class="st13" x="327.9" y="194.2" width="47.2" height="91.7" rx="3" ry="3"/>
    </g>
  </g>
  <g>
    <path class="st9" d="M197.8,125.2s-4.7,3.6-7.9,3.7c-3.8.1-6-3.1-5.6-5.7s4-5.8,6.2-7.9c1.6-1.6,3.7-2.7,5.9-3.3,0,0,4.2-2.4,7.9-3s8.8,1.9,9.3,8.5c0,0,4-1,8,5,2.5,3.8-23.8,2.6-23.8,2.6Z"/>
    <path class="st9" d="M212.5,117s7.3-2.9,10.3-.2c3.5,3.2,1.7,7.3-.1,9.4-3.4,3.9-3.2,3.8-5.4,8.2-3.6,7.1-10.7,3.9-11.4-2.5s2-7.4,3.4-8.5c1.4-1.1,3.3-6.4,3.3-6.4Z"/>
    <path class="st9" d="M203.5,113.2s6.7-5.3,11.1-2.3c3.3,2.3,4.1,7.5,3.1,10.1-1,2.6-5.3,10.5-8.8,12-7.3,3.2-11.2,1.6-12-4.8-.8-6.8,2-7.4,3.4-8.5,1.4-1.1,3.3-6.4,3.3-6.4Z"/>
  </g>
  <g>
    <path class="st9" d="M69.3,209.4s.5,5.9-1.2,8.6c-2,3.3-5.9,3.3-7.8,1.5-1.1-1.1-2.6-6.5-3.2-9.5s-.3-4.6.5-6.8c0,0,.3-4.9,1.9-8.2s6.4-6.3,12.2-3.1c0,0,1.4-3.9,8.6-3.9,4.5,0-10.9,21.3-10.9,21.3Z"/>
    <path class="st9" d="M70.5,192.6s1.6-7.7,5.5-8.7c4.6-1.1,7,2.6,7.7,5.3,1.4,5,1.4,4.7,3.9,9,4,6.9-2.6,11.1-8.3,8.2s-5.1-5.8-5.3-7.5c-.2-1.8-3.6-6.2-3.6-6.2Z"/>
    <path class="st9" d="M78.6,192.2s1.6-7.7,5.5-8.7c2.5-.6,4.9.2,5.6,1l-9.1,9.7c-.5-.7-1.9-2-1.9-2Z"/>
    <path class="st9" d="M62.5,198s-.8-8.5,4.1-10.5c3.7-1.5,8.5.7,10.1,3s5.8,10.2,5.2,14c-1.3,7.8-4.9,10.3-10.6,7.4-6.1-3.1-5.1-5.8-5.3-7.5-.2-1.8-3.6-6.2-3.6-6.2Z"/>
  </g>
  <polygon class="st9" points="71.6 149.8 66.6 187.5 84.7 189.9 99 175.5 105.4 158.6 71.6 149.8"/>
  <path class="st8" d="M67.7,298.8l36.3,116c2,6.3,7.7,10.5,14.3,10.5h50.8c6.6,0,12.3-4.2,14.3-10.5l36.3-116H67.7ZM94.8,375.3h22l4.2,24.2h-18.7l-7.6-24.2ZM144.2,350h29.4l-4.2,24.2h-25.2v-24.2ZM143.2,374.3h-25.5l-4.2-24.2h29.8v24.2ZM144.2,349v-24.2h33.8l-4.2,24.2h-29.6ZM144.2,323.8v-22h37.8l-3.8,22h-34ZM143.2,323.8h-34.3l-3.8-22h38.1v22ZM143.2,324.8v24.2h-29.9l-4.2-24.2h34.1ZM112.3,349h-25.7l-7.6-24.2h29.1l4.2,24.2ZM112.5,350l4.2,24.2h-22.2l-7.6-24.2h25.6ZM117.9,375.3h25.4v24.2h-21.2l-4.2-24.2ZM143.2,400.5v21.8h-17.2l-3.8-21.8h21ZM144.2,400.5h20.6l-3.8,21.8h-16.9v-21.8ZM144.2,399.5v-24.2h25l-4.2,24.2h-20.8ZM170.3,375.3h22.4l-7.6,24.2h-19l4.2-24.2ZM170.5,374.3l4.2-24.2h25.9l-7.6,24.2h-22.5ZM174.8,349l4.2-24.2h29.4l-7.6,24.2h-26ZM179.2,323.8l3.8-22h32.6l-6.9,22h-29.6ZM104.1,301.8l3.8,22h-29.2l-6.9-22h32.3ZM106.9,413.9l-4.2-13.4h18.5l3.8,21.8h-6.7c-5.3,0-9.9-3.4-11.4-8.4ZM180.6,413.9c-1.6,5-6.2,8.4-11.4,8.4h-7l3.8-21.8h18.9l-4.2,13.4Z"/>
  <polygon class="st9" points="224.5 119.4 230.1 146.1 217.3 134.4 224.5 119.4"/>
</svg>