<?xml version="1.0" encoding="UTF-8"?>
<svg id="Layer_1" xmlns="http://www.w3.org/2000/svg" xmlns:xlink="http://www.w3.org/1999/xlink" version="1.1" viewBox="0 0 616.9 467.1">
  <!-- Generator: Adobe Illustrator 29.7.1, SVG Export Plug-In . SVG Version: 2.1.1 Build 8)  -->
  <defs>
    <style>
      .st0 {
        fill-rule: evenodd;
      }

      .st0, .st1 {
        fill: #fff;
      }

      .st2 {
        fill: url(#linear-gradient);
      }

      .st3 {
        fill: #060c0d;
      }

      .st4 {
        fill: #efc2a6;
      }

      .st5 {
        fill: #efc2a6;
      }

      .st6 {
        fill: #c08355;
      }

      .st7 {
        fill: #21d789;
      }

      .st8 {
        fill: #6b57ff;
      }

      .st9 {
        fill: none;
        stroke: #000;
        stroke-miterlimit: 10;
        stroke-width: 2px;
      }
    </style>
    <linearGradient id="linear-gradient" x1="-1989.3" y1="-143.9" x2="-1979.9" y2="-128.5" gradientTransform="translate(-1622.7 -37) rotate(-171.1) scale(1 -1)" gradientUnits="userSpaceOnUse">
      <stop offset="0" stop-color="#b78a6d"/>
      <stop offset=".1" stop-color="#c4977a"/>
      <stop offset=".4" stop-color="#dbae92"/>
      <stop offset=".6" stop-color="#eabda0"/>
      <stop offset=".8" stop-color="#efc2a6"/>
    </linearGradient>
  </defs>
  <g>
    <rect x="65.4" y="143.5" width="408.3" height="265.8" rx="18.5" ry="18.5"/>
    <g>
      <path class="st8" d="M132.8,194.3h24.8c2.9,0,5.3,2.4,5.3,5.3v171.1h-35.4v-171.1c0-2.9,2.4-5.3,5.3-5.3Z"/>
      <path class="st7" d="M172.9,229.9h24.8c2.9,0,5.3,2.4,5.3,5.3v135.4h-35.4v-135.4c0-2.9,2.4-5.3,5.3-5.3Z"/>
      <path class="st8" d="M241.9,248.7h24.8c2.9,0,5.3,2.4,5.3,5.3v116.7h-35.4v-116.7c0-2.9,2.4-5.3,5.3-5.3Z"/>
      <path class="st7" d="M282.1,308h24.8c2.9,0,5.3,2.4,5.3,5.3v57.3h-35.4v-57.3c0-2.9,2.4-5.3,5.3-5.3Z"/>
      <path class="st8" d="M351,293h24.8c2.9,0,5.3,2.4,5.3,5.3v72.3h-35.4v-72.3c0-2.9,2.4-5.3,5.3-5.3Z"/>
      <path class="st7" d="M391.2,278.1h24.8c2.9,0,5.3,2.4,5.3,5.3v87.2h-35.4v-87.2c0-2.9,2.4-5.3,5.3-5.3Z"/>
      <path class="st1" d="M438,357.6l-2.2,2.3,9.4,8.7H102.3v-190.8l8.7,9.4,2.3-2.2-13.1-14.1-13.1,14.1,2.3,2.2,8.7-9.4v192.8c0,1.1.9,2,2,2h345l-9.4,8.7,2.2,2.3,14.1-13.1-14.1-13.1Z"/>
      <g>
        <path class="st1" d="M130.2,389.3c0,.3,0,.5-.2.7-.1.2-.3.4-.5.5-.2.1-.5.2-.7.2h-1.4v2h1.7c.6,0,1.2-.1,1.7-.4.5-.3.9-.7,1.2-1.2.3-.5.4-1,.4-1.7v-6.6h-2.2v6.4Z"/>
        <path class="st1" d="M138.7,385.7c-.5-.2-1-.3-1.6-.3s-1.1.1-1.6.3c-.5.2-.8.5-1.1.8-.3.4-.4.8-.5,1.2h2c0-.1,0-.3.2-.4s.2-.2.4-.3c.2,0,.4,0,.6,0s.4,0,.5,0c.1,0,.3.2.3.3,0,.1.1.3.1.4h0c0,.2,0,.3,0,.3,0,0-.1.1-.2.1l-1.7.2c-.5,0-.9.2-1.2.4-.4.2-.6.5-.8.8-.2.3-.3.7-.3,1.1s.1.8.3,1.1.5.6.8.8c.4.2.8.3,1.2.3s1-.1,1.3-.3c.3-.2.5-.4.7-.7v.9h2v-4.7c0-.5-.1-1-.4-1.4-.2-.4-.6-.7-1.1-.9ZM137.9,390.7c-.1.2-.3.3-.4.5-.2.1-.4.2-.7.2s-.4,0-.5-.1c-.2,0-.3-.2-.4-.3,0-.1-.1-.3-.1-.4s0-.3.1-.4c0-.1.2-.2.3-.3.1,0,.3-.1.5-.2l1.4-.2v.6c0,.3,0,.5-.2.7Z"/>
        <path class="st1" d="M147.1,385.7c-.4-.2-.8-.3-1.3-.3s-1,.1-1.4.4c-.3.2-.5.5-.7.8v-1h-2v7.2h2v-4.1c0-.3,0-.5.2-.8s.3-.4.5-.5c.2-.1.5-.2.7-.2s.5,0,.6.2c.2.1.3.3.4.5,0,.2.1.5.1.7v4.2h2v-4.5c0-.6-.1-1.1-.3-1.5-.2-.4-.5-.7-.9-1Z"/>
        <path class="st1" d="M154.2,389.6c0,.3,0,.5-.2.8-.1.2-.3.4-.5.5-.2.1-.5.2-.7.2s-.5,0-.6-.2c-.2-.1-.3-.3-.4-.5,0-.2-.1-.5-.1-.7v-4.2h-2v4.5c0,.6.1,1.1.3,1.5.2.4.5.7.9,1,.4.2.8.3,1.3.3s1-.1,1.4-.4c.3-.2.6-.5.8-.8v1h2v-7.2h-2v4.1Z"/>
        <path class="st1" d="M162.5,385.7c-.5-.2-1-.3-1.6-.3s-1.1.1-1.6.3c-.5.2-.8.5-1.1.8-.3.4-.4.8-.5,1.2h2c0-.1,0-.3.2-.4,0-.1.2-.2.4-.3.2,0,.4,0,.6,0s.4,0,.5,0c.1,0,.3.2.3.3,0,.1.1.3.1.4h0c0,.2,0,.3,0,.3,0,0-.1.1-.2.1l-1.7.2c-.5,0-.9.2-1.2.4-.4.2-.6.5-.8.8-.2.3-.3.7-.3,1.1s.1.8.3,1.1.5.6.8.8c.4.2.8.3,1.2.3s1-.1,1.3-.3c.3-.2.5-.4.7-.7v.9h2v-4.7c0-.5-.1-1-.4-1.4-.2-.4-.6-.7-1.1-.9ZM161.8,390.7c-.1.2-.3.3-.4.5-.2.1-.4.2-.7.2s-.4,0-.5-.1-.3-.2-.4-.3c0-.1-.1-.3-.1-.4s0-.3.1-.4c0-.1.2-.2.3-.3.1,0,.3-.1.5-.2l1.4-.2v.6c0,.3,0,.5-.2.7Z"/>
        <path class="st1" d="M168.1,385.9c-.2.2-.4.4-.6.7v-1h-2v7.2h2v-3.7c0-.3,0-.6.2-.8.1-.2.3-.4.6-.5.2-.1.5-.2.9-.2h.6s0-2,0-2h-.3c-.5,0-1,.1-1.3.4Z"/>
        <path class="st1" d="M175.2,385.5l-1.5,4.5-1.7-4.5h-2.1l2.7,6.8-.2.4c0,.1-.2.3-.3.3-.1,0-.2.1-.4.1h-1.2v1.8h1.3c.6,0,1.1-.2,1.5-.5.4-.3.7-.8.9-1.3l3-7.6h-2.1Z"/>
      </g>
      <g>
        <polygon class="st1" points="237.5 392.7 239.7 392.7 239.7 389 244 389 244 387.1 239.7 387.1 239.7 384.9 244.2 384.9 244.2 382.9 237.5 382.9 237.5 392.7"/>
        <path class="st1" d="M250.7,385.9c-.6-.3-1.2-.5-1.9-.5s-1.4.2-2,.5c-.6.3-1,.8-1.4,1.3-.3.6-.5,1.2-.5,1.9s.2,1.4.5,1.9c.3.6.8,1,1.4,1.3.6.3,1.2.5,2,.5s1.1,0,1.6-.3c.5-.2.9-.4,1.2-.8.3-.3.6-.7.8-1.2h-2.2c-.2.2-.4.4-.6.5-.2.1-.5.2-.8.2s-.7,0-.9-.3c-.3-.2-.5-.4-.6-.7,0-.2-.1-.4-.2-.7h5.4v-.5c0-.7-.2-1.4-.5-1.9-.3-.6-.8-1-1.3-1.3ZM247.8,387.2c.3-.2.6-.2.9-.2s.6,0,.9.2c.3.2.5.4.6.7,0,.1.1.3.1.4h-3.3c0-.2,0-.3.1-.4.1-.3.3-.5.6-.7Z"/>
        <path class="st1" d="M259.7,385.9c-.5-.3-1-.5-1.7-.5s-1.1.1-1.5.4c-.3.2-.6.5-.8.8v-3.6h-2v9.8h2v-1c.2.3.5.6.8.8.4.3.9.4,1.5.4s1.2-.2,1.7-.5c.5-.3.9-.8,1.2-1.3.3-.6.4-1.2.4-1.9s-.1-1.4-.4-1.9c-.3-.6-.7-1-1.2-1.3ZM258.9,390.1c-.1.3-.3.5-.6.7-.3.2-.6.2-.9.2s-.6,0-.9-.2c-.3-.2-.5-.4-.6-.7-.1-.3-.2-.6-.2-1s0-.7.2-1c.1-.3.3-.5.6-.7.3-.2.6-.2.9-.2s.6,0,.9.2c.3.2.5.4.6.7.1.3.2.6.2,1s0,.7-.2,1Z"/>
        <path class="st1" d="M265,385.9c-.2.2-.4.4-.6.7v-1h-2v7.2h2v-3.7c0-.3,0-.6.2-.8.1-.2.3-.4.6-.5.2-.1.5-.2.9-.2h.6s0-2,0-2h-.3c-.5,0-1,.1-1.3.4Z"/>
        <path class="st1" d="M272.2,389.6c0,.3,0,.5-.2.8-.1.2-.3.4-.5.5-.2.1-.5.2-.7.2s-.5,0-.6-.2c-.2-.1-.3-.3-.4-.5,0-.2-.1-.5-.1-.7v-4.2h-2v4.5c0,.6.1,1.1.3,1.5.2.4.5.7.9,1,.4.2.8.3,1.3.3s1-.1,1.4-.4c.3-.2.6-.5.8-.8v1h2v-7.2h-2v4.1Z"/>
        <path class="st1" d="M280.5,385.7c-.5-.2-1-.3-1.6-.3s-1.1.1-1.6.3c-.5.2-.8.5-1.1.8-.3.4-.4.8-.5,1.2h2c0-.1,0-.3.2-.4s.2-.2.4-.3c.2,0,.4,0,.6,0s.4,0,.5,0c.1,0,.3.2.3.3,0,.1.1.3.1.4h0c0,.2,0,.3,0,.3,0,0-.1.1-.2.1l-1.7.2c-.5,0-.9.2-1.2.4-.4.2-.6.5-.8.8-.2.3-.3.7-.3,1.1s.1.8.3,1.1.5.6.8.8c.4.2.8.3,1.2.3s1-.1,1.3-.3c.3-.2.5-.4.7-.7v.9h2v-4.7c0-.5-.1-1-.4-1.4-.2-.4-.6-.7-1.1-.9ZM279.7,390.7c-.1.2-.3.3-.4.5-.2.1-.4.2-.7.2s-.4,0-.5-.1c-.2,0-.3-.2-.4-.3,0-.1-.1-.3-.1-.4s0-.3.1-.4c0-.1.2-.2.3-.3.1,0,.3-.1.5-.2l1.4-.2v.6c0,.3,0,.5-.2.7Z"/>
        <path class="st1" d="M286,385.9c-.2.2-.4.4-.6.7v-1h-2v7.2h2v-3.7c0-.3,0-.6.2-.8.1-.2.3-.4.6-.5.2-.1.5-.2.9-.2h.6s0-2,0-2h-.3c-.5,0-1,.1-1.3.4Z"/>
        <path class="st1" d="M293.1,385.5l-1.5,4.5-1.7-4.5h-2.1l2.7,6.8-.2.4c0,.1-.2.3-.3.3-.1,0-.2.1-.4.1h-1.2v1.8h1.3c.6,0,1.1-.2,1.5-.5.4-.3.7-.8.9-1.3l3-7.6h-2.1Z"/>
      </g>
      <g>
        <polygon class="st1" points="352.4 389.4 352.2 390 352 389.4 349.4 382.9 346.6 382.9 346.6 392.7 348.8 392.7 348.8 386.3 348.7 385.9 351.4 392.7 352.9 392.7 355.6 385.8 355.6 386.3 355.6 392.7 357.8 392.7 357.8 382.9 354.9 382.9 352.4 389.4"/>
        <path class="st1" d="M364.1,385.7c-.5-.2-1-.3-1.6-.3s-1.1.1-1.6.3c-.5.2-.8.5-1.1.8-.3.4-.4.8-.5,1.2h2c0-.1,0-.3.2-.4,0-.1.2-.2.4-.3.2,0,.4,0,.6,0s.4,0,.5,0c.1,0,.3.2.3.3,0,.1.1.3.1.4h0c0,.2,0,.3,0,.3,0,0-.1.1-.2.1l-1.7.2c-.5,0-.9.2-1.2.4-.4.2-.6.5-.8.8-.2.3-.3.7-.3,1.1s.1.8.3,1.1.5.6.8.8c.4.2.8.3,1.2.3s1-.1,1.3-.3c.3-.2.5-.4.7-.7v.9h2v-4.7c0-.5-.1-1-.4-1.4-.2-.4-.6-.7-1.1-.9ZM363.3,390.7c-.1.2-.3.3-.4.5-.2.1-.4.2-.7.2s-.4,0-.5-.1-.3-.2-.4-.3c0-.1-.1-.3-.1-.4s0-.3.1-.4c0-.1.2-.2.3-.3.1,0,.3-.1.5-.2l1.4-.2v.6c0,.3,0,.5-.2.7Z"/>
        <path class="st1" d="M369.7,385.9c-.2.2-.4.4-.6.7v-1h-2v7.2h2v-3.7c0-.3,0-.6.2-.8.1-.2.3-.4.6-.5.2-.1.5-.2.9-.2h.6s0-2,0-2h-.3c-.5,0-1,.1-1.3.4Z"/>
        <path class="st1" d="M374.8,387.4c.3-.2.6-.3.9-.3s.4,0,.6.1c.2,0,.4.2.5.3s.3.3.4.5h2.2c-.1-.5-.3-1-.7-1.5-.3-.4-.8-.7-1.3-1-.5-.2-1.1-.4-1.7-.4s-1.4.2-2,.5c-.6.3-1,.8-1.4,1.4-.3.6-.5,1.2-.5,1.9s.2,1.3.5,1.9c.3.6.8,1,1.4,1.4.6.3,1.2.5,2,.5s1.2-.1,1.7-.4c.5-.2.9-.6,1.3-1,.3-.4.6-.9.7-1.5h-2.2c0,.2-.2.4-.4.5-.1.1-.3.3-.5.3-.2,0-.4.1-.6.1-.3,0-.6,0-.9-.3-.3-.2-.5-.4-.6-.7s-.2-.6-.2-1,0-.7.2-1c.1-.3.4-.5.6-.7Z"/>
        <path class="st1" d="M386.8,386.7c-.2-.4-.5-.8-.9-1-.4-.2-.8-.3-1.3-.3s-1,.1-1.4.4c-.3.2-.6.5-.8.9h0c0-.1,0-1.5,0-1.5v-2.2h-2v9.8h2v-4.1c0-.3,0-.5.2-.8.1-.2.3-.4.5-.5.2-.1.5-.2.7-.2s.5,0,.6.2c.2.1.3.3.4.5s.1.5.1.7v4.2h2v-4.5c0-.6-.1-1.1-.3-1.5Z"/>
      </g>
    </g>
  </g>
  <g>
    <rect class="st7" x="490.1" y="244" width="89" height="89" rx="13.8" ry="13.8"/>
    <g>
      <path class="st1" d="M542.9,280.8h0c1.3,0,2.4,1,2.6,2.3.2,1.4-.8,2.7-2.3,2.9-1.4.2-2.7-.9-2.9-2.3-.2-1.5,1.1-2.9,2.6-2.9Z"/>
      <path class="st1" d="M542.9,290.6c-1.5,0-2.8,1.4-2.6,2.9.2,1.4,1.5,2.4,2.9,2.3,1.4-.2,2.5-1.5,2.3-2.9-.2-1.3-1.3-2.3-2.6-2.3h0Z"/>
      <path class="st0" d="M560.2,283h-1.8c-3,0-5.5,2.5-5.5,5.5s2.5,5.5,5.5,5.5h1.8v12.7h-51.1v-12.7h1.8c3,0,5.5-2.5,5.5-5.5s-2.5-5.5-5.5-5.5h-1.8v-12.8h51.1v12.8ZM556.6,303.1v-5.6c-4.2-.8-7.3-4.5-7.3-8.9s3.1-8.1,7.3-8.9v-5.7h-11.1c-.1,1.2-1.1,2.1-2.3,2.3-1.4.2-2.7-.8-2.9-2.3h-27.6v5.7c4.2.8,7.3,4.5,7.3,8.9s-3.1,8.1-7.3,8.9v5.6h27.5c0-1.4,1.2-2.6,2.6-2.6s2.6,1.2,2.6,2.6h11.1Z"/>
    </g>
  </g>
  <g>
    <rect class="st8" x="490.1" y="143.5" width="89" height="89" rx="13.8" ry="13.8"/>
    <g>
      <path class="st1" d="M527.5,165.8l5.3,2.6v4.3h3.7v-4.3c0-1.4-.8-2.7-2-3.3l-5.3-2.6v-4.3h-3.7v4.3c0,1.4.8,2.7,2,3.3Z"/>
      <path class="st1" d="M509.1,176.5v34.7h4.3l11-9.1h20.6l11,9.1h4.3v-34.7h-51.1ZM556.6,207l-10.3-8.6h-23.2l-10.3,8.6v-26.8h43.8v26.8Z"/>
      <path class="st1" d="M521.9,190.8c-1.1,0-2,.9-2,2s.9,2,2,2,2-.9,2-2-.9-2-2-2Z"/>
      <path class="st1" d="M521.9,187.5c1.1,0,2-.9,2-2s-.9-2-2-2-2,.9-2,2,.9,2,2,2Z"/>
      <path class="st1" d="M518.3,191.1c1.1,0,2-.9,2-2s-.9-2-2-2-2,.9-2,2,.9,2,2,2Z"/>
      <path class="st1" d="M525.5,191.1c1.1,0,2-.9,2-2s-.9-2-2-2-2,.9-2,2,.9,2,2,2Z"/>
      <path class="st1" d="M543.9,191.1c1.1,0,2-.9,2-2s-.9-2-2-2-2,.9-2,2,.9,2,2,2Z"/>
      <path class="st1" d="M551.1,191.1c1.1,0,2-.9,2-2s-.9-2-2-2-2,.9-2,2,.9,2,2,2Z"/>
    </g>
  </g>
  <g>
    <path class="st6" d="M341.6,89.8c-3.3,5.7-19.2,19.7-26.3,24.1-7.1,4.3-9.6,13.5-5.5,20.8,1.8,3.2,3.9,5.8,5.6,6,0,0,39.7-16.4,39.7-18.9l-1.5-9.2,2.9-14.6-4.5-18.9-10.5,10.8Z"/>
    <path class="st1" d="M367.1,133.3l12.2,4.1c8-9.6,22.5-10,31-1l6.9,7.3h-146.3c12.7-10.2,33-23.1,56.1-25.7,27.9-3.2,40.1,15.3,40.1,15.3Z"/>
    <path class="st2" d="M352.8,121.3c3.6,1.5,14.4,17.5,17.6,22.3h-26.4c-.7-3.8-.2-7.8,1.7-10.9l7.1-11.4Z"/>
    <g>
      <path class="st5" d="M363,90.9l6.4-7.3c3.7-4.2,9.3-6.1,14.7-5l10.7,2.1.3-.6.8.8,1.1.2-.3.6,2.5,1.8c1.3,1.4,3.8,2.8,4.3,4.8s-2.4,10.6-3,20.5c-.7,11.7-5.7,16.3-5.7,16.3-.7.8-4.1,10.6-4.6,12.2s-8.8,10.6-10.7,11.9c-2.8,2-9.6,1.1-12.4-1-9.5-7.3-12.8-19.4-12.8-19.4-1.9-4.1-2.5-11.1-1.3-14.2l6-17.1c.8-2.5,2.2-4.8,3.9-6.8Z"/>
      <rect class="st3" x="376.8" y="113.6" width="4.8" height="8.7" rx="2.4" ry="2.4" transform="translate(49.5 -103.4) rotate(16.6)"/>
      <path class="st6" d="M402.4,88.7s-10.7,4.4-16.5,6.4c-1.9.7-9.3,7.6-11.3,7.2h0l-27.8,3.6s10-23.7,13.1-25.2,27.8.2,42.5,8Z"/>
      <path d="M378.8,125.5c-.5,0-1.1,0-1.6-.2l-1.7-.6c-.9-.4-1.6-1-2.3-1.8-1.6-1.9-2.4-4.6-2.4-7.6,0-5.7,1.9-9.8,3.5-12.1,1.4-2.1,3.7-3.1,5.7-2.5l4.1,1.3c2.4.8,4.5,3.9,3.7,7.3l-2.7,10.5c-.4,1.6-1.2,3-2.3,4-1.2,1.1-2.7,1.7-4.1,1.7ZM376.4,122.9l1.5.5c1.2.4,2.5,0,3.7-1,.8-.7,1.4-1.8,1.7-3l2.6-10.5c.5-2.2-.8-4.4-2.4-5l-4.1-1.3c-1.2-.4-2.5.3-3.4,1.7-1.4,2.1-3.1,5.8-3.2,11.1,0,2.6.6,4.8,1.9,6.3.5.6,1,1,1.6,1.3Z"/>
      <g>
        <rect class="st3" x="391.9" y="115" width="4.8" height="8.7" rx="2.4" ry="2.4" transform="translate(714.7 378.3) rotate(-157.9)"/>
        <path d="M394.4,127.1c-.5,0-1,0-1.5-.2h-.1s-1.5-.6-1.5-.6c-1.8-.7-3.1-2.4-3.5-4.7-.2-1.4,0-3.1.7-4.6l4.5-9.8c1.5-3.2,5.1-4.3,7.5-3.4l4,1.5c2,.8,3.2,3,2.9,5.5-.3,2.8-1.3,7.1-4.9,11.6-1.9,2.4-4.2,4-6.6,4.4-.5,0-1,.1-1.4.1ZM393.4,125c.6.1,1.3.1,2.1,0,1.9-.4,3.8-1.7,5.4-3.7,3.2-4.2,4.2-8.1,4.4-10.6.2-1.6-.5-3-1.6-3.4l-4-1.5c-1.5-.6-4,.3-5,2.4l-4.5,9.8c-.5,1.1-.7,2.3-.5,3.4.3,1.5,1.1,2.7,2.3,3.1l1.4.5Z"/>
      </g>
      <path class="st6" d="M376.5,129.7l9.7,1.2c.4,0,.7.2,1,.4.3.2.6.4.9.7h0c.5.6,2.1,1.9,3.1,3.1.8.9.3,2.4-.9,2.7l-1.8-.4c-.5-.1-.9.1-1.1.6-.7,1.5-1.2,2.9-2.8,2.6s-1.3-.8-1.7-1.5-1.7-1.3-2.6-.7c0,0-1.6.9-2.3.6-1.8-.8-.3-2.4-1.1-3.5-1-1.4-3,.3-4-2.1s1.9-3.9,3.7-3.6Z"/>
      <line class="st9" x1="388.6" y1="106.5" x2="371.3" y2="100.4"/>
      <path class="st7" d="M395.6,72.4l1.4,5.8c6.2,2.4,11.5,4.2,17,8.2,10.4,7.5,3.7,18.8-4.6,21.8-11.1,4.8-64.3-6.9-67.8-18.3l3.9-12.8c5.2-19.6,47.2-17.4,50.1-4.6Z"/>
      <ellipse class="st4" cx="349.3" cy="108.2" rx="14.5" ry="10.1" transform="translate(229.1 453.5) rotate(-88)"/>
      <path class="st5" d="M389.7,114.7s7.5,13.5,6.5,16.3c-.9,2.5-5.8,1.8-7.6,1.3l-7.2-1.9c-.7.8,7.7-18,8.3-15.7Z"/>
    </g>
  </g>
  <g>
    <path class="st4" d="M267.5,145.4s5.3,4.1,9,4.3c4.4.1,6.9-3.6,6.4-6.5-.3-1.8-4.6-6.6-7.1-9-1.9-1.8-4.2-3.1-6.7-3.8,0,0-4.8-2.7-9-3.4-3.3-.5-10.1,2.2-10.6,9.7,0,0-4.6-1.2-9.1,5.8s27.2,3,27.2,3Z"/>
    <path class="st4" d="M250.6,135.9s-8.4-3.3-11.8-.2c-4,3.7-2,8.3.2,10.7,3.9,4.5,3.6,4.3,6.2,9.4,4.1,8.1,12.2,4.5,13.1-2.8s-2.3-8.5-3.9-9.8c-1.6-1.3-3.7-7.3-3.7-7.3Z"/>
    <path class="st4" d="M260.9,131.6s-7.6-6.1-12.7-2.7c-3.8,2.6-4.7,8.6-3.5,11.5,1.2,3,6.1,12,10.1,13.8,8.3,3.6,12.9,1.8,13.7-5.5.9-7.8-2.3-8.5-3.9-9.8s-3.7-7.3-3.7-7.3Z"/>
  </g>
  <g>
    <path class="st4" d="M437.9,147.5s3.9,5.5,7.4,6.7c4.2,1.4,7.6-1.5,8-4.4s-2.5-7.6-4.2-10.7c-1.3-2.3-3.1-4.2-5.4-5.6,0,0-3.9-4-7.7-5.8-3-1.4-10.3-.8-12.9,6.3,0,0-4.1-2.4-10.4,2.9-4,3.4,25.2,10.7,25.2,10.7Z"/>
    <path class="st4" d="M424.4,133.6s-7.1-5.6-11.2-3.5c-4.9,2.4-4.3,7.4-2.9,10.3,2.5,5.4,2.2,5.2,3.2,10.7,1.6,9,10.4,7.8,13.4,1.1s.2-8.8-.9-10.5-1.5-8.1-1.5-8.1Z"/>
    <path class="st4" d="M413.4,141.7s-7.1-5.6-11.2-3.5c-2.6,1.3-3.7,3.4-3.8,5.5h13.5c0-.9,1.6-1.9,1.6-1.9Z"/>
    <path class="st4" d="M435.5,132.4s-5.6-8-11.4-6.2c-4.4,1.4-7,6.8-6.7,10s2.4,13.2,5.7,16.1c6.9,5.9,11.8,5.4,14.7-1.3,3.1-7.2.2-8.8-.9-10.5-1.2-1.7-1.5-8.1-1.5-8.1Z"/>
  </g>
</svg>