<?xml version="1.0" encoding="UTF-8"?>
<svg id="Layer_1" xmlns="http://www.w3.org/2000/svg" xmlns:xlink="http://www.w3.org/1999/xlink" version="1.1" viewBox="0 0 616.9 467.1">
  <!-- Generator: Adobe Illustrator 29.7.1, SVG Export Plug-In . SVG Version: 2.1.1 Build 8)  -->
  <defs>
    <style>
      .st0 {
        fill: none;
      }

      .st1 {
        fill: url(#linear-gradient);
      }

      .st2 {
        opacity: .2;
      }

      .st2, .st3 {
        fill: #fff;
      }

      .st4 {
        fill: #060c0d;
      }

      .st5 {
        fill: #efc2a6;
      }

      .st6 {
        fill: #efc2a6;
      }

      .st7 {
        fill: #c08355;
      }

      .st8 {
        fill: #21d789;
      }

      .st9 {
        fill: #6b57ff;
      }
    </style>
    <linearGradient id="linear-gradient" x1="842.9" y1="-60.4" x2="864.6" y2="-24.7" gradientTransform="translate(-345.9 177.1) rotate(11.5)" gradientUnits="userSpaceOnUse">
      <stop offset="0" stop-color="#b78a6d"/>
      <stop offset=".1" stop-color="#c4977a"/>
      <stop offset=".4" stop-color="#dbae92"/>
      <stop offset=".6" stop-color="#eabda0"/>
      <stop offset=".8" stop-color="#efc2a6"/>
    </linearGradient>
  </defs>
  <path class="st2" d="M392.2,109.4l-.2-.5-35.9,14.5v-50.8l36.1-14.5-.2-.5-35.9,14.5v-35.5h-.5v35.7l-39.7,16v-35.6h-.5v35.8l-39.7,16v-35.7h-.5v36l-39.7,16v-35.9h-.5v36.1l-39.7,16v-36h-.5v36.2l-39.7,16v-36.1h-.5v36.4l-39.7,16v-36.3h-.5v36.5l-31.8,12.8.2.5,31.6-12.7v50.8l-31.8,12.8.2.5,31.6-12.7v48.6l-31.8,12.8.2.5,31.6-12.7v48.6l-31.8,12.8.2.5,31.6-12.7v43.4h.5v-43.6l39.7-16v43.5h.5v-43.7l39.7-16v43.6h.5v-43.8l39.7-16v43.8h.5v-44l39.7-16v43.9h.5v-44.1l39.7-16v44h.5v-44.2l39.7-16v44.2h.5v-44.4l36.1-14.5-.2-.5-35.9,14.5v-48.6l36.1-14.5-.2-.5-35.9,14.5v-48.6l36.1-14.5ZM355.5,72.8v50.8l-39.7,16v-50.8l39.7-16ZM315.2,89v50.8l-39.7,16v-50.8l39.7-16ZM194.9,188.8l39.7-16v48.6l-39.7,16v-48.6ZM194.4,237.6l-39.7,16v-48.6l39.7-16v48.6ZM235.2,172.5l39.7-16v48.6l-39.7,16v-48.6ZM275.5,156.3l39.7-16v48.6l-39.7,16v-48.6ZM274.9,105.2v50.8l-39.7,16v-50.8l39.7-16ZM234.7,121.4v50.8l-39.7,16v-50.8l39.7-16ZM194.4,137.6v50.8l-39.7,16v-50.8l39.7-16ZM114.3,169.9l39.7-16v50.8l-39.7,16v-50.8ZM114.3,221.2l39.7-16v48.6l-39.7,16v-48.6ZM114.3,319v-48.6l39.7-16v48.6l-39.7,16ZM154.6,302.8v-48.6l39.7-16v48.6l-39.7,16ZM194.9,286.5v-48.6l39.7-16v48.6l-39.7,16ZM235.2,270.3v-48.6l39.7-16v48.6l-39.7,16ZM275.5,254.1v-48.6l39.7-16v48.6l-39.7,16ZM355.5,221.9l-39.7,16v-48.6l39.7-16v48.6ZM355.5,172.7l-39.7,16v-48.6l39.7-16v48.6Z"/>
  <path class="st8" d="M177.3,106.7l-52.3,21.5c-2.8,1.1-4.6,3.8-4.6,6.8v227.3l62.5-25.5V110.5c0-2.9-2.9-4.8-5.6-3.7Z"/>
  <path class="st8" d="M270,123.8l-52.3,21.3c-2.8,1.1-4.6,3.8-4.6,6.8v171.6l62.5-25.3V127.6c0-2.9-2.9-4.8-5.6-3.8Z"/>
  <g>
    <path class="st3" d="M175.5,294.3c-2.4-6.1-9.4-9.6-17.8-9.6s-8.4.8-12.7,2.5c-13.2,5.2-21,16.9-17.4,26,1.7,4.4,5.8,7.5,11.5,8.9,5.8,1.4,12.5.8,19-1.8,1-.4,2.3-1,3.2-1.5l-9-14.5c-.2-.4-.2-.8,0-1.2.3-.3.7-.4,1.1-.3l18.5,7.4c2.8-3.6,4.3-7.5,4.4-11.1v-.2c0-1.6-.3-3.2-.9-4.7Z"/>
    <path class="st3" d="M176.4,318.3v-.2s0,0,0,0v-10.9c-.8,1.6-1.8,3.2-3,4.7v16.6c2.1-3.3,3.2-6.9,3-10.2Z"/>
    <path class="st3" d="M163.8,319.2s0,0,0,0v7.8l7.6,3v-17.9l-15.7-6.3,8,12.9s0,0,0,0c0,0,0,.1,0,.2,0,0,0,.1,0,.2Z"/>
    <path class="st3" d="M127.7,333.3c1.7,4.4,5.8,7.5,11.5,8.9,5.8,1.4,12.5.8,19-1.8,1.3-.5,2.5-1.1,3.6-1.7v-11h0v-6.8c-.9.4-2,1-2.9,1.3-4.4,1.8-9,2.7-13.4,2.7s-4.6-.3-6.8-.8c-5.4-1.3-9.5-4.1-11.8-7.9v14c.1,1.1.4,2.2.8,3.2Z"/>
  </g>
  <g>
    <g>
      <path class="st5" d="M404.8,361.5s-11.9-17.9-7.3-29.9c3.3-8.2,34.5-.3,34.5-.3l8.1,5.5-.7,30.8-34.6-6.1Z"/>
      <path class="st5" d="M427.4,321.7l-2.9-2.3s-4.9-19.7-4.9-23.5c0-2.6,2.5-9.6,8.2-10.4s6.5,6.7,6.5,6.7l4.1,18.9c0,1.4-3.7,0-4.3,1.2l-4.8,9.2-1.8.2Z"/>
      <path class="st5" d="M417,325.3l-2.9-2.3s-4.9-19.7-4.9-23.5c0-2.6,2.5-9.6,8.2-10.4,5.7-.9,6.5,6.7,6.5,6.7l4.1,18.9c0,1.4-3.7,0-4.3,1.2l-4.8,9.2-1.8.2Z"/>
      <path class="st5" d="M406.2,333.2l-2.9-2.3s-4.9-19.7-4.9-23.5c0-2.6,2.5-9.6,8.2-10.4s6.5,6.7,6.5,6.7l4.1,18.9c0,1.4-3.7,0-4.3,1.2l-4.8,9.2-1.8.2Z"/>
      <g>
        <path class="st9" d="M390,300.3l-17.6,9.2c-2.3,1.2-2.9,4.2-1.3,6.2l13.1,15.8,64.5,14.1c9,2,18-4.1,19.4-13.4,1.3-8.7-4.2-16.8-12.7-18.5-27.2-5.7-65.5-13.5-65.5-13.5h.1Z"/>
        <path class="st3" d="M384.1,331.5l-14.1-17.1c-1.1-1.3-.7-3.4.8-4.2l19-10-5.7,31.2Z"/>
      </g>
      <path class="st5" d="M445.1,360.5c1.8-4.7,2.9-10.4.9-15.5l-9.1-9.5c-.3-.3-.6-.7-.9-1-1.2-1.5-4.7-6.1-6.5-6-7.5.4-7.6,9-5,13.8,1.3,2.2,5.2,10.1,8,15.7l-27.7,3.4,37.5,46.9,51.1,6.8-48.3-54.7Z"/>
      <path class="st5" d="M445.8,314.1s-13.1,6.6-15.4,7.9c-3.3,2.1-8.4,1.6-10.3-1.7-1.9-3.3-1.9-7.5,1.9-11.5,3.8-4,14.2-8.8,19.3-9.1,5-.3,9,1.8,9.4,5.6.5,3.8,0,5.7-5,8.8Z"/>
      <path class="st9" d="M378.6,324.8l-9.3-11.2c-.8-.9-.5-2.3.6-2.8l12.5-6.5-3.8,20.6Z"/>
    </g>
    <g>
      <path class="st1" d="M520.8,308.8l-.3-6.2c-5,.2-7.3-15.4-11.8-17.6l-32.4,19,22.4,33.6,17.1,1.3,5.1-30.1Z"/>
      <path class="st6" d="M518.5,265.6l-.3-10.6c-.2-6-3.5-11.5-8.8-14.3l-10.4-5.6v-.7c.1,0-1.1.1-1.1.1l-1.1-.6v.7c-.1,0-3.5-.2-3.5-.2-2.1.2-5.1-.3-6.9,1-2.3,1.7-7.5,6.6-13.2,15.7s-.5,6.9-2.6,8.4c0,0-15.6,6.1-16.7,9.1-1,2.7,3.6,5.5,5.5,6.3l6.4,3.1c0,1.2-1.5,5.8-2.3,7.5s0,14.9.7,17.3c1,3.6,5.5,7.2,9.2,6.6,7.3-1.2,20-14.5,20-14.5,4.5-2.1,4.7-2.5,5.9-5.9l17.8-15c1-2.7,1.5-5.5,1.5-8.4Z"/>
      <rect class="st4" x="473.7" y="256.1" width="5.2" height="9.4" rx="2.6" ry="2.6" transform="translate(811.9 687.8) rotate(-156.9)"/>
      <path class="st7" d="M475.3,283.9l-8.9-5.7c-.4-.2-.7-.3-1.1-.4-.4,0-.8-.1-1.2,0h0c-.9.1-3,.2-4.7.5s-1.9,1.8-1.2,2.9l1.8.9c.5.2.7.8.6,1.3-.5,1.8-1,3.2.5,4.1.8.5,1.7.2,2.5,0s2.3.1,2.7,1.2c0,0,.8,1.8,1.5,2,2.1.6,1.9-1.8,3.4-2.1s2.4,2.3,4.8,1.1c1.7-.9,1.1-4.5-.6-5.5Z"/>
      <path d="M505.4,266.8l-17.8-6.6c.5-1.5.8-2.9.9-4.1.3-2.7-.9-5.1-3-5.9l-4.3-1.7h0c-2.6-1-6.4.1-8.1,3.5l-5.1,10.6c-.8,1.6-1.1,3.3-.8,4.9.4,2.4,1.7,4.3,3.7,5.1l1.6.6h.1c.6.2,1.1.2,1.8.2s.9,0,1.4-.1c2.6-.4,5.2-2.1,7.2-4.6,1.8-2.3,3.1-4.5,3.9-6.5l17.8,6.6.7-1.9ZM481.5,267.4c-1.8,2.2-3.9,3.6-6,3.9-.8.1-1.6.1-2.3,0l-1.6-.6c-1.3-.5-2.2-1.8-2.4-3.5-.2-1.2,0-2.5.6-3.7l5-10.6c1.1-2.3,3.9-3.2,5.6-2.5l4.3,1.7c1.3.5,2,2,1.8,3.8-.3,2.8-1.5,7-5,11.5Z"/>
      <path class="st3" d="M496.6,335.6c-9.3.6-22,1.8-34.5,26.8-9.6,19.1-40,53.7-40,53.7h127.7c3.6,0,6.5-2.9,6.6-6.5l.3-29s3.8-36.2-23-55.9l-37,10.8Z"/>
      <path class="st7" d="M550.6,303.1c-5.6-7.1-12.2-16.6-13.4-23.7l-10.8-25.7-1.7,1.8c-7.1-5.9-23.6-16.3-37.5-19.2,0,0,5.9,11.1,9.3,16.8,1.1,1.9,2.5,12.7,4.4,13.8l6.3,6.8-9.4,7.7-9.1,26.2c-.9,2.6-2.3,4.9-4.2,6.9-6.7,7-2.2,21.7,11.9,21l43.8-5.3c1.8.4,4.8-1.4,7.9-4,6.9-5.8,7.9-16.1,2.3-23.2Z"/>
      <path class="st8" d="M510.5,222.9l-11.5,8.5c-6.8-2.3-13-3.4-19.9-5-15.2-3.4-19.3-.9-14.4,4.3,0,0,42.3,30.9,72.5,48.8l10.4-15.6c2.5-3.7,2.1-8.6-1-11.9l-26.7-28.3c-2.4-2.6-6.4-3-9.3-.8Z"/>
      <ellipse class="st5" cx="500.5" cy="280.8" rx="15.8" ry="11" transform="translate(22.3 598.2) rotate(-62.9)"/>
    </g>
  </g>
  <path class="st8" d="M153.1,383.7c-.6,0-1.2-.2-1.7-.6l-12.9-11.7c-1-.9-1.1-2.5-.2-3.5.9-1,2.5-1.1,3.5-.2l10.5,9.5c2.6-5.2,8.4-16.1,14.1-23.7.8-1.1,2.4-1.3,3.5-.5,1.1.8,1.3,2.4.5,3.5-7.3,9.7-15,25.7-15.1,25.8-.3.7-1,1.2-1.8,1.4-.2,0-.3,0-.5,0Z"/>
  <path class="st8" d="M250,347.2c-.6,0-1.2-.2-1.7-.6l-12.9-11.7c-1-.9-1.1-2.5-.2-3.5.9-1,2.5-1.1,3.5-.2l10.5,9.5c2.6-5.2,8.4-16.1,14.1-23.7.8-1.1,2.4-1.3,3.5-.5,1.1.8,1.3,2.4.5,3.5-7.3,9.7-15,25.7-15.1,25.8-.3.7-1,1.2-1.8,1.4-.2,0-.3,0-.5,0Z"/>
  <path class="st9" d="M363.6,308.4c-3.5-6.5-8.2-11.9-12.6-16.1,2.1-4,4.9-8.3,8.4-12.8.8-1.1.7-2.7-.4-3.5-1.1-.8-2.7-.7-3.5.4-3.4,4.4-6.1,8.6-8.3,12.5-5.1-4.2-9.1-6.4-9.5-6.6-1.2-.7-2.7-.2-3.4,1-.7,1.2-.2,2.7,1,3.4,0,0,4.3,2.4,9.5,6.8-4.9,10.1-6,17.1-6.1,17.6-.2,1.4.8,2.6,2.1,2.8.1,0,.2,0,.4,0,1.2,0,2.3-.9,2.5-2.1,0,0,.9-6,5-14.8,3.8,3.7,7.6,8.3,10.5,13.7.5.8,1.3,1.3,2.2,1.3s.8,0,1.2-.3c1.2-.7,1.7-2.2,1-3.4Z"/>
  <g>
    <path class="st0" d="M258.9,297.9c.9,0,1.6-.3,2.3-.8l-5.6-1.3c.6,1.2,1.9,2.1,3.3,2.1Z"/>
    <path class="st0" d="M236.3,255.8c-.7,0-1.3.3-1.7.8l1.7-.8s0,0,0,0Z"/>
    <path class="st0" d="M263.2,262.8c0-2-1.7-3.7-3.7-3.7s-1.1.2-1.6.4l4.5,5.6c.5-.6.8-1.4.8-2.3Z"/>
    <path class="st3" d="M219.1,269.2v14.6c0,.9.6,1.7,1.5,1.9l32.6,7.5c.5-2.7,2.8-4.7,5.6-4.7s5.7,2.6,5.7,5.7,0,1.1-.2,1.6l2.9.7c.6.1,1.2,0,1.7-.4.5-.4.7-.9.7-1.5v-15.8l-50.2-11.4c-.2.6-.3,1.2-.3,1.9ZM247.7,276.9c2.4,0,4.3,1.9,4.3,4.3s-1.9,4.3-4.3,4.3-4.3-1.9-4.3-4.3,1.9-4.3,4.3-4.3ZM229.5,273.1c3.1,0,5.7,2.6,5.7,5.7s-2.6,5.7-5.7,5.7-5.7-2.6-5.7-5.7,2.6-5.7,5.7-5.7Z"/>
    <path class="st3" d="M236.3,260.4c1.3,0,2.3-1,2.3-2.3s0-.7-.2-1l-4.2,1.9c.3.9,1.2,1.5,2.1,1.5Z"/>
    <path class="st3" d="M229.5,282.5c2,0,3.7-1.7,3.7-3.7s-1.7-3.7-3.7-3.7-3.7,1.7-3.7,3.7,1.7,3.7,3.7,3.7Z"/>
    <path class="st3" d="M253.8,262.8c0-1.4.5-2.6,1.3-3.6l-4.7-5.8c-.4-.5-1-.7-1.5-.7s-.5,0-.8.2l-7.8,3.5c.3.6.4,1.2.4,1.8,0,2.4-1.9,4.3-4.3,4.3s-3.3-1.1-4-2.7l-9.9,4.4c-.8.3-1.4.8-1.9,1.4l48.5,11-7-8.6c-.8.4-1.6.6-2.6.6-3.1,0-5.7-2.6-5.7-5.7Z"/>
    <path class="st3" d="M258.9,290.5c-1.9,0-3.4,1.4-3.7,3.2l7.2,1.6c.1-.4.2-.7.2-1.1,0-2-1.7-3.7-3.7-3.7Z"/>
    <path class="st3" d="M255.8,262.8c0,2,1.7,3.7,3.7,3.7s.9,0,1.2-.2l-4.4-5.4c-.4.6-.6,1.2-.6,2Z"/>
    <path class="st3" d="M247.7,283.5c1.3,0,2.3-1,2.3-2.3s-1-2.3-2.3-2.3-2.3,1-2.3,2.3,1,2.3,2.3,2.3Z"/>
  </g>
  <g>
    <path class="st3" d="M327.2,247.9c4.7-3.9,8.3-3.1,10-2.3,0,0,.1,0,.2.1,2.2-2.2,4.9-4.1,7.7-5.3,1.7-.7,3.5-1.2,5.2-1.3.2-.7.4-1.4.4-2.1,0-1.6-.7-2.9-2-3.8-1.4-1-3.6-1.4-5.9-1.4s-5.3.5-7.9,1.6c-8.1,3.4-12.9,8.8-12.9,14.4s.3,2.8,1,3.9c1.4-1.2,2.8-2.4,4.2-3.5l.3-.2Z"/>
    <path class="st3" d="M330.9,259.2c0-.9.1-1.9.3-2.9-.9.2-1.7.3-2.5.3-2,0-3.8-.5-5.3-1.5-.3-.2-.5-.4-.8-.6-4,3.7-7.3,7.7-7.3,12s.9,4.5,2.7,5.7c2.3,1.5,5.8,1.5,9.5,0,3.3-1.4,6.3-3.7,8.6-6.4-3.1-.7-5.1-2.2-5.1-6.5Z"/>
    <path class="st3" d="M331.9,254.1c.9-2.4,2.3-4.8,4.1-6.9-.6-.2-1.2-.3-1.8-.3-1.7,0-3.7.8-5.7,2.5l-.3.2c-1.4,1.1-2.8,2.3-4.1,3.5.1.1.3.2.4.3,1.9,1.2,4.5,1.5,7.4.7Z"/>
    <path class="st3" d="M328.7,256.6c.8,0,1.7,0,2.5-.3,0-.4.2-.7.3-1.1-3.3.7-6.2.2-8.2-1.5-.3.2-.5.5-.8.7.3.2.5.4.8.6,1.5,1,3.3,1.5,5.3,1.5Z"/>
    <path class="st3" d="M331.5,255.3c.1-.4.2-.8.4-1.1-2.9.8-5.5.5-7.4-.7-.1,0-.3-.2-.4-.3-.3.2-.5.4-.8.7,1.9,1.6,4.8,2.2,8.2,1.5Z"/>
    <path class="st3" d="M341.8,251.4c.4,1.2.6,2.5.6,3.8,0,2.9-1.1,6-2.9,9,.5,0,.9,0,1.5.1,1.4.1,3,.2,4.6.5,3.3.5,6.2-.3,8.4-2.2,4.4-3.8,5.5-11.3,5.5-15.1s-.9-3.9-2.6-5.1c-1.4-.9-3.2-1.4-5.1-1.4s0,0,0,0c-1.7,3.9-5.7,7.6-9.9,10.4Z"/>
    <path class="st3" d="M339,246.9c.8.7,1.5,1.6,2,2.7,3.4-2.4,6.6-5.3,8.3-8.2-1.1.2-2.3.5-3.5,1-2.5,1-4.8,2.7-6.8,4.6Z"/>
    <path class="st3" d="M341.5,250.5c.1.3.2.6.3,1,4.2-2.8,8.1-6.5,9.9-10.4-.4,0-.8,0-1.1,0-1.7,3.4-5.2,6.7-9.1,9.4Z"/>
    <path class="st3" d="M341.1,249.5c.2.3.3.6.4.9,3.9-2.6,7.4-6,9.1-9.4-.4,0-.8.1-1.2.2-1.7,3-4.8,5.9-8.3,8.2Z"/>
    <path class="st3" d="M340.1,252.5c-1.8,1.1-3.7,2-5.3,2.7-.4.2-.9.3-1.3.5-.3,1.2-.5,2.3-.5,3.4,0,3.2,1.2,4.2,4.5,4.7,1.9-2.8,3-5.9,3-8.7s-.1-1.9-.3-2.7Z"/>
    <path class="st3" d="M339.4,250.6c-.5-.9-1-1.7-1.7-2.3-1.3,1.5-2.5,3.2-3.3,5,1.6-.7,3.3-1.6,5-2.6Z"/>
    <path class="st3" d="M334.4,254.3c-.2,0-.4.1-.5.2-.2.4-.3.8-.4,1.2.4-.1.9-.3,1.3-.5,1.7-.7,3.5-1.6,5.3-2.7,0-.3-.2-.7-.3-1-1.8,1.1-3.7,2.1-5.4,2.8Z"/>
    <path class="st3" d="M334.4,253.3c-.2.4-.4.9-.5,1.3.2,0,.4-.1.5-.2,1.7-.7,3.6-1.7,5.4-2.8-.1-.3-.3-.6-.4-.9-1.7,1.1-3.4,2-5,2.6Z"/>
    <path class="st3" d="M341.8,251.4c-.3.2-.6.4-.9.6.3,1,.5,2.1.5,3.3,0,2.9-1.1,6-3,8.8.3,0,.7,0,1.1.1,1.8-2.9,2.9-6,2.9-9s-.2-2.6-.6-3.8Z"/>
    <path class="st3" d="M339,246.9c-.2.2-.5.5-.7.7.8.7,1.4,1.5,1.9,2.5.3-.2.6-.4.8-.6-.5-1-1.2-1.9-2-2.7Z"/>
    <path class="st3" d="M341,252c.3-.2.6-.4.9-.6-.1-.3-.2-.7-.3-1-.3.2-.6.4-.8.6.1.3.2.6.3,1Z"/>
    <path class="st3" d="M340.7,251c.3-.2.6-.4.8-.6-.1-.3-.3-.6-.4-.9-.3.2-.6.4-.8.6.2.3.3.6.4.9Z"/>
    <path class="st3" d="M341,252c-.3.2-.6.4-.9.6.2.9.3,1.8.3,2.7,0,2.8-1.1,5.9-3,8.7.3,0,.7.1,1.1.1,1.8-2.9,3-6,3-8.8s-.2-2.2-.5-3.3Z"/>
    <path class="st3" d="M339.4,250.6c.3-.2.6-.4.8-.5-.5-1-1.1-1.8-1.9-2.5-.2.2-.5.5-.7.7.7.6,1.3,1.4,1.7,2.3Z"/>
    <path class="st3" d="M339.8,251.5c.1.3.2.7.3,1,.3-.2.6-.4.9-.6,0-.3-.2-.7-.3-1-.3.2-.6.4-.9.5Z"/>
    <path class="st3" d="M339.8,251.5c.3-.2.6-.4.9-.5-.1-.3-.3-.6-.4-.9-.3.2-.6.4-.8.5.1.3.3.6.4.9Z"/>
    <path class="st9" d="M362.3,208.9l-52.3,21.2c-2.8,1.1-4.6,3.8-4.6,6.9v49.5l62.5-25.1v-48.7c0-2.9-2.9-4.8-5.6-3.8ZM350.3,239.1c-1.7.2-3.5.6-5.2,1.3-2.8,1.2-5.5,3-7.7,5.3,0,0-.1,0-.2-.1-1.7-.8-5.3-1.6-10,2.3l-.3.2c-1.4,1.1-2.8,2.3-4.2,3.5-.6-1.1-1-2.4-1-3.9,0-5.7,4.8-11.1,12.9-14.4,2.6-1.1,5.4-1.6,7.9-1.6s4.5.5,5.9,1.4c1.4.9,2,2.2,2,3.8s-.1,1.4-.4,2.1ZM322.6,254.5c.2-.2.5-.5.8-.7.2-.2.5-.4.8-.7,1.4-1.2,2.8-2.3,4.1-3.5l.3-.2c2-1.7,3.9-2.5,5.7-2.5s1.2.1,1.8.3c-1.8,2.1-3.2,4.5-4.1,6.9-.1.4-.3.8-.4,1.1-.1.4-.2.7-.3,1.1-.2,1-.3,1.9-.3,2.9,0,4.3,2.1,5.8,5.1,6.5-2.3,2.7-5.3,5.1-8.6,6.4-3.7,1.5-7.2,1.5-9.5,0-1.8-1.2-2.7-3.1-2.7-5.7,0-4.3,3.3-8.3,7.3-12ZM332.9,259.2c0-1.1.2-2.3.5-3.4.1-.4.3-.8.4-1.2.2-.4.3-.9.5-1.3.8-1.7,1.9-3.4,3.3-5,.2-.3.5-.5.7-.7.2-.2.5-.5.7-.7,2-1.9,4.3-3.5,6.8-4.6,1.2-.5,2.3-.8,3.5-1,.4,0,.8-.1,1.2-.2.4,0,.8,0,1.1,0,0,0,0,0,0,0,2,0,3.8.5,5.1,1.4,1.7,1.1,2.6,2.9,2.6,5.1,0,3.8-1.2,11.3-5.5,15.1-2.2,1.9-5.1,2.7-8.4,2.2-1.7-.2-3.2-.4-4.6-.5-.5,0-1,0-1.5-.1-.4,0-.7,0-1.1-.1-.4,0-.7,0-1.1-.1-3.3-.5-4.5-1.5-4.5-4.7Z"/>
  </g>
  <g>
    <path class="st3" d="M83.8,377.2l-.5-.3c-.6-.4-1-.7-1.8-42.4-.4-20.5-.6-41.3-.6-41.9V122.3h2v170.3c0,3.7,1,72.5,1.8,82.1l315.6-127,.7,1.9-317.2,127.7Z"/>
    <polygon class="st3" points="391.4 243.5 390.7 245.4 399.9 248.9 395.7 257.8 397.5 258.7 402.6 247.8 391.4 243.5"/>
    <polygon class="st3" points="90.1 128.9 88.6 130.3 81.9 123.1 75.2 130.3 73.7 128.9 81.9 120.1 90.1 128.9"/>
  </g>
</svg>