<?xml version="1.0" encoding="UTF-8" standalone="no"?>
<svg
   id="Layer_1"
   version="1.1"
   viewBox="0 0 248.2 189.39999"
   width="248.2"
   height="189.39999"
   xmlns="http://www.w3.org/2000/svg"
   xmlns:svg="http://www.w3.org/2000/svg">
  <!-- Generator: Adobe Illustrator 29.7.1, SVG Export Plug-In . SVG Version: 2.1.1 Build 8)  -->
  <defs
     id="defs1">
    <style
       id="style1">
      .st0 {
        fill: #8e8e8e;
      }

      .st1 {
        fill: #3c2262;
      }

      .st2 {
        fill: #27282a;
      }

      .st3 {
        fill: #fff;
      }

      .st4 {
        fill: #6e37c1;
      }

      .st5 {
        fill: #8741f5;
      }

      .st6 {
        fill: #21d789;
      }

      .st7 {
        fill: #221633;
      }

      .st8 {
        fill: #6936b8;
      }
    </style>
  </defs>
  <rect
     x="10"
     y="10"
     width="228.2"
     height="169.39999"
     rx="13"
     ry="13"
     id="rect2" />
  <g
     id="g43"
     transform="translate(-3.1000001,-5.6999998)">
    <path
       class="st3"
       d="m 52.3,162.2 c -0.7,-0.5 -1.2,-1.1 -1.5,-2 -0.4,-0.9 -0.5,-1.9 -0.5,-3 0,-1.1 0.2,-2.2 0.5,-3.1 0.4,-0.9 0.9,-1.6 1.5,-2 0.7,-0.5 1.4,-0.7 2.3,-0.7 0.9,0 1.7,0.2 2.3,0.7 0.6,0.5 1.2,1.2 1.5,2 0.4,0.9 0.5,1.9 0.5,3.1 0,1.2 -0.2,2.2 -0.5,3 -0.3,0.8 -0.9,1.5 -1.5,2 -0.6,0.5 -1.4,0.7 -2.3,0.7 -0.9,0 -1.7,-0.2 -2.3,-0.7 z m 3.9,-1.3 c 0.4,-0.3 0.7,-0.8 1,-1.5 0.2,-0.7 0.3,-1.4 0.3,-2.3 0,-0.9 -0.1,-1.7 -0.3,-2.3 -0.2,-0.7 -0.5,-1.2 -1,-1.5 -0.5,-0.3 -0.9,-0.5 -1.5,-0.5 -0.6,0 -1.1,0.2 -1.5,0.5 -0.4,0.3 -0.7,0.9 -1,1.5 -0.2,0.7 -0.3,1.4 -0.3,2.3 0,0.9 0.1,1.7 0.3,2.3 0.2,0.7 0.5,1.2 1,1.5 0.4,0.3 0.9,0.5 1.5,0.5 0.6,0 1.1,-0.2 1.5,-0.5 z"
       id="path41" />
    <path
       class="st3"
       d="m 127.1,154.4 h -2.7 V 153 h 1.5 c 0.5,0 0.9,-0.1 1.2,-0.4 0.3,-0.3 0.4,-0.7 0.4,-1.2 h 1.2 v 11.4 h -1.6 v -8.3 z"
       id="path42" />
    <path
       class="st3"
       d="m 195.9,161.3 4.6,-4.2 c 0.4,-0.4 0.7,-0.8 0.9,-1.2 0.2,-0.4 0.3,-0.8 0.3,-1.2 0,-0.4 0,-0.8 -0.3,-1.1 -0.2,-0.3 -0.4,-0.5 -0.8,-0.7 -0.3,-0.2 -0.7,-0.3 -1.1,-0.3 -0.4,0 -0.9,0.1 -1.2,0.3 -0.4,0.2 -0.6,0.5 -0.8,0.8 -0.2,0.3 -0.3,0.7 -0.3,1.2 h -1.6 c 0,-0.7 0.2,-1.3 0.5,-1.9 0.3,-0.6 0.8,-1 1.4,-1.3 0.6,-0.3 1.3,-0.5 2,-0.5 0.7,0 1.4,0.1 1.9,0.4 0.6,0.3 1,0.7 1.4,1.2 0.3,0.5 0.5,1.1 0.5,1.7 0,0.6 -0.2,1.2 -0.5,1.8 -0.3,0.6 -0.8,1.2 -1.5,1.8 l -3.2,3 h 5.5 v 1.5 h -7.8 v -1.4 z"
       id="path43" />
  </g>
  <rect
     class="st5"
     x="33.899998"
     y="137.2"
     width="180.39999"
     height="0.5"
     id="rect43" />
  <rect
     class="st5"
     x="71.700005"
     y="-214.2"
     width="58.299999"
     height="35.400002"
     transform="rotate(90)"
     id="rect44" />
  <rect
     class="st5"
     x="50.700001"
     y="-141.8"
     width="79.400002"
     height="35.400002"
     transform="rotate(90)"
     id="rect45" />
  <rect
     class="st5"
     x="32.600002"
     y="-69.199997"
     width="97.5"
     height="35.400002"
     transform="rotate(90)"
     id="rect46" />
  <g
     id="g49"
     transform="translate(-3.1000001,-5.6999998)">
    <rect
       class="st3"
       x="54.200001"
       y="139.39999"
       width="1"
       height="7.5999999"
       id="rect47" />
    <rect
       class="st3"
       x="126.7"
       y="139.39999"
       width="1"
       height="7.5999999"
       id="rect48" />
    <rect
       class="st3"
       x="199.2"
       y="139.39999"
       width="1"
       height="7.5999999"
       id="rect49" />
  </g>
</svg>
