<?xml version="1.0" encoding="UTF-8" standalone="no"?>
<svg
   id="Layer_1"
   version="1.1"
   viewBox="0 0 501.99998 253.7"
   width="502"
   height="253.7"
   xmlns="http://www.w3.org/2000/svg"
   xmlns:svg="http://www.w3.org/2000/svg">
  <!-- Generator: Adobe Illustrator 29.7.1, SVG Export Plug-In . SVG Version: 2.1.1 Build 8)  -->
  <defs
     id="defs1">
    <style
       id="style1">
      .st0 {
        fill: #8e8e8e;
      }

      .st1 {
        fill: #3c2262;
      }

      .st2 {
        fill: #27282a;
      }

      .st3 {
        fill: #fff;
      }

      .st4 {
        fill: #6e37c1;
      }

      .st5 {
        fill: #8741f5;
      }

      .st6 {
        fill: #21d789;
      }

      .st7 {
        fill: #221633;
      }

      .st8 {
        fill: #6936b8;
      }
    </style>
  </defs>
  <g
     id="g1266"
     transform="translate(-3.0999996,-191)">
    <rect
       x="13.1"
       y="201"
       width="482"
       height="233.7"
       rx="13"
       ry="16.538378"
       id="rect1"
       style="stroke-width:1.12791" />
    <g
       id="g51">
      <path
         class="st3"
         d="m 52.3,317.3 c -0.7,-0.5 -1.2,-1.1 -1.5,-2 -0.4,-0.9 -0.5,-1.9 -0.5,-3 0,-1.1 0.2,-2.2 0.5,-3.1 0.4,-0.9 0.9,-1.6 1.5,-2 0.7,-0.5 1.4,-0.7 2.3,-0.7 0.9,0 1.7,0.2 2.3,0.7 0.7,0.5 1.2,1.2 1.5,2 0.4,0.9 0.5,1.9 0.5,3.1 0,1.2 -0.2,2.2 -0.5,3 -0.4,0.9 -0.9,1.5 -1.5,2 -0.6,0.5 -1.4,0.7 -2.3,0.7 -0.9,0 -1.7,-0.2 -2.3,-0.7 z m 3.9,-1.3 c 0.4,-0.3 0.7,-0.8 1,-1.5 0.2,-0.7 0.3,-1.4 0.3,-2.3 0,-0.9 -0.1,-1.7 -0.3,-2.3 -0.2,-0.7 -0.5,-1.2 -1,-1.5 -0.5,-0.3 -0.9,-0.5 -1.5,-0.5 -0.6,0 -1.1,0.2 -1.5,0.5 -0.4,0.3 -0.7,0.9 -1,1.5 -0.2,0.7 -0.3,1.4 -0.3,2.3 0,0.9 0.1,1.7 0.3,2.3 0.2,0.7 0.5,1.2 1,1.5 0.4,0.3 0.9,0.5 1.5,0.5 0.6,0 1.1,-0.2 1.5,-0.5 z"
         id="path49" />
      <path
         class="st3"
         d="M 200.6,315.2 H 195 v -1.4 l 5,-7.2 h 0.9 l 0.6,0.3 -4.7,6.8 h 4 v -7.1 h 1.6 v 7.1 h 1.7 v 1.4 h -1.7 v 2.7 h -1.6 v -2.7 z"
         id="path50" />
      <path
         class="st3"
         d="m 342.6,317.6 c -0.6,-0.3 -1.1,-0.7 -1.4,-1.1 -0.3,-0.5 -0.5,-1 -0.5,-1.7 0,-0.7 0,-0.9 0.3,-1.2 0.2,-0.4 0.5,-0.7 0.8,-1 0.3,-0.3 0.7,-0.5 1.2,-0.6 -0.4,0 -0.7,-0.3 -1,-0.5 -0.3,-0.2 -0.5,-0.5 -0.7,-0.9 -0.2,-0.4 -0.2,-0.7 -0.2,-1.2 0,-0.5 0.2,-1.1 0.5,-1.6 0.3,-0.5 0.7,-0.8 1.3,-1.1 0.6,-0.3 1.2,-0.4 1.9,-0.4 0.7,0 1.4,0.1 1.9,0.4 0.5,0.3 1,0.6 1.3,1.1 0.3,0.5 0.5,1 0.5,1.6 0,0.6 0,0.8 -0.2,1.2 -0.2,0.4 -0.4,0.7 -0.6,0.9 -0.3,0.2 -0.6,0.4 -1,0.5 0.4,0 0.8,0.3 1.2,0.5 0.4,0.2 0.6,0.6 0.8,1 0.2,0.4 0.3,0.8 0.3,1.2 0,0.6 -0.2,1.2 -0.5,1.7 -0.3,0.5 -0.8,0.9 -1.4,1.1 -0.6,0.3 -1.3,0.4 -2.1,0.4 -0.8,0 -1.5,-0.1 -2.1,-0.4 z m 3.4,-1.2 c 0.4,-0.2 0.7,-0.4 0.9,-0.7 0.2,-0.3 0.3,-0.6 0.3,-1 0,-0.4 0,-0.7 -0.3,-1 -0.2,-0.3 -0.5,-0.5 -0.9,-0.7 -0.4,-0.2 -0.8,-0.3 -1.3,-0.3 -0.5,0 -0.9,0 -1.2,0.3 -0.4,0.2 -0.7,0.4 -0.9,0.7 -0.2,0.3 -0.3,0.6 -0.3,1 0,0.4 0.1,0.7 0.3,1 0.2,0.3 0.5,0.5 0.9,0.7 0.4,0.2 0.8,0.3 1.3,0.3 0.5,0 0.9,0 1.3,-0.3 z m -0.2,-5.2 c 0.3,-0.2 0.5,-0.4 0.7,-0.6 0.2,-0.2 0.3,-0.6 0.3,-1 0,-0.4 0,-0.7 -0.3,-1 -0.2,-0.3 -0.4,-0.5 -0.7,-0.7 -0.3,-0.2 -0.7,-0.2 -1.1,-0.2 -0.4,0 -0.8,0 -1.1,0.2 -0.3,0.2 -0.5,0.4 -0.7,0.7 -0.2,0.3 -0.3,0.6 -0.3,1 0,0.4 0,0.7 0.3,1 0.2,0.3 0.4,0.5 0.8,0.7 0.3,0.2 0.7,0.2 1,0.2 0.3,0 0.8,0 1.1,-0.2 z"
         id="path51" />
    </g>
    <g
       id="g63">
      <path
         class="st5"
         d="m 90.9,309.5 h -2.7 v -1.4 h 1.5 c 0.5,0 0.9,-0.1 1.2,-0.4 0.3,-0.3 0.4,-0.7 0.4,-1.2 h 1.2 v 11.4 h -1.6 v -8.3 z"
         id="path52" />
      <path
         class="st5"
         d="m 123.3,316.5 4.6,-4.2 c 0.4,-0.4 0.7,-0.8 0.9,-1.2 0.2,-0.4 0.3,-0.8 0.3,-1.2 0,-0.4 0,-0.8 -0.3,-1.1 -0.3,-0.3 -0.4,-0.5 -0.8,-0.7 -0.4,-0.2 -0.7,-0.3 -1.1,-0.3 -0.4,0 -0.9,0 -1.2,0.3 -0.4,0.2 -0.6,0.5 -0.8,0.8 -0.2,0.3 -0.3,0.7 -0.3,1.2 H 123 c 0,-0.7 0.2,-1.3 0.5,-1.9 0.3,-0.6 0.8,-1 1.4,-1.3 0.6,-0.3 1.3,-0.5 2,-0.5 0.7,0 1.4,0.1 1.9,0.4 0.5,0.3 1,0.7 1.4,1.2 0.3,0.5 0.5,1.1 0.5,1.7 0,0.6 -0.2,1.2 -0.5,1.8 -0.3,0.6 -0.8,1.2 -1.5,1.8 l -3.2,3 h 5.5 v 1.5 h -7.8 v -1.4 z"
         id="path53" />
      <path
         class="st5"
         d="m 161.2,317.6 c -0.6,-0.3 -1.1,-0.7 -1.4,-1.2 -0.3,-0.5 -0.5,-1.1 -0.6,-1.7 h 1.6 c 0,0.4 0.1,0.7 0.3,1 0.2,0.3 0.5,0.5 0.8,0.7 0.4,0.2 0.7,0.2 1.2,0.2 0.5,0 0.9,0 1.2,-0.3 0.3,-0.3 0.6,-0.4 0.8,-0.8 0.2,-0.4 0.3,-0.7 0.3,-1.1 0,-0.4 -0.1,-0.8 -0.3,-1.2 -0.2,-0.3 -0.5,-0.6 -0.9,-0.8 -0.4,-0.2 -0.8,-0.3 -1.2,-0.3 h -1.5 v -1.3 l 3.1,-2.8 h -5 v -1.5 h 7.1 v 1.4 l -3.8,3.4 v -0.5 c 0.9,0 1.6,0.1 2.2,0.4 0.6,0.3 1.1,0.7 1.4,1.3 0.3,0.5 0.5,1.2 0.5,1.9 0,0.7 -0.2,1.3 -0.5,1.9 -0.3,0.5 -0.8,1 -1.4,1.3 -0.6,0.3 -1.3,0.5 -2.1,0.5 -0.8,0 -1.4,-0.1 -2,-0.4 z"
         id="path54" />
      <path
         class="st5"
         d="m 234.1,317.6 c -0.6,-0.3 -1.1,-0.6 -1.4,-1.1 -0.4,-0.5 -0.6,-1 -0.7,-1.5 h 1.6 c 0,0.3 0.2,0.6 0.5,0.8 0.3,0.2 0.5,0.4 0.8,0.6 0.3,0.1 0.7,0.2 1.1,0.2 0.4,0 0.9,-0.1 1.2,-0.3 0.4,-0.2 0.6,-0.5 0.9,-0.9 0.2,-0.4 0.3,-0.8 0.3,-1.3 0,-0.5 -0.1,-0.9 -0.3,-1.3 -0.2,-0.4 -0.5,-0.7 -0.9,-0.9 -0.4,-0.2 -0.8,-0.3 -1.2,-0.3 -0.4,0 -0.6,0 -0.9,0.2 -0.3,0.1 -0.5,0.2 -0.7,0.4 -0.2,0.2 -0.4,0.4 -0.5,0.6 h -1.5 l 0.5,-6.1 h 6.6 v 1.5 h -5.3 l -0.3,3.2 c 0.1,-0.2 0.4,-0.4 0.6,-0.6 0.3,-0.2 0.5,-0.3 0.9,-0.4 0.4,-0.1 0.6,-0.1 1,-0.1 0.7,0 1.3,0.2 1.9,0.5 0.6,0.3 1,0.8 1.3,1.4 0.3,0.6 0.5,1.2 0.5,2 0,0.8 -0.2,1.4 -0.5,2 -0.3,0.6 -0.8,1.1 -1.4,1.4 -0.6,0.3 -1.3,0.5 -2.1,0.5 -0.8,0 -1.3,-0.1 -1.9,-0.4 z"
         id="path55" />
      <path
         class="st5"
         d="m 270.1,317.3 c -0.7,-0.5 -1.2,-1.1 -1.6,-2 -0.4,-0.9 -0.6,-1.8 -0.6,-3 0,-1.2 0.2,-2.3 0.6,-3.2 0.4,-0.9 0.9,-1.6 1.6,-2.1 0.7,-0.5 1.5,-0.7 2.3,-0.7 0.8,0 1.2,0.1 1.7,0.3 0.5,0.2 1,0.6 1.4,1 0.4,0.4 0.7,0.9 0.9,1.5 h -1.7 c -0.2,-0.4 -0.5,-0.8 -0.9,-1 -0.4,-0.2 -0.8,-0.4 -1.3,-0.4 -0.5,0 -1.1,0.2 -1.5,0.5 -0.4,0.3 -0.8,0.8 -1,1.5 -0.3,0.7 -0.4,1.5 -0.4,2.5 v 0 c 0.1,-0.4 0.4,-0.7 0.7,-1 0.3,-0.3 0.7,-0.5 1.1,-0.7 0.4,-0.2 0.9,-0.3 1.4,-0.3 0.7,0 1.4,0.2 1.9,0.5 0.6,0.3 1,0.8 1.4,1.4 0.4,0.6 0.5,1.2 0.5,2 0,0.8 -0.2,1.4 -0.5,2 -0.3,0.6 -0.8,1.1 -1.5,1.4 -0.6,0.3 -1.3,0.5 -2.1,0.5 -0.8,0 -1.7,-0.2 -2.4,-0.7 z m 3.6,-1 c 0.4,-0.2 0.7,-0.5 0.9,-0.9 0.2,-0.4 0.3,-0.8 0.3,-1.3 0,-0.5 -0.1,-0.9 -0.3,-1.3 -0.2,-0.4 -0.5,-0.7 -0.9,-0.9 -0.4,-0.2 -0.8,-0.3 -1.3,-0.3 -0.5,0 -0.9,0.1 -1.3,0.3 -0.4,0.2 -0.7,0.5 -0.9,0.9 -0.2,0.4 -0.3,0.8 -0.3,1.3 0,0.5 0.1,0.9 0.3,1.3 0.2,0.4 0.5,0.7 0.9,0.9 0.4,0.2 0.8,0.3 1.3,0.3 0.5,0 0.9,-0.1 1.3,-0.3 z"
         id="path56" />
      <path
         class="st5"
         d="m 304.7,308.1 v -1.5 h 7.5 v 1.4 l -4.7,9.8 h -1.8 l 4.7,-9.7 z"
         id="path57" />
      <path
         class="st5"
         d="m 383.2,307.2 c 0.7,0.5 1.2,1.1 1.5,2 0.4,0.8 0.5,1.8 0.5,3 0,1.2 -0.2,2.3 -0.6,3.2 -0.4,0.9 -0.9,1.6 -1.6,2.1 -0.7,0.5 -1.4,0.7 -2.3,0.7 -0.9,0 -1.1,0 -1.7,-0.3 -0.5,-0.2 -1,-0.5 -1.4,-0.9 -0.4,-0.4 -0.7,-1 -0.9,-1.6 h 1.7 c 0.2,0.5 0.5,0.8 0.9,1 0.4,0.2 0.8,0.4 1.4,0.4 0.6,0 1,-0.2 1.5,-0.5 0.4,-0.3 0.8,-0.8 1,-1.5 0.2,-0.7 0.4,-1.5 0.4,-2.5 v 0 c -0.2,0.3 -0.4,0.7 -0.7,1 -0.3,0.3 -0.7,0.5 -1.1,0.7 -0.4,0.2 -0.9,0.2 -1.4,0.2 -0.5,0 -1.4,-0.2 -1.9,-0.5 -0.6,-0.3 -1,-0.8 -1.4,-1.4 -0.3,-0.6 -0.5,-1.2 -0.5,-2 0,-0.8 0.2,-1.4 0.5,-2 0.4,-0.6 0.9,-1 1.5,-1.4 0.6,-0.3 1.3,-0.5 2.1,-0.5 0.8,0 1.7,0.2 2.3,0.7 z m -3.7,1 c -0.4,0.2 -0.7,0.5 -0.9,0.9 -0.2,0.4 -0.3,0.8 -0.3,1.3 0,0.5 0.1,0.9 0.3,1.3 0.2,0.4 0.5,0.7 0.9,0.9 0.4,0.2 0.8,0.3 1.3,0.3 0.5,0 0.9,-0.1 1.3,-0.3 0.4,-0.2 0.7,-0.5 0.9,-0.9 0.2,-0.4 0.3,-0.8 0.3,-1.3 0,-0.5 -0.1,-0.9 -0.3,-1.3 -0.2,-0.4 -0.5,-0.7 -0.9,-0.9 -0.4,-0.2 -0.8,-0.3 -1.3,-0.3 -0.5,0 -0.9,0.1 -1.3,0.3 z"
         id="path58" />
      <g
         id="g60">
        <path
           class="st5"
           d="m 411.9,309.5 h -2.7 v -1.4 h 1.5 c 0.5,0 0.9,-0.1 1.2,-0.4 0.3,-0.3 0.4,-0.7 0.4,-1.2 h 1.2 v 11.4 h -1.6 v -8.3 z"
           id="path59" />
        <path
           class="st5"
           d="m 418.2,317.3 c -0.7,-0.5 -1.2,-1.1 -1.5,-2 -0.4,-0.9 -0.5,-1.9 -0.5,-3 0,-1.1 0.2,-2.2 0.5,-3.1 0.4,-0.9 0.9,-1.6 1.5,-2 0.7,-0.5 1.4,-0.7 2.3,-0.7 0.9,0 1.7,0.2 2.3,0.7 0.7,0.5 1.2,1.2 1.5,2 0.4,0.9 0.5,1.9 0.5,3.1 0,1.2 -0.2,2.2 -0.5,3 -0.4,0.9 -0.9,1.5 -1.5,2 -0.6,0.5 -1.4,0.7 -2.3,0.7 -0.9,0 -1.7,-0.2 -2.3,-0.7 z M 422,316 c 0.4,-0.3 0.7,-0.8 1,-1.5 0.2,-0.7 0.3,-1.4 0.3,-2.3 0,-0.9 -0.1,-1.7 -0.3,-2.3 -0.2,-0.7 -0.5,-1.2 -1,-1.5 -0.5,-0.3 -0.9,-0.5 -1.5,-0.5 -0.6,0 -1.1,0.2 -1.5,0.5 -0.4,0.3 -0.7,0.9 -1,1.5 -0.2,0.7 -0.3,1.4 -0.3,2.3 0,0.9 0.1,1.7 0.3,2.3 0.2,0.7 0.5,1.2 1,1.5 0.4,0.3 0.9,0.5 1.5,0.5 0.6,0 1.1,-0.2 1.5,-0.5 z"
           id="path60" />
      </g>
      <g
         id="g62">
        <path
           class="st5"
           d="m 450.2,309.5 h -2.7 v -1.4 h 1.5 c 0.5,0 0.9,-0.1 1.2,-0.4 0.3,-0.3 0.4,-0.7 0.4,-1.2 h 1.2 v 11.4 h -1.6 v -8.3 z"
           id="path61" />
        <path
           class="st5"
           d="M 456.7,309.5 H 454 v -1.4 h 1.5 c 0.5,0 0.9,-0.1 1.2,-0.4 0.3,-0.3 0.4,-0.7 0.4,-1.2 h 1.2 v 11.4 h -1.6 v -8.3 z"
           id="path62" />
      </g>
    </g>
    <rect
       class="st5"
       x="37"
       y="298.39999"
       width="434.20001"
       height="0.5"
       id="rect63" />
    <rect
       class="st5"
       x="326.10001"
       y="254.89999"
       width="37.299999"
       height="35.400002"
       transform="rotate(90,344.7,272.6)"
       id="rect64" />
    <rect
       class="st5"
       x="173.5"
       y="247.39999"
       width="52.400002"
       height="35.400002"
       transform="rotate(90,199.7,265.1)"
       id="rect65" />
    <rect
       class="st5"
       x="20.700001"
       y="239.60001"
       width="67.900002"
       height="35.400002"
       transform="rotate(90,54.7,257.3)"
       id="rect66" />
    <g
       id="g69">
      <rect
         class="st3"
         x="54.200001"
         y="294.79999"
         width="1"
         height="7.5999999"
         id="rect67" />
      <rect
         class="st3"
         x="199.2"
         y="294.79999"
         width="1"
         height="7.5999999"
         id="rect68" />
      <rect
         class="st3"
         x="344.20001"
         y="294.79999"
         width="1"
         height="7.5999999"
         id="rect69" />
    </g>
    <g
       id="g78">
      <rect
         class="st5"
         x="90.400002"
         y="294.79999"
         width="1"
         height="7.5999999"
         id="rect70" />
      <rect
         class="st5"
         x="126.7"
         y="294.79999"
         width="1"
         height="7.5999999"
         id="rect71" />
      <rect
         class="st5"
         x="162.89999"
         y="294.79999"
         width="1"
         height="7.5999999"
         id="rect72" />
      <rect
         class="st5"
         x="235.5"
         y="294.79999"
         width="1"
         height="7.5999999"
         id="rect73" />
      <rect
         class="st5"
         x="271.70001"
         y="294.79999"
         width="1"
         height="7.5999999"
         id="rect74" />
      <rect
         class="st5"
         x="308"
         y="294.79999"
         width="1"
         height="7.5999999"
         id="rect75" />
      <rect
         class="st5"
         x="380.5"
         y="294.79999"
         width="1"
         height="7.5999999"
         id="rect76" />
      <rect
         class="st5"
         x="416.70001"
         y="294.79999"
         width="1"
         height="7.5999999"
         id="rect77" />
      <rect
         class="st5"
         x="453"
         y="294.79999"
         width="1"
         height="7.5999999"
         id="rect78" />
    </g>
    <g
       id="g1245">
      <g
         id="g1232">
        <g
           id="g1229">
          <rect
             class="st5"
             x="116.1"
             y="342.10001"
             width="46.900002"
             height="1"
             id="rect1228" />
          <rect
             class="st5"
             x="162.39999"
             y="339.29999"
             width="1"
             height="6.5"
             id="rect1229" />
        </g>
        <g
           id="g1231">
          <rect
             class="st5"
             x="55.200001"
             y="342.10001"
             width="47"
             height="1"
             id="rect1230" />
          <rect
             class="st5"
             x="54.700001"
             y="339.29999"
             width="1"
             height="6.5"
             id="rect1231" />
        </g>
        <path
           class="st5"
           d="m 110.3,342.9 h -4.9 v -1.2 l 4.3,-6.3 h 0.8 l 0.5,0.2 -4.1,6 h 3.5 v -6.2 h 1.4 v 6.2 h 1.5 v 1.3 h -1.5 v 2.3 h -1.4 v -2.3 z"
           id="path1231" />
      </g>
      <g
         id="g1236">
        <g
           id="g1233">
          <rect
             class="st5"
             x="260.70001"
             y="342.10001"
             width="46.900002"
             height="1"
             id="rect1232" />
          <rect
             class="st5"
             x="307"
             y="339.29999"
             width="1"
             height="6.5"
             id="rect1233" />
        </g>
        <g
           id="g1235">
          <rect
             class="st5"
             x="199.8"
             y="342.10001"
             width="47"
             height="1"
             id="rect1234" />
          <rect
             class="st5"
             x="199.3"
             y="339.29999"
             width="1"
             height="6.5"
             id="rect1235" />
        </g>
        <path
           class="st5"
           d="M 254.9,342.9 H 250 v -1.2 l 4.3,-6.3 h 0.8 l 0.5,0.2 -4.1,6 h 3.5 v -6.2 h 1.4 v 6.2 h 1.5 v 1.3 h -1.5 v 2.3 H 255 v -2.3 z"
           id="path1235" />
      </g>
      <g
         id="g1240">
        <g
           id="g1237">
          <rect
             class="st5"
             x="405.70001"
             y="342.10001"
             width="46.900002"
             height="1"
             id="rect1236" />
          <rect
             class="st5"
             x="452.10001"
             y="339.29999"
             width="1"
             height="6.5"
             id="rect1237" />
        </g>
        <g
           id="g1239">
          <rect
             class="st5"
             x="344.79999"
             y="342.10001"
             width="47"
             height="1"
             id="rect1238" />
          <rect
             class="st5"
             x="344.29999"
             y="339.29999"
             width="1"
             height="6.5"
             id="rect1239" />
        </g>
        <path
           class="st5"
           d="M 399.9,342.9 H 395 v -1.2 l 4.3,-6.3 h 0.8 l 0.5,0.2 -4.1,6 h 3.5 v -6.2 h 1.4 v 6.2 h 1.5 v 1.3 h -1.5 v 2.3 H 400 v -2.3 z"
           id="path1239" />
      </g>
      <g
         id="g1244">
        <g
           id="g1241">
          <rect
             class="st3"
             x="205.39999"
             y="358.29999"
             width="138.8"
             height="1"
             id="rect1240" />
          <rect
             class="st3"
             x="343.70001"
             y="355.5"
             width="1"
             height="6.5"
             id="rect1241" />
        </g>
        <g
           id="g1243">
          <rect
             class="st3"
             x="55.200001"
             y="358.29999"
             width="139"
             height="1"
             id="rect1242" />
          <rect
             class="st3"
             x="54.700001"
             y="355.5"
             width="1"
             height="6.5"
             id="rect1243" />
        </g>
        <path
           class="st3"
           d="m 197.7,364.1 c -0.5,-0.3 -0.9,-0.6 -1.2,-1.1 -0.3,-0.5 -0.5,-1 -0.5,-1.5 h 1.4 c 0,0.3 0.1,0.6 0.3,0.9 0.2,0.3 0.4,0.5 0.7,0.6 0.3,0.1 0.7,0.2 1,0.2 0.3,0 0.8,0 1.1,-0.2 0.3,-0.2 0.6,-0.4 0.7,-0.7 0.2,-0.3 0.3,-0.6 0.3,-1 0,-0.4 0,-0.7 -0.3,-1 -0.2,-0.3 -0.4,-0.5 -0.8,-0.7 -0.3,-0.2 -0.7,-0.2 -1.1,-0.2 H 198 v -1.1 l 2.7,-2.4 h -4.4 v -1.3 h 6.2 v 1.2 l -3.3,3 v -0.4 c 0.8,0 1.4,0.1 1.9,0.4 0.5,0.3 1,0.6 1.3,1.1 0.3,0.5 0.5,1 0.5,1.6 0,0.6 -0.1,1.1 -0.4,1.6 -0.3,0.5 -0.7,0.8 -1.2,1.1 -0.5,0.3 -1.1,0.4 -1.8,0.4 -0.7,0 -1.2,-0.1 -1.8,-0.4 z"
           id="path1243" />
      </g>
    </g>
  </g>
  <g
     id="g434"
     transform="translate(-105.75,36.7)">
    <g
       id="g414">
      <path
         class="st5"
         d="m 342.8,164.1 c -0.6,-0.4 -1.1,-0.9 -1.5,-1.6 -0.4,-0.7 -0.5,-1.4 -0.5,-2.2 0,-0.8 0.2,-1.6 0.5,-2.2 0.3,-0.6 0.9,-1.2 1.5,-1.6 0.6,-0.4 1.3,-0.6 2.1,-0.6 0.8,0 1.2,0.1 1.7,0.3 0.5,0.2 1,0.5 1.3,0.9 0.4,0.4 0.6,0.8 0.8,1.4 h -1.3 c -0.1,-0.3 -0.3,-0.6 -0.6,-0.8 -0.3,-0.2 -0.5,-0.4 -0.9,-0.5 -0.3,-0.1 -0.7,-0.2 -1,-0.2 -0.6,0 -1.1,0.1 -1.5,0.4 -0.5,0.3 -0.8,0.7 -1.1,1.2 -0.3,0.5 -0.4,1 -0.4,1.7 0,0.7 0.1,1.2 0.4,1.7 0.3,0.5 0.6,0.9 1.1,1.2 0.4,0.3 1,0.4 1.5,0.4 0.5,0 1,-0.1 1.4,-0.3 0.4,-0.2 0.7,-0.5 1,-0.8 0.2,-0.4 0.4,-0.8 0.4,-1.2 v 0 c 0,0 -2.1,0 -2.1,0 v -1 h 3.3 v 0.6 c 0,0.7 -0.2,1.4 -0.5,2 -0.3,0.6 -0.8,1 -1.4,1.4 -0.6,0.4 -1.3,0.5 -2,0.5 -0.7,0 -1.5,-0.2 -2.1,-0.6 z"
         id="path406" />
      <path
         class="st5"
         d="m 350.4,158.3 h 1.2 v 2.2 l -0.4,0.5 c 0,-0.6 0.1,-1 0.3,-1.5 0.2,-0.4 0.4,-0.7 0.8,-1 0.3,-0.2 0.7,-0.3 1.2,-0.3 h 0.2 v 1.2 h -0.3 c -0.3,0 -0.6,0 -0.9,0.2 -0.3,0.1 -0.4,0.3 -0.6,0.6 -0.1,0.2 -0.2,0.5 -0.2,0.8 v 3.4 h -1.2 v -6.1 z"
         id="path407" />
      <path
         class="st5"
         d="m 355.8,164.2 c -0.5,-0.3 -0.9,-0.7 -1.1,-1.2 -0.3,-0.5 -0.4,-1 -0.4,-1.6 0,-0.6 0.1,-1.2 0.4,-1.6 0.3,-0.4 0.7,-0.9 1.1,-1.2 0.5,-0.3 1,-0.4 1.6,-0.4 0.6,0 1.1,0.1 1.6,0.4 0.5,0.3 0.9,0.7 1.1,1.2 0.3,0.5 0.4,1 0.4,1.6 0,0.6 -0.1,1.2 -0.4,1.6 -0.3,0.5 -0.7,0.9 -1.1,1.2 -0.5,0.3 -1,0.4 -1.6,0.4 -0.6,0 -1.1,-0.1 -1.6,-0.4 z m 2.7,-0.9 c 0.3,-0.2 0.5,-0.4 0.7,-0.8 0.2,-0.4 0.2,-0.7 0.2,-1.1 0,-0.4 0,-0.8 -0.2,-1.1 -0.2,-0.3 -0.4,-0.6 -0.7,-0.8 -0.3,-0.2 -0.6,-0.3 -1,-0.3 -0.4,0 -0.7,0 -1,0.3 -0.3,0.2 -0.5,0.4 -0.7,0.8 -0.2,0.4 -0.2,0.7 -0.2,1.1 0,0.4 0,0.8 0.2,1.1 0.2,0.3 0.4,0.6 0.7,0.8 0.3,0.2 0.6,0.3 1,0.3 0.4,0 0.7,0 1,-0.3 z"
         id="path408" />
      <path
         class="st5"
         d="m 367.2,164.5 h -1.1 v -2.6 h 0.4 c 0,0.6 0,1 -0.3,1.5 -0.2,0.4 -0.5,0.7 -0.8,1 -0.4,0.2 -0.8,0.3 -1.3,0.3 -0.5,0 -0.8,0 -1.2,-0.3 -0.3,-0.2 -0.6,-0.5 -0.8,-0.8 -0.2,-0.4 -0.3,-0.8 -0.3,-1.3 v -3.9 h 1.2 v 3.7 c 0,0.3 0,0.6 0.2,0.8 0.1,0.2 0.3,0.4 0.5,0.5 0.2,0.1 0.5,0.2 0.8,0.2 0.3,0 0.6,0 0.8,-0.2 0.2,-0.2 0.4,-0.3 0.6,-0.6 0.1,-0.3 0.2,-0.5 0.2,-0.9 v -3.6 h 1.2 v 6.1 z"
         id="path409" />
      <path
         class="st5"
         d="m 370.2,158.3 v 1.2 0 6.9 H 369 v -8.1 h 1.1 z m 0.9,6 c -0.4,-0.2 -0.7,-0.6 -0.9,-1 -0.2,-0.4 -0.3,-0.9 -0.3,-1.4 h 0.4 V 161 h -0.4 c 0,-0.6 0.1,-1 0.3,-1.4 0.2,-0.4 0.5,-0.7 0.9,-1 0.4,-0.2 0.8,-0.3 1.4,-0.3 0.6,0 1.1,0.1 1.5,0.4 0.4,0.3 0.8,0.7 1,1.1 0.2,0.5 0.4,1 0.4,1.7 0,0.7 -0.1,1.2 -0.4,1.7 -0.2,0.5 -0.6,0.9 -1,1.1 -0.4,0.3 -0.9,0.4 -1.5,0.4 -0.6,0 -1,-0.1 -1.4,-0.3 z m 2.1,-1 c 0.3,-0.2 0.5,-0.4 0.7,-0.8 0.2,-0.3 0.2,-0.7 0.2,-1.1 0,-0.4 0,-0.8 -0.2,-1.1 -0.2,-0.3 -0.4,-0.6 -0.7,-0.8 -0.3,-0.2 -0.6,-0.3 -1,-0.3 -0.4,0 -0.7,0 -1,0.3 -0.3,0.2 -0.5,0.4 -0.7,0.8 -0.2,0.4 -0.2,0.7 -0.2,1.1 0,0.4 0,0.8 0.2,1.1 0.2,0.3 0.4,0.6 0.7,0.8 0.3,0.2 0.6,0.3 1,0.3 0.4,0 0.7,0 1,-0.3 z"
         id="path410" />
      <path
         class="st5"
         d="m 380.7,164.4 c -0.4,-0.2 -0.7,-0.4 -0.9,-0.7 -0.2,-0.3 -0.3,-0.6 -0.4,-1 h 1.2 c 0,0.2 0,0.3 0.2,0.5 0.2,0.2 0.3,0.2 0.5,0.3 0.2,0.1 0.4,0.1 0.7,0.1 0.3,0 0.5,0 0.7,-0.1 0.2,0 0.4,-0.2 0.5,-0.3 0.1,-0.1 0.2,-0.3 0.2,-0.5 0,-0.2 0,-0.2 0,-0.4 0,-0.1 -0.1,-0.2 -0.2,-0.3 -0.1,0 -0.2,-0.1 -0.4,-0.1 l -1.3,-0.2 c -0.3,0 -0.6,-0.2 -0.9,-0.3 -0.2,-0.2 -0.4,-0.4 -0.6,-0.6 -0.2,-0.2 -0.2,-0.5 -0.2,-0.8 0,-0.3 0,-0.7 0.3,-0.9 0.2,-0.3 0.5,-0.5 0.8,-0.7 0.3,-0.2 0.7,-0.2 1.2,-0.2 0.5,0 0.9,0 1.2,0.2 0.3,0.1 0.6,0.4 0.8,0.6 0.2,0.3 0.3,0.6 0.4,1 h -1.2 c 0,-0.2 0,-0.3 -0.2,-0.5 -0.1,-0.1 -0.3,-0.2 -0.4,-0.3 -0.1,-0.1 -0.4,-0.1 -0.6,-0.1 -0.2,0 -0.4,0 -0.6,0.1 -0.2,0 -0.3,0.2 -0.4,0.3 0,0.1 -0.1,0.3 -0.1,0.5 0,0.2 0,0.2 0,0.3 0,0 0.1,0.2 0.3,0.2 0.2,0 0.3,0.1 0.5,0.2 l 1.3,0.2 c 0.3,0 0.6,0.2 0.8,0.3 0.2,0.2 0.4,0.4 0.5,0.6 0.1,0.2 0.2,0.5 0.2,0.8 0,0.3 -0.1,0.7 -0.3,1 -0.2,0.3 -0.5,0.5 -0.9,0.7 -0.4,0.2 -0.8,0.2 -1.2,0.2 -0.4,0 -0.9,0 -1.3,-0.2 z"
         id="path411" />
      <path
         class="st5"
         d="m 385.8,156.1 h 1.3 v 1.2 h -1.3 z m 0.1,2.2 h 1.2 v 6.1 h -1.2 z"
         id="path412" />
      <path
         class="st5"
         d="m 391.7,159.3 h -3.1 v -1 h 4.5 v 1 l -3.3,4.2 h 3.3 v 1 h -4.7 v -1 z"
         id="path413" />
      <path
         class="st5"
         d="m 395.5,164.2 c -0.5,-0.3 -0.8,-0.7 -1.1,-1.2 -0.3,-0.5 -0.4,-1 -0.4,-1.7 0,-0.7 0.1,-1.1 0.4,-1.6 0.3,-0.5 0.7,-0.9 1.1,-1.2 0.5,-0.3 1,-0.4 1.6,-0.4 0.6,0 1.1,0.1 1.6,0.4 0.5,0.3 0.8,0.6 1.1,1.1 0.3,0.5 0.4,1 0.4,1.7 v 0.3 h -5 v -0.3 c 0,0.4 0,0.8 0.3,1.2 0.3,0.4 0.4,0.6 0.7,0.8 0.3,0.2 0.6,0.3 1,0.3 0.4,0 0.6,0 0.9,-0.2 0.3,-0.1 0.5,-0.3 0.7,-0.6 h 1.3 c -0.1,0.4 -0.4,0.7 -0.6,0.9 -0.3,0.3 -0.6,0.5 -1,0.6 -0.4,0.1 -0.8,0.2 -1.2,0.2 -0.4,0 -1.1,-0.1 -1.6,-0.4 z m -0.4,-3.4 h 3.8 v 0.5 c 0,-0.4 0,-0.8 -0.2,-1.1 -0.2,-0.3 -0.4,-0.6 -0.7,-0.8 -0.3,-0.2 -0.6,-0.3 -1,-0.3 -0.4,0 -0.7,0 -1,0.3 -0.3,0.2 -0.5,0.4 -0.7,0.8 -0.2,0.3 -0.2,0.7 -0.2,1.1 z"
         id="path414" />
    </g>
    <g
       id="g428">
      <path
         class="st3"
         d="m 342.3,176.5 h 1.3 l 4.2,6.5 v -6.5 h 1.2 v 8.4 h -1.3 l -4.2,-6.5 v 6.5 h -1.2 z"
         id="path415" />
      <path
         class="st3"
         d="M 356.1,184.9 H 355 v -2.6 h 0.4 c 0,0.6 0,1 -0.3,1.5 -0.3,0.5 -0.5,0.7 -0.8,1 -0.4,0.2 -0.8,0.3 -1.3,0.3 -0.5,0 -0.8,0 -1.2,-0.3 -0.3,-0.2 -0.6,-0.5 -0.8,-0.8 -0.2,-0.4 -0.3,-0.8 -0.3,-1.3 v -3.9 h 1.2 v 3.7 c 0,0.3 0,0.6 0.2,0.8 0.1,0.2 0.3,0.4 0.5,0.5 0.2,0.1 0.5,0.2 0.8,0.2 0.3,0 0.6,0 0.8,-0.2 0.2,-0.2 0.4,-0.3 0.6,-0.6 0.1,-0.3 0.2,-0.5 0.2,-0.9 v -3.6 h 1.2 v 6.1 z"
         id="path416" />
      <path
         class="st3"
         d="m 358,178.8 h 1.1 v 2.6 h -0.3 c 0,-0.6 0,-1.1 0.3,-1.5 0.2,-0.4 0.4,-0.7 0.8,-1 0.4,-0.3 0.7,-0.3 1.2,-0.3 0.5,0 0.8,0 1.1,0.3 0.3,0.3 0.6,0.5 0.7,0.8 0.2,0.4 0.3,0.8 0.3,1.3 v 3.9 H 362 v -3.8 c 0,-0.3 0,-0.6 -0.2,-0.8 -0.1,-0.2 -0.3,-0.4 -0.5,-0.5 -0.2,-0.1 -0.4,-0.2 -0.7,-0.2 -0.3,0 -0.6,0 -0.8,0.2 -0.2,0.1 -0.4,0.3 -0.5,0.6 -0.1,0.3 -0.2,0.5 -0.2,0.9 v 3.6 h -1.2 v -6.1 z m 7.8,1.6 c -0.1,-0.2 -0.3,-0.4 -0.5,-0.5 -0.2,-0.1 -0.4,-0.2 -0.7,-0.2 -0.3,0 -0.6,0 -0.8,0.2 -0.2,0.1 -0.4,0.3 -0.5,0.6 -0.1,0.3 -0.2,0.5 -0.2,0.9 h -0.6 c 0,-0.5 0,-1 0.3,-1.4 0.2,-0.4 0.5,-0.7 0.8,-1 0.4,-0.2 0.8,-0.3 1.2,-0.3 0.4,0 0.8,0 1.2,0.3 0.4,0.3 0.6,0.5 0.8,0.8 0.2,0.4 0.3,0.8 0.3,1.3 v 3.9 h -1.2 v -3.8 c 0,-0.3 0,-0.6 -0.2,-0.8 z"
         id="path417" />
      <path
         class="st3"
         d="m 368.8,176.5 h 1.2 v 8.4 h -1.2 z m 2,8.2 c -0.4,-0.2 -0.7,-0.6 -0.9,-1 -0.2,-0.4 -0.3,-0.9 -0.3,-1.4 h 0.4 v -0.9 h -0.4 c 0,-0.6 0.1,-1 0.3,-1.4 0.2,-0.4 0.5,-0.7 0.9,-1 0.4,-0.2 0.9,-0.3 1.4,-0.3 0.5,0 1.1,0.1 1.5,0.4 0.4,0.3 0.8,0.7 1,1.1 0.2,0.5 0.4,1 0.4,1.7 0,0.7 -0.1,1.2 -0.4,1.7 -0.2,0.5 -0.6,0.9 -1,1.1 -0.4,0.3 -0.9,0.4 -1.5,0.4 -0.6,0 -1,-0.1 -1.4,-0.3 z m 2.2,-0.9 c 0.3,-0.2 0.5,-0.4 0.7,-0.8 0.2,-0.3 0.2,-0.7 0.2,-1.1 0,-0.4 0,-0.8 -0.2,-1.1 -0.2,-0.3 -0.4,-0.6 -0.7,-0.8 -0.3,-0.2 -0.6,-0.3 -1,-0.3 -0.4,0 -0.7,0 -1,0.3 -0.3,0.2 -0.5,0.4 -0.7,0.8 -0.2,0.4 -0.2,0.7 -0.2,1.1 0,0.4 0,0.8 0.2,1.1 0.2,0.3 0.4,0.6 0.7,0.8 0.3,0.2 0.6,0.3 1,0.3 0.4,0 0.7,0 1,-0.3 z"
         id="path418" />
      <path
         class="st3"
         d="m 377.5,184.7 c -0.5,-0.3 -0.8,-0.7 -1.1,-1.2 -0.3,-0.5 -0.4,-1 -0.4,-1.7 0,-0.7 0.1,-1.1 0.4,-1.6 0.3,-0.5 0.7,-0.9 1.1,-1.2 0.5,-0.3 1,-0.4 1.6,-0.4 0.6,0 1.1,0.1 1.6,0.4 0.5,0.3 0.8,0.6 1.1,1.1 0.3,0.5 0.4,1 0.4,1.7 v 0.3 h -5 v -0.3 c 0,0.4 0.1,0.8 0.3,1.2 0.2,0.4 0.4,0.6 0.7,0.8 0.3,0.2 0.6,0.3 1,0.3 0.4,0 0.6,0 0.9,-0.2 0.3,-0.1 0.5,-0.3 0.7,-0.6 h 1.3 c -0.1,0.4 -0.4,0.7 -0.6,0.9 -0.3,0.3 -0.6,0.5 -1,0.6 -0.4,0.1 -0.8,0.2 -1.2,0.2 -0.4,0 -1.1,-0.1 -1.6,-0.4 z m -0.3,-3.4 h 3.8 v 0.5 c 0,-0.4 0,-0.8 -0.2,-1.1 -0.2,-0.3 -0.4,-0.6 -0.7,-0.8 -0.3,-0.2 -0.6,-0.3 -1,-0.3 -0.4,0 -0.7,0 -1,0.3 -0.3,0.2 -0.5,0.4 -0.7,0.8 -0.2,0.3 -0.2,0.7 -0.2,1.1 z"
         id="path419" />
      <path
         class="st3"
         d="m 383.6,178.8 h 1.2 v 2.2 l -0.4,0.5 c 0,-0.6 0.1,-1 0.3,-1.5 0.2,-0.4 0.4,-0.7 0.8,-1 0.3,-0.2 0.7,-0.3 1.2,-0.3 h 0.2 v 1.2 h -0.3 c -0.3,0 -0.6,0 -0.9,0.2 -0.3,0.2 -0.5,0.3 -0.6,0.6 -0.1,0.3 -0.2,0.5 -0.2,0.8 v 3.4 h -1.2 v -6.1 z"
         id="path420" />
      <path
         class="st3"
         d="m 392.1,184.7 c -0.5,-0.3 -0.9,-0.7 -1.1,-1.2 -0.3,-0.5 -0.4,-1 -0.4,-1.6 0,-0.6 0.1,-1.2 0.4,-1.6 0.3,-0.4 0.7,-0.9 1.1,-1.2 0.5,-0.3 1,-0.4 1.6,-0.4 0.6,0 1.1,0.1 1.6,0.4 0.5,0.3 0.9,0.7 1.1,1.2 0.3,0.5 0.4,1 0.4,1.6 0,0.6 -0.1,1.2 -0.4,1.6 -0.3,0.5 -0.7,0.9 -1.1,1.2 -0.5,0.3 -1,0.4 -1.6,0.4 -0.6,0 -1.1,-0.1 -1.6,-0.4 z m 2.6,-0.9 c 0.3,-0.2 0.5,-0.4 0.7,-0.8 0.2,-0.4 0.2,-0.7 0.2,-1.1 0,-0.4 0,-0.8 -0.2,-1.1 -0.2,-0.3 -0.4,-0.6 -0.7,-0.8 -0.3,-0.2 -0.6,-0.3 -1,-0.3 -0.4,0 -0.7,0 -1,0.3 -0.3,0.2 -0.5,0.4 -0.7,0.8 -0.2,0.4 -0.2,0.7 -0.2,1.1 0,0.4 0,0.8 0.2,1.1 0.2,0.3 0.4,0.6 0.7,0.8 0.3,0.2 0.6,0.3 1,0.3 0.4,0 0.7,0 1,-0.3 z"
         id="path421" />
      <path
         class="st3"
         d="m 398.8,179.8 h -1.1 v -1 h 1.1 V 178 c 0,-0.3 0,-0.6 0.2,-0.8 0.1,-0.2 0.3,-0.4 0.6,-0.5 0.3,-0.1 0.5,-0.2 0.8,-0.2 h 1.2 v 1 h -1.1 c -0.2,0 -0.3,0 -0.4,0.2 -0.1,0.1 -0.2,0.3 -0.2,0.4 v 0.7 h 1.6 v 1 h -1.6 v 5.1 h -1.2 v -5.1 z"
         id="path422" />
      <path
         class="st3"
         d="m 407.7,186.8 c -0.4,-0.2 -0.7,-0.4 -1,-0.6 -0.3,-0.3 -0.4,-0.6 -0.5,-1 h 1.2 c 0,0.2 0.1,0.3 0.3,0.4 0.2,0.1 0.4,0.2 0.6,0.3 0.2,0 0.5,0.1 0.8,0.1 0.3,0 0.7,0 0.9,-0.2 0.3,-0.1 0.5,-0.3 0.7,-0.6 0.2,-0.2 0.2,-0.5 0.2,-0.8 v -2.1 c 0,0 0.5,-0.6 0.5,-0.6 0,0.6 -0.1,1.1 -0.3,1.5 -0.2,0.4 -0.5,0.8 -0.9,1 -0.4,0.2 -0.9,0.4 -1.4,0.4 -0.5,0 -1,-0.1 -1.5,-0.4 -0.5,-0.3 -0.7,-0.6 -1,-1.1 -0.2,-0.5 -0.3,-1 -0.3,-1.5 0,-0.5 0.1,-1.1 0.3,-1.5 0.2,-0.5 0.6,-0.8 1,-1.1 0.4,-0.3 0.9,-0.4 1.5,-0.4 0.6,0 1,0.1 1.4,0.4 0.4,0.2 0.7,0.6 0.9,1 0.2,0.4 0.3,0.9 0.3,1.5 l -0.5,-0.5 v -2.2 h 1.1 v 5.6 c 0,0.5 -0.1,1 -0.4,1.4 -0.3,0.4 -0.6,0.7 -1.1,0.9 -0.5,0.2 -1,0.3 -1.6,0.3 -0.6,0 -0.9,0 -1.3,-0.2 z m 2.2,-3.5 c 0.3,-0.2 0.5,-0.4 0.7,-0.7 0.2,-0.3 0.2,-0.6 0.2,-1 0,-0.4 0,-0.7 -0.2,-1 -0.2,-0.3 -0.4,-0.5 -0.7,-0.7 -0.3,-0.2 -0.6,-0.2 -1,-0.2 -0.4,0 -0.7,0 -1,0.2 -0.3,0.2 -0.5,0.4 -0.7,0.7 -0.2,0.3 -0.2,0.6 -0.2,1 0,0.4 0,0.7 0.2,1 0.2,0.3 0.4,0.5 0.7,0.7 0.3,0.2 0.6,0.2 1,0.2 0.4,0 0.7,0 1,-0.2 z"
         id="path423" />
      <path
         class="st3"
         d="m 413.9,178.8 h 1.2 v 2.2 l -0.4,0.5 c 0,-0.6 0.1,-1 0.3,-1.5 0.2,-0.4 0.4,-0.7 0.8,-1 0.3,-0.2 0.7,-0.3 1.2,-0.3 h 0.2 v 1.2 h -0.3 c -0.3,0 -0.6,0 -0.9,0.2 -0.3,0.2 -0.5,0.3 -0.6,0.6 -0.1,0.3 -0.2,0.5 -0.2,0.8 v 3.4 H 414 v -6.1 z"
         id="path424" />
      <path
         class="st3"
         d="m 419.3,184.7 c -0.5,-0.3 -0.9,-0.7 -1.1,-1.2 -0.3,-0.5 -0.4,-1 -0.4,-1.6 0,-0.6 0.1,-1.2 0.4,-1.6 0.3,-0.4 0.7,-0.9 1.1,-1.2 0.5,-0.3 1,-0.4 1.6,-0.4 0.6,0 1.1,0.1 1.6,0.4 0.5,0.3 0.9,0.7 1.1,1.2 0.3,0.5 0.4,1 0.4,1.6 0,0.6 -0.1,1.2 -0.4,1.6 -0.3,0.5 -0.7,0.9 -1.1,1.2 -0.5,0.3 -1,0.4 -1.6,0.4 -0.6,0 -1.1,-0.1 -1.6,-0.4 z m 2.7,-0.9 c 0.3,-0.2 0.5,-0.4 0.7,-0.8 0.2,-0.4 0.2,-0.7 0.2,-1.1 0,-0.4 0,-0.8 -0.2,-1.1 -0.2,-0.3 -0.4,-0.6 -0.7,-0.8 -0.3,-0.2 -0.6,-0.3 -1,-0.3 -0.4,0 -0.7,0 -1,0.3 -0.3,0.2 -0.5,0.4 -0.7,0.8 -0.2,0.4 -0.2,0.7 -0.2,1.1 0,0.4 0,0.8 0.2,1.1 0.2,0.3 0.4,0.6 0.7,0.8 0.3,0.2 0.6,0.3 1,0.3 0.4,0 0.7,0 1,-0.3 z"
         id="path425" />
      <path
         class="st3"
         d="m 430.7,184.9 h -1.1 v -2.6 h 0.4 c 0,0.6 0,1 -0.3,1.5 -0.3,0.5 -0.5,0.7 -0.8,1 -0.4,0.2 -0.8,0.3 -1.3,0.3 -0.5,0 -0.8,0 -1.2,-0.3 -0.3,-0.2 -0.6,-0.5 -0.8,-0.8 -0.2,-0.4 -0.3,-0.8 -0.3,-1.3 v -3.9 h 1.2 v 3.7 c 0,0.3 0,0.6 0.2,0.8 0.1,0.2 0.3,0.4 0.5,0.5 0.2,0.1 0.5,0.2 0.8,0.2 0.3,0 0.6,0 0.8,-0.2 0.2,-0.2 0.4,-0.3 0.6,-0.6 0.1,-0.3 0.2,-0.5 0.2,-0.9 v -3.6 h 1.2 v 6.1 z"
         id="path426" />
      <path
         class="st3"
         d="m 433.7,178.8 v 1.2 0 6.9 h -1.2 v -8.1 h 1.1 z m 0.9,5.9 c -0.4,-0.2 -0.7,-0.6 -0.9,-1 -0.2,-0.4 -0.3,-0.9 -0.3,-1.4 h 0.4 v -0.9 h -0.4 c 0,-0.6 0.1,-1 0.3,-1.4 0.2,-0.4 0.5,-0.7 0.9,-1 0.4,-0.2 0.9,-0.3 1.4,-0.3 0.5,0 1.1,0.1 1.5,0.4 0.4,0.3 0.8,0.7 1,1.1 0.2,0.5 0.4,1 0.4,1.7 0,0.7 -0.1,1.2 -0.4,1.7 -0.2,0.5 -0.6,0.9 -1,1.1 -0.4,0.3 -0.9,0.4 -1.5,0.4 -0.6,0 -1,-0.1 -1.4,-0.3 z m 2.1,-0.9 c 0.3,-0.2 0.5,-0.4 0.7,-0.8 0.2,-0.3 0.2,-0.7 0.2,-1.1 0,-0.4 0,-0.8 -0.2,-1.1 -0.2,-0.3 -0.4,-0.6 -0.7,-0.8 -0.3,-0.2 -0.6,-0.3 -1,-0.3 -0.4,0 -0.7,0 -1,0.3 -0.3,0.2 -0.5,0.4 -0.7,0.8 -0.2,0.4 -0.2,0.7 -0.2,1.1 0,0.4 0,0.8 0.2,1.1 0.2,0.3 0.4,0.6 0.7,0.8 0.3,0.2 0.6,0.3 1,0.3 0.4,0 0.7,0 1,-0.3 z"
         id="path427" />
      <path
         class="st3"
         d="m 441,184.8 c -0.4,-0.2 -0.7,-0.4 -0.9,-0.7 -0.2,-0.3 -0.3,-0.6 -0.4,-1 h 1.2 c 0,0.2 0,0.3 0.2,0.5 0.2,0.2 0.3,0.2 0.5,0.3 0.2,0.1 0.4,0.1 0.7,0.1 0.3,0 0.5,0 0.7,-0.1 0.2,-0.1 0.4,-0.2 0.5,-0.3 0.1,-0.1 0.2,-0.3 0.2,-0.5 0,-0.2 0,-0.2 0,-0.4 0,-0.1 -0.1,-0.2 -0.2,-0.3 -0.1,0 -0.2,-0.1 -0.4,-0.1 l -1.3,-0.2 c -0.3,0 -0.6,-0.2 -0.9,-0.3 -0.2,-0.2 -0.4,-0.4 -0.6,-0.6 -0.1,-0.2 -0.2,-0.5 -0.2,-0.8 0,-0.3 0,-0.7 0.3,-0.9 0.2,-0.3 0.5,-0.5 0.8,-0.7 0.3,-0.2 0.7,-0.2 1.2,-0.2 0.5,0 0.9,0 1.2,0.2 0.3,0.1 0.6,0.4 0.8,0.6 0.2,0.3 0.3,0.6 0.4,1 h -1.2 c 0,-0.2 0,-0.3 -0.2,-0.5 -0.1,-0.1 -0.3,-0.2 -0.4,-0.3 -0.1,-0.1 -0.4,-0.1 -0.6,-0.1 -0.2,0 -0.4,0 -0.6,0.1 -0.2,0.1 -0.3,0.2 -0.4,0.3 0,0.1 -0.1,0.3 -0.1,0.5 0,0.2 0,0.2 0,0.3 0,0 0.1,0.2 0.3,0.2 0.1,0 0.3,0.1 0.5,0.2 l 1.3,0.2 c 0.3,0 0.6,0.2 0.8,0.3 0.2,0.2 0.4,0.4 0.5,0.6 0.1,0.2 0.2,0.5 0.2,0.8 0,0.3 -0.1,0.7 -0.3,1 -0.2,0.3 -0.5,0.5 -0.9,0.7 -0.4,0.2 -0.8,0.2 -1.2,0.2 -0.4,0 -0.9,0 -1.3,-0.2 z"
         id="path428" />
    </g>
    <g
       id="g430">
      <rect
         class="st5"
         x="269.10001"
         y="158.7"
         width="59.900002"
         height="1"
         id="rect428" />
      <rect
         class="st5"
         x="268.60001"
         y="156"
         width="1"
         height="6.5"
         id="rect429" />
      <rect
         class="st5"
         x="328.5"
         y="156"
         width="1"
         height="6.5"
         id="rect430" />
    </g>
    <g
       id="g433">
      <rect
         class="st3"
         x="269.10001"
         y="180"
         width="59.900002"
         height="1"
         id="rect431" />
      <rect
         class="st3"
         x="268.60001"
         y="177.3"
         width="1"
         height="6.5"
         id="rect432" />
      <rect
         class="st3"
         x="328.5"
         y="177.3"
         width="1"
         height="6.5"
         id="rect433" />
    </g>
  </g>
</svg>
