<?xml version="1.0" encoding="UTF-8"?>
<svg id="Layer_1" xmlns="http://www.w3.org/2000/svg" xmlns:xlink="http://www.w3.org/1999/xlink" version="1.1" viewBox="0 0 616.9 467.1">
  <!-- Generator: Adobe Illustrator 29.7.1, SVG Export Plug-In . SVG Version: 2.1.1 Build 8)  -->
  <defs>
    <style>
      .st0, .st1 {
        fill: #595959;
      }

      .st2, .st3 {
        fill: #8e8e8e;
      }

      .st4 {
        fill: url(#linear-gradient);
      }

      .st5 {
        opacity: .2;
      }

      .st5, .st6 {
        fill: #fff;
      }

      .st7, .st3, .st1 {
        fill-rule: evenodd;
      }

      .st7, .st8 {
        fill: #21d789;
      }

      .st9 {
        fill: #4237db;
      }

      .st10 {
        fill: #060c0d;
      }

      .st11 {
        fill: #efc2a6;
      }

      .st12 {
        fill: #efc2a6;
      }

      .st13 {
        fill: #c08355;
      }

      .st14 {
        fill: #6b57ff;
      }

      .st15 {
        fill: #0a9958;
      }

      .st16 {
        fill: #bfbfbf;
      }
    </style>
    <linearGradient id="linear-gradient" x1="723.5" y1="-276.8" x2="744.9" y2="-241.7" gradientTransform="translate(-297 374.6) rotate(14.4)" gradientUnits="userSpaceOnUse">
      <stop offset="0" stop-color="#b78a6d"/>
      <stop offset=".1" stop-color="#c4977a"/>
      <stop offset=".4" stop-color="#dbae92"/>
      <stop offset=".6" stop-color="#eabda0"/>
      <stop offset=".8" stop-color="#efc2a6"/>
    </linearGradient>
  </defs>
  <path class="st5" d="M376.1,134.3l-.2-.5-35.9,14.5v-50.8l36.1-14.5-.2-.5-35.9,14.5v-35.5h-.5v35.7l-39.7,16v-35.6h-.5v35.8l-39.7,16v-35.7h-.5v36l-39.7,16v-35.9h-.5v36.1l-39.7,16v-36h-.5v36.2l-39.7,16v-36.1h-.5v36.4l-39.7,16v-36.3h-.5v36.5l-31.8,12.8.2.5,31.6-12.7v50.8l-31.8,12.8.2.5,31.6-12.7v48.6l-31.8,12.8.2.5,31.6-12.7v48.6l-31.8,12.8.2.5,31.6-12.7v43.4h.5v-43.6l39.7-16v43.5h.5v-43.7l39.7-16v43.6h.5v-43.8l39.7-16v43.8h.5v-44l39.7-16v43.9h.5v-44.1l39.7-16v44h.5v-44.2l39.7-16v44.2h.5v-44.4l36.1-14.5-.2-.5-35.9,14.5v-48.6l36.1-14.5-.2-.5-35.9,14.5v-48.6l36.1-14.5ZM339.5,97.7v50.8l-39.7,16v-50.8l39.7-16ZM299.2,113.9v50.8l-39.7,16v-50.8l39.7-16ZM178.8,213.7l39.7-16v48.6l-39.7,16v-48.6ZM178.3,262.5l-39.7,16v-48.6l39.7-16v48.6ZM219.1,197.5l39.7-16v48.6l-39.7,16v-48.6ZM259.4,181.3l39.7-16v48.6l-39.7,16v-48.6ZM258.9,130.1v50.8l-39.7,16v-50.8l39.7-16ZM218.6,146.4v50.8l-39.7,16v-50.8l39.7-16ZM178.3,162.6v50.8l-39.7,16v-50.8l39.7-16ZM98.3,194.8l39.7-16v50.8l-39.7,16v-50.8ZM98.3,246.1l39.7-16v48.6l-39.7,16v-48.6ZM98.3,343.9v-48.6l39.7-16v48.6l-39.7,16ZM138.5,327.7v-48.6l39.7-16v48.6l-39.7,16ZM178.8,311.5v-48.6l39.7-16v48.6l-39.7,16ZM219.1,295.3v-48.6l39.7-16v48.6l-39.7,16ZM259.4,279v-48.6l39.7-16v48.6l-39.7,16ZM339.5,246.8l-39.7,16v-48.6l39.7-16v48.6ZM339.5,197.6l-39.7,16v-48.6l39.7-16v48.6Z"/>
  <g>
    <g>
      <path class="st2" d="M403.4,262.5l-96.4,78.2,47.3,22.5,34.7,16.5,13,1.7c12.6-26.6,8.7-62.4,7-89.8s8.4-22.3,7.4-27.3l-13-1.7Z"/>
      <path class="st6" d="M416.4,264.2l-96.4,78.2,82,39c14.2-27.9,21.8-59,20-88.1-.7-10.6-2.6-20.3-5.6-29Z"/>
      <g>
        <path class="st8" d="M384.1,301.1l-3,1.7.6,9.3,3-1.7-.6-9.3Z"/>
        <path class="st7" d="M396.5,322.9c-.5-8.2-6.4-11.8-13.1-7.9-6.7,3.9-11.7,13.7-11.2,21.9.5,8.2,6.4,11.8,13.1,7.9,6.7-3.9,11.7-13.7,11.2-21.9ZM385,341.1c-5,2.9-9.4.2-9.8-5.9-.4-6.2,3.4-13.5,8.4-16.4,5-2.9,9.4-.2,9.8,5.9s-3.4,13.5-8.4,16.4Z"/>
        <path class="st8" d="M384.6,358.7l-.6-9.3,3-1.7.6,9.3-3,1.7Z"/>
        <path class="st8" d="M407,314.9l-7.6,4.4.2,3.7,7.6-4.4-.2-3.7Z"/>
        <path class="st8" d="M361.4,341.1l7.6-4.4.2,3.7-7.6,4.4-.2-3.7Z"/>
        <path class="st8" d="M396.9,334.9l-2,3.9,4.6,2.8,2-3.9-4.6-2.8Z"/>
        <path class="st8" d="M367.1,322l2-3.9,4.6,2.8-2,3.9-4.6-2.8Z"/>
        <path class="st8" d="M373.2,348.6l-4,7.7,2.3,1.4,4-7.7-2.3-1.4Z"/>
        <path class="st8" d="M393.1,309.8l4-7.7,2.3,1.4-4,7.7-2.3-1.4Z"/>
      </g>
    </g>
    <path class="st11" d="M419.3,416.1l-28.4-28.4.3-4.3c.2-3.2,0-6.5-.8-9.6s-.9-7.3,1.9-14.3c1.6-3.9,2.8-10.6-4-12.4-1.6-.4-4.6-.6-9.3,4.1-3.5,3.5-4.6,8.4-5.1,11.2s-.7,1.2-1.4,1.2c-2.4,0-8,.2-12.8-.2-5.4-.5-20.4-7.6-20.4-7.6-1,5.3,2.1,10.1,5.6,12.4,0,0-7,7.3-2.7,15.2,2.5,4.7,16.1,20.4,26.8,32.5h50.4Z"/>
    <g>
      <path class="st4" d="M499.8,309.8v-6.1c-4.9,0-6.5-15.6-10.8-17.9l-32.8,17.1,20.4,34.1,16.8,2.2,6.5-29.4Z"/>
      <path class="st12" d="M499.6,267.1l.2-10.4c.1-5.9-2.9-11.5-8-14.6l-10-6.1.2-.7h-1.2c0,0-1.1-.6-1.1-.6l-.2.7-3.3-.4c-2,0-5-.6-6.8.7-2.4,1.6-7.7,6.2-13.8,14.8-2.2,3.1-.9,6.8-3,8.2,0,0-15.7,5.2-16.9,8.1s3.3,5.6,5.1,6.5l6.2,3.3c0,1.1-1.8,5.6-2.6,7.3s-.7,14.7-.2,17.1c.8,3.6,5.1,7.4,8.7,6.9,7.3-.8,20.4-13.3,20.4-13.3,4.5-1.9,4.8-2.2,6.1-5.5l18.3-13.9c1.2-2.6,1.8-5.3,1.8-8.2Z"/>
      <rect class="st10" x="455.8" y="255.7" width="5.2" height="9.3" rx="2.6" ry="2.6" transform="translate(756.1 695.3) rotate(-154)"/>
      <path class="st13" d="M470.2,236.9s5.3,11.2,8.3,17c1,1.9,1.8,12.7,3.7,13.8h0l19.3,22.9s9.3-25.9,7.9-29.3c-1.4-3.4-22-20-39.2-24.4Z"/>
      <path class="st13" d="M456.1,283l-8.5-6c-.3-.2-.7-.4-1.1-.5-.4-.1-.8-.2-1.2-.1h0c-.8,0-3,0-4.7.2s-2,1.6-1.3,2.8l1.7,1c.4.3.6.8.5,1.3-.6,1.7-1.1,3.1.3,4,.8.5,1.7.3,2.5,0,1.1-.3,2.2.2,2.6,1.3,0,0,.6,1.9,1.4,2.1,2,.6,2-1.7,3.4-1.9s2.2,2.4,4.7,1.3,1.3-4.4-.3-5.5Z"/>
      <path d="M486.6,267.7l-17.2-7.3c.6-1.5.9-2.8,1.1-4,.4-2.7-.6-5.1-2.7-6l-4.2-1.9c-2.5-1.1-6.3-.2-8.2,3l-5.5,10.2c-.8,1.5-1.2,3.2-1,4.8.2,2.4,1.5,4.3,3.4,5.2l1.6.7h.1c.7.2,1.4.4,2.1.4s.7,0,1,0c2.6-.3,5.2-1.8,7.3-4.2,1.9-2.1,3.2-4.3,4.2-6.2l17.2,7.3.8-1.8ZM463,267.1c-1.8,2.1-4,3.3-6.1,3.6-.8,0-1.5,0-2.2-.2l-1.5-.7c-1.2-.6-2.1-1.9-2.2-3.6-.1-1.1.2-2.4.8-3.6l5.5-10.1c1.2-2.2,4-2.9,5.6-2.2l4.2,1.9c1.2.6,1.8,2.1,1.5,3.9-.5,2.7-1.8,6.8-5.5,11Z"/>
      <path class="st6" d="M475.8,334.9c-6.1-.3-25.8,7.4-35.3,17.8-17,18.7-48.9,47.4-55.1,63.4h115.1c3.7,0,7.1-2.1,8.7-5.5l14.6-31s12.5-23.7-5.7-47.6l-42.2,2.9Z"/>
      <path class="st13" d="M517.3,281.7c.9,7,6.9,16.7,12.1,24,5.2,7.2,3.7,17.3-3.4,22.7-3.2,2.4-6.3,4-8,3.6l-43.4,3h0c-14,0-17.7-14.7-10.7-21.3h0c1.9-1.8,3.5-4.1,4.5-6.5l10.2-25.4,13.1-9.7,16.3-16.2,9.4,25.8Z"/>
      <path class="st8" d="M493.9,224.7l-11.8,7.8c-6.6-2.6-12.7-4-19.3-5.9-14.8-4.1-19-1.8-14.4,3.5,0,0,40.1,32.5,69,51.7l11-14.8c2.6-3.5,2.5-8.4-.4-11.8l-24.9-29.2c-2.3-2.7-6.2-3.2-9.1-1.3Z"/>
      <ellipse class="st11" cx="481.2" cy="281.3" rx="15.5" ry="10.8" transform="translate(-3 557.3) rotate(-60)"/>
    </g>
  </g>
  <g>
    <polygon class="st15" points="281.4 123.6 298.8 129.5 294.2 132.9 281.4 123.6"/>
    <polygon class="st15" points="178.3 370.9 163.5 365.9 168.5 360.2 178.3 370.9"/>
    <g>
      <path class="st15" d="M223.4,128.1c-58.4,23.8-105.7,95.5-105.7,160.1s14.2,61.3,36.6,73.6l69.1-116.7v-117Z"/>
      <path class="st15" d="M223.4,245.1l-69.1,116.7c18.5,10.2,42.7,11.1,69.1.3,24.1-9.8,46.3-27.8,64.1-50.2l-64.1-66.8Z"/>
      <g>
        <path class="st15" d="M223.4,128.1v117l90.4-97.4c-18.5-26.3-52.1-35.2-90.4-19.6Z"/>
        <path class="st15" d="M287.5,311.9s0,0,0,0l-64.1-66.8,64.1,66.8Z"/>
        <path class="st15" d="M329,202c0-22.2-5.6-40.6-15.2-54.3l-90.4,97.4,64.1,66.8c25.2-31.7,41.5-72,41.5-109.9Z"/>
      </g>
      <path class="st8" d="M237.5,132.9c-58.4,23.8-105.7,95.5-105.7,160.1s14.2,61.3,36.6,73.6l69.1-116.7v-117Z"/>
      <path d="M237.5,249.9l-69.1,116.7c18.5,10.2,42.7,11.1,69.1.3,24.1-9.8,46.3-27.8,64.1-50.2l-64.1-66.8Z"/>
      <g>
        <path class="st16" d="M237.5,132.9v117l90.4-97.4c-18.5-26.3-52.1-35.2-90.4-19.6Z"/>
        <path class="st14" d="M301.6,316.7s0,0,0,0l-64.1-66.8,64.1,66.8Z"/>
        <path class="st14" d="M343.2,206.8c0-22.2-5.6-40.6-15.2-54.3l-90.4,97.4,64.1,66.8c25.2-31.7,41.5-72,41.5-109.9Z"/>
      </g>
      <g>
        <path class="st0" d="M228.4,313.2l2.7-1.1v-1.7c0-.8.2-1.7.5-2.4l2.5-5.2c.6-1.3,1-2.8,1-4.2l-2.7,1.1c0,.8-.2,1.6-.5,2.4l-2.5,5.2c-.6,1.3-1,2.8-1,4.2v1.7Z"/>
        <path class="st1" d="M237.3,333.3l-8.5,3.4c-2.6,1.1-4.8,0-5.4-2.3l-3.5-14.8,27.3-11.1c2.9-1.2,5.2.5,5.2,3.7s-1.4,5.3-3.6,7l-5.6,4.4-.6,3.1c-.6,2.9-2.8,5.7-5.4,6.7ZM244,319.7l4.1-3.2c1-.8,1.7-2.2,1.7-3.4s-1.1-2.4-2.6-1.8l-1.8.7-1.5,7.6ZM223.4,321.1l2.7,11.5c.3,1.2,1.4,1.7,2.8,1.1l8.5-3.5c1.3-.5,2.5-2,2.8-3.4l2.7-13.7-19.4,7.9Z"/>
        <path class="st0" d="M217.6,344.2v3l32.1-13.1v-3l-32.1,13.1Z"/>
        <path class="st0" d="M233.7,311c0-1.4.3-2.9,1-4.2v-.2c0,0,2.6-4.5,2.6-4.5.3-.5.4-1.1.4-1.7l2.7-1.1c0,1.3-.4,2.7-1,3.8l-2.5,4.4c-.3.7-.5,1.5-.5,2.3h0s-2.7,1.1-2.7,1.1Z"/>
      </g>
      <g>
        <path class="st9" d="M296.4,220.2l3.9.6v3.5l2.7-1.1v-3.5c0-1.1-.6-1.9-1.5-2.1l-3.9-.6v-3.5l-2.7,1.1v3.5c0,1.1.6,1.9,1.5,2.1Z"/>
        <path class="st9" d="M282.9,234.4v28.2l3.2-1.3,8-10.7,15.1-6.2,8,4.1,3.2-1.3v-28.2l-37.5,15.3ZM317.7,244.9l-7.5-3.9-17,6.9-7.5,10v-21.8l32.1-13.1v21.8Z"/>
        <path class="st9" d="M292.3,242.2c-.8.3-1.4,1.3-1.4,2.2s.6,1.3,1.4,1,1.4-1.3,1.4-2.2-.6-1.3-1.4-1Z"/>
        <path class="st9" d="M292.3,239.5c.8-.3,1.4-1.3,1.4-2.2s-.6-1.3-1.4-1-1.4,1.3-1.4,2.2.6,1.3,1.4,1Z"/>
        <path class="st9" d="M289.7,243.5c.8-.3,1.4-1.3,1.4-2.2s-.6-1.3-1.4-1-1.4,1.3-1.4,2.2.6,1.3,1.4,1Z"/>
        <path class="st9" d="M294.9,241.4c.8-.3,1.4-1.3,1.4-2.2s-.6-1.3-1.4-1-1.4,1.3-1.4,2.2.6,1.3,1.4,1Z"/>
        <path class="st9" d="M308.4,235.9c.8-.3,1.4-1.3,1.4-2.2s-.6-1.3-1.4-1-1.4,1.3-1.4,2.2.6,1.3,1.4,1Z"/>
        <path class="st9" d="M313.7,233.7c.8-.3,1.4-1.3,1.4-2.2s-.6-1.3-1.4-1-1.4,1.3-1.4,2.2.6,1.3,1.4,1Z"/>
      </g>
      <path class="st15" d="M190.2,235l-13.2,5.4-11.5,17.4v21.4l34.8-14.2v-22.9l-10.2-7.1ZM189.1,238.5l8,5.6-8.3,3.4-8-5.6,8.3-3.4ZM176.3,261.5v10.4l-8,3.3v-17.2l9.4-14.2,9.4,6.6v17.2l-8,3.3v-10.4l-2.7,1.1ZM197.7,263.1l-8,3.3v-16.3l8-3.3v16.3Z"/>
      <g>
        <path class="st2" d="M277.8,161h0c1-.4,1.8,0,1.9,1.1.1,1.1-.6,2.5-1.7,3-1,.6-2,.1-2.1-1-.1-1.2.8-2.7,1.9-3.1Z"/>
        <path class="st2" d="M277.8,168.9c-1.1.5-2,2-1.9,3.1.1,1.1,1.1,1.5,2.1,1,1.1-.6,1.8-1.9,1.7-3-.1-1-.9-1.5-1.9-1.1h0Z"/>
        <path class="st3" d="M290.5,157.6l-1.3.5c-2.2.9-4,3.6-4,6.1s1.8,3.7,4,2.8l1.3-.5v10.3l-37.5,15.3v-10.3l1.3-.5c2.2-.9,4-3.6,4-6.1s-1.8-3.7-4-2.8l-1.3.5v-10.4l37.5-15.3v10.4ZM287.8,175v-4.6c-3.1.6-5.4-1.5-5.4-5.1s2.3-7.5,5.4-9.4v-4.6l-8.1,3.3c-.1,1-.8,2-1.7,2.5-1,.6-2,.1-2.1-1l-20.2,8.2v4.6c3.1-.6,5.4,1.5,5.4,5.1s-2.3,7.5-5.4,9.4v4.6l20.2-8.2c0-1.1.9-2.5,1.9-2.9s1.9.2,1.9,1.3l8.1-3.3Z"/>
      </g>
    </g>
  </g>
</svg>